G04 #@! TF.FileFunction,Legend,Bot*
%FSLAX46Y46*%
G04 Gerber Fmt 4.6, Leading zero omitted, Abs format (unit mm)*
G04 Created by KiCad (PCBNEW 0.201503261001+5536~22~ubuntu14.04.1-product) date Mon 30 Mar 2015 17:35:05 CEST*
%MOMM*%
G01*
G04 APERTURE LIST*
%ADD10C,0.100000*%
%ADD11C,0.150000*%
%ADD12C,0.127000*%
%ADD13R,2.032000X2.032000*%
%ADD14O,2.032000X2.032000*%
%ADD15R,1.500000X1.500000*%
%ADD16C,1.500000*%
%ADD17C,1.600000*%
%ADD18O,1.600000X1.600000*%
%ADD19C,1.998980*%
G04 APERTURE END LIST*
D10*
D11*
X118427381Y-67746571D02*
X118284524Y-67794190D01*
X118236905Y-67841810D01*
X118189286Y-67937048D01*
X118189286Y-68079905D01*
X118236905Y-68175143D01*
X118284524Y-68222762D01*
X118379762Y-68270381D01*
X118760715Y-68270381D01*
X118760715Y-67270381D01*
X118427381Y-67270381D01*
X118332143Y-67318000D01*
X118284524Y-67365619D01*
X118236905Y-67460857D01*
X118236905Y-67556095D01*
X118284524Y-67651333D01*
X118332143Y-67698952D01*
X118427381Y-67746571D01*
X118760715Y-67746571D01*
X117332143Y-68270381D02*
X117332143Y-67746571D01*
X117379762Y-67651333D01*
X117475000Y-67603714D01*
X117665477Y-67603714D01*
X117760715Y-67651333D01*
X117332143Y-68222762D02*
X117427381Y-68270381D01*
X117665477Y-68270381D01*
X117760715Y-68222762D01*
X117808334Y-68127524D01*
X117808334Y-68032286D01*
X117760715Y-67937048D01*
X117665477Y-67889429D01*
X117427381Y-67889429D01*
X117332143Y-67841810D01*
X116998810Y-67603714D02*
X116617858Y-67603714D01*
X116855953Y-67270381D02*
X116855953Y-68127524D01*
X116808334Y-68222762D01*
X116713096Y-68270381D01*
X116617858Y-68270381D01*
X116427381Y-67603714D02*
X116046429Y-67603714D01*
X116284524Y-67270381D02*
X116284524Y-68127524D01*
X116236905Y-68222762D01*
X116141667Y-68270381D01*
X116046429Y-68270381D01*
D12*
X116154200Y-64128800D02*
X116154200Y-60328800D01*
X118154200Y-64128800D02*
X118154200Y-60328800D01*
D11*
X120104200Y-59078800D02*
X114204200Y-59078800D01*
X114204200Y-66928800D02*
X114204200Y-59078800D01*
X120104200Y-66928800D02*
X114204200Y-66928800D01*
X120104200Y-66928800D02*
X120104200Y-59078800D01*
D10*
G36*
X103354098Y-62778684D02*
X103355393Y-62870911D01*
X103355438Y-62872716D01*
X103361067Y-63095385D01*
X103408578Y-63119892D01*
X103472529Y-63141346D01*
X103539357Y-63143296D01*
X103603293Y-63125886D01*
X103625146Y-63114515D01*
X103658583Y-63096016D01*
X103674334Y-63092368D01*
X103674334Y-62718460D01*
X103679663Y-62648771D01*
X103696729Y-62595203D01*
X103727146Y-62554487D01*
X103770070Y-62524631D01*
X103839194Y-62500583D01*
X103916951Y-62493208D01*
X103995195Y-62501529D01*
X104065778Y-62524569D01*
X104120555Y-62561350D01*
X104126345Y-62567370D01*
X104144636Y-62600353D01*
X104155678Y-62646694D01*
X104159566Y-62700155D01*
X104156395Y-62754499D01*
X104146260Y-62803490D01*
X104129255Y-62840890D01*
X104122054Y-62849725D01*
X104065260Y-62892075D01*
X103995772Y-62919524D01*
X103919979Y-62931139D01*
X103844269Y-62925985D01*
X103775030Y-62903129D01*
X103770980Y-62901047D01*
X103723952Y-62868100D01*
X103693482Y-62825817D01*
X103677686Y-62770637D01*
X103674334Y-62718460D01*
X103674334Y-63092368D01*
X103683738Y-63090190D01*
X103715569Y-63094931D01*
X103733366Y-63099275D01*
X103781818Y-63106957D01*
X103849715Y-63112212D01*
X103915090Y-63113911D01*
X103993662Y-63112042D01*
X104056166Y-63104941D01*
X104120036Y-63090347D01*
X104140001Y-63084766D01*
X104258431Y-63041615D01*
X104351265Y-62986995D01*
X104419292Y-62920022D01*
X104463301Y-62839811D01*
X104484081Y-62745480D01*
X104486059Y-62697360D01*
X104477125Y-62615093D01*
X104449498Y-62544642D01*
X104400057Y-62479777D01*
X104356767Y-62439369D01*
X104270027Y-62381813D01*
X104167938Y-62340324D01*
X104055346Y-62314655D01*
X103937097Y-62304562D01*
X103818038Y-62309799D01*
X103703014Y-62330120D01*
X103596872Y-62365280D01*
X103504457Y-62415034D01*
X103430616Y-62479136D01*
X103424202Y-62486611D01*
X103400650Y-62518769D01*
X103382538Y-62553646D01*
X103369347Y-62594159D01*
X103360556Y-62643225D01*
X103355646Y-62703761D01*
X103354098Y-62778684D01*
X103354098Y-62778684D01*
X103354098Y-62778684D01*
G37*
X103354098Y-62778684D02*
X103355393Y-62870911D01*
X103355438Y-62872716D01*
X103361067Y-63095385D01*
X103408578Y-63119892D01*
X103472529Y-63141346D01*
X103539357Y-63143296D01*
X103603293Y-63125886D01*
X103625146Y-63114515D01*
X103658583Y-63096016D01*
X103674334Y-63092368D01*
X103674334Y-62718460D01*
X103679663Y-62648771D01*
X103696729Y-62595203D01*
X103727146Y-62554487D01*
X103770070Y-62524631D01*
X103839194Y-62500583D01*
X103916951Y-62493208D01*
X103995195Y-62501529D01*
X104065778Y-62524569D01*
X104120555Y-62561350D01*
X104126345Y-62567370D01*
X104144636Y-62600353D01*
X104155678Y-62646694D01*
X104159566Y-62700155D01*
X104156395Y-62754499D01*
X104146260Y-62803490D01*
X104129255Y-62840890D01*
X104122054Y-62849725D01*
X104065260Y-62892075D01*
X103995772Y-62919524D01*
X103919979Y-62931139D01*
X103844269Y-62925985D01*
X103775030Y-62903129D01*
X103770980Y-62901047D01*
X103723952Y-62868100D01*
X103693482Y-62825817D01*
X103677686Y-62770637D01*
X103674334Y-62718460D01*
X103674334Y-63092368D01*
X103683738Y-63090190D01*
X103715569Y-63094931D01*
X103733366Y-63099275D01*
X103781818Y-63106957D01*
X103849715Y-63112212D01*
X103915090Y-63113911D01*
X103993662Y-63112042D01*
X104056166Y-63104941D01*
X104120036Y-63090347D01*
X104140001Y-63084766D01*
X104258431Y-63041615D01*
X104351265Y-62986995D01*
X104419292Y-62920022D01*
X104463301Y-62839811D01*
X104484081Y-62745480D01*
X104486059Y-62697360D01*
X104477125Y-62615093D01*
X104449498Y-62544642D01*
X104400057Y-62479777D01*
X104356767Y-62439369D01*
X104270027Y-62381813D01*
X104167938Y-62340324D01*
X104055346Y-62314655D01*
X103937097Y-62304562D01*
X103818038Y-62309799D01*
X103703014Y-62330120D01*
X103596872Y-62365280D01*
X103504457Y-62415034D01*
X103430616Y-62479136D01*
X103424202Y-62486611D01*
X103400650Y-62518769D01*
X103382538Y-62553646D01*
X103369347Y-62594159D01*
X103360556Y-62643225D01*
X103355646Y-62703761D01*
X103354098Y-62778684D01*
X103354098Y-62778684D01*
G36*
X106637667Y-63023435D02*
X106651594Y-63054213D01*
X106686698Y-63085433D01*
X106732965Y-63109621D01*
X106764475Y-63118063D01*
X106799170Y-63121040D01*
X106832994Y-63117998D01*
X106869042Y-63107311D01*
X106910407Y-63087353D01*
X106960185Y-63056498D01*
X107021469Y-63013122D01*
X107097354Y-62955599D01*
X107146120Y-62917590D01*
X107213129Y-62865624D01*
X107273970Y-62819560D01*
X107325456Y-62781721D01*
X107364403Y-62754427D01*
X107387624Y-62740000D01*
X107392112Y-62738324D01*
X107413738Y-62744915D01*
X107447348Y-62761908D01*
X107462587Y-62771020D01*
X107484258Y-62785182D01*
X107499142Y-62798353D01*
X107508725Y-62814665D01*
X107514491Y-62838247D01*
X107517927Y-62873232D01*
X107520516Y-62923752D01*
X107520942Y-62933354D01*
X107523705Y-62987134D01*
X107527214Y-63024580D01*
X107532708Y-63049677D01*
X107541424Y-63066407D01*
X107554601Y-63078757D01*
X107569001Y-63088048D01*
X107624941Y-63110603D01*
X107689059Y-63120120D01*
X107746800Y-63114859D01*
X107783462Y-63100772D01*
X107814534Y-63083572D01*
X107821913Y-63078105D01*
X107828135Y-63071252D01*
X107833298Y-63061351D01*
X107837500Y-63046738D01*
X107840842Y-63025749D01*
X107843421Y-62996722D01*
X107845335Y-62957993D01*
X107846684Y-62907898D01*
X107847566Y-62844774D01*
X107848080Y-62766959D01*
X107848324Y-62672788D01*
X107848397Y-62560598D01*
X107848400Y-62512450D01*
X107848400Y-61963913D01*
X107797600Y-61939527D01*
X107736207Y-61920719D01*
X107669039Y-61916740D01*
X107605813Y-61926669D01*
X107556244Y-61949582D01*
X107540962Y-61963909D01*
X107536982Y-61978290D01*
X107532807Y-62010173D01*
X107528653Y-62056740D01*
X107524734Y-62115175D01*
X107521267Y-62182660D01*
X107518467Y-62256379D01*
X107518374Y-62259342D01*
X107509734Y-62537604D01*
X107228894Y-62385324D01*
X107145025Y-62340617D01*
X107067033Y-62300479D01*
X106999199Y-62267002D01*
X106945803Y-62242274D01*
X106911124Y-62228384D01*
X106903070Y-62226270D01*
X106849377Y-62226000D01*
X106790945Y-62236845D01*
X106742434Y-62255302D01*
X106723697Y-62269111D01*
X106710456Y-62294143D01*
X106705400Y-62322318D01*
X106708444Y-62337085D01*
X106719494Y-62353102D01*
X106741426Y-62372298D01*
X106777117Y-62396604D01*
X106829446Y-62427949D01*
X106901289Y-62468261D01*
X106995522Y-62519471D01*
X107015056Y-62529980D01*
X107146912Y-62600840D01*
X107014384Y-62702440D01*
X106914014Y-62779578D01*
X106832829Y-62842504D01*
X106768878Y-62892883D01*
X106720207Y-62932377D01*
X106684863Y-62962650D01*
X106660894Y-62985367D01*
X106646347Y-63002191D01*
X106639269Y-63014786D01*
X106637667Y-63023435D01*
X106637667Y-63023435D01*
X106637667Y-63023435D01*
G37*
X106637667Y-63023435D02*
X106651594Y-63054213D01*
X106686698Y-63085433D01*
X106732965Y-63109621D01*
X106764475Y-63118063D01*
X106799170Y-63121040D01*
X106832994Y-63117998D01*
X106869042Y-63107311D01*
X106910407Y-63087353D01*
X106960185Y-63056498D01*
X107021469Y-63013122D01*
X107097354Y-62955599D01*
X107146120Y-62917590D01*
X107213129Y-62865624D01*
X107273970Y-62819560D01*
X107325456Y-62781721D01*
X107364403Y-62754427D01*
X107387624Y-62740000D01*
X107392112Y-62738324D01*
X107413738Y-62744915D01*
X107447348Y-62761908D01*
X107462587Y-62771020D01*
X107484258Y-62785182D01*
X107499142Y-62798353D01*
X107508725Y-62814665D01*
X107514491Y-62838247D01*
X107517927Y-62873232D01*
X107520516Y-62923752D01*
X107520942Y-62933354D01*
X107523705Y-62987134D01*
X107527214Y-63024580D01*
X107532708Y-63049677D01*
X107541424Y-63066407D01*
X107554601Y-63078757D01*
X107569001Y-63088048D01*
X107624941Y-63110603D01*
X107689059Y-63120120D01*
X107746800Y-63114859D01*
X107783462Y-63100772D01*
X107814534Y-63083572D01*
X107821913Y-63078105D01*
X107828135Y-63071252D01*
X107833298Y-63061351D01*
X107837500Y-63046738D01*
X107840842Y-63025749D01*
X107843421Y-62996722D01*
X107845335Y-62957993D01*
X107846684Y-62907898D01*
X107847566Y-62844774D01*
X107848080Y-62766959D01*
X107848324Y-62672788D01*
X107848397Y-62560598D01*
X107848400Y-62512450D01*
X107848400Y-61963913D01*
X107797600Y-61939527D01*
X107736207Y-61920719D01*
X107669039Y-61916740D01*
X107605813Y-61926669D01*
X107556244Y-61949582D01*
X107540962Y-61963909D01*
X107536982Y-61978290D01*
X107532807Y-62010173D01*
X107528653Y-62056740D01*
X107524734Y-62115175D01*
X107521267Y-62182660D01*
X107518467Y-62256379D01*
X107518374Y-62259342D01*
X107509734Y-62537604D01*
X107228894Y-62385324D01*
X107145025Y-62340617D01*
X107067033Y-62300479D01*
X106999199Y-62267002D01*
X106945803Y-62242274D01*
X106911124Y-62228384D01*
X106903070Y-62226270D01*
X106849377Y-62226000D01*
X106790945Y-62236845D01*
X106742434Y-62255302D01*
X106723697Y-62269111D01*
X106710456Y-62294143D01*
X106705400Y-62322318D01*
X106708444Y-62337085D01*
X106719494Y-62353102D01*
X106741426Y-62372298D01*
X106777117Y-62396604D01*
X106829446Y-62427949D01*
X106901289Y-62468261D01*
X106995522Y-62519471D01*
X107015056Y-62529980D01*
X107146912Y-62600840D01*
X107014384Y-62702440D01*
X106914014Y-62779578D01*
X106832829Y-62842504D01*
X106768878Y-62892883D01*
X106720207Y-62932377D01*
X106684863Y-62962650D01*
X106660894Y-62985367D01*
X106646347Y-63002191D01*
X106639269Y-63014786D01*
X106637667Y-63023435D01*
X106637667Y-63023435D01*
G36*
X106097952Y-62524803D02*
X106098337Y-62598345D01*
X106099355Y-62689584D01*
X106099618Y-62709842D01*
X106104267Y-63062684D01*
X106146600Y-63088055D01*
X106202545Y-63110606D01*
X106266665Y-63120119D01*
X106324400Y-63114859D01*
X106361069Y-63100773D01*
X106392134Y-63083585D01*
X106401190Y-63076701D01*
X106408516Y-63067957D01*
X106414330Y-63055229D01*
X106418848Y-63036395D01*
X106422290Y-63009330D01*
X106424873Y-62971912D01*
X106426814Y-62922017D01*
X106428331Y-62857522D01*
X106429643Y-62776304D01*
X106430546Y-62709006D01*
X106431644Y-62614099D01*
X106432136Y-62537317D01*
X106431880Y-62476469D01*
X106430732Y-62429361D01*
X106428547Y-62393800D01*
X106425183Y-62367594D01*
X106420495Y-62348550D01*
X106414340Y-62334476D01*
X106406574Y-62323179D01*
X106405146Y-62321451D01*
X106360270Y-62286671D01*
X106303158Y-62268382D01*
X106241346Y-62266578D01*
X106182371Y-62281250D01*
X106133770Y-62312395D01*
X106125018Y-62321692D01*
X106116960Y-62332635D01*
X106110538Y-62345955D01*
X106105608Y-62363839D01*
X106102028Y-62388477D01*
X106099654Y-62422058D01*
X106098343Y-62466770D01*
X106097952Y-62524803D01*
X106097952Y-62524803D01*
X106097952Y-62524803D01*
G37*
X106097952Y-62524803D02*
X106098337Y-62598345D01*
X106099355Y-62689584D01*
X106099618Y-62709842D01*
X106104267Y-63062684D01*
X106146600Y-63088055D01*
X106202545Y-63110606D01*
X106266665Y-63120119D01*
X106324400Y-63114859D01*
X106361069Y-63100773D01*
X106392134Y-63083585D01*
X106401190Y-63076701D01*
X106408516Y-63067957D01*
X106414330Y-63055229D01*
X106418848Y-63036395D01*
X106422290Y-63009330D01*
X106424873Y-62971912D01*
X106426814Y-62922017D01*
X106428331Y-62857522D01*
X106429643Y-62776304D01*
X106430546Y-62709006D01*
X106431644Y-62614099D01*
X106432136Y-62537317D01*
X106431880Y-62476469D01*
X106430732Y-62429361D01*
X106428547Y-62393800D01*
X106425183Y-62367594D01*
X106420495Y-62348550D01*
X106414340Y-62334476D01*
X106406574Y-62323179D01*
X106405146Y-62321451D01*
X106360270Y-62286671D01*
X106303158Y-62268382D01*
X106241346Y-62266578D01*
X106182371Y-62281250D01*
X106133770Y-62312395D01*
X106125018Y-62321692D01*
X106116960Y-62332635D01*
X106110538Y-62345955D01*
X106105608Y-62363839D01*
X106102028Y-62388477D01*
X106099654Y-62422058D01*
X106098343Y-62466770D01*
X106097952Y-62524803D01*
X106097952Y-62524803D01*
G36*
X104763359Y-62402243D02*
X104779410Y-62439485D01*
X104817253Y-62469634D01*
X104873496Y-62489934D01*
X104941654Y-62492756D01*
X105012616Y-62478749D01*
X105102354Y-62460381D01*
X105198235Y-62456640D01*
X105290243Y-62467005D01*
X105368362Y-62490958D01*
X105382601Y-62497951D01*
X105430242Y-62531195D01*
X105462105Y-62573139D01*
X105480022Y-62627329D01*
X105485827Y-62697315D01*
X105485829Y-62697747D01*
X105479373Y-62770152D01*
X105458180Y-62826619D01*
X105420448Y-62869992D01*
X105364375Y-62903112D01*
X105352463Y-62908097D01*
X105283033Y-62925432D01*
X105197606Y-62931708D01*
X105108709Y-62926824D01*
X105029000Y-62910720D01*
X104961663Y-62894344D01*
X104905650Y-62892166D01*
X104848678Y-62903818D01*
X104844278Y-62905160D01*
X104795780Y-62930595D01*
X104768118Y-62966417D01*
X104767110Y-63004937D01*
X104767687Y-63006379D01*
X104796644Y-63036700D01*
X104853053Y-63064048D01*
X104930625Y-63087204D01*
X105023071Y-63104945D01*
X105124104Y-63116050D01*
X105227433Y-63119299D01*
X105321910Y-63114004D01*
X105450691Y-63090264D01*
X105565994Y-63049394D01*
X105663118Y-62993889D01*
X105737362Y-62926245D01*
X105772167Y-62874989D01*
X105810213Y-62772797D01*
X105818329Y-62670073D01*
X105796809Y-62570352D01*
X105745948Y-62477168D01*
X105738145Y-62466921D01*
X105666758Y-62398543D01*
X105573081Y-62343476D01*
X105461606Y-62302589D01*
X105336821Y-62276751D01*
X105203217Y-62266834D01*
X105065283Y-62273707D01*
X104927509Y-62298240D01*
X104902007Y-62304891D01*
X104825656Y-62333005D01*
X104779107Y-62366103D01*
X104763359Y-62402243D01*
X104763359Y-62402243D01*
X104763359Y-62402243D01*
G37*
X104763359Y-62402243D02*
X104779410Y-62439485D01*
X104817253Y-62469634D01*
X104873496Y-62489934D01*
X104941654Y-62492756D01*
X105012616Y-62478749D01*
X105102354Y-62460381D01*
X105198235Y-62456640D01*
X105290243Y-62467005D01*
X105368362Y-62490958D01*
X105382601Y-62497951D01*
X105430242Y-62531195D01*
X105462105Y-62573139D01*
X105480022Y-62627329D01*
X105485827Y-62697315D01*
X105485829Y-62697747D01*
X105479373Y-62770152D01*
X105458180Y-62826619D01*
X105420448Y-62869992D01*
X105364375Y-62903112D01*
X105352463Y-62908097D01*
X105283033Y-62925432D01*
X105197606Y-62931708D01*
X105108709Y-62926824D01*
X105029000Y-62910720D01*
X104961663Y-62894344D01*
X104905650Y-62892166D01*
X104848678Y-62903818D01*
X104844278Y-62905160D01*
X104795780Y-62930595D01*
X104768118Y-62966417D01*
X104767110Y-63004937D01*
X104767687Y-63006379D01*
X104796644Y-63036700D01*
X104853053Y-63064048D01*
X104930625Y-63087204D01*
X105023071Y-63104945D01*
X105124104Y-63116050D01*
X105227433Y-63119299D01*
X105321910Y-63114004D01*
X105450691Y-63090264D01*
X105565994Y-63049394D01*
X105663118Y-62993889D01*
X105737362Y-62926245D01*
X105772167Y-62874989D01*
X105810213Y-62772797D01*
X105818329Y-62670073D01*
X105796809Y-62570352D01*
X105745948Y-62477168D01*
X105738145Y-62466921D01*
X105666758Y-62398543D01*
X105573081Y-62343476D01*
X105461606Y-62302589D01*
X105336821Y-62276751D01*
X105203217Y-62266834D01*
X105065283Y-62273707D01*
X104927509Y-62298240D01*
X104902007Y-62304891D01*
X104825656Y-62333005D01*
X104779107Y-62366103D01*
X104763359Y-62402243D01*
X104763359Y-62402243D01*
G36*
X101882122Y-62554554D02*
X101882541Y-62628783D01*
X101883500Y-62692410D01*
X101884962Y-62743150D01*
X101886888Y-62778715D01*
X101889242Y-62796820D01*
X101889892Y-62798349D01*
X101898557Y-62822131D01*
X101898278Y-62830542D01*
X101902846Y-62851465D01*
X101918998Y-62884015D01*
X101942635Y-62921813D01*
X101969660Y-62958476D01*
X101995972Y-62987622D01*
X102003352Y-62994141D01*
X102030521Y-63011030D01*
X102052218Y-63015913D01*
X102054043Y-63015431D01*
X102062829Y-63015866D01*
X102059468Y-63020278D01*
X102063859Y-63033254D01*
X102093102Y-63050243D01*
X102139957Y-63068769D01*
X102197182Y-63086355D01*
X102201134Y-63087282D01*
X102201134Y-62679863D01*
X102201134Y-62542927D01*
X102257190Y-62509294D01*
X102333074Y-62476110D01*
X102418420Y-62459174D01*
X102505706Y-62458852D01*
X102587407Y-62475510D01*
X102625919Y-62491372D01*
X102685980Y-62533221D01*
X102724234Y-62587862D01*
X102741647Y-62656902D01*
X102743001Y-62686526D01*
X102738414Y-62748454D01*
X102722579Y-62797822D01*
X102692383Y-62841793D01*
X102662490Y-62871875D01*
X102603553Y-62908551D01*
X102527760Y-62930918D01*
X102443769Y-62938024D01*
X102360243Y-62928919D01*
X102303918Y-62911225D01*
X102265887Y-62891638D01*
X102238204Y-62867985D01*
X102219379Y-62836917D01*
X102207925Y-62795084D01*
X102202355Y-62739137D01*
X102201134Y-62679863D01*
X102201134Y-63087282D01*
X102257537Y-63100525D01*
X102313782Y-63108803D01*
X102319667Y-63109266D01*
X102354433Y-63112247D01*
X102395867Y-63116320D01*
X102442163Y-63118001D01*
X102504089Y-63116452D01*
X102539800Y-63114207D01*
X102634867Y-63100335D01*
X102733676Y-63075370D01*
X102823870Y-63043083D01*
X102893088Y-63007247D01*
X102895383Y-63005699D01*
X102932452Y-62975774D01*
X102972785Y-62936248D01*
X103003416Y-62900868D01*
X103024375Y-62872976D01*
X103038749Y-62849333D01*
X103047782Y-62825060D01*
X103052716Y-62795279D01*
X103054795Y-62755111D01*
X103055261Y-62699675D01*
X103055264Y-62697360D01*
X103054607Y-62638694D01*
X103051864Y-62595453D01*
X103046074Y-62562753D01*
X103036274Y-62535709D01*
X103021501Y-62509437D01*
X103016820Y-62502271D01*
X102953821Y-62432234D01*
X102868027Y-62373039D01*
X102764659Y-62326415D01*
X102648936Y-62294091D01*
X102526079Y-62277799D01*
X102401310Y-62279268D01*
X102358753Y-62284211D01*
X102300295Y-62293203D01*
X102252111Y-62301531D01*
X102230767Y-62305958D01*
X102219538Y-62307453D01*
X102211560Y-62303482D01*
X102206283Y-62291256D01*
X102203156Y-62267986D01*
X102201629Y-62230881D01*
X102201154Y-62177153D01*
X102201134Y-62155666D01*
X102200942Y-62095738D01*
X102199812Y-62052545D01*
X102196914Y-62022502D01*
X102191414Y-62002024D01*
X102182483Y-61987527D01*
X102169289Y-61975425D01*
X102157295Y-61966619D01*
X102102507Y-61941554D01*
X102038263Y-61934235D01*
X101972287Y-61944897D01*
X101935378Y-61959871D01*
X101887867Y-61984383D01*
X101883056Y-62383441D01*
X101882281Y-62472011D01*
X101882122Y-62554554D01*
X101882122Y-62554554D01*
X101882122Y-62554554D01*
G37*
X101882122Y-62554554D02*
X101882541Y-62628783D01*
X101883500Y-62692410D01*
X101884962Y-62743150D01*
X101886888Y-62778715D01*
X101889242Y-62796820D01*
X101889892Y-62798349D01*
X101898557Y-62822131D01*
X101898278Y-62830542D01*
X101902846Y-62851465D01*
X101918998Y-62884015D01*
X101942635Y-62921813D01*
X101969660Y-62958476D01*
X101995972Y-62987622D01*
X102003352Y-62994141D01*
X102030521Y-63011030D01*
X102052218Y-63015913D01*
X102054043Y-63015431D01*
X102062829Y-63015866D01*
X102059468Y-63020278D01*
X102063859Y-63033254D01*
X102093102Y-63050243D01*
X102139957Y-63068769D01*
X102197182Y-63086355D01*
X102201134Y-63087282D01*
X102201134Y-62679863D01*
X102201134Y-62542927D01*
X102257190Y-62509294D01*
X102333074Y-62476110D01*
X102418420Y-62459174D01*
X102505706Y-62458852D01*
X102587407Y-62475510D01*
X102625919Y-62491372D01*
X102685980Y-62533221D01*
X102724234Y-62587862D01*
X102741647Y-62656902D01*
X102743001Y-62686526D01*
X102738414Y-62748454D01*
X102722579Y-62797822D01*
X102692383Y-62841793D01*
X102662490Y-62871875D01*
X102603553Y-62908551D01*
X102527760Y-62930918D01*
X102443769Y-62938024D01*
X102360243Y-62928919D01*
X102303918Y-62911225D01*
X102265887Y-62891638D01*
X102238204Y-62867985D01*
X102219379Y-62836917D01*
X102207925Y-62795084D01*
X102202355Y-62739137D01*
X102201134Y-62679863D01*
X102201134Y-63087282D01*
X102257537Y-63100525D01*
X102313782Y-63108803D01*
X102319667Y-63109266D01*
X102354433Y-63112247D01*
X102395867Y-63116320D01*
X102442163Y-63118001D01*
X102504089Y-63116452D01*
X102539800Y-63114207D01*
X102634867Y-63100335D01*
X102733676Y-63075370D01*
X102823870Y-63043083D01*
X102893088Y-63007247D01*
X102895383Y-63005699D01*
X102932452Y-62975774D01*
X102972785Y-62936248D01*
X103003416Y-62900868D01*
X103024375Y-62872976D01*
X103038749Y-62849333D01*
X103047782Y-62825060D01*
X103052716Y-62795279D01*
X103054795Y-62755111D01*
X103055261Y-62699675D01*
X103055264Y-62697360D01*
X103054607Y-62638694D01*
X103051864Y-62595453D01*
X103046074Y-62562753D01*
X103036274Y-62535709D01*
X103021501Y-62509437D01*
X103016820Y-62502271D01*
X102953821Y-62432234D01*
X102868027Y-62373039D01*
X102764659Y-62326415D01*
X102648936Y-62294091D01*
X102526079Y-62277799D01*
X102401310Y-62279268D01*
X102358753Y-62284211D01*
X102300295Y-62293203D01*
X102252111Y-62301531D01*
X102230767Y-62305958D01*
X102219538Y-62307453D01*
X102211560Y-62303482D01*
X102206283Y-62291256D01*
X102203156Y-62267986D01*
X102201629Y-62230881D01*
X102201154Y-62177153D01*
X102201134Y-62155666D01*
X102200942Y-62095738D01*
X102199812Y-62052545D01*
X102196914Y-62022502D01*
X102191414Y-62002024D01*
X102182483Y-61987527D01*
X102169289Y-61975425D01*
X102157295Y-61966619D01*
X102102507Y-61941554D01*
X102038263Y-61934235D01*
X101972287Y-61944897D01*
X101935378Y-61959871D01*
X101887867Y-61984383D01*
X101883056Y-62383441D01*
X101882281Y-62472011D01*
X101882122Y-62554554D01*
X101882122Y-62554554D01*
G36*
X108212467Y-63044831D02*
X108270040Y-63079375D01*
X108327614Y-63113920D01*
X108398734Y-63113880D01*
X108398734Y-63002160D01*
X108398734Y-62510495D01*
X108398734Y-62018830D01*
X108750100Y-61810903D01*
X108848642Y-61752688D01*
X108947296Y-61694586D01*
X109041209Y-61639441D01*
X109125532Y-61590098D01*
X109195410Y-61549401D01*
X109245401Y-61520535D01*
X109389334Y-61438094D01*
X109986234Y-61437807D01*
X110583134Y-61437520D01*
X110583134Y-62219840D01*
X110583134Y-63002160D01*
X109490934Y-63002160D01*
X108398734Y-63002160D01*
X108398734Y-63113880D01*
X109476540Y-63113275D01*
X109671507Y-63113046D01*
X109857042Y-63112597D01*
X110030283Y-63111948D01*
X110188369Y-63111121D01*
X110328439Y-63110139D01*
X110447631Y-63109022D01*
X110543083Y-63107793D01*
X110611935Y-63106473D01*
X110651325Y-63105085D01*
X110659334Y-63104315D01*
X110695943Y-63090539D01*
X110727067Y-63073412D01*
X110733205Y-63068916D01*
X110738553Y-63063266D01*
X110743165Y-63055118D01*
X110747095Y-63043125D01*
X110750399Y-63025940D01*
X110753131Y-63002217D01*
X110755344Y-62970610D01*
X110757094Y-62929772D01*
X110758435Y-62878358D01*
X110759421Y-62815021D01*
X110760106Y-62738414D01*
X110760546Y-62647191D01*
X110760794Y-62540007D01*
X110760905Y-62415514D01*
X110760933Y-62272367D01*
X110760934Y-62235551D01*
X110760836Y-62081931D01*
X110760522Y-61947449D01*
X110759961Y-61830924D01*
X110759121Y-61731173D01*
X110757971Y-61647015D01*
X110756479Y-61577269D01*
X110754616Y-61520753D01*
X110752349Y-61476285D01*
X110749648Y-61442684D01*
X110746480Y-61418768D01*
X110742815Y-61403355D01*
X110738744Y-61395398D01*
X110725560Y-61381366D01*
X110711258Y-61369975D01*
X110692365Y-61360927D01*
X110665407Y-61353925D01*
X110626911Y-61348671D01*
X110573403Y-61344867D01*
X110501409Y-61342214D01*
X110407455Y-61340416D01*
X110288070Y-61339175D01*
X110139777Y-61338192D01*
X110066667Y-61337777D01*
X109926205Y-61337190D01*
X109793062Y-61337008D01*
X109671924Y-61337209D01*
X109567478Y-61337772D01*
X109484410Y-61338676D01*
X109427409Y-61339896D01*
X109406267Y-61340871D01*
X109382349Y-61342640D01*
X109361623Y-61344944D01*
X109341156Y-61349211D01*
X109318014Y-61356867D01*
X109289261Y-61369339D01*
X109251965Y-61388055D01*
X109203190Y-61414441D01*
X109140002Y-61449924D01*
X109059467Y-61495930D01*
X108958652Y-61553888D01*
X108906390Y-61583958D01*
X108831278Y-61627170D01*
X108740693Y-61679287D01*
X108643606Y-61735146D01*
X108548986Y-61789589D01*
X108499990Y-61817781D01*
X108425523Y-61861112D01*
X108357930Y-61901343D01*
X108301730Y-61935716D01*
X108261440Y-61961468D01*
X108242212Y-61975261D01*
X108235593Y-61982384D01*
X108230036Y-61992176D01*
X108225450Y-62006346D01*
X108221741Y-62026602D01*
X108218818Y-62054653D01*
X108216588Y-62092208D01*
X108214958Y-62140976D01*
X108213836Y-62202665D01*
X108213130Y-62278984D01*
X108212746Y-62371642D01*
X108212594Y-62482348D01*
X108212579Y-62523115D01*
X108212467Y-63044831D01*
X108212467Y-63044831D01*
X108212467Y-63044831D01*
G37*
X108212467Y-63044831D02*
X108270040Y-63079375D01*
X108327614Y-63113920D01*
X108398734Y-63113880D01*
X108398734Y-63002160D01*
X108398734Y-62510495D01*
X108398734Y-62018830D01*
X108750100Y-61810903D01*
X108848642Y-61752688D01*
X108947296Y-61694586D01*
X109041209Y-61639441D01*
X109125532Y-61590098D01*
X109195410Y-61549401D01*
X109245401Y-61520535D01*
X109389334Y-61438094D01*
X109986234Y-61437807D01*
X110583134Y-61437520D01*
X110583134Y-62219840D01*
X110583134Y-63002160D01*
X109490934Y-63002160D01*
X108398734Y-63002160D01*
X108398734Y-63113880D01*
X109476540Y-63113275D01*
X109671507Y-63113046D01*
X109857042Y-63112597D01*
X110030283Y-63111948D01*
X110188369Y-63111121D01*
X110328439Y-63110139D01*
X110447631Y-63109022D01*
X110543083Y-63107793D01*
X110611935Y-63106473D01*
X110651325Y-63105085D01*
X110659334Y-63104315D01*
X110695943Y-63090539D01*
X110727067Y-63073412D01*
X110733205Y-63068916D01*
X110738553Y-63063266D01*
X110743165Y-63055118D01*
X110747095Y-63043125D01*
X110750399Y-63025940D01*
X110753131Y-63002217D01*
X110755344Y-62970610D01*
X110757094Y-62929772D01*
X110758435Y-62878358D01*
X110759421Y-62815021D01*
X110760106Y-62738414D01*
X110760546Y-62647191D01*
X110760794Y-62540007D01*
X110760905Y-62415514D01*
X110760933Y-62272367D01*
X110760934Y-62235551D01*
X110760836Y-62081931D01*
X110760522Y-61947449D01*
X110759961Y-61830924D01*
X110759121Y-61731173D01*
X110757971Y-61647015D01*
X110756479Y-61577269D01*
X110754616Y-61520753D01*
X110752349Y-61476285D01*
X110749648Y-61442684D01*
X110746480Y-61418768D01*
X110742815Y-61403355D01*
X110738744Y-61395398D01*
X110725560Y-61381366D01*
X110711258Y-61369975D01*
X110692365Y-61360927D01*
X110665407Y-61353925D01*
X110626911Y-61348671D01*
X110573403Y-61344867D01*
X110501409Y-61342214D01*
X110407455Y-61340416D01*
X110288070Y-61339175D01*
X110139777Y-61338192D01*
X110066667Y-61337777D01*
X109926205Y-61337190D01*
X109793062Y-61337008D01*
X109671924Y-61337209D01*
X109567478Y-61337772D01*
X109484410Y-61338676D01*
X109427409Y-61339896D01*
X109406267Y-61340871D01*
X109382349Y-61342640D01*
X109361623Y-61344944D01*
X109341156Y-61349211D01*
X109318014Y-61356867D01*
X109289261Y-61369339D01*
X109251965Y-61388055D01*
X109203190Y-61414441D01*
X109140002Y-61449924D01*
X109059467Y-61495930D01*
X108958652Y-61553888D01*
X108906390Y-61583958D01*
X108831278Y-61627170D01*
X108740693Y-61679287D01*
X108643606Y-61735146D01*
X108548986Y-61789589D01*
X108499990Y-61817781D01*
X108425523Y-61861112D01*
X108357930Y-61901343D01*
X108301730Y-61935716D01*
X108261440Y-61961468D01*
X108242212Y-61975261D01*
X108235593Y-61982384D01*
X108230036Y-61992176D01*
X108225450Y-62006346D01*
X108221741Y-62026602D01*
X108218818Y-62054653D01*
X108216588Y-62092208D01*
X108214958Y-62140976D01*
X108213836Y-62202665D01*
X108213130Y-62278984D01*
X108212746Y-62371642D01*
X108212594Y-62482348D01*
X108212579Y-62523115D01*
X108212467Y-63044831D01*
X108212467Y-63044831D01*
G36*
X106107040Y-61995620D02*
X106107078Y-62036918D01*
X106130822Y-62075184D01*
X106172672Y-62102329D01*
X106235887Y-62116258D01*
X106305948Y-62115168D01*
X106367987Y-62099422D01*
X106372287Y-62097479D01*
X106414462Y-62066542D01*
X106430148Y-62029922D01*
X106422179Y-61992108D01*
X106393386Y-61957589D01*
X106346602Y-61930852D01*
X106284658Y-61916386D01*
X106257170Y-61915040D01*
X106208494Y-61923583D01*
X106159502Y-61945191D01*
X106121438Y-61973827D01*
X106107040Y-61995620D01*
X106107040Y-61995620D01*
X106107040Y-61995620D01*
G37*
X106107040Y-61995620D02*
X106107078Y-62036918D01*
X106130822Y-62075184D01*
X106172672Y-62102329D01*
X106235887Y-62116258D01*
X106305948Y-62115168D01*
X106367987Y-62099422D01*
X106372287Y-62097479D01*
X106414462Y-62066542D01*
X106430148Y-62029922D01*
X106422179Y-61992108D01*
X106393386Y-61957589D01*
X106346602Y-61930852D01*
X106284658Y-61916386D01*
X106257170Y-61915040D01*
X106208494Y-61923583D01*
X106159502Y-61945191D01*
X106121438Y-61973827D01*
X106107040Y-61995620D01*
X106107040Y-61995620D01*
G36*
X108212467Y-61560656D02*
X108212914Y-61627445D01*
X108214514Y-61676801D01*
X108217658Y-61711605D01*
X108222738Y-61734738D01*
X108230144Y-61749083D01*
X108239077Y-61756834D01*
X108261373Y-61768061D01*
X108284621Y-61773521D01*
X108311925Y-61772020D01*
X108346392Y-61762365D01*
X108391126Y-61743363D01*
X108449233Y-61713821D01*
X108523817Y-61672547D01*
X108617986Y-61618346D01*
X108653682Y-61597540D01*
X108747048Y-61542850D01*
X108818767Y-61500237D01*
X108871641Y-61467714D01*
X108908474Y-61443298D01*
X108932069Y-61425004D01*
X108945229Y-61410848D01*
X108950756Y-61398844D01*
X108951453Y-61387009D01*
X108951435Y-61386720D01*
X108949067Y-61351160D01*
X108601973Y-61348401D01*
X108483966Y-61347611D01*
X108395288Y-61347494D01*
X108331411Y-61348229D01*
X108287808Y-61349998D01*
X108259951Y-61352979D01*
X108243312Y-61357353D01*
X108233673Y-61363043D01*
X108225062Y-61377737D01*
X108218829Y-61406749D01*
X108214794Y-61451741D01*
X108212780Y-61514376D01*
X108212467Y-61560656D01*
X108212467Y-61560656D01*
X108212467Y-61560656D01*
G37*
X108212467Y-61560656D02*
X108212914Y-61627445D01*
X108214514Y-61676801D01*
X108217658Y-61711605D01*
X108222738Y-61734738D01*
X108230144Y-61749083D01*
X108239077Y-61756834D01*
X108261373Y-61768061D01*
X108284621Y-61773521D01*
X108311925Y-61772020D01*
X108346392Y-61762365D01*
X108391126Y-61743363D01*
X108449233Y-61713821D01*
X108523817Y-61672547D01*
X108617986Y-61618346D01*
X108653682Y-61597540D01*
X108747048Y-61542850D01*
X108818767Y-61500237D01*
X108871641Y-61467714D01*
X108908474Y-61443298D01*
X108932069Y-61425004D01*
X108945229Y-61410848D01*
X108950756Y-61398844D01*
X108951453Y-61387009D01*
X108951435Y-61386720D01*
X108949067Y-61351160D01*
X108601973Y-61348401D01*
X108483966Y-61347611D01*
X108395288Y-61347494D01*
X108331411Y-61348229D01*
X108287808Y-61349998D01*
X108259951Y-61352979D01*
X108243312Y-61357353D01*
X108233673Y-61363043D01*
X108225062Y-61377737D01*
X108218829Y-61406749D01*
X108214794Y-61451741D01*
X108212780Y-61514376D01*
X108212467Y-61560656D01*
X108212467Y-61560656D01*
G36*
X108517267Y-62595760D02*
X108518575Y-62602588D01*
X108525371Y-62607687D01*
X108541967Y-62611307D01*
X108572673Y-62613703D01*
X108621800Y-62615125D01*
X108693660Y-62615826D01*
X108792563Y-62616059D01*
X108864400Y-62616080D01*
X109211534Y-62616080D01*
X109211534Y-62738000D01*
X109211866Y-62789465D01*
X109213487Y-62823980D01*
X109217330Y-62844910D01*
X109224333Y-62855623D01*
X109235430Y-62859486D01*
X109245401Y-62859920D01*
X109258802Y-62858864D01*
X109268109Y-62853617D01*
X109274065Y-62841055D01*
X109277414Y-62818055D01*
X109278899Y-62781495D01*
X109279263Y-62728252D01*
X109279267Y-62717680D01*
X109279267Y-62575440D01*
X108898267Y-62575440D01*
X108775328Y-62575505D01*
X108682140Y-62575846D01*
X108614586Y-62576683D01*
X108568550Y-62578236D01*
X108539916Y-62580724D01*
X108524569Y-62584366D01*
X108518391Y-62589383D01*
X108517267Y-62595760D01*
X108517267Y-62595760D01*
X108517267Y-62595760D01*
G37*
X108517267Y-62595760D02*
X108518575Y-62602588D01*
X108525371Y-62607687D01*
X108541967Y-62611307D01*
X108572673Y-62613703D01*
X108621800Y-62615125D01*
X108693660Y-62615826D01*
X108792563Y-62616059D01*
X108864400Y-62616080D01*
X109211534Y-62616080D01*
X109211534Y-62738000D01*
X109211866Y-62789465D01*
X109213487Y-62823980D01*
X109217330Y-62844910D01*
X109224333Y-62855623D01*
X109235430Y-62859486D01*
X109245401Y-62859920D01*
X109258802Y-62858864D01*
X109268109Y-62853617D01*
X109274065Y-62841055D01*
X109277414Y-62818055D01*
X109278899Y-62781495D01*
X109279263Y-62728252D01*
X109279267Y-62717680D01*
X109279267Y-62575440D01*
X108898267Y-62575440D01*
X108775328Y-62575505D01*
X108682140Y-62575846D01*
X108614586Y-62576683D01*
X108568550Y-62578236D01*
X108539916Y-62580724D01*
X108524569Y-62584366D01*
X108518391Y-62589383D01*
X108517267Y-62595760D01*
X108517267Y-62595760D01*
G36*
X108500288Y-62235746D02*
X108589743Y-62288753D01*
X108636798Y-62315914D01*
X108671099Y-62331730D01*
X108672876Y-62332139D01*
X108672876Y-62239787D01*
X108678520Y-62223875D01*
X108680314Y-62222106D01*
X108693925Y-62214155D01*
X108719121Y-62208690D01*
X108762012Y-62205110D01*
X108828707Y-62202812D01*
X108887373Y-62201727D01*
X109076067Y-62198854D01*
X109076067Y-62234747D01*
X109076067Y-62270640D01*
X108902501Y-62270316D01*
X108811708Y-62269131D01*
X108749263Y-62265702D01*
X108709784Y-62259628D01*
X108695441Y-62254803D01*
X108672876Y-62239787D01*
X108672876Y-62332139D01*
X108703766Y-62339266D01*
X108745916Y-62341590D01*
X108781898Y-62341760D01*
X108848261Y-62340984D01*
X108932635Y-62338926D01*
X109019283Y-62335989D01*
X109039599Y-62335158D01*
X109194601Y-62328557D01*
X109194601Y-62299333D01*
X109194601Y-62270110D01*
X109452834Y-62272915D01*
X109711067Y-62275720D01*
X109711641Y-62308766D01*
X109716990Y-62329071D01*
X109735446Y-62350365D01*
X109771725Y-62377036D01*
X109812711Y-62402746D01*
X109913207Y-62463680D01*
X109813611Y-62524067D01*
X109767107Y-62553010D01*
X109736356Y-62576222D01*
X109717997Y-62599229D01*
X109708670Y-62627560D01*
X109705012Y-62666745D01*
X109704012Y-62704336D01*
X109702600Y-62777352D01*
X109647567Y-62780536D01*
X109607470Y-62786294D01*
X109594576Y-62798688D01*
X109594650Y-62801500D01*
X109597774Y-62826284D01*
X109598884Y-62834520D01*
X109606144Y-62841986D01*
X109629292Y-62846632D01*
X109674157Y-62849030D01*
X109746568Y-62849756D01*
X109753400Y-62849760D01*
X109905800Y-62849760D01*
X109905800Y-62814200D01*
X109902969Y-62790308D01*
X109888605Y-62780509D01*
X109855000Y-62778640D01*
X109804200Y-62778640D01*
X109804200Y-62699260D01*
X109805154Y-62658399D01*
X109809747Y-62632018D01*
X109820572Y-62614287D01*
X109840227Y-62599378D01*
X109851694Y-62592580D01*
X109890535Y-62572146D01*
X109912087Y-62567662D01*
X109921182Y-62579688D01*
X109922734Y-62600840D01*
X109925589Y-62624739D01*
X109939926Y-62634542D01*
X109972792Y-62636400D01*
X110022850Y-62636400D01*
X110027825Y-62562740D01*
X110032801Y-62489080D01*
X110231767Y-62486217D01*
X110430734Y-62483355D01*
X110430734Y-62453197D01*
X110430734Y-62423040D01*
X110227534Y-62423040D01*
X110024334Y-62423040D01*
X110024334Y-62351920D01*
X110024334Y-62280800D01*
X109973534Y-62280800D01*
X109940960Y-62282404D01*
X109926480Y-62291101D01*
X109922814Y-62312713D01*
X109922734Y-62321440D01*
X109919154Y-62350465D01*
X109906235Y-62360364D01*
X109880705Y-62352001D01*
X109857952Y-62338565D01*
X109840610Y-62325267D01*
X109829706Y-62309066D01*
X109823798Y-62285186D01*
X109821443Y-62248850D01*
X109821134Y-62216645D01*
X109821134Y-62118240D01*
X109871934Y-62118240D01*
X109922734Y-62118240D01*
X109922734Y-61956323D01*
X109922734Y-61794407D01*
X109867700Y-61791223D01*
X109812667Y-61788040D01*
X109807928Y-61658500D01*
X109803189Y-61528960D01*
X109752895Y-61528960D01*
X109702600Y-61528960D01*
X109702600Y-61661040D01*
X109702600Y-61793120D01*
X109651800Y-61793120D01*
X109601000Y-61793120D01*
X109601000Y-61955036D01*
X109601000Y-62116952D01*
X109656034Y-62120136D01*
X109690882Y-62123803D01*
X109702600Y-62130517D01*
X109702600Y-62057280D01*
X109702600Y-61955680D01*
X109702600Y-61854080D01*
X109753400Y-61854080D01*
X109804200Y-61854080D01*
X109804200Y-61955680D01*
X109804200Y-62057280D01*
X109753400Y-62057280D01*
X109702600Y-62057280D01*
X109702600Y-62130517D01*
X109707818Y-62133507D01*
X109714783Y-62155360D01*
X109716274Y-62166500D01*
X109721481Y-62209679D01*
X109458041Y-62209680D01*
X109194601Y-62209680D01*
X109194601Y-62169040D01*
X109194601Y-62128400D01*
X108935789Y-62128400D01*
X108676977Y-62128400D01*
X108588632Y-62182073D01*
X108500288Y-62235746D01*
X108500288Y-62235746D01*
X108500288Y-62235746D01*
G37*
X108500288Y-62235746D02*
X108589743Y-62288753D01*
X108636798Y-62315914D01*
X108671099Y-62331730D01*
X108672876Y-62332139D01*
X108672876Y-62239787D01*
X108678520Y-62223875D01*
X108680314Y-62222106D01*
X108693925Y-62214155D01*
X108719121Y-62208690D01*
X108762012Y-62205110D01*
X108828707Y-62202812D01*
X108887373Y-62201727D01*
X109076067Y-62198854D01*
X109076067Y-62234747D01*
X109076067Y-62270640D01*
X108902501Y-62270316D01*
X108811708Y-62269131D01*
X108749263Y-62265702D01*
X108709784Y-62259628D01*
X108695441Y-62254803D01*
X108672876Y-62239787D01*
X108672876Y-62332139D01*
X108703766Y-62339266D01*
X108745916Y-62341590D01*
X108781898Y-62341760D01*
X108848261Y-62340984D01*
X108932635Y-62338926D01*
X109019283Y-62335989D01*
X109039599Y-62335158D01*
X109194601Y-62328557D01*
X109194601Y-62299333D01*
X109194601Y-62270110D01*
X109452834Y-62272915D01*
X109711067Y-62275720D01*
X109711641Y-62308766D01*
X109716990Y-62329071D01*
X109735446Y-62350365D01*
X109771725Y-62377036D01*
X109812711Y-62402746D01*
X109913207Y-62463680D01*
X109813611Y-62524067D01*
X109767107Y-62553010D01*
X109736356Y-62576222D01*
X109717997Y-62599229D01*
X109708670Y-62627560D01*
X109705012Y-62666745D01*
X109704012Y-62704336D01*
X109702600Y-62777352D01*
X109647567Y-62780536D01*
X109607470Y-62786294D01*
X109594576Y-62798688D01*
X109594650Y-62801500D01*
X109597774Y-62826284D01*
X109598884Y-62834520D01*
X109606144Y-62841986D01*
X109629292Y-62846632D01*
X109674157Y-62849030D01*
X109746568Y-62849756D01*
X109753400Y-62849760D01*
X109905800Y-62849760D01*
X109905800Y-62814200D01*
X109902969Y-62790308D01*
X109888605Y-62780509D01*
X109855000Y-62778640D01*
X109804200Y-62778640D01*
X109804200Y-62699260D01*
X109805154Y-62658399D01*
X109809747Y-62632018D01*
X109820572Y-62614287D01*
X109840227Y-62599378D01*
X109851694Y-62592580D01*
X109890535Y-62572146D01*
X109912087Y-62567662D01*
X109921182Y-62579688D01*
X109922734Y-62600840D01*
X109925589Y-62624739D01*
X109939926Y-62634542D01*
X109972792Y-62636400D01*
X110022850Y-62636400D01*
X110027825Y-62562740D01*
X110032801Y-62489080D01*
X110231767Y-62486217D01*
X110430734Y-62483355D01*
X110430734Y-62453197D01*
X110430734Y-62423040D01*
X110227534Y-62423040D01*
X110024334Y-62423040D01*
X110024334Y-62351920D01*
X110024334Y-62280800D01*
X109973534Y-62280800D01*
X109940960Y-62282404D01*
X109926480Y-62291101D01*
X109922814Y-62312713D01*
X109922734Y-62321440D01*
X109919154Y-62350465D01*
X109906235Y-62360364D01*
X109880705Y-62352001D01*
X109857952Y-62338565D01*
X109840610Y-62325267D01*
X109829706Y-62309066D01*
X109823798Y-62285186D01*
X109821443Y-62248850D01*
X109821134Y-62216645D01*
X109821134Y-62118240D01*
X109871934Y-62118240D01*
X109922734Y-62118240D01*
X109922734Y-61956323D01*
X109922734Y-61794407D01*
X109867700Y-61791223D01*
X109812667Y-61788040D01*
X109807928Y-61658500D01*
X109803189Y-61528960D01*
X109752895Y-61528960D01*
X109702600Y-61528960D01*
X109702600Y-61661040D01*
X109702600Y-61793120D01*
X109651800Y-61793120D01*
X109601000Y-61793120D01*
X109601000Y-61955036D01*
X109601000Y-62116952D01*
X109656034Y-62120136D01*
X109690882Y-62123803D01*
X109702600Y-62130517D01*
X109702600Y-62057280D01*
X109702600Y-61955680D01*
X109702600Y-61854080D01*
X109753400Y-61854080D01*
X109804200Y-61854080D01*
X109804200Y-61955680D01*
X109804200Y-62057280D01*
X109753400Y-62057280D01*
X109702600Y-62057280D01*
X109702600Y-62130517D01*
X109707818Y-62133507D01*
X109714783Y-62155360D01*
X109716274Y-62166500D01*
X109721481Y-62209679D01*
X109458041Y-62209680D01*
X109194601Y-62209680D01*
X109194601Y-62169040D01*
X109194601Y-62128400D01*
X108935789Y-62128400D01*
X108676977Y-62128400D01*
X108588632Y-62182073D01*
X108500288Y-62235746D01*
X108500288Y-62235746D01*
G36*
X108534200Y-62849760D02*
X108635800Y-62849760D01*
X108737400Y-62849760D01*
X108737400Y-62814200D01*
X108737400Y-62778640D01*
X108635800Y-62778640D01*
X108534200Y-62778640D01*
X108534200Y-62814200D01*
X108534200Y-62849760D01*
X108534200Y-62849760D01*
X108534200Y-62849760D01*
G37*
X108534200Y-62849760D02*
X108635800Y-62849760D01*
X108737400Y-62849760D01*
X108737400Y-62814200D01*
X108737400Y-62778640D01*
X108635800Y-62778640D01*
X108534200Y-62778640D01*
X108534200Y-62814200D01*
X108534200Y-62849760D01*
X108534200Y-62849760D01*
G36*
X108957534Y-62814200D02*
X108959464Y-62827853D01*
X108970355Y-62835459D01*
X108997858Y-62838780D01*
X109049624Y-62839585D01*
X109067601Y-62839600D01*
X109126768Y-62839154D01*
X109159723Y-62836641D01*
X109174118Y-62830294D01*
X109177604Y-62818348D01*
X109177667Y-62814200D01*
X109175737Y-62800546D01*
X109164846Y-62792940D01*
X109137343Y-62789619D01*
X109085577Y-62788814D01*
X109067601Y-62788800D01*
X109008433Y-62789245D01*
X108975478Y-62791758D01*
X108961083Y-62798105D01*
X108957597Y-62810051D01*
X108957534Y-62814200D01*
X108957534Y-62814200D01*
X108957534Y-62814200D01*
G37*
X108957534Y-62814200D02*
X108959464Y-62827853D01*
X108970355Y-62835459D01*
X108997858Y-62838780D01*
X109049624Y-62839585D01*
X109067601Y-62839600D01*
X109126768Y-62839154D01*
X109159723Y-62836641D01*
X109174118Y-62830294D01*
X109177604Y-62818348D01*
X109177667Y-62814200D01*
X109175737Y-62800546D01*
X109164846Y-62792940D01*
X109137343Y-62789619D01*
X109085577Y-62788814D01*
X109067601Y-62788800D01*
X109008433Y-62789245D01*
X108975478Y-62791758D01*
X108961083Y-62798105D01*
X108957597Y-62810051D01*
X108957534Y-62814200D01*
X108957534Y-62814200D01*
G36*
X108957534Y-62671960D02*
X108959685Y-62686037D01*
X108971440Y-62693637D01*
X109000752Y-62696748D01*
X109055573Y-62697359D01*
X109059134Y-62697360D01*
X109115442Y-62696822D01*
X109145843Y-62693883D01*
X109158288Y-62686555D01*
X109160732Y-62672850D01*
X109160734Y-62671960D01*
X109158583Y-62657882D01*
X109146827Y-62650282D01*
X109117516Y-62647171D01*
X109062695Y-62646560D01*
X109059134Y-62646560D01*
X109002826Y-62647097D01*
X108972425Y-62650036D01*
X108959979Y-62657364D01*
X108957536Y-62671069D01*
X108957534Y-62671960D01*
X108957534Y-62671960D01*
X108957534Y-62671960D01*
G37*
X108957534Y-62671960D02*
X108959685Y-62686037D01*
X108971440Y-62693637D01*
X109000752Y-62696748D01*
X109055573Y-62697359D01*
X109059134Y-62697360D01*
X109115442Y-62696822D01*
X109145843Y-62693883D01*
X109158288Y-62686555D01*
X109160732Y-62672850D01*
X109160734Y-62671960D01*
X109158583Y-62657882D01*
X109146827Y-62650282D01*
X109117516Y-62647171D01*
X109062695Y-62646560D01*
X109059134Y-62646560D01*
X109002826Y-62647097D01*
X108972425Y-62650036D01*
X108959979Y-62657364D01*
X108957536Y-62671069D01*
X108957534Y-62671960D01*
X108957534Y-62671960D01*
G36*
X108536246Y-62685288D02*
X108543605Y-62692004D01*
X108565580Y-62695612D01*
X108608419Y-62697076D01*
X108678370Y-62697359D01*
X108685423Y-62697360D01*
X108757899Y-62697170D01*
X108803002Y-62695874D01*
X108827223Y-62692381D01*
X108837054Y-62685602D01*
X108838990Y-62674444D01*
X108839000Y-62671564D01*
X108839000Y-62645768D01*
X108690834Y-62648704D01*
X108619575Y-62650468D01*
X108575351Y-62653073D01*
X108551334Y-62657668D01*
X108540696Y-62665400D01*
X108537256Y-62674500D01*
X108536246Y-62685288D01*
X108536246Y-62685288D01*
X108536246Y-62685288D01*
G37*
X108536246Y-62685288D02*
X108543605Y-62692004D01*
X108565580Y-62695612D01*
X108608419Y-62697076D01*
X108678370Y-62697359D01*
X108685423Y-62697360D01*
X108757899Y-62697170D01*
X108803002Y-62695874D01*
X108827223Y-62692381D01*
X108837054Y-62685602D01*
X108838990Y-62674444D01*
X108839000Y-62671564D01*
X108839000Y-62645768D01*
X108690834Y-62648704D01*
X108619575Y-62650468D01*
X108575351Y-62653073D01*
X108551334Y-62657668D01*
X108540696Y-62665400D01*
X108537256Y-62674500D01*
X108536246Y-62685288D01*
X108536246Y-62685288D01*
D11*
X121406581Y-63238324D02*
X120406581Y-63238324D01*
X120406581Y-63619277D01*
X120454200Y-63714515D01*
X120501819Y-63762134D01*
X120597057Y-63809753D01*
X120739914Y-63809753D01*
X120835152Y-63762134D01*
X120882771Y-63714515D01*
X120930390Y-63619277D01*
X120930390Y-63238324D01*
X121406581Y-64762134D02*
X121406581Y-64190705D01*
X121406581Y-64476419D02*
X120406581Y-64476419D01*
X120549438Y-64381181D01*
X120644676Y-64285943D01*
X120692295Y-64190705D01*
X120406581Y-65381181D02*
X120406581Y-65476420D01*
X120454200Y-65571658D01*
X120501819Y-65619277D01*
X120597057Y-65666896D01*
X120787533Y-65714515D01*
X121025629Y-65714515D01*
X121216105Y-65666896D01*
X121311343Y-65619277D01*
X121358962Y-65571658D01*
X121406581Y-65476420D01*
X121406581Y-65381181D01*
X121358962Y-65285943D01*
X121311343Y-65238324D01*
X121216105Y-65190705D01*
X121025629Y-65143086D01*
X120787533Y-65143086D01*
X120597057Y-65190705D01*
X120501819Y-65238324D01*
X120454200Y-65285943D01*
X120406581Y-65381181D01*
X120501819Y-66095467D02*
X120454200Y-66143086D01*
X120406581Y-66238324D01*
X120406581Y-66476420D01*
X120454200Y-66571658D01*
X120501819Y-66619277D01*
X120597057Y-66666896D01*
X120692295Y-66666896D01*
X120835152Y-66619277D01*
X121406581Y-66047848D01*
X121406581Y-66666896D01*
%LPC*%
D13*
X113385600Y-81483200D03*
D14*
X110845600Y-81483200D03*
D15*
X118154200Y-65328800D03*
D16*
X116154200Y-65328800D03*
D17*
X95730600Y-60490100D03*
D18*
X89130600Y-60490100D03*
D19*
X109412498Y-67819998D03*
X116596702Y-75004202D03*
M02*
