G04 #@! TF.FileFunction,Copper,L1,Top,Signal*
%FSLAX46Y46*%
G04 Gerber Fmt 4.6, Leading zero omitted, Abs format (unit mm)*
G04 Created by KiCad (PCBNEW 0.201503261001+5536~22~ubuntu14.04.1-product) date Sun 29 Mar 2015 21:21:47 CEST*
%MOMM*%
G01*
G04 APERTURE LIST*
%ADD10C,0.100000*%
%ADD11R,2.000000X1.600000*%
%ADD12R,1.198880X1.198880*%
%ADD13R,2.032000X2.032000*%
%ADD14O,2.032000X2.032000*%
%ADD15R,1.500000X1.300000*%
%ADD16R,1.300000X1.500000*%
%ADD17R,1.400000X0.300000*%
%ADD18R,1.500000X1.500000*%
%ADD19C,1.500000*%
%ADD20R,0.400000X1.350000*%
%ADD21R,1.600000X1.400000*%
%ADD22R,1.900000X1.900000*%
%ADD23C,1.600000*%
%ADD24O,1.600000X1.600000*%
%ADD25C,1.998980*%
%ADD26C,0.685800*%
%ADD27C,0.152400*%
%ADD28C,0.609600*%
%ADD29C,0.254000*%
G04 APERTURE END LIST*
D10*
D11*
X98203000Y-69977000D03*
X102203000Y-69977000D03*
X118954300Y-68681600D03*
X114954300Y-68681600D03*
D12*
X123941840Y-81534000D03*
X121843800Y-81534000D03*
X94581980Y-78359000D03*
X96680020Y-78359000D03*
X94581980Y-74676000D03*
X96680020Y-74676000D03*
D13*
X113385600Y-81483200D03*
D14*
X110845600Y-81483200D03*
D15*
X99107000Y-74676000D03*
X101807000Y-74676000D03*
X101807000Y-78359000D03*
X99107000Y-78359000D03*
D16*
X119075200Y-81461600D03*
X119075200Y-78761600D03*
X116382800Y-81461600D03*
X116382800Y-78761600D03*
D15*
X107692200Y-77241400D03*
X110392200Y-77241400D03*
D16*
X89357200Y-67064900D03*
X89357200Y-69764900D03*
X91897200Y-67128400D03*
X91897200Y-69828400D03*
X94589600Y-67115700D03*
X94589600Y-69815700D03*
D17*
X105496000Y-72787000D03*
X105496000Y-73287000D03*
X105496000Y-73787000D03*
X105496000Y-74287000D03*
X105496000Y-74787000D03*
X109896000Y-74787000D03*
X109896000Y-74287000D03*
X109896000Y-73787000D03*
X109896000Y-73287000D03*
X109896000Y-72787000D03*
D18*
X118154200Y-65328800D03*
D19*
X116154200Y-65328800D03*
D20*
X93730600Y-63140100D03*
X91780600Y-63140100D03*
X92430600Y-63140100D03*
X93080600Y-63140100D03*
X91130600Y-63140100D03*
D21*
X95630600Y-62940100D03*
X89230600Y-62940100D03*
D22*
X93630600Y-60490100D03*
X91230600Y-60490100D03*
D23*
X95730600Y-60490100D03*
D24*
X89130600Y-60490100D03*
D25*
X109412498Y-67819998D03*
X116596702Y-75004202D03*
D26*
X106680000Y-81153000D03*
X114173000Y-70612000D03*
X103886000Y-60452000D03*
X107823000Y-74803000D03*
X107823000Y-72644000D03*
X107823000Y-70739000D03*
X106680000Y-82931000D03*
X105537000Y-76200000D03*
X104648000Y-77343000D03*
X104648000Y-79375000D03*
X106680000Y-79375000D03*
X108839000Y-79375000D03*
X108839000Y-81153000D03*
X104648000Y-81153000D03*
X104648000Y-82931000D03*
X108839000Y-82931000D03*
X111379000Y-79375000D03*
X116205000Y-62738000D03*
X116205000Y-60452000D03*
X114173000Y-60452000D03*
X109601000Y-60452000D03*
X106553000Y-60452000D03*
X101092000Y-60452000D03*
X101092000Y-62738000D03*
X106553000Y-62738000D03*
X109601000Y-62738000D03*
X114173000Y-62738000D03*
X114173000Y-64770000D03*
X109601000Y-64770000D03*
X106553000Y-64770000D03*
X101092000Y-64770000D03*
X101092000Y-67437000D03*
X106553000Y-67310000D03*
X106553000Y-69723000D03*
X104521000Y-69723000D03*
X110363000Y-69723000D03*
X112268000Y-69723000D03*
X112395000Y-67310000D03*
X103886000Y-62738000D03*
X103886000Y-64770000D03*
X103886000Y-67310000D03*
X112141000Y-60452000D03*
X112141000Y-62738000D03*
X112141000Y-64770000D03*
X88011000Y-71882000D03*
X90551000Y-72517000D03*
X91948000Y-72517000D03*
X93345000Y-72517000D03*
X94869000Y-72517000D03*
X96266000Y-72517000D03*
X97663000Y-72517000D03*
X89154000Y-72517000D03*
X103124000Y-72517000D03*
X101473000Y-72517000D03*
X99695000Y-72517000D03*
X96139000Y-70993000D03*
X96266000Y-69850000D03*
X96266000Y-67691000D03*
X96266000Y-66421000D03*
X96266000Y-65024000D03*
X94869000Y-65024000D03*
X99187000Y-67818000D03*
X97663000Y-67691000D03*
X97663000Y-66421000D03*
X99187000Y-66421000D03*
X99187000Y-65024000D03*
X97663000Y-65024000D03*
X88265000Y-65278000D03*
X123571000Y-73025000D03*
X121285000Y-72898000D03*
X119126000Y-72898000D03*
X118110000Y-62738000D03*
X118110000Y-60452000D03*
X120142000Y-60452000D03*
X122428000Y-60452000D03*
X124587000Y-60452000D03*
X124587000Y-62738000D03*
X122428000Y-62738000D03*
X120142000Y-62738000D03*
X120142000Y-64770000D03*
X122428000Y-64770000D03*
X124587000Y-64770000D03*
X124587000Y-67310000D03*
X122428000Y-67310000D03*
X122428000Y-69723000D03*
X124587000Y-69723000D03*
X112522000Y-72644000D03*
X114173000Y-72644000D03*
X116205000Y-72644000D03*
X118110000Y-71628000D03*
X120142000Y-71628000D03*
X122428000Y-71628000D03*
X124587000Y-71628000D03*
D27*
X112268000Y-69723000D02*
X113284000Y-69723000D01*
X113284000Y-69723000D02*
X114173000Y-70612000D01*
X106553000Y-69723000D02*
X106807000Y-69723000D01*
X107823000Y-72644000D02*
X107823000Y-74803000D01*
X106807000Y-69723000D02*
X107823000Y-70739000D01*
X108839000Y-79375000D02*
X106680000Y-79375000D01*
X104648000Y-79375000D02*
X104648000Y-77343000D01*
X108839000Y-81153000D02*
X108839000Y-79375000D01*
X104521000Y-82804000D02*
X104648000Y-81153000D01*
X104648000Y-82931000D02*
X104521000Y-82804000D01*
X108839000Y-82931000D02*
X110286800Y-81483200D01*
X110845600Y-81483200D02*
X110286800Y-81483200D01*
X91130600Y-63140100D02*
X89430600Y-63140100D01*
X89430600Y-63140100D02*
X89230600Y-62940100D01*
X91130600Y-63140100D02*
X91130600Y-61443700D01*
X91130600Y-61443700D02*
X91122500Y-61451800D01*
X91122500Y-61451800D02*
X91122500Y-61709300D01*
X91122500Y-61709300D02*
X91122500Y-61451800D01*
D28*
X95642200Y-62928500D02*
X93630600Y-60916900D01*
X93630600Y-60916900D02*
X91657400Y-60916900D01*
X91657400Y-60916900D02*
X91122500Y-61451800D01*
X91122500Y-61451800D02*
X89634200Y-62940100D01*
X89634200Y-62940100D02*
X89230600Y-62940100D01*
D29*
X105496000Y-75955800D02*
X105549700Y-76009500D01*
X105496000Y-74787000D02*
X105496000Y-75955800D01*
X107349800Y-74787000D02*
X107378500Y-74815700D01*
X105496000Y-74787000D02*
X107349800Y-74787000D01*
D27*
X95630600Y-62940100D02*
X102818100Y-62940100D01*
X116154200Y-62788800D02*
X116205000Y-62738000D01*
X116205000Y-60452000D02*
X116078000Y-60325000D01*
X116078000Y-60325000D02*
X114173000Y-60452000D01*
X109601000Y-60452000D02*
X106553000Y-60452000D01*
X101092000Y-60452000D02*
X101092000Y-61722000D01*
X101092000Y-61722000D02*
X101092000Y-62738000D01*
X106553000Y-62738000D02*
X109601000Y-62738000D01*
X114173000Y-62738000D02*
X114173000Y-64770000D01*
X109601000Y-64770000D02*
X106553000Y-64770000D01*
X101092000Y-64770000D02*
X101092000Y-67437000D01*
X106553000Y-67310000D02*
X106553000Y-69723000D01*
X116154200Y-65328800D02*
X116154200Y-62788800D01*
X110363000Y-69723000D02*
X112268000Y-69723000D01*
X112141000Y-60452000D02*
X112141000Y-60325000D01*
D29*
X121843800Y-81534000D02*
X119147600Y-81534000D01*
D27*
X119147600Y-81534000D02*
X119075200Y-81461600D01*
X96680020Y-78359000D02*
X99107000Y-78359000D01*
X96680020Y-74676000D02*
X99107000Y-74676000D01*
D28*
X113385600Y-81483200D02*
X116361200Y-81483200D01*
X116361200Y-81483200D02*
X116382800Y-81461600D01*
D27*
X101807000Y-74676000D02*
X102743000Y-74803000D01*
X103759000Y-73787000D02*
X105496000Y-73787000D01*
X102743000Y-74803000D02*
X103759000Y-73787000D01*
X101807000Y-78359000D02*
X102997000Y-78359000D01*
X104148000Y-74287000D02*
X105496000Y-74287000D01*
X103251000Y-75184000D02*
X104148000Y-74287000D01*
X103251000Y-78105000D02*
X103251000Y-75184000D01*
X102997000Y-78359000D02*
X103251000Y-78105000D01*
X101807000Y-78359000D02*
X101981000Y-78359000D01*
X116382800Y-78761600D02*
X116382800Y-78661600D01*
X116382800Y-78661600D02*
X112008200Y-74287000D01*
X112008200Y-74287000D02*
X110748400Y-74287000D01*
X110748400Y-74287000D02*
X109896000Y-74287000D01*
D29*
X119075200Y-78761600D02*
X116382800Y-78761600D01*
X109956600Y-74847600D02*
X109896000Y-74787000D01*
X109956600Y-77110600D02*
X109956600Y-74847600D01*
D27*
X90551000Y-72517000D02*
X91948000Y-72517000D01*
X93345000Y-72517000D02*
X93472000Y-72390000D01*
X93472000Y-72390000D02*
X94869000Y-72517000D01*
X96266000Y-72517000D02*
X97663000Y-72517000D01*
X89230200Y-72440800D02*
X89154000Y-72517000D01*
X89357200Y-69764900D02*
X89230200Y-72440800D01*
X99695000Y-72517000D02*
X101473000Y-72517000D01*
D29*
X94581980Y-74676000D02*
X94581980Y-72814180D01*
X93730600Y-63140100D02*
X93730600Y-64069100D01*
X93730600Y-64069100D02*
X94234000Y-64572500D01*
X123941840Y-81534000D02*
X123941840Y-82387440D01*
X123941840Y-82387440D02*
X122052080Y-84277200D01*
X94581980Y-79212440D02*
X94581980Y-78359000D01*
X122052080Y-84277200D02*
X99646740Y-84277200D01*
X99646740Y-84277200D02*
X94581980Y-79212440D01*
D28*
X94581980Y-78359000D02*
X94581980Y-74676000D01*
X94488000Y-74582020D02*
X94581980Y-74676000D01*
D29*
X105496000Y-73287000D02*
X105496000Y-72050000D01*
X105496000Y-72050000D02*
X105537000Y-72009000D01*
X105496000Y-73287000D02*
X103894000Y-73287000D01*
X103894000Y-73287000D02*
X103886000Y-73279000D01*
X105496000Y-72787000D02*
X104029000Y-72787000D01*
X104029000Y-72787000D02*
X104013000Y-72771000D01*
D27*
X96139000Y-70993000D02*
X96266000Y-70866000D01*
X96266000Y-70866000D02*
X96266000Y-69850000D01*
X96266000Y-67691000D02*
X96266000Y-66421000D01*
X96266000Y-65024000D02*
X94869000Y-65024000D01*
X96266000Y-65024000D02*
X97663000Y-65024000D01*
X97663000Y-66421000D02*
X97663000Y-67691000D01*
X99187000Y-65024000D02*
X99187000Y-66421000D01*
X88011000Y-71882000D02*
X88011000Y-65278000D01*
X88011000Y-65278000D02*
X88265000Y-65278000D01*
X118110000Y-71628000D02*
X118110000Y-71882000D01*
X121412000Y-73025000D02*
X123571000Y-73025000D01*
X121285000Y-72898000D02*
X121412000Y-73025000D01*
X118110000Y-71882000D02*
X119126000Y-72898000D01*
X118154200Y-62782200D02*
X118110000Y-62738000D01*
X118110000Y-60452000D02*
X120142000Y-60452000D01*
X122428000Y-60452000D02*
X124587000Y-60452000D01*
X124587000Y-62738000D02*
X122428000Y-62738000D01*
X120142000Y-62738000D02*
X120142000Y-64770000D01*
X122428000Y-64770000D02*
X124587000Y-64770000D01*
X124587000Y-67310000D02*
X122428000Y-67310000D01*
X122428000Y-69723000D02*
X124587000Y-69723000D01*
X118154200Y-65328800D02*
X118154200Y-62782200D01*
X116205000Y-72644000D02*
X114173000Y-72644000D01*
X120142000Y-71628000D02*
X118110000Y-71628000D01*
X124587000Y-71628000D02*
X122428000Y-71628000D01*
D29*
X109905800Y-72777200D02*
X109905800Y-72059800D01*
X109896000Y-72787000D02*
X109905800Y-72777200D01*
X109896000Y-73287000D02*
X109896000Y-72787000D01*
X111617000Y-72787000D02*
X111645700Y-72758300D01*
X109896000Y-72787000D02*
X111617000Y-72787000D01*
X111612300Y-73287000D02*
X111645700Y-73253600D01*
X109896000Y-73287000D02*
X111612300Y-73287000D01*
D27*
X113663002Y-75004202D02*
X112445800Y-73787000D01*
X112445800Y-73787000D02*
X109896000Y-73787000D01*
X116596702Y-75004202D02*
X113663002Y-75004202D01*
D29*
X89357200Y-67064900D02*
X89357200Y-66586100D01*
X89357200Y-66586100D02*
X90817700Y-65125600D01*
X90817700Y-65125600D02*
X91757500Y-65125600D01*
X91757500Y-65125600D02*
X91780600Y-65102500D01*
X91780600Y-65102500D02*
X91780600Y-63140100D01*
X91897200Y-67128400D02*
X91897200Y-65646300D01*
X92430600Y-65112900D02*
X92430600Y-63140100D01*
X91897200Y-65646300D02*
X92430600Y-65112900D01*
X94589600Y-67115700D02*
X94589600Y-66649600D01*
X94589600Y-66649600D02*
X93080600Y-65140600D01*
X93080600Y-65140600D02*
X93080600Y-63140100D01*
G36*
X106299000Y-72002000D02*
X105781750Y-72002000D01*
X105647750Y-72136000D01*
X105344250Y-72136000D01*
X105210250Y-72002000D01*
X104669691Y-72002000D01*
X104436302Y-72098673D01*
X104398974Y-72136000D01*
X104140000Y-72136000D01*
X104140000Y-73075800D01*
X103759000Y-73075800D01*
X103486835Y-73129937D01*
X103264876Y-73278246D01*
X98076000Y-73274344D01*
X98076000Y-71253250D01*
X98076000Y-70104000D01*
X98076000Y-69850000D01*
X98076000Y-68700750D01*
X97917250Y-68542000D01*
X97076691Y-68542000D01*
X96843302Y-68638673D01*
X96664673Y-68817301D01*
X96568000Y-69050690D01*
X96568000Y-69303309D01*
X96568000Y-69691250D01*
X96726750Y-69850000D01*
X98076000Y-69850000D01*
X98076000Y-70104000D01*
X96726750Y-70104000D01*
X96568000Y-70262750D01*
X96568000Y-70650691D01*
X96568000Y-70903310D01*
X96664673Y-71136699D01*
X96843302Y-71315327D01*
X97076691Y-71412000D01*
X97917250Y-71412000D01*
X98076000Y-71253250D01*
X98076000Y-73274344D01*
X95874600Y-73272689D01*
X95874600Y-70692009D01*
X95874600Y-70101450D01*
X95715850Y-69942700D01*
X94716600Y-69942700D01*
X94716600Y-71041950D01*
X94875350Y-71200700D01*
X95113291Y-71200700D01*
X95365910Y-71200700D01*
X95599299Y-71104027D01*
X95777927Y-70925398D01*
X95874600Y-70692009D01*
X95874600Y-73272689D01*
X94462600Y-73271628D01*
X94462600Y-71041950D01*
X94462600Y-69942700D01*
X93463350Y-69942700D01*
X93304600Y-70101450D01*
X93304600Y-70692009D01*
X93401273Y-70925398D01*
X93579901Y-71104027D01*
X93813290Y-71200700D01*
X94065909Y-71200700D01*
X94303850Y-71200700D01*
X94462600Y-71041950D01*
X94462600Y-73271628D01*
X93182200Y-73270665D01*
X93182200Y-70704709D01*
X93182200Y-70114150D01*
X93023450Y-69955400D01*
X92024200Y-69955400D01*
X92024200Y-71054650D01*
X92182950Y-71213400D01*
X92420891Y-71213400D01*
X92673510Y-71213400D01*
X92906899Y-71116727D01*
X93085527Y-70938098D01*
X93182200Y-70704709D01*
X93182200Y-73270665D01*
X91770200Y-73269603D01*
X91770200Y-71054650D01*
X91770200Y-69955400D01*
X90770950Y-69955400D01*
X90642200Y-70084150D01*
X90642200Y-70050650D01*
X90483450Y-69891900D01*
X89484200Y-69891900D01*
X89484200Y-70991150D01*
X89642950Y-71149900D01*
X89880891Y-71149900D01*
X90133510Y-71149900D01*
X90366899Y-71053227D01*
X90545527Y-70874598D01*
X90614048Y-70709172D01*
X90708873Y-70938098D01*
X90887501Y-71116727D01*
X91120890Y-71213400D01*
X91373509Y-71213400D01*
X91611450Y-71213400D01*
X91770200Y-71054650D01*
X91770200Y-73269603D01*
X89230200Y-73267694D01*
X89230200Y-70991150D01*
X89230200Y-69891900D01*
X88230950Y-69891900D01*
X88072200Y-70050650D01*
X88072200Y-70641209D01*
X88168873Y-70874598D01*
X88347501Y-71053227D01*
X88580890Y-71149900D01*
X88833509Y-71149900D01*
X89071450Y-71149900D01*
X89230200Y-70991150D01*
X89230200Y-73267694D01*
X87807000Y-73266624D01*
X87807000Y-64465973D01*
X90451647Y-64471348D01*
X90278885Y-64586785D01*
X89198210Y-65667460D01*
X88707200Y-65667460D01*
X88465077Y-65714437D01*
X88252273Y-65854227D01*
X88109823Y-66065260D01*
X88059760Y-66314900D01*
X88059760Y-67814900D01*
X88106737Y-68057023D01*
X88246527Y-68269827D01*
X88457560Y-68412277D01*
X88487991Y-68418379D01*
X88347501Y-68476573D01*
X88168873Y-68655202D01*
X88072200Y-68888591D01*
X88072200Y-69479150D01*
X88230950Y-69637900D01*
X89230200Y-69637900D01*
X89230200Y-69617900D01*
X89484200Y-69617900D01*
X89484200Y-69637900D01*
X90483450Y-69637900D01*
X90612200Y-69509150D01*
X90612200Y-69542650D01*
X90770950Y-69701400D01*
X91770200Y-69701400D01*
X91770200Y-69681400D01*
X92024200Y-69681400D01*
X92024200Y-69701400D01*
X93023450Y-69701400D01*
X93182200Y-69542650D01*
X93182200Y-68952091D01*
X93085527Y-68718702D01*
X92906899Y-68540073D01*
X92768757Y-68482853D01*
X92789323Y-68478863D01*
X93002127Y-68339073D01*
X93144577Y-68128040D01*
X93194640Y-67878400D01*
X93194640Y-66378400D01*
X93183535Y-66321165D01*
X93292160Y-66429790D01*
X93292160Y-67865700D01*
X93339137Y-68107823D01*
X93478927Y-68320627D01*
X93689960Y-68463077D01*
X93720391Y-68469179D01*
X93579901Y-68527373D01*
X93401273Y-68706002D01*
X93304600Y-68939391D01*
X93304600Y-69529950D01*
X93463350Y-69688700D01*
X94462600Y-69688700D01*
X94462600Y-69668700D01*
X94716600Y-69668700D01*
X94716600Y-69688700D01*
X95715850Y-69688700D01*
X95874600Y-69529950D01*
X95874600Y-68939391D01*
X95777927Y-68706002D01*
X95599299Y-68527373D01*
X95461157Y-68470153D01*
X95481723Y-68466163D01*
X95694527Y-68326373D01*
X95836977Y-68115340D01*
X95887040Y-67865700D01*
X95887040Y-66365700D01*
X95840063Y-66123577D01*
X95700273Y-65910773D01*
X95489240Y-65768323D01*
X95239600Y-65718260D01*
X94735890Y-65718260D01*
X93842600Y-64824969D01*
X93842600Y-64478240D01*
X99797042Y-64490343D01*
X99812774Y-68989790D01*
X99741327Y-68817301D01*
X99562698Y-68638673D01*
X99329309Y-68542000D01*
X98488750Y-68542000D01*
X98330000Y-68700750D01*
X98330000Y-69850000D01*
X98350000Y-69850000D01*
X98350000Y-70104000D01*
X98330000Y-70104000D01*
X98330000Y-71253250D01*
X98488750Y-71412000D01*
X99329309Y-71412000D01*
X99562698Y-71315327D01*
X99741327Y-71136699D01*
X99819620Y-70947682D01*
X99822443Y-71755000D01*
X106299000Y-71755000D01*
X106299000Y-72002000D01*
X106299000Y-72002000D01*
G37*
X106299000Y-72002000D02*
X105781750Y-72002000D01*
X105647750Y-72136000D01*
X105344250Y-72136000D01*
X105210250Y-72002000D01*
X104669691Y-72002000D01*
X104436302Y-72098673D01*
X104398974Y-72136000D01*
X104140000Y-72136000D01*
X104140000Y-73075800D01*
X103759000Y-73075800D01*
X103486835Y-73129937D01*
X103264876Y-73278246D01*
X98076000Y-73274344D01*
X98076000Y-71253250D01*
X98076000Y-70104000D01*
X98076000Y-69850000D01*
X98076000Y-68700750D01*
X97917250Y-68542000D01*
X97076691Y-68542000D01*
X96843302Y-68638673D01*
X96664673Y-68817301D01*
X96568000Y-69050690D01*
X96568000Y-69303309D01*
X96568000Y-69691250D01*
X96726750Y-69850000D01*
X98076000Y-69850000D01*
X98076000Y-70104000D01*
X96726750Y-70104000D01*
X96568000Y-70262750D01*
X96568000Y-70650691D01*
X96568000Y-70903310D01*
X96664673Y-71136699D01*
X96843302Y-71315327D01*
X97076691Y-71412000D01*
X97917250Y-71412000D01*
X98076000Y-71253250D01*
X98076000Y-73274344D01*
X95874600Y-73272689D01*
X95874600Y-70692009D01*
X95874600Y-70101450D01*
X95715850Y-69942700D01*
X94716600Y-69942700D01*
X94716600Y-71041950D01*
X94875350Y-71200700D01*
X95113291Y-71200700D01*
X95365910Y-71200700D01*
X95599299Y-71104027D01*
X95777927Y-70925398D01*
X95874600Y-70692009D01*
X95874600Y-73272689D01*
X94462600Y-73271628D01*
X94462600Y-71041950D01*
X94462600Y-69942700D01*
X93463350Y-69942700D01*
X93304600Y-70101450D01*
X93304600Y-70692009D01*
X93401273Y-70925398D01*
X93579901Y-71104027D01*
X93813290Y-71200700D01*
X94065909Y-71200700D01*
X94303850Y-71200700D01*
X94462600Y-71041950D01*
X94462600Y-73271628D01*
X93182200Y-73270665D01*
X93182200Y-70704709D01*
X93182200Y-70114150D01*
X93023450Y-69955400D01*
X92024200Y-69955400D01*
X92024200Y-71054650D01*
X92182950Y-71213400D01*
X92420891Y-71213400D01*
X92673510Y-71213400D01*
X92906899Y-71116727D01*
X93085527Y-70938098D01*
X93182200Y-70704709D01*
X93182200Y-73270665D01*
X91770200Y-73269603D01*
X91770200Y-71054650D01*
X91770200Y-69955400D01*
X90770950Y-69955400D01*
X90642200Y-70084150D01*
X90642200Y-70050650D01*
X90483450Y-69891900D01*
X89484200Y-69891900D01*
X89484200Y-70991150D01*
X89642950Y-71149900D01*
X89880891Y-71149900D01*
X90133510Y-71149900D01*
X90366899Y-71053227D01*
X90545527Y-70874598D01*
X90614048Y-70709172D01*
X90708873Y-70938098D01*
X90887501Y-71116727D01*
X91120890Y-71213400D01*
X91373509Y-71213400D01*
X91611450Y-71213400D01*
X91770200Y-71054650D01*
X91770200Y-73269603D01*
X89230200Y-73267694D01*
X89230200Y-70991150D01*
X89230200Y-69891900D01*
X88230950Y-69891900D01*
X88072200Y-70050650D01*
X88072200Y-70641209D01*
X88168873Y-70874598D01*
X88347501Y-71053227D01*
X88580890Y-71149900D01*
X88833509Y-71149900D01*
X89071450Y-71149900D01*
X89230200Y-70991150D01*
X89230200Y-73267694D01*
X87807000Y-73266624D01*
X87807000Y-64465973D01*
X90451647Y-64471348D01*
X90278885Y-64586785D01*
X89198210Y-65667460D01*
X88707200Y-65667460D01*
X88465077Y-65714437D01*
X88252273Y-65854227D01*
X88109823Y-66065260D01*
X88059760Y-66314900D01*
X88059760Y-67814900D01*
X88106737Y-68057023D01*
X88246527Y-68269827D01*
X88457560Y-68412277D01*
X88487991Y-68418379D01*
X88347501Y-68476573D01*
X88168873Y-68655202D01*
X88072200Y-68888591D01*
X88072200Y-69479150D01*
X88230950Y-69637900D01*
X89230200Y-69637900D01*
X89230200Y-69617900D01*
X89484200Y-69617900D01*
X89484200Y-69637900D01*
X90483450Y-69637900D01*
X90612200Y-69509150D01*
X90612200Y-69542650D01*
X90770950Y-69701400D01*
X91770200Y-69701400D01*
X91770200Y-69681400D01*
X92024200Y-69681400D01*
X92024200Y-69701400D01*
X93023450Y-69701400D01*
X93182200Y-69542650D01*
X93182200Y-68952091D01*
X93085527Y-68718702D01*
X92906899Y-68540073D01*
X92768757Y-68482853D01*
X92789323Y-68478863D01*
X93002127Y-68339073D01*
X93144577Y-68128040D01*
X93194640Y-67878400D01*
X93194640Y-66378400D01*
X93183535Y-66321165D01*
X93292160Y-66429790D01*
X93292160Y-67865700D01*
X93339137Y-68107823D01*
X93478927Y-68320627D01*
X93689960Y-68463077D01*
X93720391Y-68469179D01*
X93579901Y-68527373D01*
X93401273Y-68706002D01*
X93304600Y-68939391D01*
X93304600Y-69529950D01*
X93463350Y-69688700D01*
X94462600Y-69688700D01*
X94462600Y-69668700D01*
X94716600Y-69668700D01*
X94716600Y-69688700D01*
X95715850Y-69688700D01*
X95874600Y-69529950D01*
X95874600Y-68939391D01*
X95777927Y-68706002D01*
X95599299Y-68527373D01*
X95461157Y-68470153D01*
X95481723Y-68466163D01*
X95694527Y-68326373D01*
X95836977Y-68115340D01*
X95887040Y-67865700D01*
X95887040Y-66365700D01*
X95840063Y-66123577D01*
X95700273Y-65910773D01*
X95489240Y-65768323D01*
X95239600Y-65718260D01*
X94735890Y-65718260D01*
X93842600Y-64824969D01*
X93842600Y-64478240D01*
X99797042Y-64490343D01*
X99812774Y-68989790D01*
X99741327Y-68817301D01*
X99562698Y-68638673D01*
X99329309Y-68542000D01*
X98488750Y-68542000D01*
X98330000Y-68700750D01*
X98330000Y-69850000D01*
X98350000Y-69850000D01*
X98350000Y-70104000D01*
X98330000Y-70104000D01*
X98330000Y-71253250D01*
X98488750Y-71412000D01*
X99329309Y-71412000D01*
X99562698Y-71315327D01*
X99741327Y-71136699D01*
X99819620Y-70947682D01*
X99822443Y-71755000D01*
X106299000Y-71755000D01*
X106299000Y-72002000D01*
G36*
X125045000Y-73329309D02*
X120589300Y-73325393D01*
X120589300Y-69607910D01*
X120589300Y-69355291D01*
X120589300Y-68967350D01*
X120589300Y-68395850D01*
X120589300Y-68007909D01*
X120589300Y-67755290D01*
X120492627Y-67521901D01*
X120313998Y-67343273D01*
X120080609Y-67246600D01*
X119539200Y-67246600D01*
X119539200Y-66205109D01*
X119539200Y-65614550D01*
X119539200Y-65043050D01*
X119539200Y-64452491D01*
X119442527Y-64219102D01*
X119263899Y-64040473D01*
X119030510Y-63943800D01*
X118777891Y-63943800D01*
X118439950Y-63943800D01*
X118281200Y-64102550D01*
X118281200Y-65201800D01*
X119380450Y-65201800D01*
X119539200Y-65043050D01*
X119539200Y-65614550D01*
X119380450Y-65455800D01*
X118281200Y-65455800D01*
X118281200Y-66555050D01*
X118439950Y-66713800D01*
X118777891Y-66713800D01*
X119030510Y-66713800D01*
X119263899Y-66617127D01*
X119442527Y-66438498D01*
X119539200Y-66205109D01*
X119539200Y-67246600D01*
X119240050Y-67246600D01*
X119081300Y-67405350D01*
X119081300Y-68554600D01*
X120430550Y-68554600D01*
X120589300Y-68395850D01*
X120589300Y-68967350D01*
X120430550Y-68808600D01*
X119081300Y-68808600D01*
X119081300Y-69957850D01*
X119240050Y-70116600D01*
X120080609Y-70116600D01*
X120313998Y-70019927D01*
X120492627Y-69841299D01*
X120589300Y-69607910D01*
X120589300Y-73325393D01*
X112983298Y-73318710D01*
X112948694Y-73284106D01*
X112717965Y-73129937D01*
X112445800Y-73075800D01*
X111277400Y-73075800D01*
X111277400Y-72133642D01*
X110990979Y-72133954D01*
X110955698Y-72098673D01*
X110722309Y-72002000D01*
X110181750Y-72002000D01*
X110048766Y-72134983D01*
X109743566Y-72135316D01*
X109610250Y-72002000D01*
X109245400Y-72002000D01*
X109245400Y-71755000D01*
X117347489Y-71755000D01*
X117355791Y-69696007D01*
X117415973Y-69841299D01*
X117594602Y-70019927D01*
X117827991Y-70116600D01*
X118668550Y-70116600D01*
X118827300Y-69957850D01*
X118827300Y-68808600D01*
X118807300Y-68808600D01*
X118807300Y-68554600D01*
X118827300Y-68554600D01*
X118827300Y-67405350D01*
X118668550Y-67246600D01*
X117827991Y-67246600D01*
X117594602Y-67343273D01*
X117415973Y-67521901D01*
X117364052Y-67647248D01*
X117367816Y-66713800D01*
X117530509Y-66713800D01*
X117868450Y-66713800D01*
X118027200Y-66555050D01*
X118027200Y-65455800D01*
X118007200Y-65455800D01*
X118007200Y-65201800D01*
X118027200Y-65201800D01*
X118027200Y-64102550D01*
X117868450Y-63943800D01*
X117530509Y-63943800D01*
X117378985Y-63943800D01*
X117395936Y-59740000D01*
X125045000Y-59740000D01*
X125045000Y-73329309D01*
X125045000Y-73329309D01*
G37*
X125045000Y-73329309D02*
X120589300Y-73325393D01*
X120589300Y-69607910D01*
X120589300Y-69355291D01*
X120589300Y-68967350D01*
X120589300Y-68395850D01*
X120589300Y-68007909D01*
X120589300Y-67755290D01*
X120492627Y-67521901D01*
X120313998Y-67343273D01*
X120080609Y-67246600D01*
X119539200Y-67246600D01*
X119539200Y-66205109D01*
X119539200Y-65614550D01*
X119539200Y-65043050D01*
X119539200Y-64452491D01*
X119442527Y-64219102D01*
X119263899Y-64040473D01*
X119030510Y-63943800D01*
X118777891Y-63943800D01*
X118439950Y-63943800D01*
X118281200Y-64102550D01*
X118281200Y-65201800D01*
X119380450Y-65201800D01*
X119539200Y-65043050D01*
X119539200Y-65614550D01*
X119380450Y-65455800D01*
X118281200Y-65455800D01*
X118281200Y-66555050D01*
X118439950Y-66713800D01*
X118777891Y-66713800D01*
X119030510Y-66713800D01*
X119263899Y-66617127D01*
X119442527Y-66438498D01*
X119539200Y-66205109D01*
X119539200Y-67246600D01*
X119240050Y-67246600D01*
X119081300Y-67405350D01*
X119081300Y-68554600D01*
X120430550Y-68554600D01*
X120589300Y-68395850D01*
X120589300Y-68967350D01*
X120430550Y-68808600D01*
X119081300Y-68808600D01*
X119081300Y-69957850D01*
X119240050Y-70116600D01*
X120080609Y-70116600D01*
X120313998Y-70019927D01*
X120492627Y-69841299D01*
X120589300Y-69607910D01*
X120589300Y-73325393D01*
X112983298Y-73318710D01*
X112948694Y-73284106D01*
X112717965Y-73129937D01*
X112445800Y-73075800D01*
X111277400Y-73075800D01*
X111277400Y-72133642D01*
X110990979Y-72133954D01*
X110955698Y-72098673D01*
X110722309Y-72002000D01*
X110181750Y-72002000D01*
X110048766Y-72134983D01*
X109743566Y-72135316D01*
X109610250Y-72002000D01*
X109245400Y-72002000D01*
X109245400Y-71755000D01*
X117347489Y-71755000D01*
X117355791Y-69696007D01*
X117415973Y-69841299D01*
X117594602Y-70019927D01*
X117827991Y-70116600D01*
X118668550Y-70116600D01*
X118827300Y-69957850D01*
X118827300Y-68808600D01*
X118807300Y-68808600D01*
X118807300Y-68554600D01*
X118827300Y-68554600D01*
X118827300Y-67405350D01*
X118668550Y-67246600D01*
X117827991Y-67246600D01*
X117594602Y-67343273D01*
X117415973Y-67521901D01*
X117364052Y-67647248D01*
X117367816Y-66713800D01*
X117530509Y-66713800D01*
X117868450Y-66713800D01*
X118027200Y-66555050D01*
X118027200Y-65455800D01*
X118007200Y-65455800D01*
X118007200Y-65201800D01*
X118027200Y-65201800D01*
X118027200Y-64102550D01*
X117868450Y-63943800D01*
X117530509Y-63943800D01*
X117378985Y-63943800D01*
X117395936Y-59740000D01*
X125045000Y-59740000D01*
X125045000Y-73329309D01*
G36*
X116586000Y-70980499D02*
X114827300Y-70983255D01*
X114827300Y-69957850D01*
X114827300Y-68808600D01*
X114827300Y-68554600D01*
X114827300Y-67405350D01*
X114668550Y-67246600D01*
X113827991Y-67246600D01*
X113594602Y-67343273D01*
X113415973Y-67521901D01*
X113319300Y-67755290D01*
X113319300Y-68007909D01*
X113319300Y-68395850D01*
X113478050Y-68554600D01*
X114827300Y-68554600D01*
X114827300Y-68808600D01*
X113478050Y-68808600D01*
X113319300Y-68967350D01*
X113319300Y-69355291D01*
X113319300Y-69607910D01*
X113415973Y-69841299D01*
X113594602Y-70019927D01*
X113827991Y-70116600D01*
X114668550Y-70116600D01*
X114827300Y-69957850D01*
X114827300Y-70983255D01*
X111033839Y-70989201D01*
X111033839Y-68205376D01*
X111033839Y-67434620D01*
X110762944Y-66843495D01*
X110286456Y-66401034D01*
X109797876Y-66198657D01*
X109539498Y-66317594D01*
X109539498Y-67692998D01*
X110914902Y-67692998D01*
X111033839Y-67434620D01*
X111033839Y-68205376D01*
X110914902Y-67946998D01*
X109539498Y-67946998D01*
X109539498Y-69322402D01*
X109797876Y-69441339D01*
X110389001Y-69170444D01*
X110831462Y-68693956D01*
X111033839Y-68205376D01*
X111033839Y-70989201D01*
X109285498Y-70991941D01*
X109285498Y-69322402D01*
X109285498Y-67946998D01*
X109285498Y-67692998D01*
X109285498Y-66317594D01*
X109027120Y-66198657D01*
X108435995Y-66469552D01*
X107993534Y-66946040D01*
X107791157Y-67434620D01*
X107910094Y-67692998D01*
X109285498Y-67692998D01*
X109285498Y-67946998D01*
X107910094Y-67946998D01*
X107791157Y-68205376D01*
X108062052Y-68796501D01*
X108538540Y-69238962D01*
X109027120Y-69441339D01*
X109285498Y-69322402D01*
X109285498Y-70991941D01*
X108483828Y-70993198D01*
X108467060Y-75956400D01*
X107977950Y-75956400D01*
X107819200Y-76115150D01*
X107819200Y-77114400D01*
X107839200Y-77114400D01*
X107839200Y-77368400D01*
X107819200Y-77368400D01*
X107819200Y-78367650D01*
X107977950Y-78526400D01*
X108458377Y-78526400D01*
X108457570Y-78765400D01*
X112090863Y-78765400D01*
X112096734Y-79886931D01*
X111914673Y-80006527D01*
X111806862Y-80166243D01*
X111710418Y-80076815D01*
X111228544Y-79877225D01*
X110972600Y-79996364D01*
X110972600Y-81356200D01*
X110992600Y-81356200D01*
X110992600Y-81610200D01*
X110972600Y-81610200D01*
X110972600Y-82970036D01*
X111228544Y-83089175D01*
X111710418Y-82889585D01*
X111807435Y-82799625D01*
X111908927Y-82954127D01*
X112113516Y-83092227D01*
X112114933Y-83362800D01*
X110718600Y-83362800D01*
X110718600Y-82970036D01*
X110718600Y-81610200D01*
X110718600Y-81356200D01*
X110718600Y-79996364D01*
X110462656Y-79877225D01*
X109980782Y-80076815D01*
X109508412Y-80514821D01*
X109239617Y-81100254D01*
X109358233Y-81356200D01*
X110718600Y-81356200D01*
X110718600Y-81610200D01*
X109358233Y-81610200D01*
X109239617Y-81866146D01*
X109508412Y-82451579D01*
X109980782Y-82889585D01*
X110462656Y-83089175D01*
X110718600Y-82970036D01*
X110718600Y-83362800D01*
X109778800Y-83362800D01*
X107950000Y-83362800D01*
X107565200Y-83362800D01*
X107565200Y-78367650D01*
X107565200Y-77368400D01*
X107565200Y-77114400D01*
X107565200Y-76115150D01*
X107406450Y-75956400D01*
X106815891Y-75956400D01*
X106582502Y-76053073D01*
X106403873Y-76231701D01*
X106307200Y-76465090D01*
X106307200Y-76717709D01*
X106307200Y-76955650D01*
X106465950Y-77114400D01*
X107565200Y-77114400D01*
X107565200Y-77368400D01*
X106465950Y-77368400D01*
X106307200Y-77527150D01*
X106307200Y-77765091D01*
X106307200Y-78017710D01*
X106403873Y-78251099D01*
X106582502Y-78429727D01*
X106815891Y-78526400D01*
X107406450Y-78526400D01*
X107565200Y-78367650D01*
X107565200Y-83362800D01*
X106019600Y-83362800D01*
X103886000Y-83362800D01*
X103886000Y-81686400D01*
X103886000Y-78410184D01*
X103886000Y-78410183D01*
X103908063Y-78377165D01*
X103908063Y-78377164D01*
X103917044Y-78332009D01*
X103962199Y-78105000D01*
X103962200Y-78105000D01*
X103962200Y-75563378D01*
X104635865Y-75557989D01*
X104669691Y-75572000D01*
X105210250Y-75572000D01*
X105229006Y-75553243D01*
X105758755Y-75549005D01*
X105781750Y-75572000D01*
X106322309Y-75572000D01*
X106390013Y-75543955D01*
X107061000Y-75538588D01*
X107061000Y-70993228D01*
X103805987Y-70980595D01*
X103838000Y-70903310D01*
X103838000Y-70650691D01*
X103838000Y-70262750D01*
X103838000Y-69691250D01*
X103838000Y-69303309D01*
X103838000Y-69050690D01*
X103741327Y-68817301D01*
X103562698Y-68638673D01*
X103329309Y-68542000D01*
X102488750Y-68542000D01*
X102330000Y-68700750D01*
X102330000Y-69850000D01*
X103679250Y-69850000D01*
X103838000Y-69691250D01*
X103838000Y-70262750D01*
X103679250Y-70104000D01*
X102330000Y-70104000D01*
X102330000Y-70124000D01*
X102076000Y-70124000D01*
X102076000Y-70104000D01*
X102056000Y-70104000D01*
X102056000Y-69850000D01*
X102076000Y-69850000D01*
X102076000Y-68700750D01*
X101917250Y-68542000D01*
X101076691Y-68542000D01*
X100843302Y-68638673D01*
X100664673Y-68817301D01*
X100584000Y-69012062D01*
X100584000Y-59740000D01*
X116586000Y-59740000D01*
X116586000Y-64012375D01*
X116359029Y-63931599D01*
X115808752Y-63959570D01*
X115430277Y-64116340D01*
X115362288Y-64357283D01*
X116154200Y-65149195D01*
X116168342Y-65135052D01*
X116347947Y-65314657D01*
X116333805Y-65328800D01*
X116347947Y-65342942D01*
X116168342Y-65522547D01*
X116154200Y-65508405D01*
X115974595Y-65688010D01*
X115974595Y-65328800D01*
X115182683Y-64536888D01*
X114941740Y-64604877D01*
X114756999Y-65123971D01*
X114784970Y-65674248D01*
X114941740Y-66052723D01*
X115182683Y-66120712D01*
X115974595Y-65328800D01*
X115974595Y-65688010D01*
X115362288Y-66300317D01*
X115430277Y-66541260D01*
X115949371Y-66726001D01*
X116499648Y-66698030D01*
X116586000Y-66662261D01*
X116586000Y-67747323D01*
X116492627Y-67521901D01*
X116313998Y-67343273D01*
X116080609Y-67246600D01*
X115240050Y-67246600D01*
X115081300Y-67405350D01*
X115081300Y-68554600D01*
X115101300Y-68554600D01*
X115101300Y-68808600D01*
X115081300Y-68808600D01*
X115081300Y-69957850D01*
X115240050Y-70116600D01*
X116080609Y-70116600D01*
X116313998Y-70019927D01*
X116492627Y-69841299D01*
X116586000Y-69615876D01*
X116586000Y-70980499D01*
X116586000Y-70980499D01*
G37*
X116586000Y-70980499D02*
X114827300Y-70983255D01*
X114827300Y-69957850D01*
X114827300Y-68808600D01*
X114827300Y-68554600D01*
X114827300Y-67405350D01*
X114668550Y-67246600D01*
X113827991Y-67246600D01*
X113594602Y-67343273D01*
X113415973Y-67521901D01*
X113319300Y-67755290D01*
X113319300Y-68007909D01*
X113319300Y-68395850D01*
X113478050Y-68554600D01*
X114827300Y-68554600D01*
X114827300Y-68808600D01*
X113478050Y-68808600D01*
X113319300Y-68967350D01*
X113319300Y-69355291D01*
X113319300Y-69607910D01*
X113415973Y-69841299D01*
X113594602Y-70019927D01*
X113827991Y-70116600D01*
X114668550Y-70116600D01*
X114827300Y-69957850D01*
X114827300Y-70983255D01*
X111033839Y-70989201D01*
X111033839Y-68205376D01*
X111033839Y-67434620D01*
X110762944Y-66843495D01*
X110286456Y-66401034D01*
X109797876Y-66198657D01*
X109539498Y-66317594D01*
X109539498Y-67692998D01*
X110914902Y-67692998D01*
X111033839Y-67434620D01*
X111033839Y-68205376D01*
X110914902Y-67946998D01*
X109539498Y-67946998D01*
X109539498Y-69322402D01*
X109797876Y-69441339D01*
X110389001Y-69170444D01*
X110831462Y-68693956D01*
X111033839Y-68205376D01*
X111033839Y-70989201D01*
X109285498Y-70991941D01*
X109285498Y-69322402D01*
X109285498Y-67946998D01*
X109285498Y-67692998D01*
X109285498Y-66317594D01*
X109027120Y-66198657D01*
X108435995Y-66469552D01*
X107993534Y-66946040D01*
X107791157Y-67434620D01*
X107910094Y-67692998D01*
X109285498Y-67692998D01*
X109285498Y-67946998D01*
X107910094Y-67946998D01*
X107791157Y-68205376D01*
X108062052Y-68796501D01*
X108538540Y-69238962D01*
X109027120Y-69441339D01*
X109285498Y-69322402D01*
X109285498Y-70991941D01*
X108483828Y-70993198D01*
X108467060Y-75956400D01*
X107977950Y-75956400D01*
X107819200Y-76115150D01*
X107819200Y-77114400D01*
X107839200Y-77114400D01*
X107839200Y-77368400D01*
X107819200Y-77368400D01*
X107819200Y-78367650D01*
X107977950Y-78526400D01*
X108458377Y-78526400D01*
X108457570Y-78765400D01*
X112090863Y-78765400D01*
X112096734Y-79886931D01*
X111914673Y-80006527D01*
X111806862Y-80166243D01*
X111710418Y-80076815D01*
X111228544Y-79877225D01*
X110972600Y-79996364D01*
X110972600Y-81356200D01*
X110992600Y-81356200D01*
X110992600Y-81610200D01*
X110972600Y-81610200D01*
X110972600Y-82970036D01*
X111228544Y-83089175D01*
X111710418Y-82889585D01*
X111807435Y-82799625D01*
X111908927Y-82954127D01*
X112113516Y-83092227D01*
X112114933Y-83362800D01*
X110718600Y-83362800D01*
X110718600Y-82970036D01*
X110718600Y-81610200D01*
X110718600Y-81356200D01*
X110718600Y-79996364D01*
X110462656Y-79877225D01*
X109980782Y-80076815D01*
X109508412Y-80514821D01*
X109239617Y-81100254D01*
X109358233Y-81356200D01*
X110718600Y-81356200D01*
X110718600Y-81610200D01*
X109358233Y-81610200D01*
X109239617Y-81866146D01*
X109508412Y-82451579D01*
X109980782Y-82889585D01*
X110462656Y-83089175D01*
X110718600Y-82970036D01*
X110718600Y-83362800D01*
X109778800Y-83362800D01*
X107950000Y-83362800D01*
X107565200Y-83362800D01*
X107565200Y-78367650D01*
X107565200Y-77368400D01*
X107565200Y-77114400D01*
X107565200Y-76115150D01*
X107406450Y-75956400D01*
X106815891Y-75956400D01*
X106582502Y-76053073D01*
X106403873Y-76231701D01*
X106307200Y-76465090D01*
X106307200Y-76717709D01*
X106307200Y-76955650D01*
X106465950Y-77114400D01*
X107565200Y-77114400D01*
X107565200Y-77368400D01*
X106465950Y-77368400D01*
X106307200Y-77527150D01*
X106307200Y-77765091D01*
X106307200Y-78017710D01*
X106403873Y-78251099D01*
X106582502Y-78429727D01*
X106815891Y-78526400D01*
X107406450Y-78526400D01*
X107565200Y-78367650D01*
X107565200Y-83362800D01*
X106019600Y-83362800D01*
X103886000Y-83362800D01*
X103886000Y-81686400D01*
X103886000Y-78410184D01*
X103886000Y-78410183D01*
X103908063Y-78377165D01*
X103908063Y-78377164D01*
X103917044Y-78332009D01*
X103962199Y-78105000D01*
X103962200Y-78105000D01*
X103962200Y-75563378D01*
X104635865Y-75557989D01*
X104669691Y-75572000D01*
X105210250Y-75572000D01*
X105229006Y-75553243D01*
X105758755Y-75549005D01*
X105781750Y-75572000D01*
X106322309Y-75572000D01*
X106390013Y-75543955D01*
X107061000Y-75538588D01*
X107061000Y-70993228D01*
X103805987Y-70980595D01*
X103838000Y-70903310D01*
X103838000Y-70650691D01*
X103838000Y-70262750D01*
X103838000Y-69691250D01*
X103838000Y-69303309D01*
X103838000Y-69050690D01*
X103741327Y-68817301D01*
X103562698Y-68638673D01*
X103329309Y-68542000D01*
X102488750Y-68542000D01*
X102330000Y-68700750D01*
X102330000Y-69850000D01*
X103679250Y-69850000D01*
X103838000Y-69691250D01*
X103838000Y-70262750D01*
X103679250Y-70104000D01*
X102330000Y-70104000D01*
X102330000Y-70124000D01*
X102076000Y-70124000D01*
X102076000Y-70104000D01*
X102056000Y-70104000D01*
X102056000Y-69850000D01*
X102076000Y-69850000D01*
X102076000Y-68700750D01*
X101917250Y-68542000D01*
X101076691Y-68542000D01*
X100843302Y-68638673D01*
X100664673Y-68817301D01*
X100584000Y-69012062D01*
X100584000Y-59740000D01*
X116586000Y-59740000D01*
X116586000Y-64012375D01*
X116359029Y-63931599D01*
X115808752Y-63959570D01*
X115430277Y-64116340D01*
X115362288Y-64357283D01*
X116154200Y-65149195D01*
X116168342Y-65135052D01*
X116347947Y-65314657D01*
X116333805Y-65328800D01*
X116347947Y-65342942D01*
X116168342Y-65522547D01*
X116154200Y-65508405D01*
X115974595Y-65688010D01*
X115974595Y-65328800D01*
X115182683Y-64536888D01*
X114941740Y-64604877D01*
X114756999Y-65123971D01*
X114784970Y-65674248D01*
X114941740Y-66052723D01*
X115182683Y-66120712D01*
X115974595Y-65328800D01*
X115974595Y-65688010D01*
X115362288Y-66300317D01*
X115430277Y-66541260D01*
X115949371Y-66726001D01*
X116499648Y-66698030D01*
X116586000Y-66662261D01*
X116586000Y-67747323D01*
X116492627Y-67521901D01*
X116313998Y-67343273D01*
X116080609Y-67246600D01*
X115240050Y-67246600D01*
X115081300Y-67405350D01*
X115081300Y-68554600D01*
X115101300Y-68554600D01*
X115101300Y-68808600D01*
X115081300Y-68808600D01*
X115081300Y-69957850D01*
X115240050Y-70116600D01*
X116080609Y-70116600D01*
X116313998Y-70019927D01*
X116492627Y-69841299D01*
X116586000Y-69615876D01*
X116586000Y-70980499D01*
M02*
