G04 #@! TF.FileFunction,Soldermask,Top*
%FSLAX46Y46*%
G04 Gerber Fmt 4.6, Leading zero omitted, Abs format (unit mm)*
G04 Created by KiCad (PCBNEW 0.201503261001+5536~22~ubuntu14.04.1-product) date Mon 30 Mar 2015 17:17:34 CEST*
%MOMM*%
G01*
G04 APERTURE LIST*
%ADD10C,0.100000*%
%ADD11R,2.000000X1.600000*%
%ADD12R,1.198880X1.198880*%
%ADD13R,2.032000X2.032000*%
%ADD14O,2.032000X2.032000*%
%ADD15R,1.500000X1.300000*%
%ADD16R,1.300000X1.500000*%
%ADD17R,1.400000X0.300000*%
%ADD18R,1.500000X1.500000*%
%ADD19C,1.500000*%
%ADD20R,0.400000X1.350000*%
%ADD21R,1.600000X1.400000*%
%ADD22R,1.900000X1.900000*%
%ADD23C,1.600000*%
%ADD24O,1.600000X1.600000*%
%ADD25C,1.998980*%
G04 APERTURE END LIST*
D10*
D11*
X98203000Y-69977000D03*
X102203000Y-69977000D03*
X118954300Y-68681600D03*
X114954300Y-68681600D03*
D12*
X123941840Y-81534000D03*
X121843800Y-81534000D03*
X94581980Y-78359000D03*
X96680020Y-78359000D03*
X94581980Y-74676000D03*
X96680020Y-74676000D03*
D13*
X113385600Y-81483200D03*
D14*
X110845600Y-81483200D03*
D15*
X99107000Y-74676000D03*
X101807000Y-74676000D03*
X101807000Y-78359000D03*
X99107000Y-78359000D03*
D16*
X119075200Y-81461600D03*
X119075200Y-78761600D03*
X116382800Y-81461600D03*
X116382800Y-78761600D03*
D15*
X107692200Y-77241400D03*
X110392200Y-77241400D03*
D16*
X89357200Y-67064900D03*
X89357200Y-69764900D03*
X91897200Y-67128400D03*
X91897200Y-69828400D03*
X94589600Y-67115700D03*
X94589600Y-69815700D03*
D17*
X105496000Y-72787000D03*
X105496000Y-73287000D03*
X105496000Y-73787000D03*
X105496000Y-74287000D03*
X105496000Y-74787000D03*
X109896000Y-74787000D03*
X109896000Y-74287000D03*
X109896000Y-73787000D03*
X109896000Y-73287000D03*
X109896000Y-72787000D03*
D18*
X118154200Y-65328800D03*
D19*
X116154200Y-65328800D03*
D20*
X93730600Y-63140100D03*
X91780600Y-63140100D03*
X92430600Y-63140100D03*
X93080600Y-63140100D03*
X91130600Y-63140100D03*
D21*
X95630600Y-62940100D03*
X89230600Y-62940100D03*
D22*
X93630600Y-60490100D03*
X91230600Y-60490100D03*
D23*
X95730600Y-60490100D03*
D24*
X89130600Y-60490100D03*
D25*
X109412498Y-67819998D03*
X116596702Y-75004202D03*
M02*
