G04 #@! TF.FileFunction,Copper,L1,Top,Signal*
%FSLAX46Y46*%
G04 Gerber Fmt 4.6, Leading zero omitted, Abs format (unit mm)*
G04 Created by KiCad (PCBNEW 0.201503261001+5536~22~ubuntu14.04.1-product) date Mon 30 Mar 2015 17:17:34 CEST*
%MOMM*%
G01*
G04 APERTURE LIST*
%ADD10C,0.100000*%
%ADD11R,2.000000X1.600000*%
%ADD12R,1.198880X1.198880*%
%ADD13R,2.032000X2.032000*%
%ADD14O,2.032000X2.032000*%
%ADD15R,1.500000X1.300000*%
%ADD16R,1.300000X1.500000*%
%ADD17R,1.400000X0.300000*%
%ADD18R,1.500000X1.500000*%
%ADD19C,1.500000*%
%ADD20R,0.400000X1.350000*%
%ADD21R,1.600000X1.400000*%
%ADD22R,1.900000X1.900000*%
%ADD23C,1.600000*%
%ADD24O,1.600000X1.600000*%
%ADD25C,1.998980*%
%ADD26C,0.685800*%
%ADD27C,0.152400*%
%ADD28C,0.254000*%
%ADD29C,0.609600*%
G04 APERTURE END LIST*
D10*
D11*
X98203000Y-69977000D03*
X102203000Y-69977000D03*
X118954300Y-68681600D03*
X114954300Y-68681600D03*
D12*
X123941840Y-81534000D03*
X121843800Y-81534000D03*
X94581980Y-78359000D03*
X96680020Y-78359000D03*
X94581980Y-74676000D03*
X96680020Y-74676000D03*
D13*
X113385600Y-81483200D03*
D14*
X110845600Y-81483200D03*
D15*
X99107000Y-74676000D03*
X101807000Y-74676000D03*
X101807000Y-78359000D03*
X99107000Y-78359000D03*
D16*
X119075200Y-81461600D03*
X119075200Y-78761600D03*
X116382800Y-81461600D03*
X116382800Y-78761600D03*
D15*
X107692200Y-77241400D03*
X110392200Y-77241400D03*
D16*
X89357200Y-67064900D03*
X89357200Y-69764900D03*
X91897200Y-67128400D03*
X91897200Y-69828400D03*
X94589600Y-67115700D03*
X94589600Y-69815700D03*
D17*
X105496000Y-72787000D03*
X105496000Y-73287000D03*
X105496000Y-73787000D03*
X105496000Y-74287000D03*
X105496000Y-74787000D03*
X109896000Y-74787000D03*
X109896000Y-74287000D03*
X109896000Y-73787000D03*
X109896000Y-73287000D03*
X109896000Y-72787000D03*
D18*
X118154200Y-65328800D03*
D19*
X116154200Y-65328800D03*
D20*
X93730600Y-63140100D03*
X91780600Y-63140100D03*
X92430600Y-63140100D03*
X93080600Y-63140100D03*
X91130600Y-63140100D03*
D21*
X95630600Y-62940100D03*
X89230600Y-62940100D03*
D22*
X93630600Y-60490100D03*
X91230600Y-60490100D03*
D23*
X95730600Y-60490100D03*
D24*
X89130600Y-60490100D03*
D25*
X109412498Y-67819998D03*
X116596702Y-75004202D03*
D26*
X112141000Y-64770000D03*
X112141000Y-62738000D03*
X112141000Y-60452000D03*
X103886000Y-67310000D03*
X103886000Y-64770000D03*
X103886000Y-62738000D03*
X112395000Y-67310000D03*
X112268000Y-69723000D03*
X110363000Y-69723000D03*
X104521000Y-69723000D03*
X106553000Y-69723000D03*
X106553000Y-67310000D03*
X101092000Y-67437000D03*
X101092000Y-64770000D03*
X106553000Y-64770000D03*
X109601000Y-64770000D03*
X114173000Y-64770000D03*
X114173000Y-62738000D03*
X109601000Y-62738000D03*
X106553000Y-62738000D03*
X101092000Y-62738000D03*
X101092000Y-60452000D03*
X106553000Y-60452000D03*
X109601000Y-60452000D03*
X114173000Y-60452000D03*
X116205000Y-60452000D03*
X116205000Y-62738000D03*
X111379000Y-79375000D03*
X108839000Y-82931000D03*
X104648000Y-82931000D03*
X104648000Y-81153000D03*
X108839000Y-81153000D03*
X108839000Y-79375000D03*
X106680000Y-79375000D03*
X104648000Y-79375000D03*
X104648000Y-77343000D03*
X105537000Y-76200000D03*
X106680000Y-82931000D03*
X107823000Y-70739000D03*
X107823000Y-72644000D03*
X107823000Y-74803000D03*
X103886000Y-60452000D03*
X114173000Y-70612000D03*
X106680000Y-81153000D03*
X88265000Y-65278000D03*
X97663000Y-65024000D03*
X99187000Y-65024000D03*
X99187000Y-66421000D03*
X97663000Y-66421000D03*
X97663000Y-67691000D03*
X99187000Y-67818000D03*
X94869000Y-65024000D03*
X96266000Y-65024000D03*
X96266000Y-66421000D03*
X96266000Y-67691000D03*
X96266000Y-69850000D03*
X96139000Y-70993000D03*
X99695000Y-72517000D03*
X101473000Y-72517000D03*
X103124000Y-72517000D03*
X89154000Y-72517000D03*
X97663000Y-72517000D03*
X96266000Y-72517000D03*
X94869000Y-72517000D03*
X93345000Y-72517000D03*
X91948000Y-72517000D03*
X90551000Y-72517000D03*
X88011000Y-71882000D03*
X124587000Y-71628000D03*
X122428000Y-71628000D03*
X120142000Y-71628000D03*
X118110000Y-71628000D03*
X116205000Y-72644000D03*
X114173000Y-72644000D03*
X112522000Y-72644000D03*
X124587000Y-69723000D03*
X122428000Y-69723000D03*
X122428000Y-67310000D03*
X124587000Y-67310000D03*
X124587000Y-64770000D03*
X122428000Y-64770000D03*
X120142000Y-64770000D03*
X120142000Y-62738000D03*
X122428000Y-62738000D03*
X124587000Y-62738000D03*
X124587000Y-60452000D03*
X122428000Y-60452000D03*
X120142000Y-60452000D03*
X118110000Y-60452000D03*
X118110000Y-62738000D03*
X119126000Y-72898000D03*
X121285000Y-72898000D03*
X123571000Y-73025000D03*
D27*
X112141000Y-60452000D02*
X112141000Y-60325000D01*
X110363000Y-69723000D02*
X112268000Y-69723000D01*
X116154200Y-65328800D02*
X116154200Y-62788800D01*
X106553000Y-67310000D02*
X106553000Y-69723000D01*
X101092000Y-64770000D02*
X101092000Y-67437000D01*
X109601000Y-64770000D02*
X106553000Y-64770000D01*
X114173000Y-62738000D02*
X114173000Y-64770000D01*
X106553000Y-62738000D02*
X109601000Y-62738000D01*
X101092000Y-61722000D02*
X101092000Y-62738000D01*
X101092000Y-60452000D02*
X101092000Y-61722000D01*
X109601000Y-60452000D02*
X106553000Y-60452000D01*
X116078000Y-60325000D02*
X114173000Y-60452000D01*
X116205000Y-60452000D02*
X116078000Y-60325000D01*
X116154200Y-62788800D02*
X116205000Y-62738000D01*
X95630600Y-62940100D02*
X102818100Y-62940100D01*
D28*
X105496000Y-74787000D02*
X107349800Y-74787000D01*
X107349800Y-74787000D02*
X107378500Y-74815700D01*
X105496000Y-74787000D02*
X105496000Y-75955800D01*
X105496000Y-75955800D02*
X105549700Y-76009500D01*
D29*
X89634200Y-62940100D02*
X89230600Y-62940100D01*
X91122500Y-61451800D02*
X89634200Y-62940100D01*
X91657400Y-60916900D02*
X91122500Y-61451800D01*
X93630600Y-60916900D02*
X91657400Y-60916900D01*
X95642200Y-62928500D02*
X93630600Y-60916900D01*
D27*
X91122500Y-61709300D02*
X91122500Y-61451800D01*
X91122500Y-61451800D02*
X91122500Y-61709300D01*
X91130600Y-61443700D02*
X91122500Y-61451800D01*
X91130600Y-63140100D02*
X91130600Y-61443700D01*
X89430600Y-63140100D02*
X89230600Y-62940100D01*
X91130600Y-63140100D02*
X89430600Y-63140100D01*
X110845600Y-81483200D02*
X110286800Y-81483200D01*
X108839000Y-82931000D02*
X110286800Y-81483200D01*
X104648000Y-82931000D02*
X104521000Y-82804000D01*
X104521000Y-82804000D02*
X104648000Y-81153000D01*
X108839000Y-81153000D02*
X108839000Y-79375000D01*
X104648000Y-79375000D02*
X104648000Y-77343000D01*
X108839000Y-79375000D02*
X106680000Y-79375000D01*
X106807000Y-69723000D02*
X107823000Y-70739000D01*
X107823000Y-72644000D02*
X107823000Y-74803000D01*
X106553000Y-69723000D02*
X106807000Y-69723000D01*
X113284000Y-69723000D02*
X114173000Y-70612000D01*
X112268000Y-69723000D02*
X113284000Y-69723000D01*
X119147600Y-81534000D02*
X119075200Y-81461600D01*
D28*
X121843800Y-81534000D02*
X119147600Y-81534000D01*
D27*
X96680020Y-78359000D02*
X99107000Y-78359000D01*
X96680020Y-74676000D02*
X99107000Y-74676000D01*
D29*
X116361200Y-81483200D02*
X116382800Y-81461600D01*
X113385600Y-81483200D02*
X116361200Y-81483200D01*
D27*
X102743000Y-74803000D02*
X103759000Y-73787000D01*
X103759000Y-73787000D02*
X105496000Y-73787000D01*
X101807000Y-74676000D02*
X102743000Y-74803000D01*
X101807000Y-78359000D02*
X101981000Y-78359000D01*
X102997000Y-78359000D02*
X103251000Y-78105000D01*
X103251000Y-78105000D02*
X103251000Y-75184000D01*
X103251000Y-75184000D02*
X104148000Y-74287000D01*
X104148000Y-74287000D02*
X105496000Y-74287000D01*
X101807000Y-78359000D02*
X102997000Y-78359000D01*
D28*
X119075200Y-78761600D02*
X116382800Y-78761600D01*
D27*
X110748400Y-74287000D02*
X109896000Y-74287000D01*
X112008200Y-74287000D02*
X110748400Y-74287000D01*
X116382800Y-78661600D02*
X112008200Y-74287000D01*
X116382800Y-78761600D02*
X116382800Y-78661600D01*
D28*
X109956600Y-77110600D02*
X109956600Y-74847600D01*
X109956600Y-74847600D02*
X109896000Y-74787000D01*
D27*
X88011000Y-65278000D02*
X88265000Y-65278000D01*
X88011000Y-71882000D02*
X88011000Y-65278000D01*
X99187000Y-65024000D02*
X99187000Y-66421000D01*
X97663000Y-66421000D02*
X97663000Y-67691000D01*
X96266000Y-65024000D02*
X97663000Y-65024000D01*
X96266000Y-65024000D02*
X94869000Y-65024000D01*
X96266000Y-67691000D02*
X96266000Y-66421000D01*
X96266000Y-70866000D02*
X96266000Y-69850000D01*
X96139000Y-70993000D02*
X96266000Y-70866000D01*
D28*
X104029000Y-72787000D02*
X104013000Y-72771000D01*
X105496000Y-72787000D02*
X104029000Y-72787000D01*
X103894000Y-73287000D02*
X103886000Y-73279000D01*
X105496000Y-73287000D02*
X103894000Y-73287000D01*
X105496000Y-72050000D02*
X105537000Y-72009000D01*
X105496000Y-73287000D02*
X105496000Y-72050000D01*
D29*
X94488000Y-74582020D02*
X94581980Y-74676000D01*
X94581980Y-78359000D02*
X94581980Y-74676000D01*
D28*
X99646740Y-84277200D02*
X94581980Y-79212440D01*
X122052080Y-84277200D02*
X99646740Y-84277200D01*
X94581980Y-79212440D02*
X94581980Y-78359000D01*
X123941840Y-82387440D02*
X122052080Y-84277200D01*
X123941840Y-81534000D02*
X123941840Y-82387440D01*
X93730600Y-64069100D02*
X94234000Y-64572500D01*
X93730600Y-63140100D02*
X93730600Y-64069100D01*
X94581980Y-74676000D02*
X94581980Y-72814180D01*
D27*
X99695000Y-72517000D02*
X101473000Y-72517000D01*
X89357200Y-69764900D02*
X89230200Y-72440800D01*
X89230200Y-72440800D02*
X89154000Y-72517000D01*
X96266000Y-72517000D02*
X97663000Y-72517000D01*
X93472000Y-72390000D02*
X94869000Y-72517000D01*
X93345000Y-72517000D02*
X93472000Y-72390000D01*
X90551000Y-72517000D02*
X91948000Y-72517000D01*
D28*
X109896000Y-73287000D02*
X111612300Y-73287000D01*
X111612300Y-73287000D02*
X111645700Y-73253600D01*
X109896000Y-72787000D02*
X111617000Y-72787000D01*
X111617000Y-72787000D02*
X111645700Y-72758300D01*
X109896000Y-73287000D02*
X109896000Y-72787000D01*
X109896000Y-72787000D02*
X109905800Y-72777200D01*
X109905800Y-72777200D02*
X109905800Y-72059800D01*
D27*
X124587000Y-71628000D02*
X122428000Y-71628000D01*
X120142000Y-71628000D02*
X118110000Y-71628000D01*
X116205000Y-72644000D02*
X114173000Y-72644000D01*
X118154200Y-65328800D02*
X118154200Y-62782200D01*
X122428000Y-69723000D02*
X124587000Y-69723000D01*
X124587000Y-67310000D02*
X122428000Y-67310000D01*
X122428000Y-64770000D02*
X124587000Y-64770000D01*
X120142000Y-62738000D02*
X120142000Y-64770000D01*
X124587000Y-62738000D02*
X122428000Y-62738000D01*
X122428000Y-60452000D02*
X124587000Y-60452000D01*
X118110000Y-60452000D02*
X120142000Y-60452000D01*
X118154200Y-62782200D02*
X118110000Y-62738000D01*
X118110000Y-71882000D02*
X119126000Y-72898000D01*
X121285000Y-72898000D02*
X121412000Y-73025000D01*
X121412000Y-73025000D02*
X123571000Y-73025000D01*
X118110000Y-71628000D02*
X118110000Y-71882000D01*
X116596702Y-75004202D02*
X113663002Y-75004202D01*
X112445800Y-73787000D02*
X109896000Y-73787000D01*
X113663002Y-75004202D02*
X112445800Y-73787000D01*
D28*
X91780600Y-65102500D02*
X91780600Y-63140100D01*
X91757500Y-65125600D02*
X91780600Y-65102500D01*
X90817700Y-65125600D02*
X91757500Y-65125600D01*
X89357200Y-66586100D02*
X90817700Y-65125600D01*
X89357200Y-67064900D02*
X89357200Y-66586100D01*
X91897200Y-65646300D02*
X92430600Y-65112900D01*
X92430600Y-65112900D02*
X92430600Y-63140100D01*
X91897200Y-67128400D02*
X91897200Y-65646300D01*
X93080600Y-65140600D02*
X93080600Y-63140100D01*
X94589600Y-66649600D02*
X93080600Y-65140600D01*
X94589600Y-67115700D02*
X94589600Y-66649600D01*
D27*
G36*
X106349800Y-72186800D02*
X104190800Y-72186800D01*
X104190800Y-73329743D01*
X99533200Y-73326241D01*
X99533200Y-70842681D01*
X99533200Y-70711319D01*
X99533200Y-70110350D01*
X99533200Y-69843650D01*
X99533200Y-69242681D01*
X99533200Y-69111319D01*
X99482930Y-68989957D01*
X99390043Y-68897070D01*
X99268681Y-68846800D01*
X98336350Y-68846800D01*
X98253800Y-68929350D01*
X98253800Y-69926200D01*
X99450650Y-69926200D01*
X99533200Y-69843650D01*
X99533200Y-70110350D01*
X99450650Y-70027800D01*
X98253800Y-70027800D01*
X98253800Y-71024650D01*
X98336350Y-71107200D01*
X99268681Y-71107200D01*
X99390043Y-71056930D01*
X99482930Y-70964043D01*
X99533200Y-70842681D01*
X99533200Y-73326241D01*
X98152200Y-73325202D01*
X98152200Y-71024650D01*
X98152200Y-70027800D01*
X98152200Y-69926200D01*
X98152200Y-68929350D01*
X98069650Y-68846800D01*
X97137319Y-68846800D01*
X97015957Y-68897070D01*
X96923070Y-68989957D01*
X96872800Y-69111319D01*
X96872800Y-69242681D01*
X96872800Y-69843650D01*
X96955350Y-69926200D01*
X98152200Y-69926200D01*
X98152200Y-70027800D01*
X96955350Y-70027800D01*
X96872800Y-70110350D01*
X96872800Y-70711319D01*
X96872800Y-70842681D01*
X96923070Y-70964043D01*
X97015957Y-71056930D01*
X97137319Y-71107200D01*
X98069650Y-71107200D01*
X98152200Y-71024650D01*
X98152200Y-73325202D01*
X95569800Y-73323261D01*
X95569800Y-70631381D01*
X95569800Y-69949050D01*
X95569800Y-69682350D01*
X95569800Y-69000019D01*
X95519530Y-68878657D01*
X95426643Y-68785770D01*
X95305281Y-68735500D01*
X95173919Y-68735500D01*
X94722950Y-68735500D01*
X94640400Y-68818050D01*
X94640400Y-69764900D01*
X95487250Y-69764900D01*
X95569800Y-69682350D01*
X95569800Y-69949050D01*
X95487250Y-69866500D01*
X94640400Y-69866500D01*
X94640400Y-70813350D01*
X94722950Y-70895900D01*
X95173919Y-70895900D01*
X95305281Y-70895900D01*
X95426643Y-70845630D01*
X95519530Y-70752743D01*
X95569800Y-70631381D01*
X95569800Y-73323261D01*
X94538800Y-73322485D01*
X94538800Y-70813350D01*
X94538800Y-69866500D01*
X94538800Y-69764900D01*
X94538800Y-68818050D01*
X94456250Y-68735500D01*
X94005281Y-68735500D01*
X93873919Y-68735500D01*
X93752557Y-68785770D01*
X93659670Y-68878657D01*
X93609400Y-69000019D01*
X93609400Y-69682350D01*
X93691950Y-69764900D01*
X94538800Y-69764900D01*
X94538800Y-69866500D01*
X93691950Y-69866500D01*
X93609400Y-69949050D01*
X93609400Y-70631381D01*
X93659670Y-70752743D01*
X93752557Y-70845630D01*
X93873919Y-70895900D01*
X94005281Y-70895900D01*
X94456250Y-70895900D01*
X94538800Y-70813350D01*
X94538800Y-73322485D01*
X92877400Y-73321236D01*
X92877400Y-70644081D01*
X92877400Y-69961750D01*
X92877400Y-69695050D01*
X92877400Y-69012719D01*
X92827130Y-68891357D01*
X92734243Y-68798470D01*
X92612881Y-68748200D01*
X92481519Y-68748200D01*
X92030550Y-68748200D01*
X91948000Y-68830750D01*
X91948000Y-69777600D01*
X92794850Y-69777600D01*
X92877400Y-69695050D01*
X92877400Y-69961750D01*
X92794850Y-69879200D01*
X91948000Y-69879200D01*
X91948000Y-70826050D01*
X92030550Y-70908600D01*
X92481519Y-70908600D01*
X92612881Y-70908600D01*
X92734243Y-70858330D01*
X92827130Y-70765443D01*
X92877400Y-70644081D01*
X92877400Y-73321236D01*
X91846400Y-73320461D01*
X91846400Y-70826050D01*
X91846400Y-69879200D01*
X91846400Y-69777600D01*
X91846400Y-68830750D01*
X91763850Y-68748200D01*
X91312881Y-68748200D01*
X91181519Y-68748200D01*
X91060157Y-68798470D01*
X90967270Y-68891357D01*
X90917000Y-69012719D01*
X90917000Y-69695050D01*
X90999550Y-69777600D01*
X91846400Y-69777600D01*
X91846400Y-69879200D01*
X90999550Y-69879200D01*
X90917000Y-69961750D01*
X90917000Y-70644081D01*
X90967270Y-70765443D01*
X91060157Y-70858330D01*
X91181519Y-70908600D01*
X91312881Y-70908600D01*
X91763850Y-70908600D01*
X91846400Y-70826050D01*
X91846400Y-73320461D01*
X90337400Y-73319326D01*
X90337400Y-70580581D01*
X90337400Y-69898250D01*
X90337400Y-69631550D01*
X90337400Y-68949219D01*
X90287130Y-68827857D01*
X90194243Y-68734970D01*
X90072881Y-68684700D01*
X89941519Y-68684700D01*
X89490550Y-68684700D01*
X89408000Y-68767250D01*
X89408000Y-69714100D01*
X90254850Y-69714100D01*
X90337400Y-69631550D01*
X90337400Y-69898250D01*
X90254850Y-69815700D01*
X89408000Y-69815700D01*
X89408000Y-70762550D01*
X89490550Y-70845100D01*
X89941519Y-70845100D01*
X90072881Y-70845100D01*
X90194243Y-70794830D01*
X90287130Y-70701943D01*
X90337400Y-70580581D01*
X90337400Y-73319326D01*
X89306400Y-73318551D01*
X89306400Y-70762550D01*
X89306400Y-69815700D01*
X89306400Y-69714100D01*
X89306400Y-68767250D01*
X89223850Y-68684700D01*
X88772881Y-68684700D01*
X88641519Y-68684700D01*
X88520157Y-68734970D01*
X88427270Y-68827857D01*
X88377000Y-68949219D01*
X88377000Y-69631550D01*
X88459550Y-69714100D01*
X89306400Y-69714100D01*
X89306400Y-69815700D01*
X88459550Y-69815700D01*
X88377000Y-69898250D01*
X88377000Y-70580581D01*
X88427270Y-70701943D01*
X88520157Y-70794830D01*
X88641519Y-70845100D01*
X88772881Y-70845100D01*
X89223850Y-70845100D01*
X89306400Y-70762550D01*
X89306400Y-73318551D01*
X87452628Y-73317158D01*
X87502573Y-64414554D01*
X91425000Y-64422526D01*
X91425000Y-64770000D01*
X90817700Y-64770000D01*
X90681617Y-64797068D01*
X90566253Y-64874153D01*
X89358585Y-66081821D01*
X88707200Y-66081821D01*
X88620036Y-66098733D01*
X88543426Y-66149058D01*
X88492144Y-66225029D01*
X88474121Y-66314900D01*
X88474121Y-67814900D01*
X88491033Y-67902064D01*
X88541358Y-67978674D01*
X88617329Y-68029956D01*
X88707200Y-68047979D01*
X90007200Y-68047979D01*
X90094364Y-68031067D01*
X90170974Y-67980742D01*
X90222256Y-67904771D01*
X90240279Y-67814900D01*
X90240279Y-66314900D01*
X90223367Y-66227736D01*
X90221420Y-66224773D01*
X90964994Y-65481200D01*
X91588056Y-65481200D01*
X91568668Y-65510217D01*
X91541600Y-65646300D01*
X91541600Y-66145321D01*
X91247200Y-66145321D01*
X91160036Y-66162233D01*
X91083426Y-66212558D01*
X91032144Y-66288529D01*
X91014121Y-66378400D01*
X91014121Y-67878400D01*
X91031033Y-67965564D01*
X91081358Y-68042174D01*
X91157329Y-68093456D01*
X91247200Y-68111479D01*
X92547200Y-68111479D01*
X92634364Y-68094567D01*
X92710974Y-68044242D01*
X92762256Y-67968271D01*
X92780279Y-67878400D01*
X92780279Y-66378400D01*
X92763367Y-66291236D01*
X92713042Y-66214626D01*
X92637071Y-66163344D01*
X92547200Y-66145321D01*
X92252800Y-66145321D01*
X92252800Y-65793594D01*
X92682047Y-65364347D01*
X92682048Y-65364347D01*
X92749442Y-65263483D01*
X92752068Y-65276683D01*
X92829153Y-65392047D01*
X93722604Y-66285498D01*
X93706521Y-66365700D01*
X93706521Y-67865700D01*
X93723433Y-67952864D01*
X93773758Y-68029474D01*
X93849729Y-68080756D01*
X93939600Y-68098779D01*
X95239600Y-68098779D01*
X95326764Y-68081867D01*
X95403374Y-68031542D01*
X95454656Y-67955571D01*
X95472679Y-67865700D01*
X95472679Y-66365700D01*
X95455767Y-66278536D01*
X95405442Y-66201926D01*
X95329471Y-66150644D01*
X95239600Y-66132621D01*
X94575515Y-66132621D01*
X93436200Y-64993306D01*
X93436200Y-64426614D01*
X99847665Y-64439646D01*
X99873066Y-71704200D01*
X106349800Y-71704200D01*
X106349800Y-72186800D01*
X106349800Y-72186800D01*
G37*
X106349800Y-72186800D02*
X104190800Y-72186800D01*
X104190800Y-73329743D01*
X99533200Y-73326241D01*
X99533200Y-70842681D01*
X99533200Y-70711319D01*
X99533200Y-70110350D01*
X99533200Y-69843650D01*
X99533200Y-69242681D01*
X99533200Y-69111319D01*
X99482930Y-68989957D01*
X99390043Y-68897070D01*
X99268681Y-68846800D01*
X98336350Y-68846800D01*
X98253800Y-68929350D01*
X98253800Y-69926200D01*
X99450650Y-69926200D01*
X99533200Y-69843650D01*
X99533200Y-70110350D01*
X99450650Y-70027800D01*
X98253800Y-70027800D01*
X98253800Y-71024650D01*
X98336350Y-71107200D01*
X99268681Y-71107200D01*
X99390043Y-71056930D01*
X99482930Y-70964043D01*
X99533200Y-70842681D01*
X99533200Y-73326241D01*
X98152200Y-73325202D01*
X98152200Y-71024650D01*
X98152200Y-70027800D01*
X98152200Y-69926200D01*
X98152200Y-68929350D01*
X98069650Y-68846800D01*
X97137319Y-68846800D01*
X97015957Y-68897070D01*
X96923070Y-68989957D01*
X96872800Y-69111319D01*
X96872800Y-69242681D01*
X96872800Y-69843650D01*
X96955350Y-69926200D01*
X98152200Y-69926200D01*
X98152200Y-70027800D01*
X96955350Y-70027800D01*
X96872800Y-70110350D01*
X96872800Y-70711319D01*
X96872800Y-70842681D01*
X96923070Y-70964043D01*
X97015957Y-71056930D01*
X97137319Y-71107200D01*
X98069650Y-71107200D01*
X98152200Y-71024650D01*
X98152200Y-73325202D01*
X95569800Y-73323261D01*
X95569800Y-70631381D01*
X95569800Y-69949050D01*
X95569800Y-69682350D01*
X95569800Y-69000019D01*
X95519530Y-68878657D01*
X95426643Y-68785770D01*
X95305281Y-68735500D01*
X95173919Y-68735500D01*
X94722950Y-68735500D01*
X94640400Y-68818050D01*
X94640400Y-69764900D01*
X95487250Y-69764900D01*
X95569800Y-69682350D01*
X95569800Y-69949050D01*
X95487250Y-69866500D01*
X94640400Y-69866500D01*
X94640400Y-70813350D01*
X94722950Y-70895900D01*
X95173919Y-70895900D01*
X95305281Y-70895900D01*
X95426643Y-70845630D01*
X95519530Y-70752743D01*
X95569800Y-70631381D01*
X95569800Y-73323261D01*
X94538800Y-73322485D01*
X94538800Y-70813350D01*
X94538800Y-69866500D01*
X94538800Y-69764900D01*
X94538800Y-68818050D01*
X94456250Y-68735500D01*
X94005281Y-68735500D01*
X93873919Y-68735500D01*
X93752557Y-68785770D01*
X93659670Y-68878657D01*
X93609400Y-69000019D01*
X93609400Y-69682350D01*
X93691950Y-69764900D01*
X94538800Y-69764900D01*
X94538800Y-69866500D01*
X93691950Y-69866500D01*
X93609400Y-69949050D01*
X93609400Y-70631381D01*
X93659670Y-70752743D01*
X93752557Y-70845630D01*
X93873919Y-70895900D01*
X94005281Y-70895900D01*
X94456250Y-70895900D01*
X94538800Y-70813350D01*
X94538800Y-73322485D01*
X92877400Y-73321236D01*
X92877400Y-70644081D01*
X92877400Y-69961750D01*
X92877400Y-69695050D01*
X92877400Y-69012719D01*
X92827130Y-68891357D01*
X92734243Y-68798470D01*
X92612881Y-68748200D01*
X92481519Y-68748200D01*
X92030550Y-68748200D01*
X91948000Y-68830750D01*
X91948000Y-69777600D01*
X92794850Y-69777600D01*
X92877400Y-69695050D01*
X92877400Y-69961750D01*
X92794850Y-69879200D01*
X91948000Y-69879200D01*
X91948000Y-70826050D01*
X92030550Y-70908600D01*
X92481519Y-70908600D01*
X92612881Y-70908600D01*
X92734243Y-70858330D01*
X92827130Y-70765443D01*
X92877400Y-70644081D01*
X92877400Y-73321236D01*
X91846400Y-73320461D01*
X91846400Y-70826050D01*
X91846400Y-69879200D01*
X91846400Y-69777600D01*
X91846400Y-68830750D01*
X91763850Y-68748200D01*
X91312881Y-68748200D01*
X91181519Y-68748200D01*
X91060157Y-68798470D01*
X90967270Y-68891357D01*
X90917000Y-69012719D01*
X90917000Y-69695050D01*
X90999550Y-69777600D01*
X91846400Y-69777600D01*
X91846400Y-69879200D01*
X90999550Y-69879200D01*
X90917000Y-69961750D01*
X90917000Y-70644081D01*
X90967270Y-70765443D01*
X91060157Y-70858330D01*
X91181519Y-70908600D01*
X91312881Y-70908600D01*
X91763850Y-70908600D01*
X91846400Y-70826050D01*
X91846400Y-73320461D01*
X90337400Y-73319326D01*
X90337400Y-70580581D01*
X90337400Y-69898250D01*
X90337400Y-69631550D01*
X90337400Y-68949219D01*
X90287130Y-68827857D01*
X90194243Y-68734970D01*
X90072881Y-68684700D01*
X89941519Y-68684700D01*
X89490550Y-68684700D01*
X89408000Y-68767250D01*
X89408000Y-69714100D01*
X90254850Y-69714100D01*
X90337400Y-69631550D01*
X90337400Y-69898250D01*
X90254850Y-69815700D01*
X89408000Y-69815700D01*
X89408000Y-70762550D01*
X89490550Y-70845100D01*
X89941519Y-70845100D01*
X90072881Y-70845100D01*
X90194243Y-70794830D01*
X90287130Y-70701943D01*
X90337400Y-70580581D01*
X90337400Y-73319326D01*
X89306400Y-73318551D01*
X89306400Y-70762550D01*
X89306400Y-69815700D01*
X89306400Y-69714100D01*
X89306400Y-68767250D01*
X89223850Y-68684700D01*
X88772881Y-68684700D01*
X88641519Y-68684700D01*
X88520157Y-68734970D01*
X88427270Y-68827857D01*
X88377000Y-68949219D01*
X88377000Y-69631550D01*
X88459550Y-69714100D01*
X89306400Y-69714100D01*
X89306400Y-69815700D01*
X88459550Y-69815700D01*
X88377000Y-69898250D01*
X88377000Y-70580581D01*
X88427270Y-70701943D01*
X88520157Y-70794830D01*
X88641519Y-70845100D01*
X88772881Y-70845100D01*
X89223850Y-70845100D01*
X89306400Y-70762550D01*
X89306400Y-73318551D01*
X87452628Y-73317158D01*
X87502573Y-64414554D01*
X91425000Y-64422526D01*
X91425000Y-64770000D01*
X90817700Y-64770000D01*
X90681617Y-64797068D01*
X90566253Y-64874153D01*
X89358585Y-66081821D01*
X88707200Y-66081821D01*
X88620036Y-66098733D01*
X88543426Y-66149058D01*
X88492144Y-66225029D01*
X88474121Y-66314900D01*
X88474121Y-67814900D01*
X88491033Y-67902064D01*
X88541358Y-67978674D01*
X88617329Y-68029956D01*
X88707200Y-68047979D01*
X90007200Y-68047979D01*
X90094364Y-68031067D01*
X90170974Y-67980742D01*
X90222256Y-67904771D01*
X90240279Y-67814900D01*
X90240279Y-66314900D01*
X90223367Y-66227736D01*
X90221420Y-66224773D01*
X90964994Y-65481200D01*
X91588056Y-65481200D01*
X91568668Y-65510217D01*
X91541600Y-65646300D01*
X91541600Y-66145321D01*
X91247200Y-66145321D01*
X91160036Y-66162233D01*
X91083426Y-66212558D01*
X91032144Y-66288529D01*
X91014121Y-66378400D01*
X91014121Y-67878400D01*
X91031033Y-67965564D01*
X91081358Y-68042174D01*
X91157329Y-68093456D01*
X91247200Y-68111479D01*
X92547200Y-68111479D01*
X92634364Y-68094567D01*
X92710974Y-68044242D01*
X92762256Y-67968271D01*
X92780279Y-67878400D01*
X92780279Y-66378400D01*
X92763367Y-66291236D01*
X92713042Y-66214626D01*
X92637071Y-66163344D01*
X92547200Y-66145321D01*
X92252800Y-66145321D01*
X92252800Y-65793594D01*
X92682047Y-65364347D01*
X92682048Y-65364347D01*
X92749442Y-65263483D01*
X92752068Y-65276683D01*
X92829153Y-65392047D01*
X93722604Y-66285498D01*
X93706521Y-66365700D01*
X93706521Y-67865700D01*
X93723433Y-67952864D01*
X93773758Y-68029474D01*
X93849729Y-68080756D01*
X93939600Y-68098779D01*
X95239600Y-68098779D01*
X95326764Y-68081867D01*
X95403374Y-68031542D01*
X95454656Y-67955571D01*
X95472679Y-67865700D01*
X95472679Y-66365700D01*
X95455767Y-66278536D01*
X95405442Y-66201926D01*
X95329471Y-66150644D01*
X95239600Y-66132621D01*
X94575515Y-66132621D01*
X93436200Y-64993306D01*
X93436200Y-64426614D01*
X99847665Y-64439646D01*
X99873066Y-71704200D01*
X106349800Y-71704200D01*
X106349800Y-72186800D01*
G36*
X125451400Y-73380466D02*
X120284500Y-73375925D01*
X120284500Y-69547281D01*
X120284500Y-69415919D01*
X120284500Y-68814950D01*
X120284500Y-68548250D01*
X120284500Y-67947281D01*
X120284500Y-67815919D01*
X120234230Y-67694557D01*
X120141343Y-67601670D01*
X120019981Y-67551400D01*
X119234400Y-67551400D01*
X119234400Y-66144481D01*
X119234400Y-65462150D01*
X119234400Y-65195450D01*
X119234400Y-64513119D01*
X119184130Y-64391757D01*
X119091243Y-64298870D01*
X118969881Y-64248600D01*
X118838519Y-64248600D01*
X118287550Y-64248600D01*
X118205000Y-64331150D01*
X118205000Y-65278000D01*
X119151850Y-65278000D01*
X119234400Y-65195450D01*
X119234400Y-65462150D01*
X119151850Y-65379600D01*
X118205000Y-65379600D01*
X118205000Y-66326450D01*
X118287550Y-66409000D01*
X118838519Y-66409000D01*
X118969881Y-66409000D01*
X119091243Y-66358730D01*
X119184130Y-66265843D01*
X119234400Y-66144481D01*
X119234400Y-67551400D01*
X119087650Y-67551400D01*
X119005100Y-67633950D01*
X119005100Y-68630800D01*
X120201950Y-68630800D01*
X120284500Y-68548250D01*
X120284500Y-68814950D01*
X120201950Y-68732400D01*
X119005100Y-68732400D01*
X119005100Y-69729250D01*
X119087650Y-69811800D01*
X120019981Y-69811800D01*
X120141343Y-69761530D01*
X120234230Y-69668643D01*
X120284500Y-69547281D01*
X120284500Y-73375925D01*
X118903500Y-73374712D01*
X118903500Y-69729250D01*
X118903500Y-68732400D01*
X118903500Y-68630800D01*
X118903500Y-67633950D01*
X118820950Y-67551400D01*
X117888619Y-67551400D01*
X117767257Y-67601670D01*
X117674370Y-67694557D01*
X117624100Y-67815919D01*
X117624100Y-67947281D01*
X117624100Y-68548250D01*
X117706650Y-68630800D01*
X118903500Y-68630800D01*
X118903500Y-68732400D01*
X117706650Y-68732400D01*
X117624100Y-68814950D01*
X117624100Y-69415919D01*
X117624100Y-69547281D01*
X117674370Y-69668643D01*
X117767257Y-69761530D01*
X117888619Y-69811800D01*
X118820950Y-69811800D01*
X118903500Y-69729250D01*
X118903500Y-73374712D01*
X111226600Y-73367967D01*
X111226600Y-72184498D01*
X109194600Y-72186717D01*
X109194600Y-71704200D01*
X117296893Y-71704200D01*
X117318278Y-66400616D01*
X117338519Y-66409000D01*
X117469881Y-66409000D01*
X118020850Y-66409000D01*
X118103400Y-66326450D01*
X118103400Y-65379600D01*
X118083400Y-65379600D01*
X118083400Y-65278000D01*
X118103400Y-65278000D01*
X118103400Y-64331150D01*
X118020850Y-64248600D01*
X117469881Y-64248600D01*
X117338519Y-64248600D01*
X117326936Y-64253397D01*
X117346775Y-59333600D01*
X125451400Y-59333600D01*
X125451400Y-73380466D01*
X125451400Y-73380466D01*
G37*
X125451400Y-73380466D02*
X120284500Y-73375925D01*
X120284500Y-69547281D01*
X120284500Y-69415919D01*
X120284500Y-68814950D01*
X120284500Y-68548250D01*
X120284500Y-67947281D01*
X120284500Y-67815919D01*
X120234230Y-67694557D01*
X120141343Y-67601670D01*
X120019981Y-67551400D01*
X119234400Y-67551400D01*
X119234400Y-66144481D01*
X119234400Y-65462150D01*
X119234400Y-65195450D01*
X119234400Y-64513119D01*
X119184130Y-64391757D01*
X119091243Y-64298870D01*
X118969881Y-64248600D01*
X118838519Y-64248600D01*
X118287550Y-64248600D01*
X118205000Y-64331150D01*
X118205000Y-65278000D01*
X119151850Y-65278000D01*
X119234400Y-65195450D01*
X119234400Y-65462150D01*
X119151850Y-65379600D01*
X118205000Y-65379600D01*
X118205000Y-66326450D01*
X118287550Y-66409000D01*
X118838519Y-66409000D01*
X118969881Y-66409000D01*
X119091243Y-66358730D01*
X119184130Y-66265843D01*
X119234400Y-66144481D01*
X119234400Y-67551400D01*
X119087650Y-67551400D01*
X119005100Y-67633950D01*
X119005100Y-68630800D01*
X120201950Y-68630800D01*
X120284500Y-68548250D01*
X120284500Y-68814950D01*
X120201950Y-68732400D01*
X119005100Y-68732400D01*
X119005100Y-69729250D01*
X119087650Y-69811800D01*
X120019981Y-69811800D01*
X120141343Y-69761530D01*
X120234230Y-69668643D01*
X120284500Y-69547281D01*
X120284500Y-73375925D01*
X118903500Y-73374712D01*
X118903500Y-69729250D01*
X118903500Y-68732400D01*
X118903500Y-68630800D01*
X118903500Y-67633950D01*
X118820950Y-67551400D01*
X117888619Y-67551400D01*
X117767257Y-67601670D01*
X117674370Y-67694557D01*
X117624100Y-67815919D01*
X117624100Y-67947281D01*
X117624100Y-68548250D01*
X117706650Y-68630800D01*
X118903500Y-68630800D01*
X118903500Y-68732400D01*
X117706650Y-68732400D01*
X117624100Y-68814950D01*
X117624100Y-69415919D01*
X117624100Y-69547281D01*
X117674370Y-69668643D01*
X117767257Y-69761530D01*
X117888619Y-69811800D01*
X118820950Y-69811800D01*
X118903500Y-69729250D01*
X118903500Y-73374712D01*
X111226600Y-73367967D01*
X111226600Y-72184498D01*
X109194600Y-72186717D01*
X109194600Y-71704200D01*
X117296893Y-71704200D01*
X117318278Y-66400616D01*
X117338519Y-66409000D01*
X117469881Y-66409000D01*
X118020850Y-66409000D01*
X118103400Y-66326450D01*
X118103400Y-65379600D01*
X118083400Y-65379600D01*
X118083400Y-65278000D01*
X118103400Y-65278000D01*
X118103400Y-64331150D01*
X118020850Y-64248600D01*
X117469881Y-64248600D01*
X117338519Y-64248600D01*
X117326936Y-64253397D01*
X117346775Y-59333600D01*
X125451400Y-59333600D01*
X125451400Y-73380466D01*
G36*
X116636800Y-71031219D02*
X116284500Y-71031771D01*
X116284500Y-69547281D01*
X116284500Y-69415919D01*
X116284500Y-68814950D01*
X116284500Y-68548250D01*
X116284500Y-67947281D01*
X116284500Y-67815919D01*
X116234230Y-67694557D01*
X116141343Y-67601670D01*
X116019981Y-67551400D01*
X115087650Y-67551400D01*
X115005100Y-67633950D01*
X115005100Y-68630800D01*
X116201950Y-68630800D01*
X116284500Y-68548250D01*
X116284500Y-68814950D01*
X116201950Y-68732400D01*
X115005100Y-68732400D01*
X115005100Y-69729250D01*
X115087650Y-69811800D01*
X116019981Y-69811800D01*
X116141343Y-69761530D01*
X116234230Y-69668643D01*
X116284500Y-69547281D01*
X116284500Y-71031771D01*
X114903500Y-71033935D01*
X114903500Y-69729250D01*
X114903500Y-68732400D01*
X114903500Y-68630800D01*
X114903500Y-67633950D01*
X114820950Y-67551400D01*
X113888619Y-67551400D01*
X113767257Y-67601670D01*
X113674370Y-67694557D01*
X113624100Y-67815919D01*
X113624100Y-67947281D01*
X113624100Y-68548250D01*
X113706650Y-68630800D01*
X114903500Y-68630800D01*
X114903500Y-68732400D01*
X113706650Y-68732400D01*
X113624100Y-68814950D01*
X113624100Y-69415919D01*
X113624100Y-69547281D01*
X113674370Y-69668643D01*
X113767257Y-69761530D01*
X113888619Y-69811800D01*
X114820950Y-69811800D01*
X114903500Y-69729250D01*
X114903500Y-71033935D01*
X110742659Y-71040457D01*
X110742659Y-68082108D01*
X110742659Y-67557888D01*
X110541101Y-67068809D01*
X110167724Y-66694092D01*
X109679370Y-66490784D01*
X109674608Y-66489837D01*
X109463298Y-66547822D01*
X109463298Y-67769198D01*
X110684674Y-67769198D01*
X110742659Y-67557888D01*
X110742659Y-68082108D01*
X110684674Y-67870798D01*
X109463298Y-67870798D01*
X109463298Y-69092174D01*
X109674608Y-69150159D01*
X110163687Y-68948601D01*
X110538404Y-68575224D01*
X110741712Y-68086870D01*
X110742659Y-68082108D01*
X110742659Y-71040457D01*
X109361698Y-71042622D01*
X109361698Y-69092174D01*
X109361698Y-67870798D01*
X109361698Y-67769198D01*
X109361698Y-66547822D01*
X109150388Y-66489837D01*
X108661309Y-66691395D01*
X108286592Y-67064772D01*
X108083284Y-67553126D01*
X108082337Y-67557888D01*
X108140322Y-67769198D01*
X109361698Y-67769198D01*
X109361698Y-67870798D01*
X108140322Y-67870798D01*
X108082337Y-68082108D01*
X108283895Y-68571187D01*
X108657272Y-68945904D01*
X109145626Y-69149212D01*
X109150388Y-69150159D01*
X109361698Y-69092174D01*
X109361698Y-71042622D01*
X108534457Y-71043919D01*
X108516818Y-76264901D01*
X108507881Y-76261200D01*
X107825550Y-76261200D01*
X107743000Y-76343750D01*
X107743000Y-77190600D01*
X107763000Y-77190600D01*
X107763000Y-77292200D01*
X107743000Y-77292200D01*
X107743000Y-78139050D01*
X107825550Y-78221600D01*
X108507881Y-78221600D01*
X108510210Y-78220634D01*
X108508542Y-78714600D01*
X112141398Y-78714600D01*
X112150216Y-80398908D01*
X112136521Y-80467200D01*
X112136521Y-81150291D01*
X111966067Y-80736998D01*
X111595217Y-80365015D01*
X111110245Y-80163266D01*
X111106217Y-80162468D01*
X110896400Y-80220572D01*
X110896400Y-81432400D01*
X110916400Y-81432400D01*
X110916400Y-81534000D01*
X110896400Y-81534000D01*
X110896400Y-82745828D01*
X111106217Y-82803932D01*
X111110245Y-82803134D01*
X111595217Y-82601385D01*
X111966067Y-82229402D01*
X112136521Y-81816108D01*
X112136521Y-82499200D01*
X112153433Y-82586364D01*
X112161735Y-82599002D01*
X112166000Y-83413600D01*
X110794800Y-83413600D01*
X110794800Y-82745828D01*
X110794800Y-81534000D01*
X110794800Y-81432400D01*
X110794800Y-80220572D01*
X110584983Y-80162468D01*
X110580955Y-80163266D01*
X110095983Y-80365015D01*
X109725133Y-80736998D01*
X109524864Y-81222583D01*
X109582905Y-81432400D01*
X110794800Y-81432400D01*
X110794800Y-81534000D01*
X109582905Y-81534000D01*
X109524864Y-81743817D01*
X109725133Y-82229402D01*
X110095983Y-82601385D01*
X110580955Y-82803134D01*
X110584983Y-82803932D01*
X110794800Y-82745828D01*
X110794800Y-83413600D01*
X109778800Y-83413600D01*
X107950000Y-83413600D01*
X107641400Y-83413600D01*
X107641400Y-78139050D01*
X107641400Y-77292200D01*
X107641400Y-77190600D01*
X107641400Y-76343750D01*
X107558850Y-76261200D01*
X106876519Y-76261200D01*
X106755157Y-76311470D01*
X106662270Y-76404357D01*
X106612000Y-76525719D01*
X106612000Y-76657081D01*
X106612000Y-77108050D01*
X106694550Y-77190600D01*
X107641400Y-77190600D01*
X107641400Y-77292200D01*
X106694550Y-77292200D01*
X106612000Y-77374750D01*
X106612000Y-77825719D01*
X106612000Y-77957081D01*
X106662270Y-78078443D01*
X106755157Y-78171330D01*
X106876519Y-78221600D01*
X107558850Y-78221600D01*
X107641400Y-78139050D01*
X107641400Y-83413600D01*
X106019600Y-83413600D01*
X103835200Y-83413600D01*
X103835200Y-81686400D01*
X103835200Y-75513593D01*
X107010200Y-75488193D01*
X107010200Y-71043831D01*
X103417086Y-71029886D01*
X103482930Y-70964043D01*
X103533200Y-70842681D01*
X103533200Y-70711319D01*
X103533200Y-70110350D01*
X103533200Y-69843650D01*
X103533200Y-69242681D01*
X103533200Y-69111319D01*
X103482930Y-68989957D01*
X103390043Y-68897070D01*
X103268681Y-68846800D01*
X102336350Y-68846800D01*
X102253800Y-68929350D01*
X102253800Y-69926200D01*
X103450650Y-69926200D01*
X103533200Y-69843650D01*
X103533200Y-70110350D01*
X103450650Y-70027800D01*
X102253800Y-70027800D01*
X102253800Y-70047800D01*
X102152200Y-70047800D01*
X102152200Y-70027800D01*
X102152200Y-69926200D01*
X102152200Y-68929350D01*
X102069650Y-68846800D01*
X101137319Y-68846800D01*
X101015957Y-68897070D01*
X100923070Y-68989957D01*
X100872800Y-69111319D01*
X100872800Y-69242681D01*
X100872800Y-69843650D01*
X100955350Y-69926200D01*
X102152200Y-69926200D01*
X102152200Y-70027800D01*
X100955350Y-70027800D01*
X100872800Y-70110350D01*
X100872800Y-70711319D01*
X100872800Y-70842681D01*
X100923070Y-70964043D01*
X100979453Y-71020426D01*
X100533200Y-71018695D01*
X100533200Y-59333600D01*
X116636800Y-59333600D01*
X116636800Y-64358916D01*
X116361638Y-64247149D01*
X115931917Y-64250102D01*
X115548622Y-64408868D01*
X115470608Y-64573366D01*
X116154200Y-65256958D01*
X116168342Y-65242815D01*
X116240184Y-65314657D01*
X116226042Y-65328800D01*
X116240184Y-65342942D01*
X116168342Y-65414784D01*
X116154200Y-65400642D01*
X116082358Y-65472484D01*
X116082358Y-65328800D01*
X115398766Y-64645208D01*
X115234268Y-64723222D01*
X115072549Y-65121362D01*
X115075502Y-65551083D01*
X115234268Y-65934378D01*
X115398766Y-66012392D01*
X116082358Y-65328800D01*
X116082358Y-65472484D01*
X115470608Y-66084234D01*
X115548622Y-66248732D01*
X115946762Y-66410451D01*
X116376483Y-66407498D01*
X116636800Y-66299671D01*
X116636800Y-71031219D01*
X116636800Y-71031219D01*
G37*
X116636800Y-71031219D02*
X116284500Y-71031771D01*
X116284500Y-69547281D01*
X116284500Y-69415919D01*
X116284500Y-68814950D01*
X116284500Y-68548250D01*
X116284500Y-67947281D01*
X116284500Y-67815919D01*
X116234230Y-67694557D01*
X116141343Y-67601670D01*
X116019981Y-67551400D01*
X115087650Y-67551400D01*
X115005100Y-67633950D01*
X115005100Y-68630800D01*
X116201950Y-68630800D01*
X116284500Y-68548250D01*
X116284500Y-68814950D01*
X116201950Y-68732400D01*
X115005100Y-68732400D01*
X115005100Y-69729250D01*
X115087650Y-69811800D01*
X116019981Y-69811800D01*
X116141343Y-69761530D01*
X116234230Y-69668643D01*
X116284500Y-69547281D01*
X116284500Y-71031771D01*
X114903500Y-71033935D01*
X114903500Y-69729250D01*
X114903500Y-68732400D01*
X114903500Y-68630800D01*
X114903500Y-67633950D01*
X114820950Y-67551400D01*
X113888619Y-67551400D01*
X113767257Y-67601670D01*
X113674370Y-67694557D01*
X113624100Y-67815919D01*
X113624100Y-67947281D01*
X113624100Y-68548250D01*
X113706650Y-68630800D01*
X114903500Y-68630800D01*
X114903500Y-68732400D01*
X113706650Y-68732400D01*
X113624100Y-68814950D01*
X113624100Y-69415919D01*
X113624100Y-69547281D01*
X113674370Y-69668643D01*
X113767257Y-69761530D01*
X113888619Y-69811800D01*
X114820950Y-69811800D01*
X114903500Y-69729250D01*
X114903500Y-71033935D01*
X110742659Y-71040457D01*
X110742659Y-68082108D01*
X110742659Y-67557888D01*
X110541101Y-67068809D01*
X110167724Y-66694092D01*
X109679370Y-66490784D01*
X109674608Y-66489837D01*
X109463298Y-66547822D01*
X109463298Y-67769198D01*
X110684674Y-67769198D01*
X110742659Y-67557888D01*
X110742659Y-68082108D01*
X110684674Y-67870798D01*
X109463298Y-67870798D01*
X109463298Y-69092174D01*
X109674608Y-69150159D01*
X110163687Y-68948601D01*
X110538404Y-68575224D01*
X110741712Y-68086870D01*
X110742659Y-68082108D01*
X110742659Y-71040457D01*
X109361698Y-71042622D01*
X109361698Y-69092174D01*
X109361698Y-67870798D01*
X109361698Y-67769198D01*
X109361698Y-66547822D01*
X109150388Y-66489837D01*
X108661309Y-66691395D01*
X108286592Y-67064772D01*
X108083284Y-67553126D01*
X108082337Y-67557888D01*
X108140322Y-67769198D01*
X109361698Y-67769198D01*
X109361698Y-67870798D01*
X108140322Y-67870798D01*
X108082337Y-68082108D01*
X108283895Y-68571187D01*
X108657272Y-68945904D01*
X109145626Y-69149212D01*
X109150388Y-69150159D01*
X109361698Y-69092174D01*
X109361698Y-71042622D01*
X108534457Y-71043919D01*
X108516818Y-76264901D01*
X108507881Y-76261200D01*
X107825550Y-76261200D01*
X107743000Y-76343750D01*
X107743000Y-77190600D01*
X107763000Y-77190600D01*
X107763000Y-77292200D01*
X107743000Y-77292200D01*
X107743000Y-78139050D01*
X107825550Y-78221600D01*
X108507881Y-78221600D01*
X108510210Y-78220634D01*
X108508542Y-78714600D01*
X112141398Y-78714600D01*
X112150216Y-80398908D01*
X112136521Y-80467200D01*
X112136521Y-81150291D01*
X111966067Y-80736998D01*
X111595217Y-80365015D01*
X111110245Y-80163266D01*
X111106217Y-80162468D01*
X110896400Y-80220572D01*
X110896400Y-81432400D01*
X110916400Y-81432400D01*
X110916400Y-81534000D01*
X110896400Y-81534000D01*
X110896400Y-82745828D01*
X111106217Y-82803932D01*
X111110245Y-82803134D01*
X111595217Y-82601385D01*
X111966067Y-82229402D01*
X112136521Y-81816108D01*
X112136521Y-82499200D01*
X112153433Y-82586364D01*
X112161735Y-82599002D01*
X112166000Y-83413600D01*
X110794800Y-83413600D01*
X110794800Y-82745828D01*
X110794800Y-81534000D01*
X110794800Y-81432400D01*
X110794800Y-80220572D01*
X110584983Y-80162468D01*
X110580955Y-80163266D01*
X110095983Y-80365015D01*
X109725133Y-80736998D01*
X109524864Y-81222583D01*
X109582905Y-81432400D01*
X110794800Y-81432400D01*
X110794800Y-81534000D01*
X109582905Y-81534000D01*
X109524864Y-81743817D01*
X109725133Y-82229402D01*
X110095983Y-82601385D01*
X110580955Y-82803134D01*
X110584983Y-82803932D01*
X110794800Y-82745828D01*
X110794800Y-83413600D01*
X109778800Y-83413600D01*
X107950000Y-83413600D01*
X107641400Y-83413600D01*
X107641400Y-78139050D01*
X107641400Y-77292200D01*
X107641400Y-77190600D01*
X107641400Y-76343750D01*
X107558850Y-76261200D01*
X106876519Y-76261200D01*
X106755157Y-76311470D01*
X106662270Y-76404357D01*
X106612000Y-76525719D01*
X106612000Y-76657081D01*
X106612000Y-77108050D01*
X106694550Y-77190600D01*
X107641400Y-77190600D01*
X107641400Y-77292200D01*
X106694550Y-77292200D01*
X106612000Y-77374750D01*
X106612000Y-77825719D01*
X106612000Y-77957081D01*
X106662270Y-78078443D01*
X106755157Y-78171330D01*
X106876519Y-78221600D01*
X107558850Y-78221600D01*
X107641400Y-78139050D01*
X107641400Y-83413600D01*
X106019600Y-83413600D01*
X103835200Y-83413600D01*
X103835200Y-81686400D01*
X103835200Y-75513593D01*
X107010200Y-75488193D01*
X107010200Y-71043831D01*
X103417086Y-71029886D01*
X103482930Y-70964043D01*
X103533200Y-70842681D01*
X103533200Y-70711319D01*
X103533200Y-70110350D01*
X103533200Y-69843650D01*
X103533200Y-69242681D01*
X103533200Y-69111319D01*
X103482930Y-68989957D01*
X103390043Y-68897070D01*
X103268681Y-68846800D01*
X102336350Y-68846800D01*
X102253800Y-68929350D01*
X102253800Y-69926200D01*
X103450650Y-69926200D01*
X103533200Y-69843650D01*
X103533200Y-70110350D01*
X103450650Y-70027800D01*
X102253800Y-70027800D01*
X102253800Y-70047800D01*
X102152200Y-70047800D01*
X102152200Y-70027800D01*
X102152200Y-69926200D01*
X102152200Y-68929350D01*
X102069650Y-68846800D01*
X101137319Y-68846800D01*
X101015957Y-68897070D01*
X100923070Y-68989957D01*
X100872800Y-69111319D01*
X100872800Y-69242681D01*
X100872800Y-69843650D01*
X100955350Y-69926200D01*
X102152200Y-69926200D01*
X102152200Y-70027800D01*
X100955350Y-70027800D01*
X100872800Y-70110350D01*
X100872800Y-70711319D01*
X100872800Y-70842681D01*
X100923070Y-70964043D01*
X100979453Y-71020426D01*
X100533200Y-71018695D01*
X100533200Y-59333600D01*
X116636800Y-59333600D01*
X116636800Y-64358916D01*
X116361638Y-64247149D01*
X115931917Y-64250102D01*
X115548622Y-64408868D01*
X115470608Y-64573366D01*
X116154200Y-65256958D01*
X116168342Y-65242815D01*
X116240184Y-65314657D01*
X116226042Y-65328800D01*
X116240184Y-65342942D01*
X116168342Y-65414784D01*
X116154200Y-65400642D01*
X116082358Y-65472484D01*
X116082358Y-65328800D01*
X115398766Y-64645208D01*
X115234268Y-64723222D01*
X115072549Y-65121362D01*
X115075502Y-65551083D01*
X115234268Y-65934378D01*
X115398766Y-66012392D01*
X116082358Y-65328800D01*
X116082358Y-65472484D01*
X115470608Y-66084234D01*
X115548622Y-66248732D01*
X115946762Y-66410451D01*
X116376483Y-66407498D01*
X116636800Y-66299671D01*
X116636800Y-71031219D01*
M02*
