G04 #@! TF.FileFunction,Legend,Top*
%FSLAX46Y46*%
G04 Gerber Fmt 4.6, Leading zero omitted, Abs format (unit mm)*
G04 Created by KiCad (PCBNEW 0.201503261001+5536~22~ubuntu14.04.1-product) date Sun 29 Mar 2015 21:21:47 CEST*
%MOMM*%
G01*
G04 APERTURE LIST*
%ADD10C,0.100000*%
%ADD11C,0.150000*%
%ADD12C,0.127000*%
%ADD13R,2.000000X1.600000*%
%ADD14R,1.198880X1.198880*%
%ADD15R,2.032000X2.032000*%
%ADD16O,2.032000X2.032000*%
%ADD17R,1.500000X1.300000*%
%ADD18R,1.300000X1.500000*%
%ADD19R,1.400000X0.300000*%
%ADD20R,1.500000X1.500000*%
%ADD21C,1.500000*%
%ADD22R,0.400000X1.350000*%
%ADD23R,1.600000X1.400000*%
%ADD24R,1.900000X1.900000*%
%ADD25C,1.600000*%
%ADD26O,1.600000X1.600000*%
%ADD27C,1.998980*%
G04 APERTURE END LIST*
D10*
D11*
X110005905Y-83399381D02*
X110577334Y-83399381D01*
X110291619Y-84399381D02*
X110291619Y-83399381D01*
X110910667Y-83875571D02*
X111244001Y-83875571D01*
X111386858Y-84399381D02*
X110910667Y-84399381D01*
X110910667Y-83399381D01*
X111386858Y-83399381D01*
X109910667Y-83227000D02*
X111577334Y-83227000D01*
D12*
X87902143Y-82406671D02*
X87648143Y-82406671D01*
X87648143Y-82805814D02*
X87648143Y-82043814D01*
X88011000Y-82043814D01*
X88627857Y-82297814D02*
X88627857Y-82805814D01*
X88301286Y-82297814D02*
X88301286Y-82696957D01*
X88337571Y-82769529D01*
X88410143Y-82805814D01*
X88519000Y-82805814D01*
X88591571Y-82769529D01*
X88627857Y-82733243D01*
X89099572Y-82805814D02*
X89027000Y-82769529D01*
X88990715Y-82696957D01*
X88990715Y-82043814D01*
X89498715Y-82805814D02*
X89426143Y-82769529D01*
X89389858Y-82696957D01*
X89389858Y-82043814D01*
X90805000Y-82733243D02*
X90768714Y-82769529D01*
X90659857Y-82805814D01*
X90587286Y-82805814D01*
X90478429Y-82769529D01*
X90405857Y-82696957D01*
X90369572Y-82624386D01*
X90333286Y-82479243D01*
X90333286Y-82370386D01*
X90369572Y-82225243D01*
X90405857Y-82152671D01*
X90478429Y-82080100D01*
X90587286Y-82043814D01*
X90659857Y-82043814D01*
X90768714Y-82080100D01*
X90805000Y-82116386D01*
X91131572Y-82805814D02*
X91131572Y-82043814D01*
X91458143Y-82805814D02*
X91458143Y-82406671D01*
X91421857Y-82334100D01*
X91349286Y-82297814D01*
X91240429Y-82297814D01*
X91167857Y-82334100D01*
X91131572Y-82370386D01*
X92147572Y-82805814D02*
X92147572Y-82406671D01*
X92111286Y-82334100D01*
X92038715Y-82297814D01*
X91893572Y-82297814D01*
X91821001Y-82334100D01*
X92147572Y-82769529D02*
X92075001Y-82805814D01*
X91893572Y-82805814D01*
X91821001Y-82769529D01*
X91784715Y-82696957D01*
X91784715Y-82624386D01*
X91821001Y-82551814D01*
X91893572Y-82515529D01*
X92075001Y-82515529D01*
X92147572Y-82479243D01*
X92510430Y-82805814D02*
X92510430Y-82297814D01*
X92510430Y-82442957D02*
X92546715Y-82370386D01*
X92583001Y-82334100D01*
X92655572Y-82297814D01*
X92728144Y-82297814D01*
X93308715Y-82297814D02*
X93308715Y-82914671D01*
X93272429Y-82987243D01*
X93236144Y-83023529D01*
X93163572Y-83059814D01*
X93054715Y-83059814D01*
X92982144Y-83023529D01*
X93308715Y-82769529D02*
X93236144Y-82805814D01*
X93091001Y-82805814D01*
X93018429Y-82769529D01*
X92982144Y-82733243D01*
X92945858Y-82660671D01*
X92945858Y-82442957D01*
X92982144Y-82370386D01*
X93018429Y-82334100D01*
X93091001Y-82297814D01*
X93236144Y-82297814D01*
X93308715Y-82334100D01*
X93961858Y-82769529D02*
X93889287Y-82805814D01*
X93744144Y-82805814D01*
X93671573Y-82769529D01*
X93635287Y-82696957D01*
X93635287Y-82406671D01*
X93671573Y-82334100D01*
X93744144Y-82297814D01*
X93889287Y-82297814D01*
X93961858Y-82334100D01*
X93998144Y-82406671D01*
X93998144Y-82479243D01*
X93635287Y-82551814D01*
X89262857Y-83781900D02*
X89625714Y-83781900D01*
X89190285Y-83999614D02*
X89444285Y-83237614D01*
X89698285Y-83999614D01*
X89952286Y-83999614D02*
X89952286Y-83237614D01*
X90278857Y-83999614D02*
X90278857Y-83600471D01*
X90242571Y-83527900D01*
X90170000Y-83491614D01*
X90061143Y-83491614D01*
X89988571Y-83527900D01*
X89952286Y-83564186D01*
X90932000Y-83963329D02*
X90859429Y-83999614D01*
X90714286Y-83999614D01*
X90641715Y-83963329D01*
X90605429Y-83890757D01*
X90605429Y-83600471D01*
X90641715Y-83527900D01*
X90714286Y-83491614D01*
X90859429Y-83491614D01*
X90932000Y-83527900D01*
X90968286Y-83600471D01*
X90968286Y-83673043D01*
X90605429Y-83745614D01*
X91621429Y-83999614D02*
X91621429Y-83600471D01*
X91585143Y-83527900D01*
X91512572Y-83491614D01*
X91367429Y-83491614D01*
X91294858Y-83527900D01*
X91621429Y-83963329D02*
X91548858Y-83999614D01*
X91367429Y-83999614D01*
X91294858Y-83963329D01*
X91258572Y-83890757D01*
X91258572Y-83818186D01*
X91294858Y-83745614D01*
X91367429Y-83709329D01*
X91548858Y-83709329D01*
X91621429Y-83673043D01*
X92310858Y-83999614D02*
X92310858Y-83237614D01*
X92310858Y-83963329D02*
X92238287Y-83999614D01*
X92093144Y-83999614D01*
X92020572Y-83963329D01*
X91984287Y-83927043D01*
X91948001Y-83854471D01*
X91948001Y-83636757D01*
X91984287Y-83564186D01*
X92020572Y-83527900D01*
X92093144Y-83491614D01*
X92238287Y-83491614D01*
X92310858Y-83527900D01*
D11*
X101203000Y-68952000D02*
X99203000Y-68952000D01*
X99203000Y-71002000D02*
X101203000Y-71002000D01*
X115954300Y-69706600D02*
X117954300Y-69706600D01*
X117954300Y-67656600D02*
X115954300Y-67656600D01*
X122394980Y-81234280D02*
X122394980Y-80909160D01*
X122394980Y-80909160D02*
X121894600Y-80909160D01*
X121894600Y-81234280D02*
X121894600Y-80909160D01*
X122394980Y-81234280D02*
X121894600Y-81234280D01*
X122394980Y-81856580D02*
X122394980Y-81706720D01*
X122394980Y-81706720D02*
X122143520Y-81706720D01*
X122143520Y-81856580D02*
X122143520Y-81706720D01*
X122394980Y-81856580D02*
X122143520Y-81856580D01*
X122394980Y-81361280D02*
X122394980Y-81211420D01*
X122394980Y-81211420D02*
X122143520Y-81211420D01*
X122143520Y-81361280D02*
X122143520Y-81211420D01*
X122394980Y-81361280D02*
X122143520Y-81361280D01*
X122394980Y-81732120D02*
X122394980Y-81335880D01*
X122394980Y-81335880D02*
X122219720Y-81335880D01*
X122219720Y-81732120D02*
X122219720Y-81335880D01*
X122394980Y-81732120D02*
X122219720Y-81732120D01*
X123891040Y-81234280D02*
X123891040Y-80909160D01*
X123891040Y-80909160D02*
X123390660Y-80909160D01*
X123390660Y-81234280D02*
X123390660Y-80909160D01*
X123891040Y-81234280D02*
X123390660Y-81234280D01*
X123891040Y-82158840D02*
X123891040Y-81833720D01*
X123891040Y-81833720D02*
X123390660Y-81833720D01*
X123390660Y-82158840D02*
X123390660Y-81833720D01*
X123891040Y-82158840D02*
X123390660Y-82158840D01*
X123642120Y-81361280D02*
X123642120Y-81211420D01*
X123642120Y-81211420D02*
X123390660Y-81211420D01*
X123390660Y-81361280D02*
X123390660Y-81211420D01*
X123642120Y-81361280D02*
X123390660Y-81361280D01*
X123642120Y-81856580D02*
X123642120Y-81706720D01*
X123642120Y-81706720D02*
X123390660Y-81706720D01*
X123390660Y-81856580D02*
X123390660Y-81706720D01*
X123642120Y-81856580D02*
X123390660Y-81856580D01*
X123565920Y-81732120D02*
X123565920Y-81335880D01*
X123565920Y-81335880D02*
X123390660Y-81335880D01*
X123390660Y-81732120D02*
X123390660Y-81335880D01*
X123565920Y-81732120D02*
X123390660Y-81732120D01*
X122892820Y-81633060D02*
X122892820Y-81434940D01*
X122892820Y-81434940D02*
X122694700Y-81434940D01*
X122694700Y-81633060D02*
X122694700Y-81434940D01*
X122892820Y-81633060D02*
X122694700Y-81633060D01*
X122394980Y-82133440D02*
X122394980Y-81833720D01*
X122394980Y-81833720D02*
X122095260Y-81833720D01*
X122095260Y-82133440D02*
X122095260Y-81833720D01*
X122394980Y-82133440D02*
X122095260Y-82133440D01*
X121968260Y-82158840D02*
X121968260Y-81932780D01*
X121968260Y-81932780D02*
X121894600Y-81932780D01*
X121894600Y-82158840D02*
X121894600Y-81932780D01*
X121968260Y-82158840D02*
X121894600Y-82158840D01*
X122369580Y-80959960D02*
X123416060Y-80959960D01*
X123390660Y-82108040D02*
X121968260Y-82108040D01*
X122116302Y-81983580D02*
G75*
G03X122116302Y-81983580I-71842J0D01*
G01*
X121894600Y-81881980D02*
G75*
G03X121894600Y-81186020I0J347980D01*
G01*
X123891040Y-81186020D02*
G75*
G03X123891040Y-81881980I0J-347980D01*
G01*
X96128840Y-78658720D02*
X96128840Y-78983840D01*
X96128840Y-78983840D02*
X96629220Y-78983840D01*
X96629220Y-78658720D02*
X96629220Y-78983840D01*
X96128840Y-78658720D02*
X96629220Y-78658720D01*
X96128840Y-78036420D02*
X96128840Y-78186280D01*
X96128840Y-78186280D02*
X96380300Y-78186280D01*
X96380300Y-78036420D02*
X96380300Y-78186280D01*
X96128840Y-78036420D02*
X96380300Y-78036420D01*
X96128840Y-78531720D02*
X96128840Y-78681580D01*
X96128840Y-78681580D02*
X96380300Y-78681580D01*
X96380300Y-78531720D02*
X96380300Y-78681580D01*
X96128840Y-78531720D02*
X96380300Y-78531720D01*
X96128840Y-78160880D02*
X96128840Y-78557120D01*
X96128840Y-78557120D02*
X96304100Y-78557120D01*
X96304100Y-78160880D02*
X96304100Y-78557120D01*
X96128840Y-78160880D02*
X96304100Y-78160880D01*
X94632780Y-78658720D02*
X94632780Y-78983840D01*
X94632780Y-78983840D02*
X95133160Y-78983840D01*
X95133160Y-78658720D02*
X95133160Y-78983840D01*
X94632780Y-78658720D02*
X95133160Y-78658720D01*
X94632780Y-77734160D02*
X94632780Y-78059280D01*
X94632780Y-78059280D02*
X95133160Y-78059280D01*
X95133160Y-77734160D02*
X95133160Y-78059280D01*
X94632780Y-77734160D02*
X95133160Y-77734160D01*
X94881700Y-78531720D02*
X94881700Y-78681580D01*
X94881700Y-78681580D02*
X95133160Y-78681580D01*
X95133160Y-78531720D02*
X95133160Y-78681580D01*
X94881700Y-78531720D02*
X95133160Y-78531720D01*
X94881700Y-78036420D02*
X94881700Y-78186280D01*
X94881700Y-78186280D02*
X95133160Y-78186280D01*
X95133160Y-78036420D02*
X95133160Y-78186280D01*
X94881700Y-78036420D02*
X95133160Y-78036420D01*
X94957900Y-78160880D02*
X94957900Y-78557120D01*
X94957900Y-78557120D02*
X95133160Y-78557120D01*
X95133160Y-78160880D02*
X95133160Y-78557120D01*
X94957900Y-78160880D02*
X95133160Y-78160880D01*
X95631000Y-78259940D02*
X95631000Y-78458060D01*
X95631000Y-78458060D02*
X95829120Y-78458060D01*
X95829120Y-78259940D02*
X95829120Y-78458060D01*
X95631000Y-78259940D02*
X95829120Y-78259940D01*
X96128840Y-77759560D02*
X96128840Y-78059280D01*
X96128840Y-78059280D02*
X96428560Y-78059280D01*
X96428560Y-77759560D02*
X96428560Y-78059280D01*
X96128840Y-77759560D02*
X96428560Y-77759560D01*
X96555560Y-77734160D02*
X96555560Y-77960220D01*
X96555560Y-77960220D02*
X96629220Y-77960220D01*
X96629220Y-77734160D02*
X96629220Y-77960220D01*
X96555560Y-77734160D02*
X96629220Y-77734160D01*
X96154240Y-78933040D02*
X95107760Y-78933040D01*
X95133160Y-77784960D02*
X96555560Y-77784960D01*
X96551202Y-77909420D02*
G75*
G03X96551202Y-77909420I-71842J0D01*
G01*
X96629220Y-78011020D02*
G75*
G03X96629220Y-78706980I0J-347980D01*
G01*
X94632780Y-78706980D02*
G75*
G03X94632780Y-78011020I0J347980D01*
G01*
X96128840Y-74975720D02*
X96128840Y-75300840D01*
X96128840Y-75300840D02*
X96629220Y-75300840D01*
X96629220Y-74975720D02*
X96629220Y-75300840D01*
X96128840Y-74975720D02*
X96629220Y-74975720D01*
X96128840Y-74353420D02*
X96128840Y-74503280D01*
X96128840Y-74503280D02*
X96380300Y-74503280D01*
X96380300Y-74353420D02*
X96380300Y-74503280D01*
X96128840Y-74353420D02*
X96380300Y-74353420D01*
X96128840Y-74848720D02*
X96128840Y-74998580D01*
X96128840Y-74998580D02*
X96380300Y-74998580D01*
X96380300Y-74848720D02*
X96380300Y-74998580D01*
X96128840Y-74848720D02*
X96380300Y-74848720D01*
X96128840Y-74477880D02*
X96128840Y-74874120D01*
X96128840Y-74874120D02*
X96304100Y-74874120D01*
X96304100Y-74477880D02*
X96304100Y-74874120D01*
X96128840Y-74477880D02*
X96304100Y-74477880D01*
X94632780Y-74975720D02*
X94632780Y-75300840D01*
X94632780Y-75300840D02*
X95133160Y-75300840D01*
X95133160Y-74975720D02*
X95133160Y-75300840D01*
X94632780Y-74975720D02*
X95133160Y-74975720D01*
X94632780Y-74051160D02*
X94632780Y-74376280D01*
X94632780Y-74376280D02*
X95133160Y-74376280D01*
X95133160Y-74051160D02*
X95133160Y-74376280D01*
X94632780Y-74051160D02*
X95133160Y-74051160D01*
X94881700Y-74848720D02*
X94881700Y-74998580D01*
X94881700Y-74998580D02*
X95133160Y-74998580D01*
X95133160Y-74848720D02*
X95133160Y-74998580D01*
X94881700Y-74848720D02*
X95133160Y-74848720D01*
X94881700Y-74353420D02*
X94881700Y-74503280D01*
X94881700Y-74503280D02*
X95133160Y-74503280D01*
X95133160Y-74353420D02*
X95133160Y-74503280D01*
X94881700Y-74353420D02*
X95133160Y-74353420D01*
X94957900Y-74477880D02*
X94957900Y-74874120D01*
X94957900Y-74874120D02*
X95133160Y-74874120D01*
X95133160Y-74477880D02*
X95133160Y-74874120D01*
X94957900Y-74477880D02*
X95133160Y-74477880D01*
X95631000Y-74576940D02*
X95631000Y-74775060D01*
X95631000Y-74775060D02*
X95829120Y-74775060D01*
X95829120Y-74576940D02*
X95829120Y-74775060D01*
X95631000Y-74576940D02*
X95829120Y-74576940D01*
X96128840Y-74076560D02*
X96128840Y-74376280D01*
X96128840Y-74376280D02*
X96428560Y-74376280D01*
X96428560Y-74076560D02*
X96428560Y-74376280D01*
X96128840Y-74076560D02*
X96428560Y-74076560D01*
X96555560Y-74051160D02*
X96555560Y-74277220D01*
X96555560Y-74277220D02*
X96629220Y-74277220D01*
X96629220Y-74051160D02*
X96629220Y-74277220D01*
X96555560Y-74051160D02*
X96629220Y-74051160D01*
X96154240Y-75250040D02*
X95107760Y-75250040D01*
X95133160Y-74101960D02*
X96555560Y-74101960D01*
X96551202Y-74226420D02*
G75*
G03X96551202Y-74226420I-71842J0D01*
G01*
X96629220Y-74328020D02*
G75*
G03X96629220Y-75023980I0J-347980D01*
G01*
X94632780Y-75023980D02*
G75*
G03X94632780Y-74328020I0J347980D01*
G01*
X112115600Y-82753200D02*
X109575600Y-82753200D01*
X114935600Y-83033200D02*
X113385600Y-83033200D01*
X112115600Y-82753200D02*
X112115600Y-80213200D01*
X113385600Y-79933200D02*
X114935600Y-79933200D01*
X114935600Y-79933200D02*
X114935600Y-83033200D01*
X112115600Y-80213200D02*
X109575600Y-80213200D01*
X109575600Y-80213200D02*
X109575600Y-82753200D01*
X101057000Y-75551000D02*
X99857000Y-75551000D01*
X99857000Y-73801000D02*
X101057000Y-73801000D01*
X99857000Y-77484000D02*
X101057000Y-77484000D01*
X101057000Y-79234000D02*
X99857000Y-79234000D01*
X119950200Y-79511600D02*
X119950200Y-80711600D01*
X118200200Y-80711600D02*
X118200200Y-79511600D01*
X117257800Y-79511600D02*
X117257800Y-80711600D01*
X115507800Y-80711600D02*
X115507800Y-79511600D01*
X109642200Y-78116400D02*
X108442200Y-78116400D01*
X108442200Y-76366400D02*
X109642200Y-76366400D01*
X88482200Y-69014900D02*
X88482200Y-67814900D01*
X90232200Y-67814900D02*
X90232200Y-69014900D01*
X91022200Y-69078400D02*
X91022200Y-67878400D01*
X92772200Y-67878400D02*
X92772200Y-69078400D01*
X93714600Y-69065700D02*
X93714600Y-67865700D01*
X95464600Y-67865700D02*
X95464600Y-69065700D01*
X106021000Y-72112000D02*
X106021000Y-72412000D01*
X109371000Y-72112000D02*
X109371000Y-72412000D01*
X109371000Y-75462000D02*
X109371000Y-75162000D01*
X106021000Y-75462000D02*
X106021000Y-75162000D01*
X106021000Y-72112000D02*
X109371000Y-72112000D01*
X106021000Y-75462000D02*
X109371000Y-75462000D01*
X106021000Y-72412000D02*
X104796000Y-72412000D01*
X112106574Y-68718023D02*
X115698677Y-72310126D01*
X115698677Y-72310126D02*
X113902626Y-74106177D01*
X113902626Y-74106177D02*
X110310523Y-70514074D01*
X110310523Y-70514074D02*
X112106574Y-68718023D01*
X111208549Y-69616049D02*
X110310523Y-68718023D01*
X114800651Y-73208151D02*
X115698677Y-74106177D01*
D10*
G36*
X92387013Y-81512907D02*
X92338934Y-81519290D01*
X92244333Y-81521314D01*
X92139821Y-81518689D01*
X92100651Y-81511855D01*
X92127916Y-81503678D01*
X92264657Y-81496592D01*
X92360750Y-81503678D01*
X92387013Y-81512907D01*
X92387013Y-81512907D01*
X92387013Y-81512907D01*
G37*
X92387013Y-81512907D02*
X92338934Y-81519290D01*
X92244333Y-81521314D01*
X92139821Y-81518689D01*
X92100651Y-81511855D01*
X92127916Y-81503678D01*
X92264657Y-81496592D01*
X92360750Y-81503678D01*
X92387013Y-81512907D01*
X92387013Y-81512907D01*
G36*
X92060888Y-81421111D02*
X92055077Y-81446278D01*
X92032666Y-81449333D01*
X91997821Y-81433844D01*
X92004444Y-81421111D01*
X92054684Y-81416044D01*
X92060888Y-81421111D01*
X92060888Y-81421111D01*
X92060888Y-81421111D01*
G37*
X92060888Y-81421111D02*
X92055077Y-81446278D01*
X92032666Y-81449333D01*
X91997821Y-81433844D01*
X92004444Y-81421111D01*
X92054684Y-81416044D01*
X92060888Y-81421111D01*
X92060888Y-81421111D01*
G36*
X92427098Y-81296752D02*
X92397584Y-81309248D01*
X92284282Y-81325125D01*
X92197896Y-81334065D01*
X92068016Y-81338927D01*
X91993334Y-81317009D01*
X91954120Y-81274069D01*
X91929617Y-81210276D01*
X91947641Y-81195333D01*
X91989036Y-81227326D01*
X91990333Y-81237666D01*
X92028716Y-81260940D01*
X92128114Y-81277671D01*
X92233750Y-81283342D01*
X92372572Y-81287997D01*
X92427098Y-81296752D01*
X92427098Y-81296752D01*
X92427098Y-81296752D01*
G37*
X92427098Y-81296752D02*
X92397584Y-81309248D01*
X92284282Y-81325125D01*
X92197896Y-81334065D01*
X92068016Y-81338927D01*
X91993334Y-81317009D01*
X91954120Y-81274069D01*
X91929617Y-81210276D01*
X91947641Y-81195333D01*
X91989036Y-81227326D01*
X91990333Y-81237666D01*
X92028716Y-81260940D01*
X92128114Y-81277671D01*
X92233750Y-81283342D01*
X92372572Y-81287997D01*
X92427098Y-81296752D01*
X92427098Y-81296752D01*
G36*
X92540666Y-81258833D02*
X92519500Y-81280000D01*
X92498333Y-81258833D01*
X92519500Y-81237666D01*
X92540666Y-81258833D01*
X92540666Y-81258833D01*
X92540666Y-81258833D01*
G37*
X92540666Y-81258833D02*
X92519500Y-81280000D01*
X92498333Y-81258833D01*
X92519500Y-81237666D01*
X92540666Y-81258833D01*
X92540666Y-81258833D01*
G36*
X92234667Y-79318317D02*
X92199341Y-79309856D01*
X92163230Y-79302449D01*
X92172310Y-79346888D01*
X92181149Y-79405101D01*
X92168921Y-79415986D01*
X92150622Y-79407883D01*
X92150622Y-79183649D01*
X92145555Y-79177444D01*
X92120388Y-79183255D01*
X92117333Y-79205666D01*
X92117333Y-79057500D01*
X92096166Y-79036333D01*
X92075000Y-79057500D01*
X92075000Y-78930500D01*
X92053833Y-78909333D01*
X92032666Y-78930500D01*
X92053833Y-78951666D01*
X92075000Y-78930500D01*
X92075000Y-79057500D01*
X92096166Y-79078666D01*
X92117333Y-79057500D01*
X92117333Y-79205666D01*
X92132822Y-79240511D01*
X92145555Y-79233888D01*
X92150622Y-79183649D01*
X92150622Y-79407883D01*
X92100093Y-79385511D01*
X92028304Y-79321611D01*
X91990772Y-79258282D01*
X91990333Y-79252868D01*
X91990333Y-78975307D01*
X91956070Y-78971661D01*
X91926386Y-78977592D01*
X91926386Y-78858597D01*
X91913855Y-78785543D01*
X91868846Y-78741422D01*
X91857475Y-78740000D01*
X91809966Y-78773711D01*
X91794068Y-78803256D01*
X91749238Y-78843404D01*
X91721314Y-78837463D01*
X91704860Y-78840443D01*
X91730933Y-78880040D01*
X91795417Y-78941846D01*
X91856822Y-78938317D01*
X91896517Y-78915883D01*
X91926386Y-78858597D01*
X91926386Y-78977592D01*
X91905666Y-78981733D01*
X91837024Y-79015873D01*
X91821000Y-79042760D01*
X91851523Y-79056325D01*
X91905666Y-79036333D01*
X91972064Y-78994806D01*
X91990333Y-78975307D01*
X91990333Y-79252868D01*
X91955090Y-79206767D01*
X91869679Y-79152989D01*
X91764579Y-79109641D01*
X91736333Y-79101969D01*
X91697230Y-79071442D01*
X91619513Y-78998361D01*
X91556657Y-78935679D01*
X91398148Y-78774348D01*
X91493157Y-78694534D01*
X91553989Y-78624319D01*
X91540553Y-78582110D01*
X91502613Y-78532406D01*
X91482333Y-78498431D01*
X91482333Y-77999166D01*
X91461166Y-77978000D01*
X91440000Y-77999166D01*
X91461166Y-78020333D01*
X91482333Y-77999166D01*
X91482333Y-78498431D01*
X91437979Y-78424128D01*
X91356796Y-78274932D01*
X91295255Y-78155016D01*
X91205583Y-77986705D01*
X91127318Y-77859625D01*
X91069323Y-77787284D01*
X91046535Y-77776060D01*
X90999965Y-77823017D01*
X90930571Y-77933665D01*
X90845609Y-78092554D01*
X90752337Y-78284233D01*
X90658011Y-78493251D01*
X90569890Y-78704156D01*
X90495229Y-78901498D01*
X90444895Y-79056996D01*
X90385401Y-79286960D01*
X90326459Y-79550625D01*
X90279164Y-79797683D01*
X90272160Y-79840163D01*
X90210028Y-80187638D01*
X90144851Y-80460347D01*
X90073164Y-80668190D01*
X89991498Y-80821068D01*
X89896386Y-80928881D01*
X89888564Y-80935467D01*
X89659852Y-81070986D01*
X89395784Y-81137057D01*
X89115206Y-81129277D01*
X89083416Y-81123582D01*
X88938816Y-81056952D01*
X88828385Y-80935261D01*
X88774875Y-80785685D01*
X88773000Y-80752854D01*
X88773000Y-80602666D01*
X88379300Y-80602666D01*
X88163089Y-80596838D01*
X88012406Y-80580049D01*
X87936376Y-80553341D01*
X87934800Y-80551866D01*
X87916418Y-80504046D01*
X87902475Y-80397904D01*
X87892656Y-80227300D01*
X87886644Y-79986093D01*
X87884123Y-79668143D01*
X87883999Y-79564088D01*
X87884904Y-79291129D01*
X87887439Y-79047587D01*
X87891331Y-78845868D01*
X87896311Y-78698382D01*
X87902106Y-78617536D01*
X87904925Y-78606185D01*
X87957241Y-78596960D01*
X88053856Y-78604047D01*
X88054586Y-78604153D01*
X88183320Y-78623048D01*
X88171243Y-79591726D01*
X88159166Y-80560404D01*
X88847083Y-80560369D01*
X89535000Y-80560333D01*
X89535000Y-79586666D01*
X89535642Y-79270989D01*
X89537990Y-79030297D01*
X89542674Y-78854917D01*
X89550326Y-78735173D01*
X89561577Y-78661392D01*
X89577056Y-78623898D01*
X89597396Y-78613018D01*
X89598500Y-78613000D01*
X89619372Y-78622949D01*
X89635211Y-78659340D01*
X89646675Y-78731990D01*
X89654425Y-78850713D01*
X89659122Y-79025326D01*
X89661426Y-79265645D01*
X89662000Y-79557033D01*
X89660421Y-79898871D01*
X89655478Y-80162243D01*
X89646856Y-80353298D01*
X89634240Y-80478181D01*
X89617318Y-80543038D01*
X89611200Y-80551866D01*
X89540643Y-80579524D01*
X89405411Y-80597339D01*
X89251366Y-80602666D01*
X89092483Y-80604139D01*
X89000200Y-80612590D01*
X88956454Y-80634062D01*
X88943185Y-80674601D01*
X88942333Y-80706099D01*
X88979025Y-80819201D01*
X89078869Y-80896818D01*
X89226512Y-80935182D01*
X89406603Y-80930523D01*
X89603792Y-80879072D01*
X89620436Y-80872586D01*
X89715268Y-80825983D01*
X89792399Y-80763052D01*
X89856350Y-80672844D01*
X89911642Y-80544410D01*
X89962799Y-80366800D01*
X90014340Y-80129065D01*
X90070789Y-79820255D01*
X90082090Y-79754698D01*
X90239771Y-79063398D01*
X90468995Y-78415389D01*
X90617225Y-78093545D01*
X90755474Y-77832845D01*
X90873617Y-77650026D01*
X90977144Y-77542264D01*
X91071545Y-77506734D01*
X91162311Y-77540614D01*
X91254932Y-77641077D01*
X91315118Y-77734583D01*
X91379397Y-77834778D01*
X91410763Y-77864865D01*
X91410254Y-77832298D01*
X91378903Y-77744531D01*
X91317748Y-77609019D01*
X91289785Y-77552268D01*
X91194870Y-77410769D01*
X91049353Y-77247362D01*
X90875750Y-77082831D01*
X90696577Y-76937957D01*
X90534348Y-76833522D01*
X90486201Y-76810562D01*
X90304522Y-76754383D01*
X90084061Y-76715029D01*
X89853413Y-76694799D01*
X89641175Y-76695992D01*
X89475941Y-76720907D01*
X89454661Y-76727639D01*
X89292356Y-76801248D01*
X89140826Y-76897802D01*
X89023233Y-77000221D01*
X88963137Y-77090141D01*
X88903582Y-77155760D01*
X88823894Y-77181633D01*
X88738231Y-77208601D01*
X88711625Y-77277908D01*
X88711315Y-77300666D01*
X88696677Y-77393405D01*
X88668981Y-77437601D01*
X88610572Y-77457105D01*
X88523338Y-77466869D01*
X88435479Y-77466893D01*
X88375191Y-77457177D01*
X88370671Y-77437721D01*
X88370833Y-77437601D01*
X88412880Y-77373152D01*
X88427774Y-77321833D01*
X88449900Y-77235440D01*
X88468320Y-77230092D01*
X88476629Y-77306710D01*
X88476666Y-77314777D01*
X88493928Y-77401226D01*
X88555301Y-77427577D01*
X88561333Y-77427666D01*
X88623306Y-77407708D01*
X88645126Y-77333450D01*
X88646000Y-77300666D01*
X88658262Y-77211495D01*
X88687806Y-77173676D01*
X88688333Y-77173666D01*
X88727167Y-77139971D01*
X88730666Y-77117786D01*
X88763840Y-77032244D01*
X88851393Y-76920185D01*
X88975379Y-76799100D01*
X89117845Y-76686482D01*
X89260845Y-76599824D01*
X89263517Y-76598509D01*
X89376483Y-76546117D01*
X89471304Y-76514249D01*
X89572926Y-76499542D01*
X89706295Y-76498630D01*
X89896359Y-76508148D01*
X89921950Y-76509696D01*
X90218656Y-76540204D01*
X90462600Y-76598780D01*
X90681493Y-76696737D01*
X90903047Y-76845389D01*
X91062580Y-76975387D01*
X91339716Y-77267714D01*
X91552922Y-77614911D01*
X91677999Y-77935607D01*
X91710489Y-78054733D01*
X91712088Y-78123554D01*
X91680376Y-78171499D01*
X91656900Y-78192193D01*
X91603605Y-78251855D01*
X91617395Y-78311067D01*
X91635759Y-78337867D01*
X91685544Y-78442261D01*
X91685852Y-78533351D01*
X91641083Y-78581421D01*
X91611215Y-78610087D01*
X91646063Y-78669369D01*
X91646266Y-78669615D01*
X91717164Y-78732337D01*
X91757819Y-78723479D01*
X91756671Y-78646120D01*
X91755317Y-78640540D01*
X91752329Y-78564899D01*
X91804115Y-78513677D01*
X91861701Y-78486676D01*
X91953982Y-78454245D01*
X92004940Y-78447287D01*
X92006748Y-78448551D01*
X92022838Y-78494148D01*
X92054159Y-78602121D01*
X92095101Y-78752785D01*
X92113972Y-78824666D01*
X92159120Y-78997385D01*
X92198323Y-79145589D01*
X92225118Y-79244903D01*
X92230450Y-79263884D01*
X92234667Y-79318317D01*
X92234667Y-79318317D01*
X92234667Y-79318317D01*
G37*
X92234667Y-79318317D02*
X92199341Y-79309856D01*
X92163230Y-79302449D01*
X92172310Y-79346888D01*
X92181149Y-79405101D01*
X92168921Y-79415986D01*
X92150622Y-79407883D01*
X92150622Y-79183649D01*
X92145555Y-79177444D01*
X92120388Y-79183255D01*
X92117333Y-79205666D01*
X92117333Y-79057500D01*
X92096166Y-79036333D01*
X92075000Y-79057500D01*
X92075000Y-78930500D01*
X92053833Y-78909333D01*
X92032666Y-78930500D01*
X92053833Y-78951666D01*
X92075000Y-78930500D01*
X92075000Y-79057500D01*
X92096166Y-79078666D01*
X92117333Y-79057500D01*
X92117333Y-79205666D01*
X92132822Y-79240511D01*
X92145555Y-79233888D01*
X92150622Y-79183649D01*
X92150622Y-79407883D01*
X92100093Y-79385511D01*
X92028304Y-79321611D01*
X91990772Y-79258282D01*
X91990333Y-79252868D01*
X91990333Y-78975307D01*
X91956070Y-78971661D01*
X91926386Y-78977592D01*
X91926386Y-78858597D01*
X91913855Y-78785543D01*
X91868846Y-78741422D01*
X91857475Y-78740000D01*
X91809966Y-78773711D01*
X91794068Y-78803256D01*
X91749238Y-78843404D01*
X91721314Y-78837463D01*
X91704860Y-78840443D01*
X91730933Y-78880040D01*
X91795417Y-78941846D01*
X91856822Y-78938317D01*
X91896517Y-78915883D01*
X91926386Y-78858597D01*
X91926386Y-78977592D01*
X91905666Y-78981733D01*
X91837024Y-79015873D01*
X91821000Y-79042760D01*
X91851523Y-79056325D01*
X91905666Y-79036333D01*
X91972064Y-78994806D01*
X91990333Y-78975307D01*
X91990333Y-79252868D01*
X91955090Y-79206767D01*
X91869679Y-79152989D01*
X91764579Y-79109641D01*
X91736333Y-79101969D01*
X91697230Y-79071442D01*
X91619513Y-78998361D01*
X91556657Y-78935679D01*
X91398148Y-78774348D01*
X91493157Y-78694534D01*
X91553989Y-78624319D01*
X91540553Y-78582110D01*
X91502613Y-78532406D01*
X91482333Y-78498431D01*
X91482333Y-77999166D01*
X91461166Y-77978000D01*
X91440000Y-77999166D01*
X91461166Y-78020333D01*
X91482333Y-77999166D01*
X91482333Y-78498431D01*
X91437979Y-78424128D01*
X91356796Y-78274932D01*
X91295255Y-78155016D01*
X91205583Y-77986705D01*
X91127318Y-77859625D01*
X91069323Y-77787284D01*
X91046535Y-77776060D01*
X90999965Y-77823017D01*
X90930571Y-77933665D01*
X90845609Y-78092554D01*
X90752337Y-78284233D01*
X90658011Y-78493251D01*
X90569890Y-78704156D01*
X90495229Y-78901498D01*
X90444895Y-79056996D01*
X90385401Y-79286960D01*
X90326459Y-79550625D01*
X90279164Y-79797683D01*
X90272160Y-79840163D01*
X90210028Y-80187638D01*
X90144851Y-80460347D01*
X90073164Y-80668190D01*
X89991498Y-80821068D01*
X89896386Y-80928881D01*
X89888564Y-80935467D01*
X89659852Y-81070986D01*
X89395784Y-81137057D01*
X89115206Y-81129277D01*
X89083416Y-81123582D01*
X88938816Y-81056952D01*
X88828385Y-80935261D01*
X88774875Y-80785685D01*
X88773000Y-80752854D01*
X88773000Y-80602666D01*
X88379300Y-80602666D01*
X88163089Y-80596838D01*
X88012406Y-80580049D01*
X87936376Y-80553341D01*
X87934800Y-80551866D01*
X87916418Y-80504046D01*
X87902475Y-80397904D01*
X87892656Y-80227300D01*
X87886644Y-79986093D01*
X87884123Y-79668143D01*
X87883999Y-79564088D01*
X87884904Y-79291129D01*
X87887439Y-79047587D01*
X87891331Y-78845868D01*
X87896311Y-78698382D01*
X87902106Y-78617536D01*
X87904925Y-78606185D01*
X87957241Y-78596960D01*
X88053856Y-78604047D01*
X88054586Y-78604153D01*
X88183320Y-78623048D01*
X88171243Y-79591726D01*
X88159166Y-80560404D01*
X88847083Y-80560369D01*
X89535000Y-80560333D01*
X89535000Y-79586666D01*
X89535642Y-79270989D01*
X89537990Y-79030297D01*
X89542674Y-78854917D01*
X89550326Y-78735173D01*
X89561577Y-78661392D01*
X89577056Y-78623898D01*
X89597396Y-78613018D01*
X89598500Y-78613000D01*
X89619372Y-78622949D01*
X89635211Y-78659340D01*
X89646675Y-78731990D01*
X89654425Y-78850713D01*
X89659122Y-79025326D01*
X89661426Y-79265645D01*
X89662000Y-79557033D01*
X89660421Y-79898871D01*
X89655478Y-80162243D01*
X89646856Y-80353298D01*
X89634240Y-80478181D01*
X89617318Y-80543038D01*
X89611200Y-80551866D01*
X89540643Y-80579524D01*
X89405411Y-80597339D01*
X89251366Y-80602666D01*
X89092483Y-80604139D01*
X89000200Y-80612590D01*
X88956454Y-80634062D01*
X88943185Y-80674601D01*
X88942333Y-80706099D01*
X88979025Y-80819201D01*
X89078869Y-80896818D01*
X89226512Y-80935182D01*
X89406603Y-80930523D01*
X89603792Y-80879072D01*
X89620436Y-80872586D01*
X89715268Y-80825983D01*
X89792399Y-80763052D01*
X89856350Y-80672844D01*
X89911642Y-80544410D01*
X89962799Y-80366800D01*
X90014340Y-80129065D01*
X90070789Y-79820255D01*
X90082090Y-79754698D01*
X90239771Y-79063398D01*
X90468995Y-78415389D01*
X90617225Y-78093545D01*
X90755474Y-77832845D01*
X90873617Y-77650026D01*
X90977144Y-77542264D01*
X91071545Y-77506734D01*
X91162311Y-77540614D01*
X91254932Y-77641077D01*
X91315118Y-77734583D01*
X91379397Y-77834778D01*
X91410763Y-77864865D01*
X91410254Y-77832298D01*
X91378903Y-77744531D01*
X91317748Y-77609019D01*
X91289785Y-77552268D01*
X91194870Y-77410769D01*
X91049353Y-77247362D01*
X90875750Y-77082831D01*
X90696577Y-76937957D01*
X90534348Y-76833522D01*
X90486201Y-76810562D01*
X90304522Y-76754383D01*
X90084061Y-76715029D01*
X89853413Y-76694799D01*
X89641175Y-76695992D01*
X89475941Y-76720907D01*
X89454661Y-76727639D01*
X89292356Y-76801248D01*
X89140826Y-76897802D01*
X89023233Y-77000221D01*
X88963137Y-77090141D01*
X88903582Y-77155760D01*
X88823894Y-77181633D01*
X88738231Y-77208601D01*
X88711625Y-77277908D01*
X88711315Y-77300666D01*
X88696677Y-77393405D01*
X88668981Y-77437601D01*
X88610572Y-77457105D01*
X88523338Y-77466869D01*
X88435479Y-77466893D01*
X88375191Y-77457177D01*
X88370671Y-77437721D01*
X88370833Y-77437601D01*
X88412880Y-77373152D01*
X88427774Y-77321833D01*
X88449900Y-77235440D01*
X88468320Y-77230092D01*
X88476629Y-77306710D01*
X88476666Y-77314777D01*
X88493928Y-77401226D01*
X88555301Y-77427577D01*
X88561333Y-77427666D01*
X88623306Y-77407708D01*
X88645126Y-77333450D01*
X88646000Y-77300666D01*
X88658262Y-77211495D01*
X88687806Y-77173676D01*
X88688333Y-77173666D01*
X88727167Y-77139971D01*
X88730666Y-77117786D01*
X88763840Y-77032244D01*
X88851393Y-76920185D01*
X88975379Y-76799100D01*
X89117845Y-76686482D01*
X89260845Y-76599824D01*
X89263517Y-76598509D01*
X89376483Y-76546117D01*
X89471304Y-76514249D01*
X89572926Y-76499542D01*
X89706295Y-76498630D01*
X89896359Y-76508148D01*
X89921950Y-76509696D01*
X90218656Y-76540204D01*
X90462600Y-76598780D01*
X90681493Y-76696737D01*
X90903047Y-76845389D01*
X91062580Y-76975387D01*
X91339716Y-77267714D01*
X91552922Y-77614911D01*
X91677999Y-77935607D01*
X91710489Y-78054733D01*
X91712088Y-78123554D01*
X91680376Y-78171499D01*
X91656900Y-78192193D01*
X91603605Y-78251855D01*
X91617395Y-78311067D01*
X91635759Y-78337867D01*
X91685544Y-78442261D01*
X91685852Y-78533351D01*
X91641083Y-78581421D01*
X91611215Y-78610087D01*
X91646063Y-78669369D01*
X91646266Y-78669615D01*
X91717164Y-78732337D01*
X91757819Y-78723479D01*
X91756671Y-78646120D01*
X91755317Y-78640540D01*
X91752329Y-78564899D01*
X91804115Y-78513677D01*
X91861701Y-78486676D01*
X91953982Y-78454245D01*
X92004940Y-78447287D01*
X92006748Y-78448551D01*
X92022838Y-78494148D01*
X92054159Y-78602121D01*
X92095101Y-78752785D01*
X92113972Y-78824666D01*
X92159120Y-78997385D01*
X92198323Y-79145589D01*
X92225118Y-79244903D01*
X92230450Y-79263884D01*
X92234667Y-79318317D01*
X92234667Y-79318317D01*
G36*
X92628255Y-81082344D02*
X92569200Y-81102081D01*
X92452593Y-81117701D01*
X92305510Y-81127581D01*
X92155030Y-81130093D01*
X92028229Y-81123613D01*
X92000916Y-81120008D01*
X91913688Y-81099430D01*
X91903834Y-81079989D01*
X91964065Y-81063556D01*
X92087092Y-81052003D01*
X92265625Y-81047203D01*
X92284550Y-81047166D01*
X92446712Y-81050732D01*
X92566081Y-81060293D01*
X92625994Y-81074144D01*
X92628255Y-81082344D01*
X92628255Y-81082344D01*
X92628255Y-81082344D01*
G37*
X92628255Y-81082344D02*
X92569200Y-81102081D01*
X92452593Y-81117701D01*
X92305510Y-81127581D01*
X92155030Y-81130093D01*
X92028229Y-81123613D01*
X92000916Y-81120008D01*
X91913688Y-81099430D01*
X91903834Y-81079989D01*
X91964065Y-81063556D01*
X92087092Y-81052003D01*
X92265625Y-81047203D01*
X92284550Y-81047166D01*
X92446712Y-81050732D01*
X92566081Y-81060293D01*
X92625994Y-81074144D01*
X92628255Y-81082344D01*
X92628255Y-81082344D01*
G36*
X93474342Y-79553652D02*
X93445645Y-79641013D01*
X93442552Y-79644336D01*
X93418201Y-79690666D01*
X93418201Y-79434090D01*
X93361542Y-79423984D01*
X93337062Y-79430748D01*
X93321027Y-79449545D01*
X93362638Y-79456324D01*
X93417545Y-79448541D01*
X93418201Y-79434090D01*
X93418201Y-79690666D01*
X93409690Y-79706859D01*
X93407292Y-79772013D01*
X93433412Y-79798333D01*
X93470903Y-79830658D01*
X93472000Y-79840666D01*
X93437026Y-79876883D01*
X93397916Y-79883648D01*
X93352183Y-79892951D01*
X93378183Y-79918782D01*
X93411542Y-79982162D01*
X93404927Y-80025212D01*
X93378781Y-80073497D01*
X93345015Y-80053304D01*
X93345000Y-80053284D01*
X93345000Y-79676625D01*
X93332546Y-79588469D01*
X93279795Y-79557277D01*
X93236668Y-79554916D01*
X93235764Y-79555082D01*
X93235764Y-79488663D01*
X93228583Y-79473963D01*
X93206164Y-79472516D01*
X93206164Y-79043434D01*
X93177672Y-79056260D01*
X93142783Y-79062074D01*
X93151956Y-79002031D01*
X93152732Y-78999567D01*
X93162566Y-78935584D01*
X93123753Y-78932117D01*
X93114454Y-78935479D01*
X93067421Y-78938086D01*
X93073882Y-78892880D01*
X93086101Y-78835083D01*
X93078891Y-78824666D01*
X93041229Y-78857862D01*
X93037593Y-78934676D01*
X93068557Y-79020952D01*
X93075427Y-79031473D01*
X93132841Y-79104453D01*
X93169004Y-79112418D01*
X93200875Y-79072125D01*
X93206164Y-79043434D01*
X93206164Y-79472516D01*
X93141912Y-79468372D01*
X93122750Y-79473963D01*
X93117431Y-79489414D01*
X93175666Y-79495315D01*
X93235764Y-79488663D01*
X93235764Y-79555082D01*
X93158837Y-79569284D01*
X93152001Y-79616587D01*
X93173514Y-79693553D01*
X93175666Y-79714024D01*
X93210490Y-79753420D01*
X93249750Y-79769151D01*
X93317777Y-79787949D01*
X93334416Y-79793422D01*
X93341951Y-79760464D01*
X93345000Y-79676625D01*
X93345000Y-80053284D01*
X93320173Y-80021827D01*
X93291201Y-79992725D01*
X93291201Y-79857423D01*
X93234542Y-79847317D01*
X93210062Y-79854081D01*
X93194027Y-79872878D01*
X93235638Y-79879657D01*
X93290545Y-79871874D01*
X93291201Y-79857423D01*
X93291201Y-79992725D01*
X93275940Y-79977397D01*
X93261679Y-79983433D01*
X93234660Y-79991458D01*
X93195810Y-79966817D01*
X93140809Y-79930222D01*
X93106914Y-79948894D01*
X93091000Y-79990953D01*
X93091000Y-79671333D01*
X93062115Y-79601414D01*
X93024097Y-79591820D01*
X93024097Y-79530996D01*
X93016916Y-79516296D01*
X93005113Y-79515534D01*
X93005113Y-78741079D01*
X92965343Y-78764147D01*
X92954173Y-78773235D01*
X92903867Y-78804270D01*
X92893411Y-78767465D01*
X92894372Y-78753089D01*
X92879841Y-78689388D01*
X92858166Y-78676872D01*
X92785389Y-78654384D01*
X92766532Y-78643837D01*
X92710440Y-78645346D01*
X92695791Y-78665652D01*
X92677425Y-78677904D01*
X92671008Y-78639814D01*
X92648882Y-78583396D01*
X92575502Y-78578604D01*
X92561833Y-78581027D01*
X92483149Y-78584369D01*
X92456000Y-78566124D01*
X92424735Y-78547884D01*
X92392500Y-78555357D01*
X92335085Y-78597012D01*
X92345219Y-78635403D01*
X92381916Y-78645796D01*
X92537250Y-78674978D01*
X92691820Y-78728661D01*
X92808814Y-78793256D01*
X92829355Y-78810974D01*
X92912061Y-78855085D01*
X92979221Y-78821247D01*
X92999988Y-78779687D01*
X93005113Y-78741079D01*
X93005113Y-79515534D01*
X92930245Y-79510705D01*
X92928951Y-79511082D01*
X92928951Y-79010664D01*
X92926356Y-78973780D01*
X92858227Y-78913084D01*
X92810990Y-78882337D01*
X92681353Y-78810483D01*
X92609486Y-78785658D01*
X92599656Y-78808682D01*
X92626182Y-78846856D01*
X92677657Y-78891538D01*
X92698393Y-78892717D01*
X92737809Y-78905071D01*
X92799738Y-78956738D01*
X92874983Y-79007972D01*
X92928951Y-79010664D01*
X92928951Y-79511082D01*
X92911083Y-79516296D01*
X92905765Y-79531748D01*
X92964000Y-79537649D01*
X93024097Y-79530996D01*
X93024097Y-79591820D01*
X93016916Y-79590008D01*
X92976800Y-79600850D01*
X92995750Y-79614703D01*
X93044335Y-79670583D01*
X93048666Y-79696027D01*
X93060773Y-79750193D01*
X93069833Y-79756000D01*
X93087057Y-79720395D01*
X93091000Y-79671333D01*
X93091000Y-79990953D01*
X93074079Y-80035674D01*
X93070556Y-80047051D01*
X93066471Y-80071227D01*
X93066471Y-79826939D01*
X93054454Y-79807318D01*
X93006333Y-79813184D01*
X93006333Y-79692500D01*
X92985166Y-79671333D01*
X92964000Y-79692500D01*
X92985166Y-79713666D01*
X93006333Y-79692500D01*
X93006333Y-79813184D01*
X92977770Y-79816666D01*
X92954197Y-79833535D01*
X92943211Y-79861273D01*
X93005248Y-79853202D01*
X93009726Y-79852045D01*
X93066471Y-79826939D01*
X93066471Y-80071227D01*
X93058715Y-80117129D01*
X93086464Y-80118636D01*
X93128512Y-80120635D01*
X93133333Y-80139685D01*
X93149916Y-80166356D01*
X93197802Y-80136195D01*
X93243354Y-80105892D01*
X93239272Y-80142073D01*
X93232941Y-80159123D01*
X93223903Y-80211651D01*
X93253139Y-80204946D01*
X93295336Y-80198850D01*
X93298298Y-80242823D01*
X93265220Y-80313664D01*
X93232295Y-80356259D01*
X93218000Y-80369047D01*
X93218000Y-80329998D01*
X93187931Y-80294192D01*
X93169125Y-80281124D01*
X93140157Y-80276134D01*
X93150457Y-80299792D01*
X93193082Y-80345239D01*
X93217587Y-80335916D01*
X93218000Y-80329998D01*
X93218000Y-80369047D01*
X93173526Y-80408835D01*
X93123354Y-80396718D01*
X93091000Y-80369413D01*
X93091000Y-80248016D01*
X93062070Y-80212679D01*
X93045087Y-80198106D01*
X93045087Y-79952073D01*
X93012235Y-79947551D01*
X92964849Y-79987810D01*
X92937548Y-80041039D01*
X92956318Y-80052333D01*
X93018364Y-80021178D01*
X93029240Y-80007183D01*
X93045087Y-79952073D01*
X93045087Y-80198106D01*
X93016916Y-80173933D01*
X92966773Y-80137321D01*
X92977285Y-80159243D01*
X93000933Y-80189916D01*
X93062723Y-80255731D01*
X93090304Y-80255445D01*
X93091000Y-80248016D01*
X93091000Y-80369413D01*
X93084128Y-80363614D01*
X93025615Y-80324901D01*
X92999631Y-80352270D01*
X93000824Y-80453119D01*
X93003082Y-80475666D01*
X93000737Y-80515706D01*
X92982801Y-80495174D01*
X92982801Y-80306273D01*
X92975988Y-80260961D01*
X92930735Y-80211921D01*
X92921666Y-80205772D01*
X92921666Y-79758498D01*
X92895906Y-79708667D01*
X92895906Y-79128433D01*
X92876966Y-79087856D01*
X92806169Y-79024751D01*
X92707247Y-78954724D01*
X92603935Y-78893381D01*
X92519968Y-78856327D01*
X92481292Y-78855818D01*
X92459270Y-78913581D01*
X92520848Y-78958891D01*
X92551250Y-78968798D01*
X92646500Y-78995805D01*
X92544841Y-79052738D01*
X92480728Y-79099195D01*
X92491099Y-79130591D01*
X92502507Y-79136502D01*
X92537857Y-79165791D01*
X92508916Y-79188027D01*
X92465184Y-79237005D01*
X92459616Y-79298800D01*
X92494833Y-79332421D01*
X92499661Y-79332666D01*
X92550819Y-79298736D01*
X92568624Y-79266733D01*
X92618627Y-79221035D01*
X92651962Y-79223071D01*
X92700058Y-79210886D01*
X92710000Y-79162004D01*
X92729607Y-79089046D01*
X92783901Y-79092127D01*
X92823755Y-79124688D01*
X92877566Y-79145892D01*
X92895906Y-79128433D01*
X92895906Y-79708667D01*
X92891149Y-79699465D01*
X92829287Y-79689044D01*
X92790581Y-79718826D01*
X92762267Y-79744804D01*
X92753075Y-79692962D01*
X92752981Y-79685444D01*
X92774008Y-79603000D01*
X92805250Y-79572369D01*
X92814052Y-79554730D01*
X92770248Y-79547675D01*
X92709987Y-79558594D01*
X92694888Y-79613806D01*
X92700969Y-79671333D01*
X92729720Y-79764359D01*
X92792169Y-79796882D01*
X92820638Y-79798333D01*
X92897880Y-79784102D01*
X92921666Y-79758498D01*
X92921666Y-80205772D01*
X92897469Y-80189366D01*
X92897469Y-79945359D01*
X92894642Y-79904166D01*
X92838229Y-79855726D01*
X92763787Y-79840666D01*
X92691984Y-79848189D01*
X92691997Y-79880385D01*
X92710000Y-79904166D01*
X92792845Y-79958473D01*
X92840854Y-79967666D01*
X92897469Y-79945359D01*
X92897469Y-80189366D01*
X92889880Y-80184221D01*
X92889880Y-80061090D01*
X92859008Y-80024012D01*
X92847370Y-80027851D01*
X92797926Y-80027917D01*
X92746767Y-80007021D01*
X92681247Y-79980121D01*
X92673016Y-80011604D01*
X92689301Y-80059454D01*
X92743728Y-80103414D01*
X92810911Y-80115833D01*
X92884196Y-80097965D01*
X92889880Y-80061090D01*
X92889880Y-80184221D01*
X92852455Y-80158847D01*
X92761465Y-80168249D01*
X92740768Y-80175682D01*
X92663706Y-80198257D01*
X92646054Y-80178922D01*
X92651809Y-80159595D01*
X92635777Y-80097633D01*
X92613868Y-80080050D01*
X92613868Y-79603423D01*
X92557209Y-79593317D01*
X92532729Y-79600081D01*
X92516694Y-79618878D01*
X92558305Y-79625657D01*
X92613212Y-79617874D01*
X92613868Y-79603423D01*
X92613868Y-80080050D01*
X92575700Y-80049420D01*
X92508393Y-80016586D01*
X92508473Y-80031451D01*
X92548233Y-80077923D01*
X92605121Y-80151126D01*
X92623951Y-80219668D01*
X92625981Y-80274583D01*
X92636021Y-80303789D01*
X92661791Y-80272057D01*
X92698594Y-80250416D01*
X92749388Y-80298202D01*
X92770287Y-80328538D01*
X92824806Y-80402484D01*
X92866940Y-80411697D01*
X92926472Y-80365484D01*
X92982801Y-80306273D01*
X92982801Y-80495174D01*
X92971056Y-80481730D01*
X92925641Y-80450526D01*
X92905101Y-80468221D01*
X92907780Y-80526508D01*
X92921666Y-80539166D01*
X92945993Y-80591137D01*
X92939755Y-80607647D01*
X92890860Y-80621502D01*
X92853428Y-80598734D01*
X92810572Y-80571554D01*
X92816794Y-80610944D01*
X92819577Y-80618325D01*
X92824232Y-80668060D01*
X92778988Y-80662415D01*
X92734255Y-80616570D01*
X92747388Y-80566684D01*
X92768805Y-80478191D01*
X92744037Y-80417212D01*
X92696681Y-80407606D01*
X92669572Y-80408072D01*
X92678250Y-80401700D01*
X92709917Y-80359951D01*
X92668938Y-80326376D01*
X92620998Y-80317646D01*
X92556988Y-80327496D01*
X92552557Y-80386244D01*
X92556920Y-80403887D01*
X92577050Y-80490255D01*
X92582421Y-80527254D01*
X92614416Y-80541415D01*
X92646500Y-80533308D01*
X92700954Y-80533525D01*
X92710000Y-80552276D01*
X92676819Y-80605855D01*
X92657083Y-80616963D01*
X92627448Y-80636259D01*
X92655754Y-80641657D01*
X92688832Y-80675149D01*
X92684155Y-80705424D01*
X92628438Y-80747977D01*
X92583000Y-80748421D01*
X92583000Y-80666166D01*
X92549113Y-80610042D01*
X92540666Y-80607938D01*
X92540666Y-80250924D01*
X92515764Y-80177102D01*
X92474027Y-80113341D01*
X92433468Y-80069243D01*
X92431957Y-80080467D01*
X92425770Y-80135011D01*
X92408260Y-80145857D01*
X92392742Y-80182047D01*
X92432187Y-80234139D01*
X92503341Y-80296131D01*
X92535100Y-80293284D01*
X92540666Y-80250924D01*
X92540666Y-80607938D01*
X92519500Y-80602666D01*
X92459153Y-80620602D01*
X92464390Y-80662085D01*
X92527298Y-80708625D01*
X92572416Y-80726324D01*
X92581802Y-80695044D01*
X92583000Y-80666166D01*
X92583000Y-80748421D01*
X92571083Y-80748538D01*
X92485149Y-80755920D01*
X92448080Y-80783364D01*
X92425229Y-80786419D01*
X92414610Y-80715344D01*
X92414314Y-80697916D01*
X92429654Y-80592849D01*
X92477166Y-80560333D01*
X92526142Y-80555061D01*
X92535779Y-80523527D01*
X92509677Y-80442157D01*
X92499381Y-80414922D01*
X92447861Y-80334836D01*
X92393547Y-80306333D01*
X92340771Y-80270675D01*
X92329000Y-80218138D01*
X92307298Y-80155791D01*
X92260884Y-80154405D01*
X92217792Y-80208713D01*
X92208513Y-80240771D01*
X92211976Y-80293004D01*
X92230147Y-80293934D01*
X92292572Y-80298202D01*
X92366731Y-80353404D01*
X92422736Y-80436745D01*
X92425024Y-80442560D01*
X92429275Y-80515377D01*
X92411817Y-80540309D01*
X92377836Y-80598952D01*
X92371333Y-80647498D01*
X92348627Y-80717482D01*
X92299031Y-80723353D01*
X92267734Y-80690949D01*
X92276635Y-80643626D01*
X92296986Y-80630791D01*
X92312411Y-80612098D01*
X92276083Y-80606008D01*
X92213390Y-80623028D01*
X92202000Y-80645000D01*
X92165771Y-80676822D01*
X92142482Y-80680338D01*
X92142482Y-80624477D01*
X92138500Y-80602666D01*
X92084378Y-80561948D01*
X92072501Y-80560333D01*
X92033806Y-80592622D01*
X92032666Y-80602666D01*
X92067124Y-80639818D01*
X92098665Y-80645000D01*
X92142482Y-80624477D01*
X92142482Y-80680338D01*
X92096166Y-80687333D01*
X92009339Y-80664053D01*
X91988423Y-80613250D01*
X91976052Y-80585342D01*
X91942475Y-80639375D01*
X91935507Y-80654776D01*
X91887964Y-80732503D01*
X91837155Y-80738431D01*
X91821000Y-80729508D01*
X91782101Y-80696821D01*
X91822204Y-80688115D01*
X91831583Y-80687981D01*
X91893691Y-80653053D01*
X91905666Y-80598777D01*
X91913885Y-80547528D01*
X91952417Y-80523620D01*
X92042074Y-80520083D01*
X92126866Y-80524694D01*
X92263084Y-80527920D01*
X92334926Y-80511971D01*
X92361200Y-80473408D01*
X92352580Y-80430639D01*
X92290406Y-80419666D01*
X92224667Y-80425123D01*
X92159666Y-80427355D01*
X92159666Y-80115833D01*
X92138500Y-80094666D01*
X92117333Y-80115833D01*
X92138500Y-80137000D01*
X92159666Y-80115833D01*
X92159666Y-80427355D01*
X92121806Y-80428656D01*
X92079723Y-80401645D01*
X92075000Y-80371966D01*
X92094214Y-80324510D01*
X92116848Y-80327200D01*
X92140538Y-80320213D01*
X92132123Y-80283815D01*
X92102970Y-80239570D01*
X92069756Y-80271033D01*
X92037543Y-80362528D01*
X92033314Y-80403072D01*
X92022448Y-80453109D01*
X91990333Y-80448674D01*
X91990333Y-80001310D01*
X91964908Y-80008798D01*
X91900024Y-80065353D01*
X91893520Y-80071961D01*
X91893520Y-79847204D01*
X91873489Y-79855556D01*
X91822514Y-79852767D01*
X91812485Y-79836288D01*
X91811955Y-79836061D01*
X91811955Y-79522315D01*
X91806888Y-79516111D01*
X91781721Y-79521922D01*
X91778666Y-79544333D01*
X91794155Y-79579178D01*
X91806888Y-79572555D01*
X91811955Y-79522315D01*
X91811955Y-79836061D01*
X91779321Y-79822096D01*
X91760990Y-79838534D01*
X91760990Y-79698392D01*
X91749784Y-79643690D01*
X91736333Y-79641304D01*
X91736333Y-79544333D01*
X91704118Y-79503230D01*
X91694000Y-79502000D01*
X91652896Y-79534214D01*
X91651666Y-79544333D01*
X91683881Y-79585436D01*
X91694000Y-79586666D01*
X91735103Y-79554452D01*
X91736333Y-79544333D01*
X91736333Y-79641304D01*
X91726054Y-79639481D01*
X91681163Y-79689356D01*
X91669342Y-79728941D01*
X91680548Y-79783642D01*
X91704278Y-79787851D01*
X91749169Y-79737977D01*
X91760990Y-79698392D01*
X91760990Y-79838534D01*
X91740185Y-79857191D01*
X91708044Y-79909585D01*
X91747105Y-79924875D01*
X91770984Y-79925333D01*
X91856232Y-79903997D01*
X91888542Y-79876459D01*
X91893520Y-79847204D01*
X91893520Y-80071961D01*
X91851607Y-80114546D01*
X91766804Y-80200674D01*
X91729971Y-80223545D01*
X91729971Y-80052333D01*
X91720787Y-80026567D01*
X91665696Y-79962816D01*
X91648034Y-79944792D01*
X91609333Y-79916876D01*
X91609333Y-79650166D01*
X91588166Y-79629000D01*
X91567000Y-79650166D01*
X91588166Y-79671333D01*
X91609333Y-79650166D01*
X91609333Y-79916876D01*
X91567000Y-79886340D01*
X91567000Y-79779665D01*
X91537335Y-79743522D01*
X91524666Y-79734833D01*
X91485657Y-79738189D01*
X91482333Y-79753501D01*
X91513063Y-79796610D01*
X91524666Y-79798333D01*
X91565899Y-79783889D01*
X91567000Y-79779665D01*
X91567000Y-79886340D01*
X91543480Y-79869375D01*
X91469079Y-79864654D01*
X91403654Y-79909054D01*
X91412940Y-79944601D01*
X91488525Y-79946364D01*
X91496057Y-79944585D01*
X91604571Y-79951516D01*
X91649408Y-79986111D01*
X91705567Y-80040485D01*
X91729971Y-80052333D01*
X91729971Y-80223545D01*
X91717954Y-80231007D01*
X91684172Y-80212506D01*
X91660748Y-80178144D01*
X91593666Y-80111962D01*
X91567000Y-80102863D01*
X91567000Y-79988833D01*
X91545833Y-79967666D01*
X91524666Y-79988833D01*
X91545833Y-80010000D01*
X91567000Y-79988833D01*
X91567000Y-80102863D01*
X91542976Y-80094666D01*
X91499653Y-80115586D01*
X91503926Y-80137690D01*
X91557037Y-80159321D01*
X91580508Y-80150730D01*
X91605958Y-80144430D01*
X91577950Y-80185685D01*
X91546090Y-80257027D01*
X91582876Y-80286930D01*
X91641583Y-80275055D01*
X91686109Y-80270442D01*
X91673558Y-80309722D01*
X91681817Y-80316214D01*
X91737736Y-80272828D01*
X91814780Y-80202491D01*
X91910148Y-80106119D01*
X91973905Y-80031221D01*
X91990333Y-80001310D01*
X91990333Y-80448674D01*
X91975594Y-80446640D01*
X91937416Y-80427359D01*
X91828055Y-80390396D01*
X91689737Y-80370650D01*
X91557215Y-80370291D01*
X91482333Y-80387547D01*
X91482333Y-80031166D01*
X91461166Y-80010000D01*
X91440000Y-80031166D01*
X91461166Y-80052333D01*
X91482333Y-80031166D01*
X91482333Y-80387547D01*
X91465243Y-80391486D01*
X91456200Y-80397343D01*
X91394437Y-80399473D01*
X91350366Y-80359772D01*
X91313560Y-80309372D01*
X91333347Y-80317936D01*
X91359228Y-80337716D01*
X91429372Y-80371792D01*
X91456224Y-80340563D01*
X91434457Y-80254399D01*
X91418833Y-80221666D01*
X91385351Y-80130515D01*
X91388330Y-80072630D01*
X91388771Y-80072122D01*
X91382138Y-80056690D01*
X91341287Y-80066755D01*
X91267345Y-80090079D01*
X91243539Y-80094666D01*
X91242608Y-80122712D01*
X91253542Y-80143540D01*
X91258532Y-80172509D01*
X91234874Y-80162209D01*
X91188354Y-80105430D01*
X91222413Y-80052640D01*
X91270666Y-80031166D01*
X91338762Y-79979701D01*
X91353986Y-79933063D01*
X91347583Y-79885757D01*
X91319140Y-79906780D01*
X91296403Y-79935916D01*
X91241062Y-79992530D01*
X91202270Y-80009195D01*
X91201091Y-79979813D01*
X91211612Y-79960472D01*
X91213664Y-79928682D01*
X91171777Y-79937977D01*
X91112113Y-79937088D01*
X91101333Y-79902838D01*
X91139372Y-79853808D01*
X91228333Y-79840666D01*
X91317492Y-79827684D01*
X91355323Y-79796404D01*
X91355333Y-79795834D01*
X91381268Y-79770551D01*
X91397666Y-79777166D01*
X91436741Y-79775307D01*
X91440000Y-79761129D01*
X91440000Y-79650166D01*
X91418833Y-79629000D01*
X91397666Y-79650166D01*
X91418833Y-79671333D01*
X91440000Y-79650166D01*
X91440000Y-79761129D01*
X91405030Y-79729204D01*
X91358266Y-79725085D01*
X91355333Y-79726210D01*
X91355333Y-79650166D01*
X91334166Y-79629000D01*
X91313000Y-79650166D01*
X91334166Y-79671333D01*
X91355333Y-79650166D01*
X91355333Y-79726210D01*
X91302550Y-79746468D01*
X91301306Y-79771328D01*
X91297805Y-79789766D01*
X91266624Y-79774243D01*
X91263178Y-79772942D01*
X91263178Y-79655844D01*
X91256555Y-79643111D01*
X91206315Y-79638044D01*
X91200111Y-79643111D01*
X91205922Y-79668278D01*
X91228333Y-79671333D01*
X91263178Y-79655844D01*
X91263178Y-79772942D01*
X91175278Y-79739761D01*
X91143666Y-79735952D01*
X91093014Y-79698206D01*
X91081601Y-79629000D01*
X91098179Y-79551019D01*
X91155905Y-79536096D01*
X91166267Y-79537667D01*
X91256661Y-79553082D01*
X91291833Y-79558833D01*
X91320742Y-79528326D01*
X91326266Y-79459666D01*
X91327411Y-79399727D01*
X91340465Y-79407013D01*
X91385044Y-79439757D01*
X91405817Y-79433462D01*
X91431547Y-79443444D01*
X91423759Y-79507281D01*
X91413016Y-79563688D01*
X91422751Y-79554916D01*
X91470762Y-79506020D01*
X91488359Y-79502000D01*
X91510348Y-79528143D01*
X91503500Y-79544333D01*
X91505359Y-79583408D01*
X91519537Y-79586666D01*
X91555106Y-79557243D01*
X91551630Y-79491866D01*
X91517258Y-79424878D01*
X91473687Y-79393422D01*
X91471954Y-79393011D01*
X91471954Y-79081422D01*
X91466163Y-79078666D01*
X91427530Y-79108468D01*
X91418833Y-79121000D01*
X91408045Y-79160577D01*
X91413836Y-79163333D01*
X91452469Y-79133531D01*
X91461166Y-79121000D01*
X91471954Y-79081422D01*
X91471954Y-79393011D01*
X91294789Y-79351044D01*
X91175638Y-79355185D01*
X91132863Y-79383520D01*
X91107856Y-79408161D01*
X91117780Y-79362846D01*
X91142793Y-79281443D01*
X91181296Y-79152048D01*
X91210810Y-79051229D01*
X91251340Y-78921358D01*
X91281876Y-78860293D01*
X91312982Y-78854710D01*
X91345483Y-78881341D01*
X91388795Y-78942748D01*
X91366539Y-79003935D01*
X91351696Y-79023625D01*
X91313601Y-79075282D01*
X91333450Y-79066610D01*
X91369143Y-79039055D01*
X91433240Y-79000085D01*
X91473036Y-79021456D01*
X91485115Y-79039055D01*
X91509375Y-79119626D01*
X91505215Y-79150582D01*
X91525800Y-79196518D01*
X91594225Y-79238983D01*
X91675060Y-79259174D01*
X91704583Y-79256387D01*
X91730467Y-79284277D01*
X91736333Y-79330168D01*
X91755772Y-79411209D01*
X91778666Y-79438500D01*
X91817044Y-79431667D01*
X91821000Y-79411911D01*
X91844526Y-79401846D01*
X91903893Y-79441785D01*
X91982284Y-79515433D01*
X92062881Y-79606496D01*
X92128865Y-79698680D01*
X92143366Y-79724250D01*
X92226891Y-79819806D01*
X92308113Y-79840666D01*
X92399166Y-79807402D01*
X92441693Y-79719567D01*
X92430882Y-79595101D01*
X92396745Y-79510209D01*
X92366975Y-79435221D01*
X92322306Y-79302339D01*
X92268699Y-79131729D01*
X92212115Y-78943557D01*
X92158515Y-78757990D01*
X92113861Y-78595194D01*
X92084114Y-78475334D01*
X92075000Y-78421793D01*
X92112951Y-78406342D01*
X92210716Y-78400861D01*
X92344164Y-78404300D01*
X92489161Y-78415610D01*
X92621577Y-78433738D01*
X92688833Y-78448506D01*
X92791145Y-78488726D01*
X92914971Y-78553981D01*
X93041216Y-78631653D01*
X93150788Y-78709124D01*
X93224596Y-78773774D01*
X93243545Y-78812986D01*
X93242406Y-78814370D01*
X93248618Y-78860089D01*
X93293509Y-78941162D01*
X93297442Y-78946888D01*
X93375498Y-79089487D01*
X93434307Y-79254043D01*
X93468909Y-79416714D01*
X93474342Y-79553652D01*
X93474342Y-79553652D01*
X93474342Y-79553652D01*
G37*
X93474342Y-79553652D02*
X93445645Y-79641013D01*
X93442552Y-79644336D01*
X93418201Y-79690666D01*
X93418201Y-79434090D01*
X93361542Y-79423984D01*
X93337062Y-79430748D01*
X93321027Y-79449545D01*
X93362638Y-79456324D01*
X93417545Y-79448541D01*
X93418201Y-79434090D01*
X93418201Y-79690666D01*
X93409690Y-79706859D01*
X93407292Y-79772013D01*
X93433412Y-79798333D01*
X93470903Y-79830658D01*
X93472000Y-79840666D01*
X93437026Y-79876883D01*
X93397916Y-79883648D01*
X93352183Y-79892951D01*
X93378183Y-79918782D01*
X93411542Y-79982162D01*
X93404927Y-80025212D01*
X93378781Y-80073497D01*
X93345015Y-80053304D01*
X93345000Y-80053284D01*
X93345000Y-79676625D01*
X93332546Y-79588469D01*
X93279795Y-79557277D01*
X93236668Y-79554916D01*
X93235764Y-79555082D01*
X93235764Y-79488663D01*
X93228583Y-79473963D01*
X93206164Y-79472516D01*
X93206164Y-79043434D01*
X93177672Y-79056260D01*
X93142783Y-79062074D01*
X93151956Y-79002031D01*
X93152732Y-78999567D01*
X93162566Y-78935584D01*
X93123753Y-78932117D01*
X93114454Y-78935479D01*
X93067421Y-78938086D01*
X93073882Y-78892880D01*
X93086101Y-78835083D01*
X93078891Y-78824666D01*
X93041229Y-78857862D01*
X93037593Y-78934676D01*
X93068557Y-79020952D01*
X93075427Y-79031473D01*
X93132841Y-79104453D01*
X93169004Y-79112418D01*
X93200875Y-79072125D01*
X93206164Y-79043434D01*
X93206164Y-79472516D01*
X93141912Y-79468372D01*
X93122750Y-79473963D01*
X93117431Y-79489414D01*
X93175666Y-79495315D01*
X93235764Y-79488663D01*
X93235764Y-79555082D01*
X93158837Y-79569284D01*
X93152001Y-79616587D01*
X93173514Y-79693553D01*
X93175666Y-79714024D01*
X93210490Y-79753420D01*
X93249750Y-79769151D01*
X93317777Y-79787949D01*
X93334416Y-79793422D01*
X93341951Y-79760464D01*
X93345000Y-79676625D01*
X93345000Y-80053284D01*
X93320173Y-80021827D01*
X93291201Y-79992725D01*
X93291201Y-79857423D01*
X93234542Y-79847317D01*
X93210062Y-79854081D01*
X93194027Y-79872878D01*
X93235638Y-79879657D01*
X93290545Y-79871874D01*
X93291201Y-79857423D01*
X93291201Y-79992725D01*
X93275940Y-79977397D01*
X93261679Y-79983433D01*
X93234660Y-79991458D01*
X93195810Y-79966817D01*
X93140809Y-79930222D01*
X93106914Y-79948894D01*
X93091000Y-79990953D01*
X93091000Y-79671333D01*
X93062115Y-79601414D01*
X93024097Y-79591820D01*
X93024097Y-79530996D01*
X93016916Y-79516296D01*
X93005113Y-79515534D01*
X93005113Y-78741079D01*
X92965343Y-78764147D01*
X92954173Y-78773235D01*
X92903867Y-78804270D01*
X92893411Y-78767465D01*
X92894372Y-78753089D01*
X92879841Y-78689388D01*
X92858166Y-78676872D01*
X92785389Y-78654384D01*
X92766532Y-78643837D01*
X92710440Y-78645346D01*
X92695791Y-78665652D01*
X92677425Y-78677904D01*
X92671008Y-78639814D01*
X92648882Y-78583396D01*
X92575502Y-78578604D01*
X92561833Y-78581027D01*
X92483149Y-78584369D01*
X92456000Y-78566124D01*
X92424735Y-78547884D01*
X92392500Y-78555357D01*
X92335085Y-78597012D01*
X92345219Y-78635403D01*
X92381916Y-78645796D01*
X92537250Y-78674978D01*
X92691820Y-78728661D01*
X92808814Y-78793256D01*
X92829355Y-78810974D01*
X92912061Y-78855085D01*
X92979221Y-78821247D01*
X92999988Y-78779687D01*
X93005113Y-78741079D01*
X93005113Y-79515534D01*
X92930245Y-79510705D01*
X92928951Y-79511082D01*
X92928951Y-79010664D01*
X92926356Y-78973780D01*
X92858227Y-78913084D01*
X92810990Y-78882337D01*
X92681353Y-78810483D01*
X92609486Y-78785658D01*
X92599656Y-78808682D01*
X92626182Y-78846856D01*
X92677657Y-78891538D01*
X92698393Y-78892717D01*
X92737809Y-78905071D01*
X92799738Y-78956738D01*
X92874983Y-79007972D01*
X92928951Y-79010664D01*
X92928951Y-79511082D01*
X92911083Y-79516296D01*
X92905765Y-79531748D01*
X92964000Y-79537649D01*
X93024097Y-79530996D01*
X93024097Y-79591820D01*
X93016916Y-79590008D01*
X92976800Y-79600850D01*
X92995750Y-79614703D01*
X93044335Y-79670583D01*
X93048666Y-79696027D01*
X93060773Y-79750193D01*
X93069833Y-79756000D01*
X93087057Y-79720395D01*
X93091000Y-79671333D01*
X93091000Y-79990953D01*
X93074079Y-80035674D01*
X93070556Y-80047051D01*
X93066471Y-80071227D01*
X93066471Y-79826939D01*
X93054454Y-79807318D01*
X93006333Y-79813184D01*
X93006333Y-79692500D01*
X92985166Y-79671333D01*
X92964000Y-79692500D01*
X92985166Y-79713666D01*
X93006333Y-79692500D01*
X93006333Y-79813184D01*
X92977770Y-79816666D01*
X92954197Y-79833535D01*
X92943211Y-79861273D01*
X93005248Y-79853202D01*
X93009726Y-79852045D01*
X93066471Y-79826939D01*
X93066471Y-80071227D01*
X93058715Y-80117129D01*
X93086464Y-80118636D01*
X93128512Y-80120635D01*
X93133333Y-80139685D01*
X93149916Y-80166356D01*
X93197802Y-80136195D01*
X93243354Y-80105892D01*
X93239272Y-80142073D01*
X93232941Y-80159123D01*
X93223903Y-80211651D01*
X93253139Y-80204946D01*
X93295336Y-80198850D01*
X93298298Y-80242823D01*
X93265220Y-80313664D01*
X93232295Y-80356259D01*
X93218000Y-80369047D01*
X93218000Y-80329998D01*
X93187931Y-80294192D01*
X93169125Y-80281124D01*
X93140157Y-80276134D01*
X93150457Y-80299792D01*
X93193082Y-80345239D01*
X93217587Y-80335916D01*
X93218000Y-80329998D01*
X93218000Y-80369047D01*
X93173526Y-80408835D01*
X93123354Y-80396718D01*
X93091000Y-80369413D01*
X93091000Y-80248016D01*
X93062070Y-80212679D01*
X93045087Y-80198106D01*
X93045087Y-79952073D01*
X93012235Y-79947551D01*
X92964849Y-79987810D01*
X92937548Y-80041039D01*
X92956318Y-80052333D01*
X93018364Y-80021178D01*
X93029240Y-80007183D01*
X93045087Y-79952073D01*
X93045087Y-80198106D01*
X93016916Y-80173933D01*
X92966773Y-80137321D01*
X92977285Y-80159243D01*
X93000933Y-80189916D01*
X93062723Y-80255731D01*
X93090304Y-80255445D01*
X93091000Y-80248016D01*
X93091000Y-80369413D01*
X93084128Y-80363614D01*
X93025615Y-80324901D01*
X92999631Y-80352270D01*
X93000824Y-80453119D01*
X93003082Y-80475666D01*
X93000737Y-80515706D01*
X92982801Y-80495174D01*
X92982801Y-80306273D01*
X92975988Y-80260961D01*
X92930735Y-80211921D01*
X92921666Y-80205772D01*
X92921666Y-79758498D01*
X92895906Y-79708667D01*
X92895906Y-79128433D01*
X92876966Y-79087856D01*
X92806169Y-79024751D01*
X92707247Y-78954724D01*
X92603935Y-78893381D01*
X92519968Y-78856327D01*
X92481292Y-78855818D01*
X92459270Y-78913581D01*
X92520848Y-78958891D01*
X92551250Y-78968798D01*
X92646500Y-78995805D01*
X92544841Y-79052738D01*
X92480728Y-79099195D01*
X92491099Y-79130591D01*
X92502507Y-79136502D01*
X92537857Y-79165791D01*
X92508916Y-79188027D01*
X92465184Y-79237005D01*
X92459616Y-79298800D01*
X92494833Y-79332421D01*
X92499661Y-79332666D01*
X92550819Y-79298736D01*
X92568624Y-79266733D01*
X92618627Y-79221035D01*
X92651962Y-79223071D01*
X92700058Y-79210886D01*
X92710000Y-79162004D01*
X92729607Y-79089046D01*
X92783901Y-79092127D01*
X92823755Y-79124688D01*
X92877566Y-79145892D01*
X92895906Y-79128433D01*
X92895906Y-79708667D01*
X92891149Y-79699465D01*
X92829287Y-79689044D01*
X92790581Y-79718826D01*
X92762267Y-79744804D01*
X92753075Y-79692962D01*
X92752981Y-79685444D01*
X92774008Y-79603000D01*
X92805250Y-79572369D01*
X92814052Y-79554730D01*
X92770248Y-79547675D01*
X92709987Y-79558594D01*
X92694888Y-79613806D01*
X92700969Y-79671333D01*
X92729720Y-79764359D01*
X92792169Y-79796882D01*
X92820638Y-79798333D01*
X92897880Y-79784102D01*
X92921666Y-79758498D01*
X92921666Y-80205772D01*
X92897469Y-80189366D01*
X92897469Y-79945359D01*
X92894642Y-79904166D01*
X92838229Y-79855726D01*
X92763787Y-79840666D01*
X92691984Y-79848189D01*
X92691997Y-79880385D01*
X92710000Y-79904166D01*
X92792845Y-79958473D01*
X92840854Y-79967666D01*
X92897469Y-79945359D01*
X92897469Y-80189366D01*
X92889880Y-80184221D01*
X92889880Y-80061090D01*
X92859008Y-80024012D01*
X92847370Y-80027851D01*
X92797926Y-80027917D01*
X92746767Y-80007021D01*
X92681247Y-79980121D01*
X92673016Y-80011604D01*
X92689301Y-80059454D01*
X92743728Y-80103414D01*
X92810911Y-80115833D01*
X92884196Y-80097965D01*
X92889880Y-80061090D01*
X92889880Y-80184221D01*
X92852455Y-80158847D01*
X92761465Y-80168249D01*
X92740768Y-80175682D01*
X92663706Y-80198257D01*
X92646054Y-80178922D01*
X92651809Y-80159595D01*
X92635777Y-80097633D01*
X92613868Y-80080050D01*
X92613868Y-79603423D01*
X92557209Y-79593317D01*
X92532729Y-79600081D01*
X92516694Y-79618878D01*
X92558305Y-79625657D01*
X92613212Y-79617874D01*
X92613868Y-79603423D01*
X92613868Y-80080050D01*
X92575700Y-80049420D01*
X92508393Y-80016586D01*
X92508473Y-80031451D01*
X92548233Y-80077923D01*
X92605121Y-80151126D01*
X92623951Y-80219668D01*
X92625981Y-80274583D01*
X92636021Y-80303789D01*
X92661791Y-80272057D01*
X92698594Y-80250416D01*
X92749388Y-80298202D01*
X92770287Y-80328538D01*
X92824806Y-80402484D01*
X92866940Y-80411697D01*
X92926472Y-80365484D01*
X92982801Y-80306273D01*
X92982801Y-80495174D01*
X92971056Y-80481730D01*
X92925641Y-80450526D01*
X92905101Y-80468221D01*
X92907780Y-80526508D01*
X92921666Y-80539166D01*
X92945993Y-80591137D01*
X92939755Y-80607647D01*
X92890860Y-80621502D01*
X92853428Y-80598734D01*
X92810572Y-80571554D01*
X92816794Y-80610944D01*
X92819577Y-80618325D01*
X92824232Y-80668060D01*
X92778988Y-80662415D01*
X92734255Y-80616570D01*
X92747388Y-80566684D01*
X92768805Y-80478191D01*
X92744037Y-80417212D01*
X92696681Y-80407606D01*
X92669572Y-80408072D01*
X92678250Y-80401700D01*
X92709917Y-80359951D01*
X92668938Y-80326376D01*
X92620998Y-80317646D01*
X92556988Y-80327496D01*
X92552557Y-80386244D01*
X92556920Y-80403887D01*
X92577050Y-80490255D01*
X92582421Y-80527254D01*
X92614416Y-80541415D01*
X92646500Y-80533308D01*
X92700954Y-80533525D01*
X92710000Y-80552276D01*
X92676819Y-80605855D01*
X92657083Y-80616963D01*
X92627448Y-80636259D01*
X92655754Y-80641657D01*
X92688832Y-80675149D01*
X92684155Y-80705424D01*
X92628438Y-80747977D01*
X92583000Y-80748421D01*
X92583000Y-80666166D01*
X92549113Y-80610042D01*
X92540666Y-80607938D01*
X92540666Y-80250924D01*
X92515764Y-80177102D01*
X92474027Y-80113341D01*
X92433468Y-80069243D01*
X92431957Y-80080467D01*
X92425770Y-80135011D01*
X92408260Y-80145857D01*
X92392742Y-80182047D01*
X92432187Y-80234139D01*
X92503341Y-80296131D01*
X92535100Y-80293284D01*
X92540666Y-80250924D01*
X92540666Y-80607938D01*
X92519500Y-80602666D01*
X92459153Y-80620602D01*
X92464390Y-80662085D01*
X92527298Y-80708625D01*
X92572416Y-80726324D01*
X92581802Y-80695044D01*
X92583000Y-80666166D01*
X92583000Y-80748421D01*
X92571083Y-80748538D01*
X92485149Y-80755920D01*
X92448080Y-80783364D01*
X92425229Y-80786419D01*
X92414610Y-80715344D01*
X92414314Y-80697916D01*
X92429654Y-80592849D01*
X92477166Y-80560333D01*
X92526142Y-80555061D01*
X92535779Y-80523527D01*
X92509677Y-80442157D01*
X92499381Y-80414922D01*
X92447861Y-80334836D01*
X92393547Y-80306333D01*
X92340771Y-80270675D01*
X92329000Y-80218138D01*
X92307298Y-80155791D01*
X92260884Y-80154405D01*
X92217792Y-80208713D01*
X92208513Y-80240771D01*
X92211976Y-80293004D01*
X92230147Y-80293934D01*
X92292572Y-80298202D01*
X92366731Y-80353404D01*
X92422736Y-80436745D01*
X92425024Y-80442560D01*
X92429275Y-80515377D01*
X92411817Y-80540309D01*
X92377836Y-80598952D01*
X92371333Y-80647498D01*
X92348627Y-80717482D01*
X92299031Y-80723353D01*
X92267734Y-80690949D01*
X92276635Y-80643626D01*
X92296986Y-80630791D01*
X92312411Y-80612098D01*
X92276083Y-80606008D01*
X92213390Y-80623028D01*
X92202000Y-80645000D01*
X92165771Y-80676822D01*
X92142482Y-80680338D01*
X92142482Y-80624477D01*
X92138500Y-80602666D01*
X92084378Y-80561948D01*
X92072501Y-80560333D01*
X92033806Y-80592622D01*
X92032666Y-80602666D01*
X92067124Y-80639818D01*
X92098665Y-80645000D01*
X92142482Y-80624477D01*
X92142482Y-80680338D01*
X92096166Y-80687333D01*
X92009339Y-80664053D01*
X91988423Y-80613250D01*
X91976052Y-80585342D01*
X91942475Y-80639375D01*
X91935507Y-80654776D01*
X91887964Y-80732503D01*
X91837155Y-80738431D01*
X91821000Y-80729508D01*
X91782101Y-80696821D01*
X91822204Y-80688115D01*
X91831583Y-80687981D01*
X91893691Y-80653053D01*
X91905666Y-80598777D01*
X91913885Y-80547528D01*
X91952417Y-80523620D01*
X92042074Y-80520083D01*
X92126866Y-80524694D01*
X92263084Y-80527920D01*
X92334926Y-80511971D01*
X92361200Y-80473408D01*
X92352580Y-80430639D01*
X92290406Y-80419666D01*
X92224667Y-80425123D01*
X92159666Y-80427355D01*
X92159666Y-80115833D01*
X92138500Y-80094666D01*
X92117333Y-80115833D01*
X92138500Y-80137000D01*
X92159666Y-80115833D01*
X92159666Y-80427355D01*
X92121806Y-80428656D01*
X92079723Y-80401645D01*
X92075000Y-80371966D01*
X92094214Y-80324510D01*
X92116848Y-80327200D01*
X92140538Y-80320213D01*
X92132123Y-80283815D01*
X92102970Y-80239570D01*
X92069756Y-80271033D01*
X92037543Y-80362528D01*
X92033314Y-80403072D01*
X92022448Y-80453109D01*
X91990333Y-80448674D01*
X91990333Y-80001310D01*
X91964908Y-80008798D01*
X91900024Y-80065353D01*
X91893520Y-80071961D01*
X91893520Y-79847204D01*
X91873489Y-79855556D01*
X91822514Y-79852767D01*
X91812485Y-79836288D01*
X91811955Y-79836061D01*
X91811955Y-79522315D01*
X91806888Y-79516111D01*
X91781721Y-79521922D01*
X91778666Y-79544333D01*
X91794155Y-79579178D01*
X91806888Y-79572555D01*
X91811955Y-79522315D01*
X91811955Y-79836061D01*
X91779321Y-79822096D01*
X91760990Y-79838534D01*
X91760990Y-79698392D01*
X91749784Y-79643690D01*
X91736333Y-79641304D01*
X91736333Y-79544333D01*
X91704118Y-79503230D01*
X91694000Y-79502000D01*
X91652896Y-79534214D01*
X91651666Y-79544333D01*
X91683881Y-79585436D01*
X91694000Y-79586666D01*
X91735103Y-79554452D01*
X91736333Y-79544333D01*
X91736333Y-79641304D01*
X91726054Y-79639481D01*
X91681163Y-79689356D01*
X91669342Y-79728941D01*
X91680548Y-79783642D01*
X91704278Y-79787851D01*
X91749169Y-79737977D01*
X91760990Y-79698392D01*
X91760990Y-79838534D01*
X91740185Y-79857191D01*
X91708044Y-79909585D01*
X91747105Y-79924875D01*
X91770984Y-79925333D01*
X91856232Y-79903997D01*
X91888542Y-79876459D01*
X91893520Y-79847204D01*
X91893520Y-80071961D01*
X91851607Y-80114546D01*
X91766804Y-80200674D01*
X91729971Y-80223545D01*
X91729971Y-80052333D01*
X91720787Y-80026567D01*
X91665696Y-79962816D01*
X91648034Y-79944792D01*
X91609333Y-79916876D01*
X91609333Y-79650166D01*
X91588166Y-79629000D01*
X91567000Y-79650166D01*
X91588166Y-79671333D01*
X91609333Y-79650166D01*
X91609333Y-79916876D01*
X91567000Y-79886340D01*
X91567000Y-79779665D01*
X91537335Y-79743522D01*
X91524666Y-79734833D01*
X91485657Y-79738189D01*
X91482333Y-79753501D01*
X91513063Y-79796610D01*
X91524666Y-79798333D01*
X91565899Y-79783889D01*
X91567000Y-79779665D01*
X91567000Y-79886340D01*
X91543480Y-79869375D01*
X91469079Y-79864654D01*
X91403654Y-79909054D01*
X91412940Y-79944601D01*
X91488525Y-79946364D01*
X91496057Y-79944585D01*
X91604571Y-79951516D01*
X91649408Y-79986111D01*
X91705567Y-80040485D01*
X91729971Y-80052333D01*
X91729971Y-80223545D01*
X91717954Y-80231007D01*
X91684172Y-80212506D01*
X91660748Y-80178144D01*
X91593666Y-80111962D01*
X91567000Y-80102863D01*
X91567000Y-79988833D01*
X91545833Y-79967666D01*
X91524666Y-79988833D01*
X91545833Y-80010000D01*
X91567000Y-79988833D01*
X91567000Y-80102863D01*
X91542976Y-80094666D01*
X91499653Y-80115586D01*
X91503926Y-80137690D01*
X91557037Y-80159321D01*
X91580508Y-80150730D01*
X91605958Y-80144430D01*
X91577950Y-80185685D01*
X91546090Y-80257027D01*
X91582876Y-80286930D01*
X91641583Y-80275055D01*
X91686109Y-80270442D01*
X91673558Y-80309722D01*
X91681817Y-80316214D01*
X91737736Y-80272828D01*
X91814780Y-80202491D01*
X91910148Y-80106119D01*
X91973905Y-80031221D01*
X91990333Y-80001310D01*
X91990333Y-80448674D01*
X91975594Y-80446640D01*
X91937416Y-80427359D01*
X91828055Y-80390396D01*
X91689737Y-80370650D01*
X91557215Y-80370291D01*
X91482333Y-80387547D01*
X91482333Y-80031166D01*
X91461166Y-80010000D01*
X91440000Y-80031166D01*
X91461166Y-80052333D01*
X91482333Y-80031166D01*
X91482333Y-80387547D01*
X91465243Y-80391486D01*
X91456200Y-80397343D01*
X91394437Y-80399473D01*
X91350366Y-80359772D01*
X91313560Y-80309372D01*
X91333347Y-80317936D01*
X91359228Y-80337716D01*
X91429372Y-80371792D01*
X91456224Y-80340563D01*
X91434457Y-80254399D01*
X91418833Y-80221666D01*
X91385351Y-80130515D01*
X91388330Y-80072630D01*
X91388771Y-80072122D01*
X91382138Y-80056690D01*
X91341287Y-80066755D01*
X91267345Y-80090079D01*
X91243539Y-80094666D01*
X91242608Y-80122712D01*
X91253542Y-80143540D01*
X91258532Y-80172509D01*
X91234874Y-80162209D01*
X91188354Y-80105430D01*
X91222413Y-80052640D01*
X91270666Y-80031166D01*
X91338762Y-79979701D01*
X91353986Y-79933063D01*
X91347583Y-79885757D01*
X91319140Y-79906780D01*
X91296403Y-79935916D01*
X91241062Y-79992530D01*
X91202270Y-80009195D01*
X91201091Y-79979813D01*
X91211612Y-79960472D01*
X91213664Y-79928682D01*
X91171777Y-79937977D01*
X91112113Y-79937088D01*
X91101333Y-79902838D01*
X91139372Y-79853808D01*
X91228333Y-79840666D01*
X91317492Y-79827684D01*
X91355323Y-79796404D01*
X91355333Y-79795834D01*
X91381268Y-79770551D01*
X91397666Y-79777166D01*
X91436741Y-79775307D01*
X91440000Y-79761129D01*
X91440000Y-79650166D01*
X91418833Y-79629000D01*
X91397666Y-79650166D01*
X91418833Y-79671333D01*
X91440000Y-79650166D01*
X91440000Y-79761129D01*
X91405030Y-79729204D01*
X91358266Y-79725085D01*
X91355333Y-79726210D01*
X91355333Y-79650166D01*
X91334166Y-79629000D01*
X91313000Y-79650166D01*
X91334166Y-79671333D01*
X91355333Y-79650166D01*
X91355333Y-79726210D01*
X91302550Y-79746468D01*
X91301306Y-79771328D01*
X91297805Y-79789766D01*
X91266624Y-79774243D01*
X91263178Y-79772942D01*
X91263178Y-79655844D01*
X91256555Y-79643111D01*
X91206315Y-79638044D01*
X91200111Y-79643111D01*
X91205922Y-79668278D01*
X91228333Y-79671333D01*
X91263178Y-79655844D01*
X91263178Y-79772942D01*
X91175278Y-79739761D01*
X91143666Y-79735952D01*
X91093014Y-79698206D01*
X91081601Y-79629000D01*
X91098179Y-79551019D01*
X91155905Y-79536096D01*
X91166267Y-79537667D01*
X91256661Y-79553082D01*
X91291833Y-79558833D01*
X91320742Y-79528326D01*
X91326266Y-79459666D01*
X91327411Y-79399727D01*
X91340465Y-79407013D01*
X91385044Y-79439757D01*
X91405817Y-79433462D01*
X91431547Y-79443444D01*
X91423759Y-79507281D01*
X91413016Y-79563688D01*
X91422751Y-79554916D01*
X91470762Y-79506020D01*
X91488359Y-79502000D01*
X91510348Y-79528143D01*
X91503500Y-79544333D01*
X91505359Y-79583408D01*
X91519537Y-79586666D01*
X91555106Y-79557243D01*
X91551630Y-79491866D01*
X91517258Y-79424878D01*
X91473687Y-79393422D01*
X91471954Y-79393011D01*
X91471954Y-79081422D01*
X91466163Y-79078666D01*
X91427530Y-79108468D01*
X91418833Y-79121000D01*
X91408045Y-79160577D01*
X91413836Y-79163333D01*
X91452469Y-79133531D01*
X91461166Y-79121000D01*
X91471954Y-79081422D01*
X91471954Y-79393011D01*
X91294789Y-79351044D01*
X91175638Y-79355185D01*
X91132863Y-79383520D01*
X91107856Y-79408161D01*
X91117780Y-79362846D01*
X91142793Y-79281443D01*
X91181296Y-79152048D01*
X91210810Y-79051229D01*
X91251340Y-78921358D01*
X91281876Y-78860293D01*
X91312982Y-78854710D01*
X91345483Y-78881341D01*
X91388795Y-78942748D01*
X91366539Y-79003935D01*
X91351696Y-79023625D01*
X91313601Y-79075282D01*
X91333450Y-79066610D01*
X91369143Y-79039055D01*
X91433240Y-79000085D01*
X91473036Y-79021456D01*
X91485115Y-79039055D01*
X91509375Y-79119626D01*
X91505215Y-79150582D01*
X91525800Y-79196518D01*
X91594225Y-79238983D01*
X91675060Y-79259174D01*
X91704583Y-79256387D01*
X91730467Y-79284277D01*
X91736333Y-79330168D01*
X91755772Y-79411209D01*
X91778666Y-79438500D01*
X91817044Y-79431667D01*
X91821000Y-79411911D01*
X91844526Y-79401846D01*
X91903893Y-79441785D01*
X91982284Y-79515433D01*
X92062881Y-79606496D01*
X92128865Y-79698680D01*
X92143366Y-79724250D01*
X92226891Y-79819806D01*
X92308113Y-79840666D01*
X92399166Y-79807402D01*
X92441693Y-79719567D01*
X92430882Y-79595101D01*
X92396745Y-79510209D01*
X92366975Y-79435221D01*
X92322306Y-79302339D01*
X92268699Y-79131729D01*
X92212115Y-78943557D01*
X92158515Y-78757990D01*
X92113861Y-78595194D01*
X92084114Y-78475334D01*
X92075000Y-78421793D01*
X92112951Y-78406342D01*
X92210716Y-78400861D01*
X92344164Y-78404300D01*
X92489161Y-78415610D01*
X92621577Y-78433738D01*
X92688833Y-78448506D01*
X92791145Y-78488726D01*
X92914971Y-78553981D01*
X93041216Y-78631653D01*
X93150788Y-78709124D01*
X93224596Y-78773774D01*
X93243545Y-78812986D01*
X93242406Y-78814370D01*
X93248618Y-78860089D01*
X93293509Y-78941162D01*
X93297442Y-78946888D01*
X93375498Y-79089487D01*
X93434307Y-79254043D01*
X93468909Y-79416714D01*
X93474342Y-79553652D01*
X93474342Y-79553652D01*
G36*
X91717123Y-80685141D02*
X91712565Y-80685924D01*
X91651852Y-80660469D01*
X91574982Y-80601017D01*
X91501545Y-80515075D01*
X91485162Y-80454317D01*
X91524666Y-80433333D01*
X91557698Y-80460194D01*
X91556416Y-80470068D01*
X91578199Y-80519673D01*
X91645448Y-80590360D01*
X91651666Y-80595660D01*
X91710651Y-80655180D01*
X91717123Y-80685141D01*
X91717123Y-80685141D01*
X91717123Y-80685141D01*
G37*
X91717123Y-80685141D02*
X91712565Y-80685924D01*
X91651852Y-80660469D01*
X91574982Y-80601017D01*
X91501545Y-80515075D01*
X91485162Y-80454317D01*
X91524666Y-80433333D01*
X91557698Y-80460194D01*
X91556416Y-80470068D01*
X91578199Y-80519673D01*
X91645448Y-80590360D01*
X91651666Y-80595660D01*
X91710651Y-80655180D01*
X91717123Y-80685141D01*
X91717123Y-80685141D01*
G36*
X91859991Y-80570916D02*
X91839259Y-80635774D01*
X91787871Y-80633840D01*
X91753457Y-80596125D01*
X91748479Y-80566871D01*
X91768510Y-80575222D01*
X91821534Y-80570173D01*
X91835208Y-80550013D01*
X91853901Y-80534588D01*
X91859991Y-80570916D01*
X91859991Y-80570916D01*
X91859991Y-80570916D01*
G37*
X91859991Y-80570916D02*
X91839259Y-80635774D01*
X91787871Y-80633840D01*
X91753457Y-80596125D01*
X91748479Y-80566871D01*
X91768510Y-80575222D01*
X91821534Y-80570173D01*
X91835208Y-80550013D01*
X91853901Y-80534588D01*
X91859991Y-80570916D01*
X91859991Y-80570916D01*
G36*
X93218000Y-80623833D02*
X93196833Y-80645000D01*
X93175666Y-80623833D01*
X93196833Y-80602666D01*
X93218000Y-80623833D01*
X93218000Y-80623833D01*
X93218000Y-80623833D01*
G37*
X93218000Y-80623833D02*
X93196833Y-80645000D01*
X93175666Y-80623833D01*
X93196833Y-80602666D01*
X93218000Y-80623833D01*
X93218000Y-80623833D01*
G36*
X89313605Y-80518000D02*
X88767326Y-80518000D01*
X88221046Y-80518000D01*
X88232440Y-79576083D01*
X88243833Y-78634166D01*
X88772129Y-78634166D01*
X89300425Y-78634166D01*
X89307015Y-79576083D01*
X89313605Y-80518000D01*
X89313605Y-80518000D01*
X89313605Y-80518000D01*
G37*
X89313605Y-80518000D02*
X88767326Y-80518000D01*
X88221046Y-80518000D01*
X88232440Y-79576083D01*
X88243833Y-78634166D01*
X88772129Y-78634166D01*
X89300425Y-78634166D01*
X89307015Y-79576083D01*
X89313605Y-80518000D01*
X89313605Y-80518000D01*
G36*
X92752333Y-80496833D02*
X92731166Y-80518000D01*
X92710000Y-80496833D01*
X92731166Y-80475666D01*
X92752333Y-80496833D01*
X92752333Y-80496833D01*
X92752333Y-80496833D01*
G37*
X92752333Y-80496833D02*
X92731166Y-80518000D01*
X92710000Y-80496833D01*
X92731166Y-80475666D01*
X92752333Y-80496833D01*
X92752333Y-80496833D01*
G36*
X93175666Y-80031166D02*
X93154500Y-80052333D01*
X93133333Y-80031166D01*
X93154500Y-80010000D01*
X93175666Y-80031166D01*
X93175666Y-80031166D01*
X93175666Y-80031166D01*
G37*
X93175666Y-80031166D02*
X93154500Y-80052333D01*
X93133333Y-80031166D01*
X93154500Y-80010000D01*
X93175666Y-80031166D01*
X93175666Y-80031166D01*
G36*
X90626622Y-79905017D02*
X90621555Y-79911222D01*
X90596388Y-79905411D01*
X90593333Y-79883000D01*
X90608822Y-79848154D01*
X90621555Y-79854777D01*
X90626622Y-79905017D01*
X90626622Y-79905017D01*
X90626622Y-79905017D01*
G37*
X90626622Y-79905017D02*
X90621555Y-79911222D01*
X90596388Y-79905411D01*
X90593333Y-79883000D01*
X90608822Y-79848154D01*
X90621555Y-79854777D01*
X90626622Y-79905017D01*
X90626622Y-79905017D01*
G36*
X90800615Y-79257430D02*
X90790063Y-79304379D01*
X90775624Y-79386323D01*
X90765697Y-79521198D01*
X90762666Y-79653629D01*
X90757960Y-79792772D01*
X90745659Y-79890749D01*
X90729532Y-79925333D01*
X90715523Y-79886617D01*
X90709162Y-79784440D01*
X90711602Y-79639758D01*
X90712652Y-79618416D01*
X90726419Y-79461887D01*
X90747407Y-79337807D01*
X90771268Y-79271265D01*
X90773183Y-79269166D01*
X90800615Y-79257430D01*
X90800615Y-79257430D01*
X90800615Y-79257430D01*
G37*
X90800615Y-79257430D02*
X90790063Y-79304379D01*
X90775624Y-79386323D01*
X90765697Y-79521198D01*
X90762666Y-79653629D01*
X90757960Y-79792772D01*
X90745659Y-79890749D01*
X90729532Y-79925333D01*
X90715523Y-79886617D01*
X90709162Y-79784440D01*
X90711602Y-79639758D01*
X90712652Y-79618416D01*
X90726419Y-79461887D01*
X90747407Y-79337807D01*
X90771268Y-79271265D01*
X90773183Y-79269166D01*
X90800615Y-79257430D01*
X90800615Y-79257430D01*
G36*
X90678000Y-79353833D02*
X90656833Y-79375000D01*
X90635666Y-79353833D01*
X90656833Y-79332666D01*
X90678000Y-79353833D01*
X90678000Y-79353833D01*
X90678000Y-79353833D01*
G37*
X90678000Y-79353833D02*
X90656833Y-79375000D01*
X90635666Y-79353833D01*
X90656833Y-79332666D01*
X90678000Y-79353833D01*
X90678000Y-79353833D01*
G36*
X90668955Y-79227684D02*
X90663888Y-79233888D01*
X90638721Y-79228077D01*
X90635666Y-79205666D01*
X90651155Y-79170821D01*
X90663888Y-79177444D01*
X90668955Y-79227684D01*
X90668955Y-79227684D01*
X90668955Y-79227684D01*
G37*
X90668955Y-79227684D02*
X90663888Y-79233888D01*
X90638721Y-79228077D01*
X90635666Y-79205666D01*
X90651155Y-79170821D01*
X90663888Y-79177444D01*
X90668955Y-79227684D01*
X90668955Y-79227684D01*
G36*
X90969909Y-79041123D02*
X90933730Y-79113967D01*
X90921416Y-79130188D01*
X90851784Y-79175491D01*
X90847333Y-79174658D01*
X90847333Y-79078666D01*
X90814789Y-79037960D01*
X90802501Y-79036333D01*
X90777218Y-79062268D01*
X90783833Y-79078666D01*
X90821874Y-79119051D01*
X90828665Y-79121000D01*
X90846847Y-79088247D01*
X90847333Y-79078666D01*
X90847333Y-79174658D01*
X90773250Y-79160810D01*
X90688663Y-79105032D01*
X90680463Y-79046891D01*
X90742893Y-79004536D01*
X90826166Y-78994000D01*
X90936221Y-79004231D01*
X90969909Y-79041123D01*
X90969909Y-79041123D01*
X90969909Y-79041123D01*
G37*
X90969909Y-79041123D02*
X90933730Y-79113967D01*
X90921416Y-79130188D01*
X90851784Y-79175491D01*
X90847333Y-79174658D01*
X90847333Y-79078666D01*
X90814789Y-79037960D01*
X90802501Y-79036333D01*
X90777218Y-79062268D01*
X90783833Y-79078666D01*
X90821874Y-79119051D01*
X90828665Y-79121000D01*
X90846847Y-79088247D01*
X90847333Y-79078666D01*
X90847333Y-79174658D01*
X90773250Y-79160810D01*
X90688663Y-79105032D01*
X90680463Y-79046891D01*
X90742893Y-79004536D01*
X90826166Y-78994000D01*
X90936221Y-79004231D01*
X90969909Y-79041123D01*
X90969909Y-79041123D01*
G36*
X91609333Y-79184500D02*
X91588166Y-79205666D01*
X91567000Y-79184500D01*
X91588166Y-79163333D01*
X91609333Y-79184500D01*
X91609333Y-79184500D01*
X91609333Y-79184500D01*
G37*
X91609333Y-79184500D02*
X91588166Y-79205666D01*
X91567000Y-79184500D01*
X91588166Y-79163333D01*
X91609333Y-79184500D01*
X91609333Y-79184500D01*
G36*
X87981674Y-77520138D02*
X87980636Y-77634606D01*
X87976458Y-77800205D01*
X87969463Y-78000209D01*
X87968666Y-78020333D01*
X87959010Y-78234194D01*
X87949647Y-78370852D01*
X87939397Y-78437756D01*
X87927075Y-78442355D01*
X87911499Y-78392100D01*
X87910400Y-78387349D01*
X87894430Y-78272048D01*
X87888106Y-78123032D01*
X87890144Y-77957359D01*
X87899257Y-77792089D01*
X87914162Y-77644281D01*
X87933573Y-77530993D01*
X87956204Y-77469285D01*
X87979250Y-77473527D01*
X87981674Y-77520138D01*
X87981674Y-77520138D01*
X87981674Y-77520138D01*
G37*
X87981674Y-77520138D02*
X87980636Y-77634606D01*
X87976458Y-77800205D01*
X87969463Y-78000209D01*
X87968666Y-78020333D01*
X87959010Y-78234194D01*
X87949647Y-78370852D01*
X87939397Y-78437756D01*
X87927075Y-78442355D01*
X87911499Y-78392100D01*
X87910400Y-78387349D01*
X87894430Y-78272048D01*
X87888106Y-78123032D01*
X87890144Y-77957359D01*
X87899257Y-77792089D01*
X87914162Y-77644281D01*
X87933573Y-77530993D01*
X87956204Y-77469285D01*
X87979250Y-77473527D01*
X87981674Y-77520138D01*
X87981674Y-77520138D01*
G36*
X89017986Y-78009750D02*
X88971611Y-78067290D01*
X88930215Y-78071394D01*
X88870136Y-78090199D01*
X88857666Y-78145477D01*
X88828666Y-78217488D01*
X88773000Y-78232000D01*
X88704047Y-78205530D01*
X88688333Y-78168500D01*
X88665474Y-78112164D01*
X88646000Y-78105000D01*
X88621851Y-78143073D01*
X88606523Y-78240421D01*
X88603666Y-78316666D01*
X88600892Y-78441968D01*
X88583831Y-78504451D01*
X88539382Y-78525956D01*
X88476666Y-78528333D01*
X88349666Y-78528333D01*
X88349666Y-78020333D01*
X88349666Y-77512333D01*
X88476666Y-77512333D01*
X88559496Y-77527585D01*
X88603323Y-77583438D01*
X88614524Y-77695034D01*
X88605880Y-77819250D01*
X88620385Y-77881692D01*
X88643339Y-77893333D01*
X88683241Y-77859087D01*
X88688333Y-77829833D01*
X88723626Y-77778119D01*
X88773000Y-77766333D01*
X88843752Y-77796267D01*
X88857666Y-77851000D01*
X88887068Y-77921254D01*
X88945437Y-77935666D01*
X89012438Y-77957890D01*
X89017986Y-78009750D01*
X89017986Y-78009750D01*
X89017986Y-78009750D01*
G37*
X89017986Y-78009750D02*
X88971611Y-78067290D01*
X88930215Y-78071394D01*
X88870136Y-78090199D01*
X88857666Y-78145477D01*
X88828666Y-78217488D01*
X88773000Y-78232000D01*
X88704047Y-78205530D01*
X88688333Y-78168500D01*
X88665474Y-78112164D01*
X88646000Y-78105000D01*
X88621851Y-78143073D01*
X88606523Y-78240421D01*
X88603666Y-78316666D01*
X88600892Y-78441968D01*
X88583831Y-78504451D01*
X88539382Y-78525956D01*
X88476666Y-78528333D01*
X88349666Y-78528333D01*
X88349666Y-78020333D01*
X88349666Y-77512333D01*
X88476666Y-77512333D01*
X88559496Y-77527585D01*
X88603323Y-77583438D01*
X88614524Y-77695034D01*
X88605880Y-77819250D01*
X88620385Y-77881692D01*
X88643339Y-77893333D01*
X88683241Y-77859087D01*
X88688333Y-77829833D01*
X88723626Y-77778119D01*
X88773000Y-77766333D01*
X88843752Y-77796267D01*
X88857666Y-77851000D01*
X88887068Y-77921254D01*
X88945437Y-77935666D01*
X89012438Y-77957890D01*
X89017986Y-78009750D01*
X89017986Y-78009750D01*
G36*
X89619666Y-77491166D02*
X89598500Y-77512333D01*
X89577333Y-77491166D01*
X89598500Y-77470000D01*
X89619666Y-77491166D01*
X89619666Y-77491166D01*
X89619666Y-77491166D01*
G37*
X89619666Y-77491166D02*
X89598500Y-77512333D01*
X89577333Y-77491166D01*
X89598500Y-77470000D01*
X89619666Y-77491166D01*
X89619666Y-77491166D01*
G36*
X89154000Y-77385333D02*
X89121456Y-77426039D01*
X89109168Y-77427666D01*
X89083885Y-77401731D01*
X89090500Y-77385333D01*
X89128541Y-77344948D01*
X89135331Y-77343000D01*
X89153514Y-77375752D01*
X89154000Y-77385333D01*
X89154000Y-77385333D01*
X89154000Y-77385333D01*
G37*
X89154000Y-77385333D02*
X89121456Y-77426039D01*
X89109168Y-77427666D01*
X89083885Y-77401731D01*
X89090500Y-77385333D01*
X89128541Y-77344948D01*
X89135331Y-77343000D01*
X89153514Y-77375752D01*
X89154000Y-77385333D01*
X89154000Y-77385333D01*
G36*
X91888250Y-78857373D02*
X91882692Y-78869925D01*
X91847942Y-78906894D01*
X91835362Y-78863337D01*
X91835111Y-78847695D01*
X91853792Y-78805239D01*
X91871079Y-78808287D01*
X91888250Y-78857373D01*
X91888250Y-78857373D01*
X91888250Y-78857373D01*
G37*
X91888250Y-78857373D02*
X91882692Y-78869925D01*
X91847942Y-78906894D01*
X91835362Y-78863337D01*
X91835111Y-78847695D01*
X91853792Y-78805239D01*
X91871079Y-78808287D01*
X91888250Y-78857373D01*
X91888250Y-78857373D01*
G36*
X92837000Y-78930500D02*
X92815833Y-78951666D01*
X92794666Y-78930500D01*
X92815833Y-78909333D01*
X92837000Y-78930500D01*
X92837000Y-78930500D01*
X92837000Y-78930500D01*
G37*
X92837000Y-78930500D02*
X92815833Y-78951666D01*
X92794666Y-78930500D01*
X92815833Y-78909333D01*
X92837000Y-78930500D01*
X92837000Y-78930500D01*
D11*
X98829953Y-68429143D02*
X98782334Y-68476762D01*
X98639477Y-68524381D01*
X98544239Y-68524381D01*
X98401381Y-68476762D01*
X98306143Y-68381524D01*
X98258524Y-68286286D01*
X98210905Y-68095810D01*
X98210905Y-67952952D01*
X98258524Y-67762476D01*
X98306143Y-67667238D01*
X98401381Y-67572000D01*
X98544239Y-67524381D01*
X98639477Y-67524381D01*
X98782334Y-67572000D01*
X98829953Y-67619619D01*
X99782334Y-68524381D02*
X99210905Y-68524381D01*
X99496619Y-68524381D02*
X99496619Y-67524381D01*
X99401381Y-67667238D01*
X99306143Y-67762476D01*
X99210905Y-67810095D01*
X100401381Y-67524381D02*
X100496620Y-67524381D01*
X100591858Y-67572000D01*
X100639477Y-67619619D01*
X100687096Y-67714857D01*
X100734715Y-67905333D01*
X100734715Y-68143429D01*
X100687096Y-68333905D01*
X100639477Y-68429143D01*
X100591858Y-68476762D01*
X100496620Y-68524381D01*
X100401381Y-68524381D01*
X100306143Y-68476762D01*
X100258524Y-68429143D01*
X100210905Y-68333905D01*
X100163286Y-68143429D01*
X100163286Y-67905333D01*
X100210905Y-67714857D01*
X100258524Y-67619619D01*
X100306143Y-67572000D01*
X100401381Y-67524381D01*
X101687096Y-68524381D02*
X101115667Y-68524381D01*
X101401381Y-68524381D02*
X101401381Y-67524381D01*
X101306143Y-67667238D01*
X101210905Y-67762476D01*
X101115667Y-67810095D01*
X117803753Y-71324743D02*
X117756134Y-71372362D01*
X117613277Y-71419981D01*
X117518039Y-71419981D01*
X117375181Y-71372362D01*
X117279943Y-71277124D01*
X117232324Y-71181886D01*
X117184705Y-70991410D01*
X117184705Y-70848552D01*
X117232324Y-70658076D01*
X117279943Y-70562838D01*
X117375181Y-70467600D01*
X117518039Y-70419981D01*
X117613277Y-70419981D01*
X117756134Y-70467600D01*
X117803753Y-70515219D01*
X118756134Y-71419981D02*
X118184705Y-71419981D01*
X118470419Y-71419981D02*
X118470419Y-70419981D01*
X118375181Y-70562838D01*
X118279943Y-70658076D01*
X118184705Y-70705695D01*
X119375181Y-70419981D02*
X119470420Y-70419981D01*
X119565658Y-70467600D01*
X119613277Y-70515219D01*
X119660896Y-70610457D01*
X119708515Y-70800933D01*
X119708515Y-71039029D01*
X119660896Y-71229505D01*
X119613277Y-71324743D01*
X119565658Y-71372362D01*
X119470420Y-71419981D01*
X119375181Y-71419981D01*
X119279943Y-71372362D01*
X119232324Y-71324743D01*
X119184705Y-71229505D01*
X119137086Y-71039029D01*
X119137086Y-70800933D01*
X119184705Y-70610457D01*
X119232324Y-70515219D01*
X119279943Y-70467600D01*
X119375181Y-70419981D01*
X120089467Y-70515219D02*
X120137086Y-70467600D01*
X120232324Y-70419981D01*
X120470420Y-70419981D01*
X120565658Y-70467600D01*
X120613277Y-70515219D01*
X120660896Y-70610457D01*
X120660896Y-70705695D01*
X120613277Y-70848552D01*
X120041848Y-71419981D01*
X120660896Y-71419981D01*
X121494444Y-83713581D02*
X121494444Y-82713581D01*
X121732539Y-82713581D01*
X121875397Y-82761200D01*
X121970635Y-82856438D01*
X122018254Y-82951676D01*
X122065873Y-83142152D01*
X122065873Y-83285010D01*
X122018254Y-83475486D01*
X121970635Y-83570724D01*
X121875397Y-83665962D01*
X121732539Y-83713581D01*
X121494444Y-83713581D01*
X123018254Y-83713581D02*
X122446825Y-83713581D01*
X122732539Y-83713581D02*
X122732539Y-82713581D01*
X122637301Y-82856438D01*
X122542063Y-82951676D01*
X122446825Y-82999295D01*
X123637301Y-82713581D02*
X123732540Y-82713581D01*
X123827778Y-82761200D01*
X123875397Y-82808819D01*
X123923016Y-82904057D01*
X123970635Y-83094533D01*
X123970635Y-83332629D01*
X123923016Y-83523105D01*
X123875397Y-83618343D01*
X123827778Y-83665962D01*
X123732540Y-83713581D01*
X123637301Y-83713581D01*
X123542063Y-83665962D01*
X123494444Y-83618343D01*
X123446825Y-83523105D01*
X123399206Y-83332629D01*
X123399206Y-83094533D01*
X123446825Y-82904057D01*
X123494444Y-82808819D01*
X123542063Y-82761200D01*
X123637301Y-82713581D01*
X124923016Y-83713581D02*
X124351587Y-83713581D01*
X124637301Y-83713581D02*
X124637301Y-82713581D01*
X124542063Y-82856438D01*
X124446825Y-82951676D01*
X124351587Y-82999295D01*
X94067524Y-77287381D02*
X94067524Y-76287381D01*
X94305619Y-76287381D01*
X94448477Y-76335000D01*
X94543715Y-76430238D01*
X94591334Y-76525476D01*
X94638953Y-76715952D01*
X94638953Y-76858810D01*
X94591334Y-77049286D01*
X94543715Y-77144524D01*
X94448477Y-77239762D01*
X94305619Y-77287381D01*
X94067524Y-77287381D01*
X95591334Y-77287381D02*
X95019905Y-77287381D01*
X95305619Y-77287381D02*
X95305619Y-76287381D01*
X95210381Y-76430238D01*
X95115143Y-76525476D01*
X95019905Y-76573095D01*
X96210381Y-76287381D02*
X96305620Y-76287381D01*
X96400858Y-76335000D01*
X96448477Y-76382619D01*
X96496096Y-76477857D01*
X96543715Y-76668333D01*
X96543715Y-76906429D01*
X96496096Y-77096905D01*
X96448477Y-77192143D01*
X96400858Y-77239762D01*
X96305620Y-77287381D01*
X96210381Y-77287381D01*
X96115143Y-77239762D01*
X96067524Y-77192143D01*
X96019905Y-77096905D01*
X95972286Y-76906429D01*
X95972286Y-76668333D01*
X96019905Y-76477857D01*
X96067524Y-76382619D01*
X96115143Y-76335000D01*
X96210381Y-76287381D01*
X96924667Y-76382619D02*
X96972286Y-76335000D01*
X97067524Y-76287381D01*
X97305620Y-76287381D01*
X97400858Y-76335000D01*
X97448477Y-76382619D01*
X97496096Y-76477857D01*
X97496096Y-76573095D01*
X97448477Y-76715952D01*
X96877048Y-77287381D01*
X97496096Y-77287381D01*
X94016724Y-73629781D02*
X94016724Y-72629781D01*
X94254819Y-72629781D01*
X94397677Y-72677400D01*
X94492915Y-72772638D01*
X94540534Y-72867876D01*
X94588153Y-73058352D01*
X94588153Y-73201210D01*
X94540534Y-73391686D01*
X94492915Y-73486924D01*
X94397677Y-73582162D01*
X94254819Y-73629781D01*
X94016724Y-73629781D01*
X95540534Y-73629781D02*
X94969105Y-73629781D01*
X95254819Y-73629781D02*
X95254819Y-72629781D01*
X95159581Y-72772638D01*
X95064343Y-72867876D01*
X94969105Y-72915495D01*
X96159581Y-72629781D02*
X96254820Y-72629781D01*
X96350058Y-72677400D01*
X96397677Y-72725019D01*
X96445296Y-72820257D01*
X96492915Y-73010733D01*
X96492915Y-73248829D01*
X96445296Y-73439305D01*
X96397677Y-73534543D01*
X96350058Y-73582162D01*
X96254820Y-73629781D01*
X96159581Y-73629781D01*
X96064343Y-73582162D01*
X96016724Y-73534543D01*
X95969105Y-73439305D01*
X95921486Y-73248829D01*
X95921486Y-73010733D01*
X95969105Y-72820257D01*
X96016724Y-72725019D01*
X96064343Y-72677400D01*
X96159581Y-72629781D01*
X96826248Y-72629781D02*
X97445296Y-72629781D01*
X97111962Y-73010733D01*
X97254820Y-73010733D01*
X97350058Y-73058352D01*
X97397677Y-73105971D01*
X97445296Y-73201210D01*
X97445296Y-73439305D01*
X97397677Y-73534543D01*
X97350058Y-73582162D01*
X97254820Y-73629781D01*
X96969105Y-73629781D01*
X96873867Y-73582162D01*
X96826248Y-73534543D01*
X105065724Y-81833981D02*
X105065724Y-80833981D01*
X105446677Y-80833981D01*
X105541915Y-80881600D01*
X105589534Y-80929219D01*
X105637153Y-81024457D01*
X105637153Y-81167314D01*
X105589534Y-81262552D01*
X105541915Y-81310171D01*
X105446677Y-81357790D01*
X105065724Y-81357790D01*
X106589534Y-81833981D02*
X106018105Y-81833981D01*
X106303819Y-81833981D02*
X106303819Y-80833981D01*
X106208581Y-80976838D01*
X106113343Y-81072076D01*
X106018105Y-81119695D01*
X107208581Y-80833981D02*
X107303820Y-80833981D01*
X107399058Y-80881600D01*
X107446677Y-80929219D01*
X107494296Y-81024457D01*
X107541915Y-81214933D01*
X107541915Y-81453029D01*
X107494296Y-81643505D01*
X107446677Y-81738743D01*
X107399058Y-81786362D01*
X107303820Y-81833981D01*
X107208581Y-81833981D01*
X107113343Y-81786362D01*
X107065724Y-81738743D01*
X107018105Y-81643505D01*
X106970486Y-81453029D01*
X106970486Y-81214933D01*
X107018105Y-81024457D01*
X107065724Y-80929219D01*
X107113343Y-80881600D01*
X107208581Y-80833981D01*
X108494296Y-81833981D02*
X107922867Y-81833981D01*
X108208581Y-81833981D02*
X108208581Y-80833981D01*
X108113343Y-80976838D01*
X108018105Y-81072076D01*
X107922867Y-81119695D01*
X99312553Y-73274181D02*
X98979219Y-72797990D01*
X98741124Y-73274181D02*
X98741124Y-72274181D01*
X99122077Y-72274181D01*
X99217315Y-72321800D01*
X99264934Y-72369419D01*
X99312553Y-72464657D01*
X99312553Y-72607514D01*
X99264934Y-72702752D01*
X99217315Y-72750371D01*
X99122077Y-72797990D01*
X98741124Y-72797990D01*
X100264934Y-73274181D02*
X99693505Y-73274181D01*
X99979219Y-73274181D02*
X99979219Y-72274181D01*
X99883981Y-72417038D01*
X99788743Y-72512276D01*
X99693505Y-72559895D01*
X100883981Y-72274181D02*
X100979220Y-72274181D01*
X101074458Y-72321800D01*
X101122077Y-72369419D01*
X101169696Y-72464657D01*
X101217315Y-72655133D01*
X101217315Y-72893229D01*
X101169696Y-73083705D01*
X101122077Y-73178943D01*
X101074458Y-73226562D01*
X100979220Y-73274181D01*
X100883981Y-73274181D01*
X100788743Y-73226562D01*
X100741124Y-73178943D01*
X100693505Y-73083705D01*
X100645886Y-72893229D01*
X100645886Y-72655133D01*
X100693505Y-72464657D01*
X100741124Y-72369419D01*
X100788743Y-72321800D01*
X100883981Y-72274181D01*
X102169696Y-73274181D02*
X101598267Y-73274181D01*
X101883981Y-73274181D02*
X101883981Y-72274181D01*
X101788743Y-72417038D01*
X101693505Y-72512276D01*
X101598267Y-72559895D01*
X99337953Y-77033381D02*
X99004619Y-76557190D01*
X98766524Y-77033381D02*
X98766524Y-76033381D01*
X99147477Y-76033381D01*
X99242715Y-76081000D01*
X99290334Y-76128619D01*
X99337953Y-76223857D01*
X99337953Y-76366714D01*
X99290334Y-76461952D01*
X99242715Y-76509571D01*
X99147477Y-76557190D01*
X98766524Y-76557190D01*
X100290334Y-77033381D02*
X99718905Y-77033381D01*
X100004619Y-77033381D02*
X100004619Y-76033381D01*
X99909381Y-76176238D01*
X99814143Y-76271476D01*
X99718905Y-76319095D01*
X100909381Y-76033381D02*
X101004620Y-76033381D01*
X101099858Y-76081000D01*
X101147477Y-76128619D01*
X101195096Y-76223857D01*
X101242715Y-76414333D01*
X101242715Y-76652429D01*
X101195096Y-76842905D01*
X101147477Y-76938143D01*
X101099858Y-76985762D01*
X101004620Y-77033381D01*
X100909381Y-77033381D01*
X100814143Y-76985762D01*
X100766524Y-76938143D01*
X100718905Y-76842905D01*
X100671286Y-76652429D01*
X100671286Y-76414333D01*
X100718905Y-76223857D01*
X100766524Y-76128619D01*
X100814143Y-76081000D01*
X100909381Y-76033381D01*
X101623667Y-76128619D02*
X101671286Y-76081000D01*
X101766524Y-76033381D01*
X102004620Y-76033381D01*
X102099858Y-76081000D01*
X102147477Y-76128619D01*
X102195096Y-76223857D01*
X102195096Y-76319095D01*
X102147477Y-76461952D01*
X101576048Y-77033381D01*
X102195096Y-77033381D01*
X121496081Y-79401847D02*
X121019890Y-79735181D01*
X121496081Y-79973276D02*
X120496081Y-79973276D01*
X120496081Y-79592323D01*
X120543700Y-79497085D01*
X120591319Y-79449466D01*
X120686557Y-79401847D01*
X120829414Y-79401847D01*
X120924652Y-79449466D01*
X120972271Y-79497085D01*
X121019890Y-79592323D01*
X121019890Y-79973276D01*
X121496081Y-78449466D02*
X121496081Y-79020895D01*
X121496081Y-78735181D02*
X120496081Y-78735181D01*
X120638938Y-78830419D01*
X120734176Y-78925657D01*
X120781795Y-79020895D01*
X120496081Y-77830419D02*
X120496081Y-77735180D01*
X120543700Y-77639942D01*
X120591319Y-77592323D01*
X120686557Y-77544704D01*
X120877033Y-77497085D01*
X121115129Y-77497085D01*
X121305605Y-77544704D01*
X121400843Y-77592323D01*
X121448462Y-77639942D01*
X121496081Y-77735180D01*
X121496081Y-77830419D01*
X121448462Y-77925657D01*
X121400843Y-77973276D01*
X121305605Y-78020895D01*
X121115129Y-78068514D01*
X120877033Y-78068514D01*
X120686557Y-78020895D01*
X120591319Y-77973276D01*
X120543700Y-77925657D01*
X120496081Y-77830419D01*
X120496081Y-77163752D02*
X120496081Y-76544704D01*
X120877033Y-76878038D01*
X120877033Y-76735180D01*
X120924652Y-76639942D01*
X120972271Y-76592323D01*
X121067510Y-76544704D01*
X121305605Y-76544704D01*
X121400843Y-76592323D01*
X121448462Y-76639942D01*
X121496081Y-76735180D01*
X121496081Y-77020895D01*
X121448462Y-77116133D01*
X121400843Y-77163752D01*
X116127353Y-77312781D02*
X115794019Y-76836590D01*
X115555924Y-77312781D02*
X115555924Y-76312781D01*
X115936877Y-76312781D01*
X116032115Y-76360400D01*
X116079734Y-76408019D01*
X116127353Y-76503257D01*
X116127353Y-76646114D01*
X116079734Y-76741352D01*
X116032115Y-76788971D01*
X115936877Y-76836590D01*
X115555924Y-76836590D01*
X117079734Y-77312781D02*
X116508305Y-77312781D01*
X116794019Y-77312781D02*
X116794019Y-76312781D01*
X116698781Y-76455638D01*
X116603543Y-76550876D01*
X116508305Y-76598495D01*
X117698781Y-76312781D02*
X117794020Y-76312781D01*
X117889258Y-76360400D01*
X117936877Y-76408019D01*
X117984496Y-76503257D01*
X118032115Y-76693733D01*
X118032115Y-76931829D01*
X117984496Y-77122305D01*
X117936877Y-77217543D01*
X117889258Y-77265162D01*
X117794020Y-77312781D01*
X117698781Y-77312781D01*
X117603543Y-77265162D01*
X117555924Y-77217543D01*
X117508305Y-77122305D01*
X117460686Y-76931829D01*
X117460686Y-76693733D01*
X117508305Y-76503257D01*
X117555924Y-76408019D01*
X117603543Y-76360400D01*
X117698781Y-76312781D01*
X118889258Y-76646114D02*
X118889258Y-77312781D01*
X118651162Y-76265162D02*
X118413067Y-76979448D01*
X119032115Y-76979448D01*
X107669153Y-79725781D02*
X107335819Y-79249590D01*
X107097724Y-79725781D02*
X107097724Y-78725781D01*
X107478677Y-78725781D01*
X107573915Y-78773400D01*
X107621534Y-78821019D01*
X107669153Y-78916257D01*
X107669153Y-79059114D01*
X107621534Y-79154352D01*
X107573915Y-79201971D01*
X107478677Y-79249590D01*
X107097724Y-79249590D01*
X108621534Y-79725781D02*
X108050105Y-79725781D01*
X108335819Y-79725781D02*
X108335819Y-78725781D01*
X108240581Y-78868638D01*
X108145343Y-78963876D01*
X108050105Y-79011495D01*
X109240581Y-78725781D02*
X109335820Y-78725781D01*
X109431058Y-78773400D01*
X109478677Y-78821019D01*
X109526296Y-78916257D01*
X109573915Y-79106733D01*
X109573915Y-79344829D01*
X109526296Y-79535305D01*
X109478677Y-79630543D01*
X109431058Y-79678162D01*
X109335820Y-79725781D01*
X109240581Y-79725781D01*
X109145343Y-79678162D01*
X109097724Y-79630543D01*
X109050105Y-79535305D01*
X109002486Y-79344829D01*
X109002486Y-79106733D01*
X109050105Y-78916257D01*
X109097724Y-78821019D01*
X109145343Y-78773400D01*
X109240581Y-78725781D01*
X110431058Y-78725781D02*
X110240581Y-78725781D01*
X110145343Y-78773400D01*
X110097724Y-78821019D01*
X110002486Y-78963876D01*
X109954867Y-79154352D01*
X109954867Y-79535305D01*
X110002486Y-79630543D01*
X110050105Y-79678162D01*
X110145343Y-79725781D01*
X110335820Y-79725781D01*
X110431058Y-79678162D01*
X110478677Y-79630543D01*
X110526296Y-79535305D01*
X110526296Y-79297210D01*
X110478677Y-79201971D01*
X110431058Y-79154352D01*
X110335820Y-79106733D01*
X110145343Y-79106733D01*
X110050105Y-79154352D01*
X110002486Y-79201971D01*
X109954867Y-79297210D01*
X89860381Y-74271047D02*
X89384190Y-74604381D01*
X89860381Y-74842476D02*
X88860381Y-74842476D01*
X88860381Y-74461523D01*
X88908000Y-74366285D01*
X88955619Y-74318666D01*
X89050857Y-74271047D01*
X89193714Y-74271047D01*
X89288952Y-74318666D01*
X89336571Y-74366285D01*
X89384190Y-74461523D01*
X89384190Y-74842476D01*
X89860381Y-73318666D02*
X89860381Y-73890095D01*
X89860381Y-73604381D02*
X88860381Y-73604381D01*
X89003238Y-73699619D01*
X89098476Y-73794857D01*
X89146095Y-73890095D01*
X88860381Y-72699619D02*
X88860381Y-72604380D01*
X88908000Y-72509142D01*
X88955619Y-72461523D01*
X89050857Y-72413904D01*
X89241333Y-72366285D01*
X89479429Y-72366285D01*
X89669905Y-72413904D01*
X89765143Y-72461523D01*
X89812762Y-72509142D01*
X89860381Y-72604380D01*
X89860381Y-72699619D01*
X89812762Y-72794857D01*
X89765143Y-72842476D01*
X89669905Y-72890095D01*
X89479429Y-72937714D01*
X89241333Y-72937714D01*
X89050857Y-72890095D01*
X88955619Y-72842476D01*
X88908000Y-72794857D01*
X88860381Y-72699619D01*
X88860381Y-72032952D02*
X88860381Y-71366285D01*
X89860381Y-71794857D01*
X92400381Y-74245647D02*
X91924190Y-74578981D01*
X92400381Y-74817076D02*
X91400381Y-74817076D01*
X91400381Y-74436123D01*
X91448000Y-74340885D01*
X91495619Y-74293266D01*
X91590857Y-74245647D01*
X91733714Y-74245647D01*
X91828952Y-74293266D01*
X91876571Y-74340885D01*
X91924190Y-74436123D01*
X91924190Y-74817076D01*
X92400381Y-73293266D02*
X92400381Y-73864695D01*
X92400381Y-73578981D02*
X91400381Y-73578981D01*
X91543238Y-73674219D01*
X91638476Y-73769457D01*
X91686095Y-73864695D01*
X91400381Y-72674219D02*
X91400381Y-72578980D01*
X91448000Y-72483742D01*
X91495619Y-72436123D01*
X91590857Y-72388504D01*
X91781333Y-72340885D01*
X92019429Y-72340885D01*
X92209905Y-72388504D01*
X92305143Y-72436123D01*
X92352762Y-72483742D01*
X92400381Y-72578980D01*
X92400381Y-72674219D01*
X92352762Y-72769457D01*
X92305143Y-72817076D01*
X92209905Y-72864695D01*
X92019429Y-72912314D01*
X91781333Y-72912314D01*
X91590857Y-72864695D01*
X91495619Y-72817076D01*
X91448000Y-72769457D01*
X91400381Y-72674219D01*
X91828952Y-71769457D02*
X91781333Y-71864695D01*
X91733714Y-71912314D01*
X91638476Y-71959933D01*
X91590857Y-71959933D01*
X91495619Y-71912314D01*
X91448000Y-71864695D01*
X91400381Y-71769457D01*
X91400381Y-71578980D01*
X91448000Y-71483742D01*
X91495619Y-71436123D01*
X91590857Y-71388504D01*
X91638476Y-71388504D01*
X91733714Y-71436123D01*
X91781333Y-71483742D01*
X91828952Y-71578980D01*
X91828952Y-71769457D01*
X91876571Y-71864695D01*
X91924190Y-71912314D01*
X92019429Y-71959933D01*
X92209905Y-71959933D01*
X92305143Y-71912314D01*
X92352762Y-71864695D01*
X92400381Y-71769457D01*
X92400381Y-71578980D01*
X92352762Y-71483742D01*
X92305143Y-71436123D01*
X92209905Y-71388504D01*
X92019429Y-71388504D01*
X91924190Y-71436123D01*
X91876571Y-71483742D01*
X91828952Y-71578980D01*
D12*
X96864714Y-68035714D02*
X96501857Y-68289714D01*
X96864714Y-68471142D02*
X96102714Y-68471142D01*
X96102714Y-68180857D01*
X96139000Y-68108285D01*
X96175286Y-68072000D01*
X96247857Y-68035714D01*
X96356714Y-68035714D01*
X96429286Y-68072000D01*
X96465571Y-68108285D01*
X96501857Y-68180857D01*
X96501857Y-68471142D01*
X96864714Y-67310000D02*
X96864714Y-67745428D01*
X96864714Y-67527714D02*
X96102714Y-67527714D01*
X96211571Y-67600285D01*
X96284143Y-67672857D01*
X96320429Y-67745428D01*
X96102714Y-66838286D02*
X96102714Y-66765714D01*
X96139000Y-66693143D01*
X96175286Y-66656857D01*
X96247857Y-66620571D01*
X96393000Y-66584286D01*
X96574429Y-66584286D01*
X96719571Y-66620571D01*
X96792143Y-66656857D01*
X96828429Y-66693143D01*
X96864714Y-66765714D01*
X96864714Y-66838286D01*
X96828429Y-66910857D01*
X96792143Y-66947143D01*
X96719571Y-66983428D01*
X96574429Y-67019714D01*
X96393000Y-67019714D01*
X96247857Y-66983428D01*
X96175286Y-66947143D01*
X96139000Y-66910857D01*
X96102714Y-66838286D01*
X96864714Y-66221429D02*
X96864714Y-66076286D01*
X96828429Y-66003714D01*
X96792143Y-65967429D01*
X96683286Y-65894857D01*
X96538143Y-65858572D01*
X96247857Y-65858572D01*
X96175286Y-65894857D01*
X96139000Y-65931143D01*
X96102714Y-66003714D01*
X96102714Y-66148857D01*
X96139000Y-66221429D01*
X96175286Y-66257714D01*
X96247857Y-66294000D01*
X96429286Y-66294000D01*
X96501857Y-66257714D01*
X96538143Y-66221429D01*
X96574429Y-66148857D01*
X96574429Y-66003714D01*
X96538143Y-65931143D01*
X96501857Y-65894857D01*
X96429286Y-65858572D01*
D11*
X105981714Y-70639381D02*
X105981714Y-71448905D01*
X106029333Y-71544143D01*
X106076952Y-71591762D01*
X106172190Y-71639381D01*
X106362667Y-71639381D01*
X106457905Y-71591762D01*
X106505524Y-71544143D01*
X106553143Y-71448905D01*
X106553143Y-70639381D01*
X107553143Y-71639381D02*
X106981714Y-71639381D01*
X107267428Y-71639381D02*
X107267428Y-70639381D01*
X107172190Y-70782238D01*
X107076952Y-70877476D01*
X106981714Y-70925095D01*
X108172190Y-70639381D02*
X108267429Y-70639381D01*
X108362667Y-70687000D01*
X108410286Y-70734619D01*
X108457905Y-70829857D01*
X108505524Y-71020333D01*
X108505524Y-71258429D01*
X108457905Y-71448905D01*
X108410286Y-71544143D01*
X108362667Y-71591762D01*
X108267429Y-71639381D01*
X108172190Y-71639381D01*
X108076952Y-71591762D01*
X108029333Y-71544143D01*
X107981714Y-71448905D01*
X107934095Y-71258429D01*
X107934095Y-71020333D01*
X107981714Y-70829857D01*
X108029333Y-70734619D01*
X108076952Y-70687000D01*
X108172190Y-70639381D01*
X109457905Y-71639381D02*
X108886476Y-71639381D01*
X109172190Y-71639381D02*
X109172190Y-70639381D01*
X109076952Y-70782238D01*
X108981714Y-70877476D01*
X108886476Y-70925095D01*
X97857571Y-64583142D02*
X99071857Y-64583142D01*
X99214714Y-64511714D01*
X99286143Y-64440285D01*
X99357571Y-64297428D01*
X99357571Y-64011714D01*
X99286143Y-63868856D01*
X99214714Y-63797428D01*
X99071857Y-63725999D01*
X97857571Y-63725999D01*
X99286143Y-63083142D02*
X99357571Y-62868856D01*
X99357571Y-62511713D01*
X99286143Y-62368856D01*
X99214714Y-62297427D01*
X99071857Y-62225999D01*
X98929000Y-62225999D01*
X98786143Y-62297427D01*
X98714714Y-62368856D01*
X98643286Y-62511713D01*
X98571857Y-62797427D01*
X98500429Y-62940285D01*
X98429000Y-63011713D01*
X98286143Y-63083142D01*
X98143286Y-63083142D01*
X98000429Y-63011713D01*
X97929000Y-62940285D01*
X97857571Y-62797427D01*
X97857571Y-62440285D01*
X97929000Y-62225999D01*
X98571857Y-61083142D02*
X98643286Y-60868856D01*
X98714714Y-60797428D01*
X98857571Y-60725999D01*
X99071857Y-60725999D01*
X99214714Y-60797428D01*
X99286143Y-60868856D01*
X99357571Y-61011714D01*
X99357571Y-61583142D01*
X97857571Y-61583142D01*
X97857571Y-61083142D01*
X97929000Y-60940285D01*
X98000429Y-60868856D01*
X98143286Y-60797428D01*
X98286143Y-60797428D01*
X98429000Y-60868856D01*
X98500429Y-60940285D01*
X98571857Y-61083142D01*
X98571857Y-61583142D01*
X99357571Y-59297428D02*
X99357571Y-60154571D01*
X99357571Y-59725999D02*
X97857571Y-59725999D01*
X98071857Y-59868856D01*
X98214714Y-60011714D01*
X98286143Y-60154571D01*
D12*
X111760451Y-69692120D02*
X112068346Y-70000015D01*
X111375584Y-70384883D02*
X111914399Y-69846067D01*
X111709136Y-70718435D02*
X112247951Y-70179620D01*
X111991373Y-70436198D02*
X112299267Y-70744092D01*
X112017030Y-71026329D02*
X112555845Y-70487514D01*
X112555846Y-71000672D02*
X112735451Y-71180277D01*
X112530188Y-71539487D02*
X112273609Y-71282908D01*
X112812425Y-70744093D01*
X113069003Y-71000672D01*
X113069003Y-72078302D02*
X113145977Y-71642119D01*
X112761109Y-71770408D02*
X113299925Y-71231593D01*
X113505187Y-71436856D01*
X113530845Y-71513830D01*
X113530844Y-71565145D01*
X113505187Y-71642119D01*
X113428214Y-71719092D01*
X113351239Y-71744750D01*
X113299925Y-71744750D01*
X113222950Y-71719092D01*
X113017688Y-71513830D01*
X113299925Y-72309224D02*
X113838740Y-71770408D01*
X113633477Y-72334882D01*
X114197950Y-72129619D01*
X113659135Y-72668434D01*
X114197949Y-73207249D02*
X113890055Y-72899355D01*
X114044002Y-73053302D02*
X114582818Y-72514486D01*
X114454529Y-72540144D01*
X114351896Y-72540144D01*
X114274923Y-72514487D01*
%LPC*%
D13*
X98203000Y-69977000D03*
X102203000Y-69977000D03*
X118954300Y-68681600D03*
X114954300Y-68681600D03*
D14*
X123941840Y-81534000D03*
X121843800Y-81534000D03*
X94581980Y-78359000D03*
X96680020Y-78359000D03*
X94581980Y-74676000D03*
X96680020Y-74676000D03*
D15*
X113385600Y-81483200D03*
D16*
X110845600Y-81483200D03*
D17*
X99107000Y-74676000D03*
X101807000Y-74676000D03*
X101807000Y-78359000D03*
X99107000Y-78359000D03*
D18*
X119075200Y-81461600D03*
X119075200Y-78761600D03*
X116382800Y-81461600D03*
X116382800Y-78761600D03*
D17*
X107692200Y-77241400D03*
X110392200Y-77241400D03*
D18*
X89357200Y-67064900D03*
X89357200Y-69764900D03*
X91897200Y-67128400D03*
X91897200Y-69828400D03*
X94589600Y-67115700D03*
X94589600Y-69815700D03*
D19*
X105496000Y-72787000D03*
X105496000Y-73287000D03*
X105496000Y-73787000D03*
X105496000Y-74287000D03*
X105496000Y-74787000D03*
X109896000Y-74787000D03*
X109896000Y-74287000D03*
X109896000Y-73787000D03*
X109896000Y-73287000D03*
X109896000Y-72787000D03*
D20*
X118154200Y-65328800D03*
D21*
X116154200Y-65328800D03*
D22*
X93730600Y-63140100D03*
X91780600Y-63140100D03*
X92430600Y-63140100D03*
X93080600Y-63140100D03*
X91130600Y-63140100D03*
D23*
X95630600Y-62940100D03*
X89230600Y-62940100D03*
D24*
X93630600Y-60490100D03*
X91230600Y-60490100D03*
D25*
X95730600Y-60490100D03*
D26*
X89130600Y-60490100D03*
D27*
X109412498Y-67819998D03*
X116596702Y-75004202D03*
M02*
