M48
;DRILL file {kicad 0.201503261001+5536~22~ubuntu14.04.1-product} date Sun 29 Mar 2015 21:21:51 CEST
;FORMAT={-:-/ absolute / inch / decimal}
FMAT,2
INCH,TZ
T1C0.013
T2C0.028
T3C0.039
T4C0.040
T5C0.047
%
G90
G05
M72
T1
X3.465Y-2.83
X3.475Y-2.57
X3.51Y-2.855
X3.565Y-2.855
X3.62Y-2.855
X3.675Y-2.855
X3.735Y-2.56
X3.735Y-2.855
X3.785Y-2.795
X3.79Y-2.56
X3.79Y-2.615
X3.79Y-2.665
X3.79Y-2.75
X3.79Y-2.855
X3.845Y-2.56
X3.845Y-2.615
X3.845Y-2.665
X3.845Y-2.855
X3.905Y-2.56
X3.905Y-2.615
X3.905Y-2.67
X3.925Y-2.855
X3.98Y-2.38
X3.98Y-2.47
X3.98Y-2.55
X3.98Y-2.655
X3.995Y-2.855
X4.06Y-2.855
X4.09Y-2.38
X4.09Y-2.47
X4.09Y-2.55
X4.09Y-2.65
X4.115Y-2.745
X4.12Y-3.045
X4.12Y-3.125
X4.12Y-3.195
X4.12Y-3.265
X4.155Y-3.
X4.195Y-2.38
X4.195Y-2.47
X4.195Y-2.55
X4.195Y-2.65
X4.195Y-2.745
X4.2Y-3.125
X4.2Y-3.195
X4.2Y-3.265
X4.245Y-2.785
X4.245Y-2.86
X4.245Y-2.945
X4.285Y-3.125
X4.285Y-3.195
X4.285Y-3.265
X4.315Y-2.38
X4.315Y-2.47
X4.315Y-2.55
X4.345Y-2.745
X4.385Y-3.125
X4.415Y-2.38
X4.415Y-2.47
X4.415Y-2.55
X4.42Y-2.745
X4.425Y-2.65
X4.43Y-2.86
X4.495Y-2.38
X4.495Y-2.47
X4.495Y-2.55
X4.495Y-2.78
X4.495Y-2.86
X4.575Y-2.38
X4.575Y-2.47
X4.575Y-2.86
X4.65Y-2.38
X4.65Y-2.47
X4.65Y-2.82
X4.69Y-2.87
X4.73Y-2.38
X4.73Y-2.47
X4.73Y-2.55
X4.73Y-2.82
X4.775Y-2.87
X4.82Y-2.38
X4.82Y-2.47
X4.82Y-2.55
X4.82Y-2.65
X4.82Y-2.745
X4.82Y-2.82
X4.865Y-2.875
X4.905Y-2.38
X4.905Y-2.47
X4.905Y-2.55
X4.905Y-2.65
X4.905Y-2.745
X4.905Y-2.82
T2
X4.573Y-2.572
X4.6517Y-2.572
T3
X4.3076Y-2.6701
X4.5904Y-2.9529
T4
X4.364Y-3.208
X4.464Y-3.208
T5
X3.5091Y-2.3815
X3.7689Y-2.3815
T0
M30
