G04 #@! TF.FileFunction,Copper,L2,Bot,Signal*
%FSLAX46Y46*%
G04 Gerber Fmt 4.6, Leading zero omitted, Abs format (unit mm)*
G04 Created by KiCad (PCBNEW 0.201503261001+5536~22~ubuntu14.04.1-product) date Mon 30 Mar 2015 17:35:05 CEST*
%MOMM*%
G01*
G04 APERTURE LIST*
%ADD10C,0.100000*%
%ADD11R,2.032000X2.032000*%
%ADD12O,2.032000X2.032000*%
%ADD13R,1.500000X1.500000*%
%ADD14C,1.500000*%
%ADD15C,1.600000*%
%ADD16O,1.600000X1.600000*%
%ADD17C,1.998980*%
%ADD18C,0.685800*%
%ADD19C,0.152400*%
%ADD20C,0.254000*%
G04 APERTURE END LIST*
D10*
D11*
X113385600Y-81483200D03*
D12*
X110845600Y-81483200D03*
D13*
X118154200Y-65328800D03*
D14*
X116154200Y-65328800D03*
D15*
X95730600Y-60490100D03*
D16*
X89130600Y-60490100D03*
D17*
X109412498Y-67819998D03*
X116596702Y-75004202D03*
D18*
X112141000Y-64770000D03*
X112141000Y-62738000D03*
X112141000Y-60452000D03*
X103886000Y-67310000D03*
X103886000Y-64770000D03*
X103886000Y-62738000D03*
X112395000Y-67310000D03*
X112268000Y-69723000D03*
X110363000Y-69723000D03*
X104521000Y-69723000D03*
X106553000Y-69723000D03*
X106553000Y-67310000D03*
X101092000Y-67437000D03*
X101092000Y-64770000D03*
X106553000Y-64770000D03*
X109601000Y-64770000D03*
X114173000Y-64770000D03*
X114173000Y-62738000D03*
X109601000Y-62738000D03*
X106553000Y-62738000D03*
X101092000Y-62738000D03*
X101092000Y-60452000D03*
X106553000Y-60452000D03*
X109601000Y-60452000D03*
X114173000Y-60452000D03*
X116205000Y-60452000D03*
X116205000Y-62738000D03*
X111379000Y-79375000D03*
X108839000Y-82931000D03*
X104648000Y-82931000D03*
X104648000Y-81153000D03*
X108839000Y-81153000D03*
X108839000Y-79375000D03*
X106680000Y-79375000D03*
X104648000Y-79375000D03*
X104648000Y-77343000D03*
X105537000Y-76200000D03*
X106680000Y-82931000D03*
X107823000Y-70739000D03*
X107823000Y-72644000D03*
X107823000Y-74803000D03*
X103886000Y-60452000D03*
X114173000Y-70612000D03*
X106680000Y-81153000D03*
X88265000Y-65278000D03*
X97663000Y-65024000D03*
X99187000Y-65024000D03*
X99187000Y-66421000D03*
X97663000Y-66421000D03*
X97663000Y-67691000D03*
X99187000Y-67818000D03*
X94869000Y-65024000D03*
X96266000Y-65024000D03*
X96266000Y-66421000D03*
X96266000Y-67691000D03*
X96266000Y-69850000D03*
X96139000Y-70993000D03*
X99695000Y-72517000D03*
X101473000Y-72517000D03*
X103124000Y-72517000D03*
X89154000Y-72517000D03*
X97663000Y-72517000D03*
X96266000Y-72517000D03*
X94869000Y-72517000D03*
X93345000Y-72517000D03*
X91948000Y-72517000D03*
X90551000Y-72517000D03*
X88011000Y-71882000D03*
X124587000Y-71628000D03*
X122428000Y-71628000D03*
X120142000Y-71628000D03*
X118110000Y-71628000D03*
X116205000Y-72644000D03*
X114173000Y-72644000D03*
X112522000Y-72644000D03*
X124587000Y-69723000D03*
X122428000Y-69723000D03*
X122428000Y-67310000D03*
X124587000Y-67310000D03*
X124587000Y-64770000D03*
X122428000Y-64770000D03*
X120142000Y-64770000D03*
X120142000Y-62738000D03*
X122428000Y-62738000D03*
X124587000Y-62738000D03*
X124587000Y-60452000D03*
X122428000Y-60452000D03*
X120142000Y-60452000D03*
X118110000Y-60452000D03*
X118110000Y-62738000D03*
X119126000Y-72898000D03*
X121285000Y-72898000D03*
X123571000Y-73025000D03*
D19*
X112147614Y-64654264D02*
X112147614Y-64763386D01*
X112147614Y-64763386D02*
X112141000Y-64770000D01*
X112141000Y-60325000D02*
X112141000Y-60452000D01*
X106553000Y-69723000D02*
X110363000Y-69723000D01*
X112395000Y-69596000D02*
X112395000Y-67310000D01*
X112268000Y-69723000D02*
X112395000Y-69596000D01*
X106553000Y-69723000D02*
X104521000Y-69723000D01*
X101219000Y-67310000D02*
X103886000Y-67310000D01*
X103886000Y-67310000D02*
X106553000Y-67310000D01*
X101092000Y-67437000D02*
X101219000Y-67310000D01*
X106172000Y-64770000D02*
X103886000Y-64770000D01*
X103886000Y-64770000D02*
X101092000Y-64770000D01*
X106553000Y-64770000D02*
X106172000Y-64770000D01*
X114046000Y-65024000D02*
X112147614Y-64654264D01*
X112147614Y-64654264D02*
X109601000Y-64770000D01*
X114173000Y-64770000D02*
X114046000Y-65024000D01*
X109601000Y-62738000D02*
X112141000Y-62738000D01*
X112141000Y-62738000D02*
X114173000Y-62738000D01*
X101092000Y-62738000D02*
X103886000Y-62738000D01*
X103886000Y-62738000D02*
X106553000Y-62738000D01*
X103886000Y-60452000D02*
X101092000Y-60452000D01*
X106553000Y-60452000D02*
X103886000Y-60452000D01*
X114173000Y-60452000D02*
X112141000Y-60325000D01*
X112141000Y-60325000D02*
X109601000Y-60452000D01*
X116205000Y-62738000D02*
X116205000Y-60452000D01*
X106680000Y-82931000D02*
X104648000Y-82931000D01*
X108839000Y-82931000D02*
X106680000Y-82931000D01*
X106680000Y-81153000D02*
X108839000Y-81153000D01*
X104648000Y-81153000D02*
X106680000Y-81153000D01*
X111379000Y-79375000D02*
X108839000Y-79375000D01*
X106680000Y-79375000D02*
X104648000Y-79375000D01*
X104648000Y-77343000D02*
X105537000Y-76454000D01*
X105537000Y-76454000D02*
X105537000Y-76200000D01*
X107823000Y-70739000D02*
X107823000Y-72644000D01*
X107823000Y-74803000D02*
X107823000Y-77216000D01*
X99187000Y-66421000D02*
X99187000Y-67818000D01*
X97663000Y-65024000D02*
X99187000Y-65024000D01*
X99187000Y-66421000D02*
X97663000Y-66421000D01*
X97663000Y-67691000D02*
X97790000Y-67818000D01*
X97790000Y-67818000D02*
X99187000Y-67818000D01*
X96266000Y-72517000D02*
X96393000Y-71247000D01*
X96266000Y-66421000D02*
X96266000Y-65024000D01*
X96139000Y-69723000D02*
X96266000Y-67691000D01*
X96266000Y-69850000D02*
X96139000Y-69723000D01*
X96393000Y-71247000D02*
X96139000Y-70993000D01*
X99314000Y-72136000D02*
X99695000Y-72517000D01*
X101473000Y-72517000D02*
X103124000Y-72517000D01*
X89154000Y-72517000D02*
X90551000Y-72517000D01*
X94869000Y-72517000D02*
X96266000Y-72517000D01*
X91948000Y-72517000D02*
X93345000Y-72517000D01*
X97663000Y-72517000D02*
X99314000Y-72136000D01*
X88646000Y-72517000D02*
X88011000Y-71882000D01*
X89154000Y-72517000D02*
X88646000Y-72517000D01*
X122428000Y-71628000D02*
X120142000Y-71628000D01*
X118110000Y-71628000D02*
X117094000Y-72644000D01*
X117094000Y-72644000D02*
X116205000Y-72644000D01*
X114173000Y-72644000D02*
X112522000Y-72644000D01*
X122428000Y-67310000D02*
X122428000Y-69723000D01*
X124587000Y-64770000D02*
X124587000Y-67310000D01*
X120142000Y-64770000D02*
X122428000Y-64770000D01*
X122428000Y-62738000D02*
X120142000Y-62738000D01*
X124587000Y-60452000D02*
X124587000Y-62738000D01*
X120142000Y-60452000D02*
X122428000Y-60452000D01*
X118110000Y-62738000D02*
X118110000Y-60452000D01*
X124587000Y-69723000D02*
X124587000Y-71628000D01*
X119126000Y-72898000D02*
X121285000Y-72898000D01*
D20*
G36*
X116586000Y-70993000D02*
X111033839Y-70993000D01*
X111033839Y-68205376D01*
X111033839Y-67434620D01*
X110762944Y-66843495D01*
X110286456Y-66401034D01*
X109797876Y-66198657D01*
X109539498Y-66317594D01*
X109539498Y-67692998D01*
X110914902Y-67692998D01*
X111033839Y-67434620D01*
X111033839Y-68205376D01*
X110914902Y-67946998D01*
X109539498Y-67946998D01*
X109539498Y-69322402D01*
X109797876Y-69441339D01*
X110389001Y-69170444D01*
X110831462Y-68693956D01*
X111033839Y-68205376D01*
X111033839Y-70993000D01*
X109285498Y-70993000D01*
X109285498Y-69322402D01*
X109285498Y-67946998D01*
X109285498Y-67692998D01*
X109285498Y-66317594D01*
X109027120Y-66198657D01*
X108435995Y-66469552D01*
X107993534Y-66946040D01*
X107791157Y-67434620D01*
X107910094Y-67692998D01*
X109285498Y-67692998D01*
X109285498Y-67946998D01*
X107910094Y-67946998D01*
X107791157Y-68205376D01*
X108062052Y-68796501D01*
X108538540Y-69238962D01*
X109027120Y-69441339D01*
X109285498Y-69322402D01*
X109285498Y-70993000D01*
X108483732Y-70993000D01*
X108475518Y-74130134D01*
X115194969Y-74117795D01*
X114962496Y-74677655D01*
X114961928Y-75327896D01*
X115210240Y-75928857D01*
X115386558Y-76105483D01*
X115367133Y-83390195D01*
X115049040Y-83395244D01*
X115049040Y-82499200D01*
X115049040Y-80467200D01*
X115002063Y-80225077D01*
X114862273Y-80012273D01*
X114651240Y-79869823D01*
X114401600Y-79819760D01*
X112369600Y-79819760D01*
X112127477Y-79866737D01*
X111914673Y-80006527D01*
X111806862Y-80166243D01*
X111710418Y-80076815D01*
X111228544Y-79877225D01*
X110972600Y-79996364D01*
X110972600Y-81356200D01*
X110992600Y-81356200D01*
X110992600Y-81610200D01*
X110972600Y-81610200D01*
X110972600Y-82970036D01*
X111228544Y-83089175D01*
X111710418Y-82889585D01*
X111807435Y-82799625D01*
X111908927Y-82954127D01*
X112119960Y-83096577D01*
X112369600Y-83146640D01*
X114401600Y-83146640D01*
X114643723Y-83099663D01*
X114856527Y-82959873D01*
X114998977Y-82748840D01*
X115049040Y-82499200D01*
X115049040Y-83395244D01*
X113892592Y-83413600D01*
X110718600Y-83413600D01*
X110718600Y-82970036D01*
X110718600Y-81610200D01*
X110718600Y-81356200D01*
X110718600Y-79996364D01*
X110462656Y-79877225D01*
X109980782Y-80076815D01*
X109508412Y-80514821D01*
X109239617Y-81100254D01*
X109358233Y-81356200D01*
X110718600Y-81356200D01*
X110718600Y-81610200D01*
X109358233Y-81610200D01*
X109239617Y-81866146D01*
X109508412Y-82451579D01*
X109980782Y-82889585D01*
X110462656Y-83089175D01*
X110718600Y-82970036D01*
X110718600Y-83413600D01*
X109117807Y-83413600D01*
X106400007Y-83439000D01*
X103780369Y-83439000D01*
X103733600Y-81989152D01*
X103733600Y-78968600D01*
X103733600Y-74068352D01*
X107061000Y-74119100D01*
X107061000Y-70993000D01*
X100584000Y-70993000D01*
X100584000Y-59740000D01*
X116586000Y-59740000D01*
X116586000Y-64012375D01*
X116359029Y-63931599D01*
X115808752Y-63959570D01*
X115430277Y-64116340D01*
X115362288Y-64357283D01*
X116154200Y-65149195D01*
X116168342Y-65135052D01*
X116347947Y-65314657D01*
X116333805Y-65328800D01*
X116347947Y-65342942D01*
X116168342Y-65522547D01*
X116154200Y-65508405D01*
X115974595Y-65688010D01*
X115974595Y-65328800D01*
X115182683Y-64536888D01*
X114941740Y-64604877D01*
X114756999Y-65123971D01*
X114784970Y-65674248D01*
X114941740Y-66052723D01*
X115182683Y-66120712D01*
X115974595Y-65328800D01*
X115974595Y-65688010D01*
X115362288Y-66300317D01*
X115430277Y-66541260D01*
X115949371Y-66726001D01*
X116499648Y-66698030D01*
X116586000Y-66662261D01*
X116586000Y-70993000D01*
X116586000Y-70993000D01*
G37*
X116586000Y-70993000D02*
X111033839Y-70993000D01*
X111033839Y-68205376D01*
X111033839Y-67434620D01*
X110762944Y-66843495D01*
X110286456Y-66401034D01*
X109797876Y-66198657D01*
X109539498Y-66317594D01*
X109539498Y-67692998D01*
X110914902Y-67692998D01*
X111033839Y-67434620D01*
X111033839Y-68205376D01*
X110914902Y-67946998D01*
X109539498Y-67946998D01*
X109539498Y-69322402D01*
X109797876Y-69441339D01*
X110389001Y-69170444D01*
X110831462Y-68693956D01*
X111033839Y-68205376D01*
X111033839Y-70993000D01*
X109285498Y-70993000D01*
X109285498Y-69322402D01*
X109285498Y-67946998D01*
X109285498Y-67692998D01*
X109285498Y-66317594D01*
X109027120Y-66198657D01*
X108435995Y-66469552D01*
X107993534Y-66946040D01*
X107791157Y-67434620D01*
X107910094Y-67692998D01*
X109285498Y-67692998D01*
X109285498Y-67946998D01*
X107910094Y-67946998D01*
X107791157Y-68205376D01*
X108062052Y-68796501D01*
X108538540Y-69238962D01*
X109027120Y-69441339D01*
X109285498Y-69322402D01*
X109285498Y-70993000D01*
X108483732Y-70993000D01*
X108475518Y-74130134D01*
X115194969Y-74117795D01*
X114962496Y-74677655D01*
X114961928Y-75327896D01*
X115210240Y-75928857D01*
X115386558Y-76105483D01*
X115367133Y-83390195D01*
X115049040Y-83395244D01*
X115049040Y-82499200D01*
X115049040Y-80467200D01*
X115002063Y-80225077D01*
X114862273Y-80012273D01*
X114651240Y-79869823D01*
X114401600Y-79819760D01*
X112369600Y-79819760D01*
X112127477Y-79866737D01*
X111914673Y-80006527D01*
X111806862Y-80166243D01*
X111710418Y-80076815D01*
X111228544Y-79877225D01*
X110972600Y-79996364D01*
X110972600Y-81356200D01*
X110992600Y-81356200D01*
X110992600Y-81610200D01*
X110972600Y-81610200D01*
X110972600Y-82970036D01*
X111228544Y-83089175D01*
X111710418Y-82889585D01*
X111807435Y-82799625D01*
X111908927Y-82954127D01*
X112119960Y-83096577D01*
X112369600Y-83146640D01*
X114401600Y-83146640D01*
X114643723Y-83099663D01*
X114856527Y-82959873D01*
X114998977Y-82748840D01*
X115049040Y-82499200D01*
X115049040Y-83395244D01*
X113892592Y-83413600D01*
X110718600Y-83413600D01*
X110718600Y-82970036D01*
X110718600Y-81610200D01*
X110718600Y-81356200D01*
X110718600Y-79996364D01*
X110462656Y-79877225D01*
X109980782Y-80076815D01*
X109508412Y-80514821D01*
X109239617Y-81100254D01*
X109358233Y-81356200D01*
X110718600Y-81356200D01*
X110718600Y-81610200D01*
X109358233Y-81610200D01*
X109239617Y-81866146D01*
X109508412Y-82451579D01*
X109980782Y-82889585D01*
X110462656Y-83089175D01*
X110718600Y-82970036D01*
X110718600Y-83413600D01*
X109117807Y-83413600D01*
X106400007Y-83439000D01*
X103780369Y-83439000D01*
X103733600Y-81989152D01*
X103733600Y-78968600D01*
X103733600Y-74068352D01*
X107061000Y-74119100D01*
X107061000Y-70993000D01*
X100584000Y-70993000D01*
X100584000Y-59740000D01*
X116586000Y-59740000D01*
X116586000Y-64012375D01*
X116359029Y-63931599D01*
X115808752Y-63959570D01*
X115430277Y-64116340D01*
X115362288Y-64357283D01*
X116154200Y-65149195D01*
X116168342Y-65135052D01*
X116347947Y-65314657D01*
X116333805Y-65328800D01*
X116347947Y-65342942D01*
X116168342Y-65522547D01*
X116154200Y-65508405D01*
X115974595Y-65688010D01*
X115974595Y-65328800D01*
X115182683Y-64536888D01*
X114941740Y-64604877D01*
X114756999Y-65123971D01*
X114784970Y-65674248D01*
X114941740Y-66052723D01*
X115182683Y-66120712D01*
X115974595Y-65328800D01*
X115974595Y-65688010D01*
X115362288Y-66300317D01*
X115430277Y-66541260D01*
X115949371Y-66726001D01*
X116499648Y-66698030D01*
X116586000Y-66662261D01*
X116586000Y-70993000D01*
G36*
X125045000Y-73329309D02*
X119539200Y-73324471D01*
X119539200Y-66205109D01*
X119539200Y-65614550D01*
X119539200Y-65043050D01*
X119539200Y-64452491D01*
X119442527Y-64219102D01*
X119263899Y-64040473D01*
X119030510Y-63943800D01*
X118777891Y-63943800D01*
X118439950Y-63943800D01*
X118281200Y-64102550D01*
X118281200Y-65201800D01*
X119380450Y-65201800D01*
X119539200Y-65043050D01*
X119539200Y-65614550D01*
X119380450Y-65455800D01*
X118281200Y-65455800D01*
X118281200Y-66555050D01*
X118439950Y-66713800D01*
X118777891Y-66713800D01*
X119030510Y-66713800D01*
X119263899Y-66617127D01*
X119442527Y-66438498D01*
X119539200Y-66205109D01*
X119539200Y-73324471D01*
X111277400Y-73317212D01*
X111277400Y-73302042D01*
X109245400Y-73304261D01*
X109245400Y-71755000D01*
X117348000Y-71755000D01*
X117348000Y-66713800D01*
X117530509Y-66713800D01*
X117868450Y-66713800D01*
X118027200Y-66555050D01*
X118027200Y-65455800D01*
X118007200Y-65455800D01*
X118007200Y-65201800D01*
X118027200Y-65201800D01*
X118027200Y-64102550D01*
X117868450Y-63943800D01*
X117530509Y-63943800D01*
X117348000Y-63943800D01*
X117348000Y-59740000D01*
X125045000Y-59740000D01*
X125045000Y-73329309D01*
X125045000Y-73329309D01*
G37*
X125045000Y-73329309D02*
X119539200Y-73324471D01*
X119539200Y-66205109D01*
X119539200Y-65614550D01*
X119539200Y-65043050D01*
X119539200Y-64452491D01*
X119442527Y-64219102D01*
X119263899Y-64040473D01*
X119030510Y-63943800D01*
X118777891Y-63943800D01*
X118439950Y-63943800D01*
X118281200Y-64102550D01*
X118281200Y-65201800D01*
X119380450Y-65201800D01*
X119539200Y-65043050D01*
X119539200Y-65614550D01*
X119380450Y-65455800D01*
X118281200Y-65455800D01*
X118281200Y-66555050D01*
X118439950Y-66713800D01*
X118777891Y-66713800D01*
X119030510Y-66713800D01*
X119263899Y-66617127D01*
X119442527Y-66438498D01*
X119539200Y-66205109D01*
X119539200Y-73324471D01*
X111277400Y-73317212D01*
X111277400Y-73302042D01*
X109245400Y-73304261D01*
X109245400Y-71755000D01*
X117348000Y-71755000D01*
X117348000Y-66713800D01*
X117530509Y-66713800D01*
X117868450Y-66713800D01*
X118027200Y-66555050D01*
X118027200Y-65455800D01*
X118007200Y-65455800D01*
X118007200Y-65201800D01*
X118027200Y-65201800D01*
X118027200Y-64102550D01*
X117868450Y-63943800D01*
X117530509Y-63943800D01*
X117348000Y-63943800D01*
X117348000Y-59740000D01*
X125045000Y-59740000D01*
X125045000Y-73329309D01*
G36*
X106299000Y-73291700D02*
X104394000Y-73291700D01*
X104394000Y-73279191D01*
X87807000Y-73254247D01*
X87807000Y-64490600D01*
X99797043Y-64490600D01*
X99822443Y-71755000D01*
X106299000Y-71755000D01*
X106299000Y-73291700D01*
X106299000Y-73291700D01*
G37*
X106299000Y-73291700D02*
X104394000Y-73291700D01*
X104394000Y-73279191D01*
X87807000Y-73254247D01*
X87807000Y-64490600D01*
X99797043Y-64490600D01*
X99822443Y-71755000D01*
X106299000Y-71755000D01*
X106299000Y-73291700D01*
M02*
