G04 #@! TF.FileFunction,Legend,Bot*
%FSLAX46Y46*%
G04 Gerber Fmt 4.6, Leading zero omitted, Abs format (unit mm)*
G04 Created by KiCad (PCBNEW 0.201503261001+5536~22~ubuntu14.04.1-product) date Sun 29 Mar 2015 21:21:47 CEST*
%MOMM*%
G01*
G04 APERTURE LIST*
%ADD10C,0.100000*%
%ADD11C,0.150000*%
%ADD12C,0.127000*%
%ADD13R,2.032000X2.032000*%
%ADD14O,2.032000X2.032000*%
%ADD15R,1.500000X1.500000*%
%ADD16C,1.500000*%
%ADD17C,1.600000*%
%ADD18O,1.600000X1.600000*%
%ADD19C,1.998980*%
G04 APERTURE END LIST*
D10*
D11*
X118427381Y-67746571D02*
X118284524Y-67794190D01*
X118236905Y-67841810D01*
X118189286Y-67937048D01*
X118189286Y-68079905D01*
X118236905Y-68175143D01*
X118284524Y-68222762D01*
X118379762Y-68270381D01*
X118760715Y-68270381D01*
X118760715Y-67270381D01*
X118427381Y-67270381D01*
X118332143Y-67318000D01*
X118284524Y-67365619D01*
X118236905Y-67460857D01*
X118236905Y-67556095D01*
X118284524Y-67651333D01*
X118332143Y-67698952D01*
X118427381Y-67746571D01*
X118760715Y-67746571D01*
X117332143Y-68270381D02*
X117332143Y-67746571D01*
X117379762Y-67651333D01*
X117475000Y-67603714D01*
X117665477Y-67603714D01*
X117760715Y-67651333D01*
X117332143Y-68222762D02*
X117427381Y-68270381D01*
X117665477Y-68270381D01*
X117760715Y-68222762D01*
X117808334Y-68127524D01*
X117808334Y-68032286D01*
X117760715Y-67937048D01*
X117665477Y-67889429D01*
X117427381Y-67889429D01*
X117332143Y-67841810D01*
X116998810Y-67603714D02*
X116617858Y-67603714D01*
X116855953Y-67270381D02*
X116855953Y-68127524D01*
X116808334Y-68222762D01*
X116713096Y-68270381D01*
X116617858Y-68270381D01*
X116427381Y-67603714D02*
X116046429Y-67603714D01*
X116284524Y-67270381D02*
X116284524Y-68127524D01*
X116236905Y-68222762D01*
X116141667Y-68270381D01*
X116046429Y-68270381D01*
D12*
X116154200Y-64128800D02*
X116154200Y-60328800D01*
X118154200Y-64128800D02*
X118154200Y-60328800D01*
D11*
X120104200Y-59078800D02*
X114204200Y-59078800D01*
X114204200Y-66928800D02*
X114204200Y-59078800D01*
X120104200Y-66928800D02*
X114204200Y-66928800D01*
X120104200Y-66928800D02*
X120104200Y-59078800D01*
D10*
G36*
X105640098Y-61381684D02*
X105641393Y-61473911D01*
X105641438Y-61475716D01*
X105647067Y-61698385D01*
X105694578Y-61722892D01*
X105758529Y-61744346D01*
X105825357Y-61746296D01*
X105889293Y-61728886D01*
X105911146Y-61717515D01*
X105944583Y-61699016D01*
X105960334Y-61695368D01*
X105960334Y-61321460D01*
X105965663Y-61251771D01*
X105982729Y-61198203D01*
X106013146Y-61157487D01*
X106056070Y-61127631D01*
X106125194Y-61103583D01*
X106202951Y-61096208D01*
X106281195Y-61104529D01*
X106351778Y-61127569D01*
X106406555Y-61164350D01*
X106412345Y-61170370D01*
X106430636Y-61203353D01*
X106441678Y-61249694D01*
X106445566Y-61303155D01*
X106442395Y-61357499D01*
X106432260Y-61406490D01*
X106415255Y-61443890D01*
X106408054Y-61452725D01*
X106351260Y-61495075D01*
X106281772Y-61522524D01*
X106205979Y-61534139D01*
X106130269Y-61528985D01*
X106061030Y-61506129D01*
X106056980Y-61504047D01*
X106009952Y-61471100D01*
X105979482Y-61428817D01*
X105963686Y-61373637D01*
X105960334Y-61321460D01*
X105960334Y-61695368D01*
X105969738Y-61693190D01*
X106001569Y-61697931D01*
X106019366Y-61702275D01*
X106067818Y-61709957D01*
X106135715Y-61715212D01*
X106201090Y-61716911D01*
X106279662Y-61715042D01*
X106342166Y-61707941D01*
X106406036Y-61693347D01*
X106426001Y-61687766D01*
X106544431Y-61644615D01*
X106637265Y-61589995D01*
X106705292Y-61523022D01*
X106749301Y-61442811D01*
X106770081Y-61348480D01*
X106772059Y-61300360D01*
X106763125Y-61218093D01*
X106735498Y-61147642D01*
X106686057Y-61082777D01*
X106642767Y-61042369D01*
X106556027Y-60984813D01*
X106453938Y-60943324D01*
X106341346Y-60917655D01*
X106223097Y-60907562D01*
X106104038Y-60912799D01*
X105989014Y-60933120D01*
X105882872Y-60968280D01*
X105790457Y-61018034D01*
X105716616Y-61082136D01*
X105710202Y-61089611D01*
X105686650Y-61121769D01*
X105668538Y-61156646D01*
X105655347Y-61197159D01*
X105646556Y-61246225D01*
X105641646Y-61306761D01*
X105640098Y-61381684D01*
X105640098Y-61381684D01*
X105640098Y-61381684D01*
G37*
X105640098Y-61381684D02*
X105641393Y-61473911D01*
X105641438Y-61475716D01*
X105647067Y-61698385D01*
X105694578Y-61722892D01*
X105758529Y-61744346D01*
X105825357Y-61746296D01*
X105889293Y-61728886D01*
X105911146Y-61717515D01*
X105944583Y-61699016D01*
X105960334Y-61695368D01*
X105960334Y-61321460D01*
X105965663Y-61251771D01*
X105982729Y-61198203D01*
X106013146Y-61157487D01*
X106056070Y-61127631D01*
X106125194Y-61103583D01*
X106202951Y-61096208D01*
X106281195Y-61104529D01*
X106351778Y-61127569D01*
X106406555Y-61164350D01*
X106412345Y-61170370D01*
X106430636Y-61203353D01*
X106441678Y-61249694D01*
X106445566Y-61303155D01*
X106442395Y-61357499D01*
X106432260Y-61406490D01*
X106415255Y-61443890D01*
X106408054Y-61452725D01*
X106351260Y-61495075D01*
X106281772Y-61522524D01*
X106205979Y-61534139D01*
X106130269Y-61528985D01*
X106061030Y-61506129D01*
X106056980Y-61504047D01*
X106009952Y-61471100D01*
X105979482Y-61428817D01*
X105963686Y-61373637D01*
X105960334Y-61321460D01*
X105960334Y-61695368D01*
X105969738Y-61693190D01*
X106001569Y-61697931D01*
X106019366Y-61702275D01*
X106067818Y-61709957D01*
X106135715Y-61715212D01*
X106201090Y-61716911D01*
X106279662Y-61715042D01*
X106342166Y-61707941D01*
X106406036Y-61693347D01*
X106426001Y-61687766D01*
X106544431Y-61644615D01*
X106637265Y-61589995D01*
X106705292Y-61523022D01*
X106749301Y-61442811D01*
X106770081Y-61348480D01*
X106772059Y-61300360D01*
X106763125Y-61218093D01*
X106735498Y-61147642D01*
X106686057Y-61082777D01*
X106642767Y-61042369D01*
X106556027Y-60984813D01*
X106453938Y-60943324D01*
X106341346Y-60917655D01*
X106223097Y-60907562D01*
X106104038Y-60912799D01*
X105989014Y-60933120D01*
X105882872Y-60968280D01*
X105790457Y-61018034D01*
X105716616Y-61082136D01*
X105710202Y-61089611D01*
X105686650Y-61121769D01*
X105668538Y-61156646D01*
X105655347Y-61197159D01*
X105646556Y-61246225D01*
X105641646Y-61306761D01*
X105640098Y-61381684D01*
X105640098Y-61381684D01*
G36*
X108923667Y-61626435D02*
X108937594Y-61657213D01*
X108972698Y-61688433D01*
X109018965Y-61712621D01*
X109050475Y-61721063D01*
X109085170Y-61724040D01*
X109118994Y-61720998D01*
X109155042Y-61710311D01*
X109196407Y-61690353D01*
X109246185Y-61659498D01*
X109307469Y-61616122D01*
X109383354Y-61558599D01*
X109432120Y-61520590D01*
X109499129Y-61468624D01*
X109559970Y-61422560D01*
X109611456Y-61384721D01*
X109650403Y-61357427D01*
X109673624Y-61343000D01*
X109678112Y-61341324D01*
X109699738Y-61347915D01*
X109733348Y-61364908D01*
X109748587Y-61374020D01*
X109770258Y-61388182D01*
X109785142Y-61401353D01*
X109794725Y-61417665D01*
X109800491Y-61441247D01*
X109803927Y-61476232D01*
X109806516Y-61526752D01*
X109806942Y-61536354D01*
X109809705Y-61590134D01*
X109813214Y-61627580D01*
X109818708Y-61652677D01*
X109827424Y-61669407D01*
X109840601Y-61681757D01*
X109855001Y-61691048D01*
X109910941Y-61713603D01*
X109975059Y-61723120D01*
X110032800Y-61717859D01*
X110069462Y-61703772D01*
X110100534Y-61686572D01*
X110107913Y-61681105D01*
X110114135Y-61674252D01*
X110119298Y-61664351D01*
X110123500Y-61649738D01*
X110126842Y-61628749D01*
X110129421Y-61599722D01*
X110131335Y-61560993D01*
X110132684Y-61510898D01*
X110133566Y-61447774D01*
X110134080Y-61369959D01*
X110134324Y-61275788D01*
X110134397Y-61163598D01*
X110134400Y-61115450D01*
X110134400Y-60566913D01*
X110083600Y-60542527D01*
X110022207Y-60523719D01*
X109955039Y-60519740D01*
X109891813Y-60529669D01*
X109842244Y-60552582D01*
X109826962Y-60566909D01*
X109822982Y-60581290D01*
X109818807Y-60613173D01*
X109814653Y-60659740D01*
X109810734Y-60718175D01*
X109807267Y-60785660D01*
X109804467Y-60859379D01*
X109804374Y-60862342D01*
X109795734Y-61140604D01*
X109514894Y-60988324D01*
X109431025Y-60943617D01*
X109353033Y-60903479D01*
X109285199Y-60870002D01*
X109231803Y-60845274D01*
X109197124Y-60831384D01*
X109189070Y-60829270D01*
X109135377Y-60829000D01*
X109076945Y-60839845D01*
X109028434Y-60858302D01*
X109009697Y-60872111D01*
X108996456Y-60897143D01*
X108991400Y-60925318D01*
X108994444Y-60940085D01*
X109005494Y-60956102D01*
X109027426Y-60975298D01*
X109063117Y-60999604D01*
X109115446Y-61030949D01*
X109187289Y-61071261D01*
X109281522Y-61122471D01*
X109301056Y-61132980D01*
X109432912Y-61203840D01*
X109300384Y-61305440D01*
X109200014Y-61382578D01*
X109118829Y-61445504D01*
X109054878Y-61495883D01*
X109006207Y-61535377D01*
X108970863Y-61565650D01*
X108946894Y-61588367D01*
X108932347Y-61605191D01*
X108925269Y-61617786D01*
X108923667Y-61626435D01*
X108923667Y-61626435D01*
X108923667Y-61626435D01*
G37*
X108923667Y-61626435D02*
X108937594Y-61657213D01*
X108972698Y-61688433D01*
X109018965Y-61712621D01*
X109050475Y-61721063D01*
X109085170Y-61724040D01*
X109118994Y-61720998D01*
X109155042Y-61710311D01*
X109196407Y-61690353D01*
X109246185Y-61659498D01*
X109307469Y-61616122D01*
X109383354Y-61558599D01*
X109432120Y-61520590D01*
X109499129Y-61468624D01*
X109559970Y-61422560D01*
X109611456Y-61384721D01*
X109650403Y-61357427D01*
X109673624Y-61343000D01*
X109678112Y-61341324D01*
X109699738Y-61347915D01*
X109733348Y-61364908D01*
X109748587Y-61374020D01*
X109770258Y-61388182D01*
X109785142Y-61401353D01*
X109794725Y-61417665D01*
X109800491Y-61441247D01*
X109803927Y-61476232D01*
X109806516Y-61526752D01*
X109806942Y-61536354D01*
X109809705Y-61590134D01*
X109813214Y-61627580D01*
X109818708Y-61652677D01*
X109827424Y-61669407D01*
X109840601Y-61681757D01*
X109855001Y-61691048D01*
X109910941Y-61713603D01*
X109975059Y-61723120D01*
X110032800Y-61717859D01*
X110069462Y-61703772D01*
X110100534Y-61686572D01*
X110107913Y-61681105D01*
X110114135Y-61674252D01*
X110119298Y-61664351D01*
X110123500Y-61649738D01*
X110126842Y-61628749D01*
X110129421Y-61599722D01*
X110131335Y-61560993D01*
X110132684Y-61510898D01*
X110133566Y-61447774D01*
X110134080Y-61369959D01*
X110134324Y-61275788D01*
X110134397Y-61163598D01*
X110134400Y-61115450D01*
X110134400Y-60566913D01*
X110083600Y-60542527D01*
X110022207Y-60523719D01*
X109955039Y-60519740D01*
X109891813Y-60529669D01*
X109842244Y-60552582D01*
X109826962Y-60566909D01*
X109822982Y-60581290D01*
X109818807Y-60613173D01*
X109814653Y-60659740D01*
X109810734Y-60718175D01*
X109807267Y-60785660D01*
X109804467Y-60859379D01*
X109804374Y-60862342D01*
X109795734Y-61140604D01*
X109514894Y-60988324D01*
X109431025Y-60943617D01*
X109353033Y-60903479D01*
X109285199Y-60870002D01*
X109231803Y-60845274D01*
X109197124Y-60831384D01*
X109189070Y-60829270D01*
X109135377Y-60829000D01*
X109076945Y-60839845D01*
X109028434Y-60858302D01*
X109009697Y-60872111D01*
X108996456Y-60897143D01*
X108991400Y-60925318D01*
X108994444Y-60940085D01*
X109005494Y-60956102D01*
X109027426Y-60975298D01*
X109063117Y-60999604D01*
X109115446Y-61030949D01*
X109187289Y-61071261D01*
X109281522Y-61122471D01*
X109301056Y-61132980D01*
X109432912Y-61203840D01*
X109300384Y-61305440D01*
X109200014Y-61382578D01*
X109118829Y-61445504D01*
X109054878Y-61495883D01*
X109006207Y-61535377D01*
X108970863Y-61565650D01*
X108946894Y-61588367D01*
X108932347Y-61605191D01*
X108925269Y-61617786D01*
X108923667Y-61626435D01*
X108923667Y-61626435D01*
G36*
X108383952Y-61127803D02*
X108384337Y-61201345D01*
X108385355Y-61292584D01*
X108385618Y-61312842D01*
X108390267Y-61665684D01*
X108432600Y-61691055D01*
X108488545Y-61713606D01*
X108552665Y-61723119D01*
X108610400Y-61717859D01*
X108647069Y-61703773D01*
X108678134Y-61686585D01*
X108687190Y-61679701D01*
X108694516Y-61670957D01*
X108700330Y-61658229D01*
X108704848Y-61639395D01*
X108708290Y-61612330D01*
X108710873Y-61574912D01*
X108712814Y-61525017D01*
X108714331Y-61460522D01*
X108715643Y-61379304D01*
X108716546Y-61312006D01*
X108717644Y-61217099D01*
X108718136Y-61140317D01*
X108717880Y-61079469D01*
X108716732Y-61032361D01*
X108714547Y-60996800D01*
X108711183Y-60970594D01*
X108706495Y-60951550D01*
X108700340Y-60937476D01*
X108692574Y-60926179D01*
X108691146Y-60924451D01*
X108646270Y-60889671D01*
X108589158Y-60871382D01*
X108527346Y-60869578D01*
X108468371Y-60884250D01*
X108419770Y-60915395D01*
X108411018Y-60924692D01*
X108402960Y-60935635D01*
X108396538Y-60948955D01*
X108391608Y-60966839D01*
X108388028Y-60991477D01*
X108385654Y-61025058D01*
X108384343Y-61069770D01*
X108383952Y-61127803D01*
X108383952Y-61127803D01*
X108383952Y-61127803D01*
G37*
X108383952Y-61127803D02*
X108384337Y-61201345D01*
X108385355Y-61292584D01*
X108385618Y-61312842D01*
X108390267Y-61665684D01*
X108432600Y-61691055D01*
X108488545Y-61713606D01*
X108552665Y-61723119D01*
X108610400Y-61717859D01*
X108647069Y-61703773D01*
X108678134Y-61686585D01*
X108687190Y-61679701D01*
X108694516Y-61670957D01*
X108700330Y-61658229D01*
X108704848Y-61639395D01*
X108708290Y-61612330D01*
X108710873Y-61574912D01*
X108712814Y-61525017D01*
X108714331Y-61460522D01*
X108715643Y-61379304D01*
X108716546Y-61312006D01*
X108717644Y-61217099D01*
X108718136Y-61140317D01*
X108717880Y-61079469D01*
X108716732Y-61032361D01*
X108714547Y-60996800D01*
X108711183Y-60970594D01*
X108706495Y-60951550D01*
X108700340Y-60937476D01*
X108692574Y-60926179D01*
X108691146Y-60924451D01*
X108646270Y-60889671D01*
X108589158Y-60871382D01*
X108527346Y-60869578D01*
X108468371Y-60884250D01*
X108419770Y-60915395D01*
X108411018Y-60924692D01*
X108402960Y-60935635D01*
X108396538Y-60948955D01*
X108391608Y-60966839D01*
X108388028Y-60991477D01*
X108385654Y-61025058D01*
X108384343Y-61069770D01*
X108383952Y-61127803D01*
X108383952Y-61127803D01*
G36*
X107049359Y-61005243D02*
X107065410Y-61042485D01*
X107103253Y-61072634D01*
X107159496Y-61092934D01*
X107227654Y-61095756D01*
X107298616Y-61081749D01*
X107388354Y-61063381D01*
X107484235Y-61059640D01*
X107576243Y-61070005D01*
X107654362Y-61093958D01*
X107668601Y-61100951D01*
X107716242Y-61134195D01*
X107748105Y-61176139D01*
X107766022Y-61230329D01*
X107771827Y-61300315D01*
X107771829Y-61300747D01*
X107765373Y-61373152D01*
X107744180Y-61429619D01*
X107706448Y-61472992D01*
X107650375Y-61506112D01*
X107638463Y-61511097D01*
X107569033Y-61528432D01*
X107483606Y-61534708D01*
X107394709Y-61529824D01*
X107315000Y-61513720D01*
X107247663Y-61497344D01*
X107191650Y-61495166D01*
X107134678Y-61506818D01*
X107130278Y-61508160D01*
X107081780Y-61533595D01*
X107054118Y-61569417D01*
X107053110Y-61607937D01*
X107053687Y-61609379D01*
X107082644Y-61639700D01*
X107139053Y-61667048D01*
X107216625Y-61690204D01*
X107309071Y-61707945D01*
X107410104Y-61719050D01*
X107513433Y-61722299D01*
X107607910Y-61717004D01*
X107736691Y-61693264D01*
X107851994Y-61652394D01*
X107949118Y-61596889D01*
X108023362Y-61529245D01*
X108058167Y-61477989D01*
X108096213Y-61375797D01*
X108104329Y-61273073D01*
X108082809Y-61173352D01*
X108031948Y-61080168D01*
X108024145Y-61069921D01*
X107952758Y-61001543D01*
X107859081Y-60946476D01*
X107747606Y-60905589D01*
X107622821Y-60879751D01*
X107489217Y-60869834D01*
X107351283Y-60876707D01*
X107213509Y-60901240D01*
X107188007Y-60907891D01*
X107111656Y-60936005D01*
X107065107Y-60969103D01*
X107049359Y-61005243D01*
X107049359Y-61005243D01*
X107049359Y-61005243D01*
G37*
X107049359Y-61005243D02*
X107065410Y-61042485D01*
X107103253Y-61072634D01*
X107159496Y-61092934D01*
X107227654Y-61095756D01*
X107298616Y-61081749D01*
X107388354Y-61063381D01*
X107484235Y-61059640D01*
X107576243Y-61070005D01*
X107654362Y-61093958D01*
X107668601Y-61100951D01*
X107716242Y-61134195D01*
X107748105Y-61176139D01*
X107766022Y-61230329D01*
X107771827Y-61300315D01*
X107771829Y-61300747D01*
X107765373Y-61373152D01*
X107744180Y-61429619D01*
X107706448Y-61472992D01*
X107650375Y-61506112D01*
X107638463Y-61511097D01*
X107569033Y-61528432D01*
X107483606Y-61534708D01*
X107394709Y-61529824D01*
X107315000Y-61513720D01*
X107247663Y-61497344D01*
X107191650Y-61495166D01*
X107134678Y-61506818D01*
X107130278Y-61508160D01*
X107081780Y-61533595D01*
X107054118Y-61569417D01*
X107053110Y-61607937D01*
X107053687Y-61609379D01*
X107082644Y-61639700D01*
X107139053Y-61667048D01*
X107216625Y-61690204D01*
X107309071Y-61707945D01*
X107410104Y-61719050D01*
X107513433Y-61722299D01*
X107607910Y-61717004D01*
X107736691Y-61693264D01*
X107851994Y-61652394D01*
X107949118Y-61596889D01*
X108023362Y-61529245D01*
X108058167Y-61477989D01*
X108096213Y-61375797D01*
X108104329Y-61273073D01*
X108082809Y-61173352D01*
X108031948Y-61080168D01*
X108024145Y-61069921D01*
X107952758Y-61001543D01*
X107859081Y-60946476D01*
X107747606Y-60905589D01*
X107622821Y-60879751D01*
X107489217Y-60869834D01*
X107351283Y-60876707D01*
X107213509Y-60901240D01*
X107188007Y-60907891D01*
X107111656Y-60936005D01*
X107065107Y-60969103D01*
X107049359Y-61005243D01*
X107049359Y-61005243D01*
G36*
X104168122Y-61157554D02*
X104168541Y-61231783D01*
X104169500Y-61295410D01*
X104170962Y-61346150D01*
X104172888Y-61381715D01*
X104175242Y-61399820D01*
X104175892Y-61401349D01*
X104184557Y-61425131D01*
X104184278Y-61433542D01*
X104188846Y-61454465D01*
X104204998Y-61487015D01*
X104228635Y-61524813D01*
X104255660Y-61561476D01*
X104281972Y-61590622D01*
X104289352Y-61597141D01*
X104316521Y-61614030D01*
X104338218Y-61618913D01*
X104340043Y-61618431D01*
X104348829Y-61618866D01*
X104345468Y-61623278D01*
X104349859Y-61636254D01*
X104379102Y-61653243D01*
X104425957Y-61671769D01*
X104483182Y-61689355D01*
X104487134Y-61690282D01*
X104487134Y-61282863D01*
X104487134Y-61145927D01*
X104543190Y-61112294D01*
X104619074Y-61079110D01*
X104704420Y-61062174D01*
X104791706Y-61061852D01*
X104873407Y-61078510D01*
X104911919Y-61094372D01*
X104971980Y-61136221D01*
X105010234Y-61190862D01*
X105027647Y-61259902D01*
X105029001Y-61289526D01*
X105024414Y-61351454D01*
X105008579Y-61400822D01*
X104978383Y-61444793D01*
X104948490Y-61474875D01*
X104889553Y-61511551D01*
X104813760Y-61533918D01*
X104729769Y-61541024D01*
X104646243Y-61531919D01*
X104589918Y-61514225D01*
X104551887Y-61494638D01*
X104524204Y-61470985D01*
X104505379Y-61439917D01*
X104493925Y-61398084D01*
X104488355Y-61342137D01*
X104487134Y-61282863D01*
X104487134Y-61690282D01*
X104543537Y-61703525D01*
X104599782Y-61711803D01*
X104605667Y-61712266D01*
X104640433Y-61715247D01*
X104681867Y-61719320D01*
X104728163Y-61721001D01*
X104790089Y-61719452D01*
X104825800Y-61717207D01*
X104920867Y-61703335D01*
X105019676Y-61678370D01*
X105109870Y-61646083D01*
X105179088Y-61610247D01*
X105181383Y-61608699D01*
X105218452Y-61578774D01*
X105258785Y-61539248D01*
X105289416Y-61503868D01*
X105310375Y-61475976D01*
X105324749Y-61452333D01*
X105333782Y-61428060D01*
X105338716Y-61398279D01*
X105340795Y-61358111D01*
X105341261Y-61302675D01*
X105341264Y-61300360D01*
X105340607Y-61241694D01*
X105337864Y-61198453D01*
X105332074Y-61165753D01*
X105322274Y-61138709D01*
X105307501Y-61112437D01*
X105302820Y-61105271D01*
X105239821Y-61035234D01*
X105154027Y-60976039D01*
X105050659Y-60929415D01*
X104934936Y-60897091D01*
X104812079Y-60880799D01*
X104687310Y-60882268D01*
X104644753Y-60887211D01*
X104586295Y-60896203D01*
X104538111Y-60904531D01*
X104516767Y-60908958D01*
X104505538Y-60910453D01*
X104497560Y-60906482D01*
X104492283Y-60894256D01*
X104489156Y-60870986D01*
X104487629Y-60833881D01*
X104487154Y-60780153D01*
X104487134Y-60758666D01*
X104486942Y-60698738D01*
X104485812Y-60655545D01*
X104482914Y-60625502D01*
X104477414Y-60605024D01*
X104468483Y-60590527D01*
X104455289Y-60578425D01*
X104443295Y-60569619D01*
X104388507Y-60544554D01*
X104324263Y-60537235D01*
X104258287Y-60547897D01*
X104221378Y-60562871D01*
X104173867Y-60587383D01*
X104169056Y-60986441D01*
X104168281Y-61075011D01*
X104168122Y-61157554D01*
X104168122Y-61157554D01*
X104168122Y-61157554D01*
G37*
X104168122Y-61157554D02*
X104168541Y-61231783D01*
X104169500Y-61295410D01*
X104170962Y-61346150D01*
X104172888Y-61381715D01*
X104175242Y-61399820D01*
X104175892Y-61401349D01*
X104184557Y-61425131D01*
X104184278Y-61433542D01*
X104188846Y-61454465D01*
X104204998Y-61487015D01*
X104228635Y-61524813D01*
X104255660Y-61561476D01*
X104281972Y-61590622D01*
X104289352Y-61597141D01*
X104316521Y-61614030D01*
X104338218Y-61618913D01*
X104340043Y-61618431D01*
X104348829Y-61618866D01*
X104345468Y-61623278D01*
X104349859Y-61636254D01*
X104379102Y-61653243D01*
X104425957Y-61671769D01*
X104483182Y-61689355D01*
X104487134Y-61690282D01*
X104487134Y-61282863D01*
X104487134Y-61145927D01*
X104543190Y-61112294D01*
X104619074Y-61079110D01*
X104704420Y-61062174D01*
X104791706Y-61061852D01*
X104873407Y-61078510D01*
X104911919Y-61094372D01*
X104971980Y-61136221D01*
X105010234Y-61190862D01*
X105027647Y-61259902D01*
X105029001Y-61289526D01*
X105024414Y-61351454D01*
X105008579Y-61400822D01*
X104978383Y-61444793D01*
X104948490Y-61474875D01*
X104889553Y-61511551D01*
X104813760Y-61533918D01*
X104729769Y-61541024D01*
X104646243Y-61531919D01*
X104589918Y-61514225D01*
X104551887Y-61494638D01*
X104524204Y-61470985D01*
X104505379Y-61439917D01*
X104493925Y-61398084D01*
X104488355Y-61342137D01*
X104487134Y-61282863D01*
X104487134Y-61690282D01*
X104543537Y-61703525D01*
X104599782Y-61711803D01*
X104605667Y-61712266D01*
X104640433Y-61715247D01*
X104681867Y-61719320D01*
X104728163Y-61721001D01*
X104790089Y-61719452D01*
X104825800Y-61717207D01*
X104920867Y-61703335D01*
X105019676Y-61678370D01*
X105109870Y-61646083D01*
X105179088Y-61610247D01*
X105181383Y-61608699D01*
X105218452Y-61578774D01*
X105258785Y-61539248D01*
X105289416Y-61503868D01*
X105310375Y-61475976D01*
X105324749Y-61452333D01*
X105333782Y-61428060D01*
X105338716Y-61398279D01*
X105340795Y-61358111D01*
X105341261Y-61302675D01*
X105341264Y-61300360D01*
X105340607Y-61241694D01*
X105337864Y-61198453D01*
X105332074Y-61165753D01*
X105322274Y-61138709D01*
X105307501Y-61112437D01*
X105302820Y-61105271D01*
X105239821Y-61035234D01*
X105154027Y-60976039D01*
X105050659Y-60929415D01*
X104934936Y-60897091D01*
X104812079Y-60880799D01*
X104687310Y-60882268D01*
X104644753Y-60887211D01*
X104586295Y-60896203D01*
X104538111Y-60904531D01*
X104516767Y-60908958D01*
X104505538Y-60910453D01*
X104497560Y-60906482D01*
X104492283Y-60894256D01*
X104489156Y-60870986D01*
X104487629Y-60833881D01*
X104487154Y-60780153D01*
X104487134Y-60758666D01*
X104486942Y-60698738D01*
X104485812Y-60655545D01*
X104482914Y-60625502D01*
X104477414Y-60605024D01*
X104468483Y-60590527D01*
X104455289Y-60578425D01*
X104443295Y-60569619D01*
X104388507Y-60544554D01*
X104324263Y-60537235D01*
X104258287Y-60547897D01*
X104221378Y-60562871D01*
X104173867Y-60587383D01*
X104169056Y-60986441D01*
X104168281Y-61075011D01*
X104168122Y-61157554D01*
X104168122Y-61157554D01*
G36*
X110498467Y-61647831D02*
X110556040Y-61682375D01*
X110613614Y-61716920D01*
X110684734Y-61716880D01*
X110684734Y-61605160D01*
X110684734Y-61113495D01*
X110684734Y-60621830D01*
X111036100Y-60413903D01*
X111134642Y-60355688D01*
X111233296Y-60297586D01*
X111327209Y-60242441D01*
X111411532Y-60193098D01*
X111481410Y-60152401D01*
X111531401Y-60123535D01*
X111675334Y-60041094D01*
X112272234Y-60040807D01*
X112869134Y-60040520D01*
X112869134Y-60822840D01*
X112869134Y-61605160D01*
X111776934Y-61605160D01*
X110684734Y-61605160D01*
X110684734Y-61716880D01*
X111762540Y-61716275D01*
X111957507Y-61716046D01*
X112143042Y-61715597D01*
X112316283Y-61714948D01*
X112474369Y-61714121D01*
X112614439Y-61713139D01*
X112733631Y-61712022D01*
X112829083Y-61710793D01*
X112897935Y-61709473D01*
X112937325Y-61708085D01*
X112945334Y-61707315D01*
X112981943Y-61693539D01*
X113013067Y-61676412D01*
X113019205Y-61671916D01*
X113024553Y-61666266D01*
X113029165Y-61658118D01*
X113033095Y-61646125D01*
X113036399Y-61628940D01*
X113039131Y-61605217D01*
X113041344Y-61573610D01*
X113043094Y-61532772D01*
X113044435Y-61481358D01*
X113045421Y-61418021D01*
X113046106Y-61341414D01*
X113046546Y-61250191D01*
X113046794Y-61143007D01*
X113046905Y-61018514D01*
X113046933Y-60875367D01*
X113046934Y-60838551D01*
X113046836Y-60684931D01*
X113046522Y-60550449D01*
X113045961Y-60433924D01*
X113045121Y-60334173D01*
X113043971Y-60250015D01*
X113042479Y-60180269D01*
X113040616Y-60123753D01*
X113038349Y-60079285D01*
X113035648Y-60045684D01*
X113032480Y-60021768D01*
X113028815Y-60006355D01*
X113024744Y-59998398D01*
X113011560Y-59984366D01*
X112997258Y-59972975D01*
X112978365Y-59963927D01*
X112951407Y-59956925D01*
X112912911Y-59951671D01*
X112859403Y-59947867D01*
X112787409Y-59945214D01*
X112693455Y-59943416D01*
X112574070Y-59942175D01*
X112425777Y-59941192D01*
X112352667Y-59940777D01*
X112212205Y-59940190D01*
X112079062Y-59940008D01*
X111957924Y-59940209D01*
X111853478Y-59940772D01*
X111770410Y-59941676D01*
X111713409Y-59942896D01*
X111692267Y-59943871D01*
X111668349Y-59945640D01*
X111647623Y-59947944D01*
X111627156Y-59952211D01*
X111604014Y-59959867D01*
X111575261Y-59972339D01*
X111537965Y-59991055D01*
X111489190Y-60017441D01*
X111426002Y-60052924D01*
X111345467Y-60098930D01*
X111244652Y-60156888D01*
X111192390Y-60186958D01*
X111117278Y-60230170D01*
X111026693Y-60282287D01*
X110929606Y-60338146D01*
X110834986Y-60392589D01*
X110785990Y-60420781D01*
X110711523Y-60464112D01*
X110643930Y-60504343D01*
X110587730Y-60538716D01*
X110547440Y-60564468D01*
X110528212Y-60578261D01*
X110521593Y-60585384D01*
X110516036Y-60595176D01*
X110511450Y-60609346D01*
X110507741Y-60629602D01*
X110504818Y-60657653D01*
X110502588Y-60695208D01*
X110500958Y-60743976D01*
X110499836Y-60805665D01*
X110499130Y-60881984D01*
X110498746Y-60974642D01*
X110498594Y-61085348D01*
X110498579Y-61126115D01*
X110498467Y-61647831D01*
X110498467Y-61647831D01*
X110498467Y-61647831D01*
G37*
X110498467Y-61647831D02*
X110556040Y-61682375D01*
X110613614Y-61716920D01*
X110684734Y-61716880D01*
X110684734Y-61605160D01*
X110684734Y-61113495D01*
X110684734Y-60621830D01*
X111036100Y-60413903D01*
X111134642Y-60355688D01*
X111233296Y-60297586D01*
X111327209Y-60242441D01*
X111411532Y-60193098D01*
X111481410Y-60152401D01*
X111531401Y-60123535D01*
X111675334Y-60041094D01*
X112272234Y-60040807D01*
X112869134Y-60040520D01*
X112869134Y-60822840D01*
X112869134Y-61605160D01*
X111776934Y-61605160D01*
X110684734Y-61605160D01*
X110684734Y-61716880D01*
X111762540Y-61716275D01*
X111957507Y-61716046D01*
X112143042Y-61715597D01*
X112316283Y-61714948D01*
X112474369Y-61714121D01*
X112614439Y-61713139D01*
X112733631Y-61712022D01*
X112829083Y-61710793D01*
X112897935Y-61709473D01*
X112937325Y-61708085D01*
X112945334Y-61707315D01*
X112981943Y-61693539D01*
X113013067Y-61676412D01*
X113019205Y-61671916D01*
X113024553Y-61666266D01*
X113029165Y-61658118D01*
X113033095Y-61646125D01*
X113036399Y-61628940D01*
X113039131Y-61605217D01*
X113041344Y-61573610D01*
X113043094Y-61532772D01*
X113044435Y-61481358D01*
X113045421Y-61418021D01*
X113046106Y-61341414D01*
X113046546Y-61250191D01*
X113046794Y-61143007D01*
X113046905Y-61018514D01*
X113046933Y-60875367D01*
X113046934Y-60838551D01*
X113046836Y-60684931D01*
X113046522Y-60550449D01*
X113045961Y-60433924D01*
X113045121Y-60334173D01*
X113043971Y-60250015D01*
X113042479Y-60180269D01*
X113040616Y-60123753D01*
X113038349Y-60079285D01*
X113035648Y-60045684D01*
X113032480Y-60021768D01*
X113028815Y-60006355D01*
X113024744Y-59998398D01*
X113011560Y-59984366D01*
X112997258Y-59972975D01*
X112978365Y-59963927D01*
X112951407Y-59956925D01*
X112912911Y-59951671D01*
X112859403Y-59947867D01*
X112787409Y-59945214D01*
X112693455Y-59943416D01*
X112574070Y-59942175D01*
X112425777Y-59941192D01*
X112352667Y-59940777D01*
X112212205Y-59940190D01*
X112079062Y-59940008D01*
X111957924Y-59940209D01*
X111853478Y-59940772D01*
X111770410Y-59941676D01*
X111713409Y-59942896D01*
X111692267Y-59943871D01*
X111668349Y-59945640D01*
X111647623Y-59947944D01*
X111627156Y-59952211D01*
X111604014Y-59959867D01*
X111575261Y-59972339D01*
X111537965Y-59991055D01*
X111489190Y-60017441D01*
X111426002Y-60052924D01*
X111345467Y-60098930D01*
X111244652Y-60156888D01*
X111192390Y-60186958D01*
X111117278Y-60230170D01*
X111026693Y-60282287D01*
X110929606Y-60338146D01*
X110834986Y-60392589D01*
X110785990Y-60420781D01*
X110711523Y-60464112D01*
X110643930Y-60504343D01*
X110587730Y-60538716D01*
X110547440Y-60564468D01*
X110528212Y-60578261D01*
X110521593Y-60585384D01*
X110516036Y-60595176D01*
X110511450Y-60609346D01*
X110507741Y-60629602D01*
X110504818Y-60657653D01*
X110502588Y-60695208D01*
X110500958Y-60743976D01*
X110499836Y-60805665D01*
X110499130Y-60881984D01*
X110498746Y-60974642D01*
X110498594Y-61085348D01*
X110498579Y-61126115D01*
X110498467Y-61647831D01*
X110498467Y-61647831D01*
G36*
X108393040Y-60598620D02*
X108393078Y-60639918D01*
X108416822Y-60678184D01*
X108458672Y-60705329D01*
X108521887Y-60719258D01*
X108591948Y-60718168D01*
X108653987Y-60702422D01*
X108658287Y-60700479D01*
X108700462Y-60669542D01*
X108716148Y-60632922D01*
X108708179Y-60595108D01*
X108679386Y-60560589D01*
X108632602Y-60533852D01*
X108570658Y-60519386D01*
X108543170Y-60518040D01*
X108494494Y-60526583D01*
X108445502Y-60548191D01*
X108407438Y-60576827D01*
X108393040Y-60598620D01*
X108393040Y-60598620D01*
X108393040Y-60598620D01*
G37*
X108393040Y-60598620D02*
X108393078Y-60639918D01*
X108416822Y-60678184D01*
X108458672Y-60705329D01*
X108521887Y-60719258D01*
X108591948Y-60718168D01*
X108653987Y-60702422D01*
X108658287Y-60700479D01*
X108700462Y-60669542D01*
X108716148Y-60632922D01*
X108708179Y-60595108D01*
X108679386Y-60560589D01*
X108632602Y-60533852D01*
X108570658Y-60519386D01*
X108543170Y-60518040D01*
X108494494Y-60526583D01*
X108445502Y-60548191D01*
X108407438Y-60576827D01*
X108393040Y-60598620D01*
X108393040Y-60598620D01*
G36*
X110498467Y-60163656D02*
X110498914Y-60230445D01*
X110500514Y-60279801D01*
X110503658Y-60314605D01*
X110508738Y-60337738D01*
X110516144Y-60352083D01*
X110525077Y-60359834D01*
X110547373Y-60371061D01*
X110570621Y-60376521D01*
X110597925Y-60375020D01*
X110632392Y-60365365D01*
X110677126Y-60346363D01*
X110735233Y-60316821D01*
X110809817Y-60275547D01*
X110903986Y-60221346D01*
X110939682Y-60200540D01*
X111033048Y-60145850D01*
X111104767Y-60103237D01*
X111157641Y-60070714D01*
X111194474Y-60046298D01*
X111218069Y-60028004D01*
X111231229Y-60013848D01*
X111236756Y-60001844D01*
X111237453Y-59990009D01*
X111237435Y-59989720D01*
X111235067Y-59954160D01*
X110887973Y-59951401D01*
X110769966Y-59950611D01*
X110681288Y-59950494D01*
X110617411Y-59951229D01*
X110573808Y-59952998D01*
X110545951Y-59955979D01*
X110529312Y-59960353D01*
X110519673Y-59966043D01*
X110511062Y-59980737D01*
X110504829Y-60009749D01*
X110500794Y-60054741D01*
X110498780Y-60117376D01*
X110498467Y-60163656D01*
X110498467Y-60163656D01*
X110498467Y-60163656D01*
G37*
X110498467Y-60163656D02*
X110498914Y-60230445D01*
X110500514Y-60279801D01*
X110503658Y-60314605D01*
X110508738Y-60337738D01*
X110516144Y-60352083D01*
X110525077Y-60359834D01*
X110547373Y-60371061D01*
X110570621Y-60376521D01*
X110597925Y-60375020D01*
X110632392Y-60365365D01*
X110677126Y-60346363D01*
X110735233Y-60316821D01*
X110809817Y-60275547D01*
X110903986Y-60221346D01*
X110939682Y-60200540D01*
X111033048Y-60145850D01*
X111104767Y-60103237D01*
X111157641Y-60070714D01*
X111194474Y-60046298D01*
X111218069Y-60028004D01*
X111231229Y-60013848D01*
X111236756Y-60001844D01*
X111237453Y-59990009D01*
X111237435Y-59989720D01*
X111235067Y-59954160D01*
X110887973Y-59951401D01*
X110769966Y-59950611D01*
X110681288Y-59950494D01*
X110617411Y-59951229D01*
X110573808Y-59952998D01*
X110545951Y-59955979D01*
X110529312Y-59960353D01*
X110519673Y-59966043D01*
X110511062Y-59980737D01*
X110504829Y-60009749D01*
X110500794Y-60054741D01*
X110498780Y-60117376D01*
X110498467Y-60163656D01*
X110498467Y-60163656D01*
G36*
X110803267Y-61198760D02*
X110804575Y-61205588D01*
X110811371Y-61210687D01*
X110827967Y-61214307D01*
X110858673Y-61216703D01*
X110907800Y-61218125D01*
X110979660Y-61218826D01*
X111078563Y-61219059D01*
X111150400Y-61219080D01*
X111497534Y-61219080D01*
X111497534Y-61341000D01*
X111497866Y-61392465D01*
X111499487Y-61426980D01*
X111503330Y-61447910D01*
X111510333Y-61458623D01*
X111521430Y-61462486D01*
X111531401Y-61462920D01*
X111544802Y-61461864D01*
X111554109Y-61456617D01*
X111560065Y-61444055D01*
X111563414Y-61421055D01*
X111564899Y-61384495D01*
X111565263Y-61331252D01*
X111565267Y-61320680D01*
X111565267Y-61178440D01*
X111184267Y-61178440D01*
X111061328Y-61178505D01*
X110968140Y-61178846D01*
X110900586Y-61179683D01*
X110854550Y-61181236D01*
X110825916Y-61183724D01*
X110810569Y-61187366D01*
X110804391Y-61192383D01*
X110803267Y-61198760D01*
X110803267Y-61198760D01*
X110803267Y-61198760D01*
G37*
X110803267Y-61198760D02*
X110804575Y-61205588D01*
X110811371Y-61210687D01*
X110827967Y-61214307D01*
X110858673Y-61216703D01*
X110907800Y-61218125D01*
X110979660Y-61218826D01*
X111078563Y-61219059D01*
X111150400Y-61219080D01*
X111497534Y-61219080D01*
X111497534Y-61341000D01*
X111497866Y-61392465D01*
X111499487Y-61426980D01*
X111503330Y-61447910D01*
X111510333Y-61458623D01*
X111521430Y-61462486D01*
X111531401Y-61462920D01*
X111544802Y-61461864D01*
X111554109Y-61456617D01*
X111560065Y-61444055D01*
X111563414Y-61421055D01*
X111564899Y-61384495D01*
X111565263Y-61331252D01*
X111565267Y-61320680D01*
X111565267Y-61178440D01*
X111184267Y-61178440D01*
X111061328Y-61178505D01*
X110968140Y-61178846D01*
X110900586Y-61179683D01*
X110854550Y-61181236D01*
X110825916Y-61183724D01*
X110810569Y-61187366D01*
X110804391Y-61192383D01*
X110803267Y-61198760D01*
X110803267Y-61198760D01*
G36*
X110786288Y-60838746D02*
X110875743Y-60891753D01*
X110922798Y-60918914D01*
X110957099Y-60934730D01*
X110958876Y-60935139D01*
X110958876Y-60842787D01*
X110964520Y-60826875D01*
X110966314Y-60825106D01*
X110979925Y-60817155D01*
X111005121Y-60811690D01*
X111048012Y-60808110D01*
X111114707Y-60805812D01*
X111173373Y-60804727D01*
X111362067Y-60801854D01*
X111362067Y-60837747D01*
X111362067Y-60873640D01*
X111188501Y-60873316D01*
X111097708Y-60872131D01*
X111035263Y-60868702D01*
X110995784Y-60862628D01*
X110981441Y-60857803D01*
X110958876Y-60842787D01*
X110958876Y-60935139D01*
X110989766Y-60942266D01*
X111031916Y-60944590D01*
X111067898Y-60944760D01*
X111134261Y-60943984D01*
X111218635Y-60941926D01*
X111305283Y-60938989D01*
X111325599Y-60938158D01*
X111480601Y-60931557D01*
X111480601Y-60902333D01*
X111480601Y-60873110D01*
X111738834Y-60875915D01*
X111997067Y-60878720D01*
X111997641Y-60911766D01*
X112002990Y-60932071D01*
X112021446Y-60953365D01*
X112057725Y-60980036D01*
X112098711Y-61005746D01*
X112199207Y-61066680D01*
X112099611Y-61127067D01*
X112053107Y-61156010D01*
X112022356Y-61179222D01*
X112003997Y-61202229D01*
X111994670Y-61230560D01*
X111991012Y-61269745D01*
X111990012Y-61307336D01*
X111988600Y-61380352D01*
X111933567Y-61383536D01*
X111893470Y-61389294D01*
X111880576Y-61401688D01*
X111880650Y-61404500D01*
X111883774Y-61429284D01*
X111884884Y-61437520D01*
X111892144Y-61444986D01*
X111915292Y-61449632D01*
X111960157Y-61452030D01*
X112032568Y-61452756D01*
X112039400Y-61452760D01*
X112191800Y-61452760D01*
X112191800Y-61417200D01*
X112188969Y-61393308D01*
X112174605Y-61383509D01*
X112141000Y-61381640D01*
X112090200Y-61381640D01*
X112090200Y-61302260D01*
X112091154Y-61261399D01*
X112095747Y-61235018D01*
X112106572Y-61217287D01*
X112126227Y-61202378D01*
X112137694Y-61195580D01*
X112176535Y-61175146D01*
X112198087Y-61170662D01*
X112207182Y-61182688D01*
X112208734Y-61203840D01*
X112211589Y-61227739D01*
X112225926Y-61237542D01*
X112258792Y-61239400D01*
X112308850Y-61239400D01*
X112313825Y-61165740D01*
X112318801Y-61092080D01*
X112517767Y-61089217D01*
X112716734Y-61086355D01*
X112716734Y-61056197D01*
X112716734Y-61026040D01*
X112513534Y-61026040D01*
X112310334Y-61026040D01*
X112310334Y-60954920D01*
X112310334Y-60883800D01*
X112259534Y-60883800D01*
X112226960Y-60885404D01*
X112212480Y-60894101D01*
X112208814Y-60915713D01*
X112208734Y-60924440D01*
X112205154Y-60953465D01*
X112192235Y-60963364D01*
X112166705Y-60955001D01*
X112143952Y-60941565D01*
X112126610Y-60928267D01*
X112115706Y-60912066D01*
X112109798Y-60888186D01*
X112107443Y-60851850D01*
X112107134Y-60819645D01*
X112107134Y-60721240D01*
X112157934Y-60721240D01*
X112208734Y-60721240D01*
X112208734Y-60559323D01*
X112208734Y-60397407D01*
X112153700Y-60394223D01*
X112098667Y-60391040D01*
X112093928Y-60261500D01*
X112089189Y-60131960D01*
X112038895Y-60131960D01*
X111988600Y-60131960D01*
X111988600Y-60264040D01*
X111988600Y-60396120D01*
X111937800Y-60396120D01*
X111887000Y-60396120D01*
X111887000Y-60558036D01*
X111887000Y-60719952D01*
X111942034Y-60723136D01*
X111976882Y-60726803D01*
X111988600Y-60733517D01*
X111988600Y-60660280D01*
X111988600Y-60558680D01*
X111988600Y-60457080D01*
X112039400Y-60457080D01*
X112090200Y-60457080D01*
X112090200Y-60558680D01*
X112090200Y-60660280D01*
X112039400Y-60660280D01*
X111988600Y-60660280D01*
X111988600Y-60733517D01*
X111993818Y-60736507D01*
X112000783Y-60758360D01*
X112002274Y-60769500D01*
X112007481Y-60812679D01*
X111744041Y-60812680D01*
X111480601Y-60812680D01*
X111480601Y-60772040D01*
X111480601Y-60731400D01*
X111221789Y-60731400D01*
X110962977Y-60731400D01*
X110874632Y-60785073D01*
X110786288Y-60838746D01*
X110786288Y-60838746D01*
X110786288Y-60838746D01*
G37*
X110786288Y-60838746D02*
X110875743Y-60891753D01*
X110922798Y-60918914D01*
X110957099Y-60934730D01*
X110958876Y-60935139D01*
X110958876Y-60842787D01*
X110964520Y-60826875D01*
X110966314Y-60825106D01*
X110979925Y-60817155D01*
X111005121Y-60811690D01*
X111048012Y-60808110D01*
X111114707Y-60805812D01*
X111173373Y-60804727D01*
X111362067Y-60801854D01*
X111362067Y-60837747D01*
X111362067Y-60873640D01*
X111188501Y-60873316D01*
X111097708Y-60872131D01*
X111035263Y-60868702D01*
X110995784Y-60862628D01*
X110981441Y-60857803D01*
X110958876Y-60842787D01*
X110958876Y-60935139D01*
X110989766Y-60942266D01*
X111031916Y-60944590D01*
X111067898Y-60944760D01*
X111134261Y-60943984D01*
X111218635Y-60941926D01*
X111305283Y-60938989D01*
X111325599Y-60938158D01*
X111480601Y-60931557D01*
X111480601Y-60902333D01*
X111480601Y-60873110D01*
X111738834Y-60875915D01*
X111997067Y-60878720D01*
X111997641Y-60911766D01*
X112002990Y-60932071D01*
X112021446Y-60953365D01*
X112057725Y-60980036D01*
X112098711Y-61005746D01*
X112199207Y-61066680D01*
X112099611Y-61127067D01*
X112053107Y-61156010D01*
X112022356Y-61179222D01*
X112003997Y-61202229D01*
X111994670Y-61230560D01*
X111991012Y-61269745D01*
X111990012Y-61307336D01*
X111988600Y-61380352D01*
X111933567Y-61383536D01*
X111893470Y-61389294D01*
X111880576Y-61401688D01*
X111880650Y-61404500D01*
X111883774Y-61429284D01*
X111884884Y-61437520D01*
X111892144Y-61444986D01*
X111915292Y-61449632D01*
X111960157Y-61452030D01*
X112032568Y-61452756D01*
X112039400Y-61452760D01*
X112191800Y-61452760D01*
X112191800Y-61417200D01*
X112188969Y-61393308D01*
X112174605Y-61383509D01*
X112141000Y-61381640D01*
X112090200Y-61381640D01*
X112090200Y-61302260D01*
X112091154Y-61261399D01*
X112095747Y-61235018D01*
X112106572Y-61217287D01*
X112126227Y-61202378D01*
X112137694Y-61195580D01*
X112176535Y-61175146D01*
X112198087Y-61170662D01*
X112207182Y-61182688D01*
X112208734Y-61203840D01*
X112211589Y-61227739D01*
X112225926Y-61237542D01*
X112258792Y-61239400D01*
X112308850Y-61239400D01*
X112313825Y-61165740D01*
X112318801Y-61092080D01*
X112517767Y-61089217D01*
X112716734Y-61086355D01*
X112716734Y-61056197D01*
X112716734Y-61026040D01*
X112513534Y-61026040D01*
X112310334Y-61026040D01*
X112310334Y-60954920D01*
X112310334Y-60883800D01*
X112259534Y-60883800D01*
X112226960Y-60885404D01*
X112212480Y-60894101D01*
X112208814Y-60915713D01*
X112208734Y-60924440D01*
X112205154Y-60953465D01*
X112192235Y-60963364D01*
X112166705Y-60955001D01*
X112143952Y-60941565D01*
X112126610Y-60928267D01*
X112115706Y-60912066D01*
X112109798Y-60888186D01*
X112107443Y-60851850D01*
X112107134Y-60819645D01*
X112107134Y-60721240D01*
X112157934Y-60721240D01*
X112208734Y-60721240D01*
X112208734Y-60559323D01*
X112208734Y-60397407D01*
X112153700Y-60394223D01*
X112098667Y-60391040D01*
X112093928Y-60261500D01*
X112089189Y-60131960D01*
X112038895Y-60131960D01*
X111988600Y-60131960D01*
X111988600Y-60264040D01*
X111988600Y-60396120D01*
X111937800Y-60396120D01*
X111887000Y-60396120D01*
X111887000Y-60558036D01*
X111887000Y-60719952D01*
X111942034Y-60723136D01*
X111976882Y-60726803D01*
X111988600Y-60733517D01*
X111988600Y-60660280D01*
X111988600Y-60558680D01*
X111988600Y-60457080D01*
X112039400Y-60457080D01*
X112090200Y-60457080D01*
X112090200Y-60558680D01*
X112090200Y-60660280D01*
X112039400Y-60660280D01*
X111988600Y-60660280D01*
X111988600Y-60733517D01*
X111993818Y-60736507D01*
X112000783Y-60758360D01*
X112002274Y-60769500D01*
X112007481Y-60812679D01*
X111744041Y-60812680D01*
X111480601Y-60812680D01*
X111480601Y-60772040D01*
X111480601Y-60731400D01*
X111221789Y-60731400D01*
X110962977Y-60731400D01*
X110874632Y-60785073D01*
X110786288Y-60838746D01*
X110786288Y-60838746D01*
G36*
X110820200Y-61452760D02*
X110921800Y-61452760D01*
X111023400Y-61452760D01*
X111023400Y-61417200D01*
X111023400Y-61381640D01*
X110921800Y-61381640D01*
X110820200Y-61381640D01*
X110820200Y-61417200D01*
X110820200Y-61452760D01*
X110820200Y-61452760D01*
X110820200Y-61452760D01*
G37*
X110820200Y-61452760D02*
X110921800Y-61452760D01*
X111023400Y-61452760D01*
X111023400Y-61417200D01*
X111023400Y-61381640D01*
X110921800Y-61381640D01*
X110820200Y-61381640D01*
X110820200Y-61417200D01*
X110820200Y-61452760D01*
X110820200Y-61452760D01*
G36*
X111243534Y-61417200D02*
X111245464Y-61430853D01*
X111256355Y-61438459D01*
X111283858Y-61441780D01*
X111335624Y-61442585D01*
X111353601Y-61442600D01*
X111412768Y-61442154D01*
X111445723Y-61439641D01*
X111460118Y-61433294D01*
X111463604Y-61421348D01*
X111463667Y-61417200D01*
X111461737Y-61403546D01*
X111450846Y-61395940D01*
X111423343Y-61392619D01*
X111371577Y-61391814D01*
X111353601Y-61391800D01*
X111294433Y-61392245D01*
X111261478Y-61394758D01*
X111247083Y-61401105D01*
X111243597Y-61413051D01*
X111243534Y-61417200D01*
X111243534Y-61417200D01*
X111243534Y-61417200D01*
G37*
X111243534Y-61417200D02*
X111245464Y-61430853D01*
X111256355Y-61438459D01*
X111283858Y-61441780D01*
X111335624Y-61442585D01*
X111353601Y-61442600D01*
X111412768Y-61442154D01*
X111445723Y-61439641D01*
X111460118Y-61433294D01*
X111463604Y-61421348D01*
X111463667Y-61417200D01*
X111461737Y-61403546D01*
X111450846Y-61395940D01*
X111423343Y-61392619D01*
X111371577Y-61391814D01*
X111353601Y-61391800D01*
X111294433Y-61392245D01*
X111261478Y-61394758D01*
X111247083Y-61401105D01*
X111243597Y-61413051D01*
X111243534Y-61417200D01*
X111243534Y-61417200D01*
G36*
X111243534Y-61274960D02*
X111245685Y-61289037D01*
X111257440Y-61296637D01*
X111286752Y-61299748D01*
X111341573Y-61300359D01*
X111345134Y-61300360D01*
X111401442Y-61299822D01*
X111431843Y-61296883D01*
X111444288Y-61289555D01*
X111446732Y-61275850D01*
X111446734Y-61274960D01*
X111444583Y-61260882D01*
X111432827Y-61253282D01*
X111403516Y-61250171D01*
X111348695Y-61249560D01*
X111345134Y-61249560D01*
X111288826Y-61250097D01*
X111258425Y-61253036D01*
X111245979Y-61260364D01*
X111243536Y-61274069D01*
X111243534Y-61274960D01*
X111243534Y-61274960D01*
X111243534Y-61274960D01*
G37*
X111243534Y-61274960D02*
X111245685Y-61289037D01*
X111257440Y-61296637D01*
X111286752Y-61299748D01*
X111341573Y-61300359D01*
X111345134Y-61300360D01*
X111401442Y-61299822D01*
X111431843Y-61296883D01*
X111444288Y-61289555D01*
X111446732Y-61275850D01*
X111446734Y-61274960D01*
X111444583Y-61260882D01*
X111432827Y-61253282D01*
X111403516Y-61250171D01*
X111348695Y-61249560D01*
X111345134Y-61249560D01*
X111288826Y-61250097D01*
X111258425Y-61253036D01*
X111245979Y-61260364D01*
X111243536Y-61274069D01*
X111243534Y-61274960D01*
X111243534Y-61274960D01*
G36*
X110822246Y-61288288D02*
X110829605Y-61295004D01*
X110851580Y-61298612D01*
X110894419Y-61300076D01*
X110964370Y-61300359D01*
X110971423Y-61300360D01*
X111043899Y-61300170D01*
X111089002Y-61298874D01*
X111113223Y-61295381D01*
X111123054Y-61288602D01*
X111124990Y-61277444D01*
X111125000Y-61274564D01*
X111125000Y-61248768D01*
X110976834Y-61251704D01*
X110905575Y-61253468D01*
X110861351Y-61256073D01*
X110837334Y-61260668D01*
X110826696Y-61268400D01*
X110823256Y-61277500D01*
X110822246Y-61288288D01*
X110822246Y-61288288D01*
X110822246Y-61288288D01*
G37*
X110822246Y-61288288D02*
X110829605Y-61295004D01*
X110851580Y-61298612D01*
X110894419Y-61300076D01*
X110964370Y-61300359D01*
X110971423Y-61300360D01*
X111043899Y-61300170D01*
X111089002Y-61298874D01*
X111113223Y-61295381D01*
X111123054Y-61288602D01*
X111124990Y-61277444D01*
X111125000Y-61274564D01*
X111125000Y-61248768D01*
X110976834Y-61251704D01*
X110905575Y-61253468D01*
X110861351Y-61256073D01*
X110837334Y-61260668D01*
X110826696Y-61268400D01*
X110823256Y-61277500D01*
X110822246Y-61288288D01*
X110822246Y-61288288D01*
D11*
X121406581Y-63238324D02*
X120406581Y-63238324D01*
X120406581Y-63619277D01*
X120454200Y-63714515D01*
X120501819Y-63762134D01*
X120597057Y-63809753D01*
X120739914Y-63809753D01*
X120835152Y-63762134D01*
X120882771Y-63714515D01*
X120930390Y-63619277D01*
X120930390Y-63238324D01*
X121406581Y-64762134D02*
X121406581Y-64190705D01*
X121406581Y-64476419D02*
X120406581Y-64476419D01*
X120549438Y-64381181D01*
X120644676Y-64285943D01*
X120692295Y-64190705D01*
X120406581Y-65381181D02*
X120406581Y-65476420D01*
X120454200Y-65571658D01*
X120501819Y-65619277D01*
X120597057Y-65666896D01*
X120787533Y-65714515D01*
X121025629Y-65714515D01*
X121216105Y-65666896D01*
X121311343Y-65619277D01*
X121358962Y-65571658D01*
X121406581Y-65476420D01*
X121406581Y-65381181D01*
X121358962Y-65285943D01*
X121311343Y-65238324D01*
X121216105Y-65190705D01*
X121025629Y-65143086D01*
X120787533Y-65143086D01*
X120597057Y-65190705D01*
X120501819Y-65238324D01*
X120454200Y-65285943D01*
X120406581Y-65381181D01*
X120501819Y-66095467D02*
X120454200Y-66143086D01*
X120406581Y-66238324D01*
X120406581Y-66476420D01*
X120454200Y-66571658D01*
X120501819Y-66619277D01*
X120597057Y-66666896D01*
X120692295Y-66666896D01*
X120835152Y-66619277D01*
X121406581Y-66047848D01*
X121406581Y-66666896D01*
%LPC*%
D13*
X113385600Y-81483200D03*
D14*
X110845600Y-81483200D03*
D15*
X118154200Y-65328800D03*
D16*
X116154200Y-65328800D03*
D17*
X95730600Y-60490100D03*
D18*
X89130600Y-60490100D03*
D19*
X109412498Y-67819998D03*
X116596702Y-75004202D03*
M02*
